<?xml version="1.0" standalone="no"?>
<!DOCTYPE svg PUBLIC "-//W3C//DTD SVG 1.1//EN" "http://www.w3.org/Graphics/SVG/1.1/DTD/svg11.dtd" >
<svg xmlns="http://www.w3.org/2000/svg" xmlns:xlink="http://www.w3.org/1999/xlink" version="1.1">
<metadata></metadata>
<defs>
<font id="greycliff_cflight" horiz-adv-x="1167" >
<font-face units-per-em="2048" ascent="1638" descent="-410" />
<missing-glyph horiz-adv-x="532" />
<glyph unicode="&#xfb01;" horiz-adv-x="985" d="M606 1475q21 -12 21 -37v-49q0 -40 -37 -21q-2 1 -14.5 6.5t-15.5 7t-13.5 6t-16.5 6t-15.5 3.5t-18.5 3t-19 1q-80 0 -110.5 -37t-30.5 -115v-245h213q13 0 22 -9t9 -22v-45q0 -14 -9 -22.5t-22 -8.5h-213v-866q0 -13 -9 -22t-22 -9h-61q-14 0 -22.5 9t-8.5 22v866h-119 q-14 0 -22.5 8.5t-8.5 22.5v45q0 13 8.5 22t22.5 9h119v247q0 127 62.5 191.5t203.5 64.5q72 0 127 -32zM821 1255q-35 0 -59.5 24.5t-24.5 61.5q0 35 24.5 59.5t59.5 24.5q37 0 61.5 -24.5t24.5 -59.5q0 -37 -24.5 -61.5t-61.5 -24.5zM854 1004q14 0 22.5 -9t8.5 -22v-942 q0 -13 -8.5 -22t-22.5 -9h-61q-13 0 -22 9t-9 22v942q0 13 9 22t22 9h61z" />
<glyph unicode="&#xfb02;" horiz-adv-x="1009" d="M606 1475q21 -12 21 -37v-49q0 -40 -37 -21q-2 1 -14.5 6.5t-15.5 7t-13.5 6t-16.5 6t-15.5 3.5t-18.5 3t-19 1q-80 0 -110.5 -37t-30.5 -115v-245h213q13 0 22 -9t9 -22v-45q0 -14 -9 -22.5t-22 -8.5h-213v-866q0 -13 -9 -22t-22 -9h-61q-14 0 -22.5 9t-8.5 22v866h-119 q-14 0 -22.5 8.5t-8.5 22.5v45q0 13 8.5 22t22.5 9h119v247q0 127 62.5 191.5t203.5 64.5q72 0 127 -32zM874 1495q14 0 22.5 -8.5t8.5 -22.5v-1433q0 -13 -8.5 -22t-22.5 -9h-61q-13 0 -22 9t-9 22v1433q0 14 9 22.5t22 8.5h61z" />
<glyph horiz-adv-x="0" />
<glyph horiz-adv-x="682" />
<glyph unicode=" "  horiz-adv-x="532" />
<glyph unicode="&#x09;" horiz-adv-x="532" />
<glyph unicode="&#xa0;" horiz-adv-x="532" />
<glyph unicode="!" horiz-adv-x="432" d="M293 1370l-41 -960q1 -14 -9 -22.5t-24 -8.5h-8q-14 0 -23.5 8.5t-9.5 22.5l-41 960q0 32 24 56t54 24q31 0 54.5 -24t23.5 -56zM217 -27q-37 0 -61.5 24.5t-24.5 61.5q0 35 24.5 59.5t61.5 24.5q35 0 59.5 -24.5t24.5 -59.5q0 -37 -24.5 -61.5t-59.5 -24.5z" />
<glyph unicode="&#x22;" horiz-adv-x="466" d="M162 1434q28 0 31 -31l-11 -387q0 -14 -8.5 -22.5t-21.5 -8.5h-37q-13 0 -22 8.5t-9 22.5l-10 387q0 14 8.5 22.5t21.5 8.5h58zM362 1434q28 0 31 -31l-10 -387q0 -14 -8.5 -22.5t-22.5 -8.5h-37q-13 0 -21.5 8.5t-8.5 22.5l-11 387q0 13 9 22t22 9h57z" />
<glyph unicode="#" horiz-adv-x="1073" d="M922 1030h-146v-463h146q14 0 26.5 -8.5t12.5 -21.5v-52q0 -13 -12.5 -21.5t-26.5 -8.5h-146v-260q0 -13 -9 -22t-22 -9h-59q-14 0 -22.5 9t-8.5 22v260h-245v-260q0 -13 -9 -22t-22 -9h-60q-13 0 -21.5 8.5t-8.5 22.5v260h-146q-13 0 -21.5 8.5t-8.5 21.5v52 q0 13 8.5 21.5t21.5 8.5h146v463h-146q-13 0 -21.5 8.5t-8.5 22.5v51q0 14 8.5 22.5t21.5 8.5h146v260q0 14 8.5 22.5t21.5 8.5h60q13 0 22 -9t9 -22v-260h245v260q0 13 8.5 22t22.5 9h59q13 0 22 -9t9 -22v-260h146q14 0 26.5 -9t12.5 -22v-51q0 -13 -12.5 -22t-26.5 -9z M655 567v463h-245v-463h245z" />
<glyph unicode="$" horiz-adv-x="1054" d="M981 360q0 -144 -113 -254t-284 -129v-131q0 -13 -8.5 -21.5t-22.5 -8.5h-49q-14 0 -22.5 8.5t-8.5 21.5v129q-124 10 -224.5 67t-166.5 146q-13 23 8 41l43 37q21 18 43 -4q145 -172 342 -172q151 0 243.5 81.5t92.5 199.5q0 59 -25.5 107t-69 81.5t-99.5 62t-118 53.5 t-124 51t-118 60t-99.5 75t-69 101t-25.5 134q0 143 103 242.5t264 109.5v139q0 13 8.5 22t22.5 9h49q13 0 22 -9t9 -22v-143q94 -14 179.5 -63t145.5 -124q18 -21 -4 -43l-35 -30q-22 -22 -43 -2q-71 76 -147 114.5t-170 38.5q-122 0 -202.5 -63.5t-80.5 -177.5 q0 -57 26 -103.5t69.5 -79t100 -60t119 -53t125 -52t119 -62t100 -78.5t69.5 -106t26 -140z" />
<glyph unicode="%" horiz-adv-x="1449" d="M1155 1446l80 -57l-940 -1401l-80 57zM360 1444q116 0 198.5 -80.5t82.5 -196.5t-82.5 -197t-198.5 -81q-114 0 -196 81t-82 197t82 196.5t196 80.5zM360 1350q-77 0 -130.5 -52t-53.5 -131q0 -81 53 -132.5t131 -51.5q79 0 134 52t55 132q0 79 -55 131t-134 52z M1090 545q115 0 196.5 -81.5t81.5 -197.5t-81.5 -196t-196.5 -80q-116 0 -198.5 80t-82.5 196t82.5 197.5t198.5 81.5zM1090 451q-79 0 -133 -52t-54 -133q0 -79 54 -130.5t133 -51.5q78 0 132 52t54 130q0 80 -54 132.5t-132 52.5z" />
<glyph unicode="&#x26;" horiz-adv-x="1292" d="M1241 86q20 -24 -2 -43l-39 -39q-23 -23 -43 0l-158 174q-217 -196 -456 -196q-129 0 -231 43t-165 133t-63 215q0 62 20 118.5t48.5 99t77 88t88.5 75t100 69.5q-83 98 -130.5 181.5t-47.5 160.5q0 115 83.5 200t221.5 85t227.5 -86t89.5 -199q0 -56 -20.5 -107t-62 -96 t-83 -80t-102.5 -77l412 -459q52 56 96 111q19 26 43 2l37 -37q24 -20 4 -43q-65 -77 -103 -117zM360 1167q0 -108 156 -276q109 73 166 136t57 140q0 71 -56.5 117.5t-137.5 46.5q-76 0 -130.5 -46.5t-54.5 -117.5zM539 100q194 0 383 164l-422 469l-4 4 q-67 -45 -110 -79.5t-88 -80.5t-67 -96.5t-22 -105.5q0 -86 47.5 -150t121.5 -94.5t161 -30.5z" />
<glyph unicode="'" horiz-adv-x="266" d="M162 1434q28 0 31 -31l-11 -387q0 -14 -8.5 -22.5t-21.5 -8.5h-37q-13 0 -22 8.5t-9 22.5l-10 387q0 14 8.5 22.5t21.5 8.5h58z" />
<glyph unicode="(" horiz-adv-x="526" d="M397 1526q17 0 23.5 -10t-0.5 -27q-90 -176 -138.5 -391.5t-48.5 -442.5q0 -243 48 -470.5t139 -413.5q7 -17 0.5 -27t-23.5 -10h-61q-26 0 -37 20q-197 346 -197 901q0 238 49.5 457t147.5 393q12 21 37 21h61z" />
<glyph unicode=")" horiz-adv-x="526" d="M129 1526h61q25 0 37 -21q98 -174 147.5 -393t49.5 -457q0 -555 -197 -901q-11 -20 -37 -20h-61q-17 0 -23.5 10t0.5 27q91 186 139 413.5t48 470.5q0 227 -48.5 442.5t-138.5 391.5q-7 17 -0.5 27t23.5 10z" />
<glyph unicode="*" horiz-adv-x="876" d="M473 1419l-4 -215h-61l-5 215h70zM170 1247l213 -65l-12 -54l-217 58zM707 1247l16 -61l-215 -58l-14 54zM379 1094l43 -37l-123 -180l-55 38zM498 1094l135 -179l-55 -38l-123 180z" />
<glyph unicode="+" horiz-adv-x="821" d="M678 637q14 0 22.5 -8.5t8.5 -22.5v-51q0 -13 -8.5 -22t-22.5 -9h-209v-211q0 -13 -8.5 -21.5t-22.5 -8.5h-51q-14 0 -22.5 8.5t-8.5 21.5v211h-213q-13 0 -21.5 8.5t-8.5 22.5v51q0 14 8.5 22.5t21.5 8.5h213v211q0 14 9 22.5t22 8.5h51q14 0 22.5 -8.5t8.5 -22.5v-211 h209z" />
<glyph unicode="," horiz-adv-x="315" d="M158 143q37 0 61.5 -27.5t24.5 -76.5q0 -115 -86 -223q-3 -6 -11 -6h-22q-5 0 -7 4t1 8q39 76 39 151q-37 0 -61.5 24.5t-24.5 61.5q0 35 24.5 59.5t61.5 24.5z" />
<glyph unicode="-" horiz-adv-x="798" d="M676 637q14 0 22.5 -8.5t8.5 -22.5v-49q0 -13 -8.5 -22t-22.5 -9h-553q-13 0 -22 9t-9 22v49q0 14 9 22.5t22 8.5h553z" />
<glyph unicode="." horiz-adv-x="313" d="M158 -27q-37 0 -61.5 24.5t-24.5 61.5q0 35 24.5 59.5t61.5 24.5q35 0 59.5 -24.5t24.5 -59.5q0 -37 -24.5 -61.5t-59.5 -24.5z" />
<glyph unicode="/" horiz-adv-x="833" d="M784 1526q37 0 25 -35l-672 -1733q-9 -24 -37 -24h-51q-36 0 -24 35l671 1732q9 25 37 25h51z" />
<glyph unicode="0" horiz-adv-x="1202" d="M600 1450q247 0 386.5 -195t139.5 -544q0 -347 -140 -542.5t-386 -195.5q-245 0 -385.5 196t-140.5 542q0 349 140 544t386 195zM600 1339q-188 0 -297.5 -164t-109.5 -464q0 -298 110 -462.5t297 -164.5q189 0 299.5 164.5t110.5 462.5q0 300 -110.5 464t-299.5 164z " />
<glyph unicode="1" horiz-adv-x="477" d="M342 1434q14 0 22.5 -9t8.5 -22v-1372q0 -13 -8.5 -22t-22.5 -9h-61q-13 0 -22 9t-9 22v1292h-146q-13 0 -21.5 8.5t-8.5 22.5v49q0 14 8.5 22.5t21.5 8.5h238z" />
<glyph unicode="2" horiz-adv-x="1026" d="M911 111q13 0 22 -8.5t9 -22.5v-49q0 -13 -9 -22t-22 -9h-796q-13 0 -22 9t-9 22v80l377 385q76 78 115 119t88.5 96.5t72.5 89.5t46.5 76.5t31.5 79t8 77.5q0 136 -81.5 220.5t-237.5 84.5q-48 0 -93 -10.5t-74 -22.5t-64 -36.5t-48 -35.5t-41 -36q-24 -21 -45 0l-33 29 q-21 21 -2 43q71 82 178 131t220 49q139 0 240.5 -57t150.5 -150.5t49 -210.5q0 -86 -42.5 -175t-115 -177.5t-202.5 -220.5l-342 -348h671z" />
<glyph unicode="3" horiz-adv-x="1026" d="M688 772q116 -47 191 -143.5t75 -218.5q0 -190 -135.5 -313.5t-329.5 -123.5q-255 0 -409 179q-19 22 2 43l33 28q23 23 45 0q26 -28 50.5 -47.5t64.5 -43t96 -36t123 -12.5q145 0 245.5 89t100.5 233q0 97 -55 167.5t-142 104.5t-197 37q-30 0 -30 30v46q0 32 30 32 q152 4 243 81t91 188q0 108 -87 178.5t-201 70.5q-52 0 -98 -12.5t-83 -36.5t-60 -44t-50 -48q-23 -22 -45 0l-31 31q-21 21 -2 43q70 83 165 129.5t199 46.5q106 0 200 -46.5t152 -131.5t58 -187q0 -98 -57.5 -181.5t-151.5 -131.5z" />
<glyph unicode="4" horiz-adv-x="985" d="M883 504q13 0 21.5 -8.5t8.5 -22.5v-47q0 -14 -8.5 -22.5t-21.5 -8.5h-148v-364q0 -14 -8.5 -22.5t-21.5 -8.5h-62q-13 0 -22 9t-9 22v364h-522q-14 0 -22.5 8.5t-8.5 22.5v57q0 21 11 39l530 891q12 21 37 21h68q13 0 21.5 -8.5t8.5 -22.5v-899h148zM612 504v725 l-430 -725h430z" />
<glyph unicode="5" horiz-adv-x="1048" d="M502 930q88 0 171 -34t148 -93.5t104.5 -149.5t39.5 -194q0 -145 -67.5 -257t-176.5 -169.5t-238 -57.5q-127 0 -231.5 53.5t-159.5 127.5q-17 26 6 43l37 34q26 19 45 -6q123 -141 305 -141q91 0 172.5 44t135 131t53.5 198q0 80 -32.5 149.5t-84.5 114t-113.5 69.5 t-121.5 25q-184 0 -297 -139q-16 -22 -41 -10l-45 24q-26 17 -21 41l176 674q7 27 33 27h549q14 0 22.5 -9t8.5 -22v-45q0 -14 -8.5 -22.5t-22.5 -8.5h-492l-125 -481q109 84 271 84z" />
<glyph unicode="6" horiz-adv-x="1040" d="M522 907q194 0 325.5 -134.5t131.5 -330.5q0 -128 -59.5 -235.5t-165 -170.5t-232.5 -63t-233 63t-166 171t-60 235q0 165 121 332l502 682q18 24 43 6l39 -32q11 -6 13 -19t-7 -25l-366 -495q62 16 114 16zM522 84q146 0 243 100.5t97 257.5q0 153 -97.5 254t-242.5 101 q-146 0 -243 -100.5t-97 -254.5q0 -157 96.5 -257.5t243.5 -100.5z" />
<glyph unicode="7" horiz-adv-x="956" d="M889 1434q14 0 21 -9t3 -22l-538 -1372q-10 -31 -37 -31h-57q-14 0 -21.5 9t-3.5 22l512 1292h-664q-13 0 -21.5 8.5t-8.5 22.5v49q0 14 8.5 22.5t21.5 8.5h785z" />
<glyph unicode="8" horiz-adv-x="1058" d="M694 791q117 -44 199 -152t82 -246q0 -124 -62 -221.5t-162.5 -148t-220.5 -50.5q-90 0 -171 30t-142 83.5t-97 133t-36 173.5q0 138 82 246t199 152q-99 45 -153 129t-54 182q0 140 104.5 244t267.5 104t268 -104t105 -244q0 -98 -54.5 -182t-154.5 -129zM268 1110 q-3 -108 74.5 -182t187.5 -74t187 74t76 182q-3 102 -73 171t-190 69t-190 -69.5t-72 -170.5zM530 84q139 0 234.5 84t95.5 227q0 138 -96 230t-234 92q-139 0 -235 -92t-96 -230q0 -142 95.5 -226.5t235.5 -84.5z" />
<glyph unicode="9" horiz-adv-x="1038" d="M516 1450q127 0 233 -63t166 -171t60 -235q0 -165 -121 -332l-502 -682q-18 -24 -43 -6l-39 33q-11 6 -13 18.5t7 24.5l367 495q-62 -16 -115 -16q-194 0 -325.5 134.5t-131.5 330.5q0 128 59.5 235.5t165 170.5t232.5 63zM516 627q147 0 243.5 100.5t96.5 253.5 q0 157 -96.5 257.5t-243.5 100.5q-146 0 -243 -100.5t-97 -257.5q0 -153 97.5 -253.5t242.5 -100.5z" />
<glyph unicode=":" horiz-adv-x="313" d="M158 938q-37 0 -61.5 24.5t-24.5 61.5q0 35 24.5 59.5t61.5 24.5q35 0 59.5 -24.5t24.5 -59.5q0 -37 -24.5 -61.5t-59.5 -24.5zM158 -27q-37 0 -61.5 24.5t-24.5 61.5q0 35 24.5 59.5t61.5 24.5q35 0 59.5 -24.5t24.5 -59.5q0 -37 -24.5 -61.5t-59.5 -24.5z" />
<glyph unicode=";" horiz-adv-x="315" d="M160 856q-37 0 -61.5 24.5t-24.5 61.5q0 35 24.5 59.5t61.5 24.5q35 0 59.5 -24.5t24.5 -59.5q0 -37 -24.5 -61.5t-59.5 -24.5zM158 143q37 0 61.5 -27.5t24.5 -76.5q0 -115 -86 -223q-3 -6 -11 -6h-22q-5 0 -7 4t1 8q39 76 39 151q-37 0 -61.5 24.5t-24.5 61.5 q0 35 24.5 59.5t61.5 24.5z" />
<glyph unicode="&#x3c;" horiz-adv-x="997" d="M879 985q15 9 25.5 2t10.5 -24v-50q0 -23 -22 -36l-680 -367l680 -367q22 -13 22 -37v-49q0 -17 -10.5 -23t-25.5 3l-754 409q-23 13 -23 37v58q0 24 23 37z" />
<glyph unicode="=" horiz-adv-x="862" d="M719 764q13 0 22 -9t9 -22v-51q0 -14 -9 -22.5t-22 -8.5h-576q-13 0 -21.5 8.5t-8.5 22.5v51q0 14 8.5 22.5t21.5 8.5h576zM719 514q13 0 22 -9t9 -22v-51q0 -14 -9 -22.5t-22 -8.5h-576q-13 0 -21.5 8.5t-8.5 22.5v51q0 14 8.5 22.5t21.5 8.5h576z" />
<glyph unicode="&#x3e;" horiz-adv-x="1038" d="M160 985l753 -407q23 -13 23 -37v-58q0 -24 -23 -37l-753 -409q-15 -9 -26 -3t-11 23v49q0 24 22 37l680 367l-680 367q-22 13 -22 36v50q0 17 11 24t26 -2z" />
<glyph unicode="?" horiz-adv-x="968" d="M475 1450q187 0 304.5 -103t117.5 -260q0 -271 -387 -425l-6 -254q0 -14 -9 -22.5t-22 -8.5h-43q-13 0 -21 8.5t-8 22.5l-10 299q0 25 27 34q195 66 277.5 149.5t82.5 205.5q0 112 -81.5 175.5t-215.5 63.5q-181 0 -342 -145q-37 -33 -63 0l-10 12q-26 33 -3 62 q66 83 181 134.5t231 51.5zM457 143q35 0 59.5 -24.5t24.5 -59.5q0 -37 -24.5 -61.5t-59.5 -24.5q-37 0 -61.5 24.5t-24.5 61.5q0 35 24.5 59.5t61.5 24.5z" />
<glyph unicode="@" horiz-adv-x="1646" d="M827 1450q146 0 279.5 -51.5t235 -143t161.5 -228t60 -296.5q0 -91 -18.5 -164t-48 -120t-70 -78.5t-81.5 -44.5t-85 -13q-68 0 -116.5 33t-68.5 96q-105 -118 -276 -118q-165 0 -274 111.5t-109 271.5q0 159 109 269.5t274 110.5q96 0 175 -40t130 -111l26 115h87 l-48 -474q-9 -87 23 -119t88 -32q162 0 162 307q0 145 -50.5 262t-136.5 190.5t-195.5 112.5t-232.5 39q-89 0 -176.5 -24t-168 -74.5t-142 -122t-98.5 -174t-37 -223.5t37 -224t98.5 -174.5t142.5 -122t169.5 -74.5t178.5 -24q192 0 336 99l78 -70q-190 -143 -418 -143 q-113 0 -222 32.5t-202.5 96t-165 151t-112.5 204.5t-41 249q0 167 63 307.5t167.5 232t237.5 142.5t275 51zM799 430q119 0 195.5 80t76.5 195t-76.5 193.5t-195.5 78.5q-121 0 -194 -78t-73 -194t73 -195.5t194 -79.5z" />
<glyph unicode="A" horiz-adv-x="1275" d="M1219 35q6 -15 -1 -25t-24 -10h-66q-26 0 -34 25l-119 331h-672l-121 -331q-8 -25 -35 -25h-65q-17 0 -24 10t-1 25l506 1374q9 25 37 25h76q28 0 37 -25zM344 471h588l-293 813z" />
<glyph unicode="B" horiz-adv-x="1142" d="M776 778q145 -31 224 -128.5t79 -229.5q0 -203 -127.5 -311.5t-378.5 -108.5h-417q-14 0 -22.5 9t-8.5 22v1372q0 13 8.5 22t22.5 9h424q111 0 194 -29.5t129 -79.5t68 -107t22 -120q0 -114 -53.5 -198.5t-163.5 -121.5zM864 1094q0 110 -77.5 164.5t-219.5 54.5h-313 v-486h313q140 0 218.5 70t78.5 197zM565 121q192 0 286.5 71t94.5 226q0 138 -91 216.5t-290 78.5h-311v-592h311z" />
<glyph unicode="C" horiz-adv-x="1368" d="M1239 250l43 -41q11 -11 10 -23t-12 -20q-228 -193 -479 -193q-198 0 -363 98.5t-259.5 268t-94.5 371.5q0 152 56 289t151 235.5t228.5 156.5t281.5 58q251 0 479 -190q26 -22 2 -43l-43 -43q-21 -19 -43 0q-182 151 -393 151q-160 0 -295.5 -79.5t-215 -221 t-79.5 -313.5q0 -171 79.5 -312.5t215 -221t295.5 -79.5q210 0 393 152q22 19 43 0z" />
<glyph unicode="D" horiz-adv-x="1280" d="M457 1434q183 0 327 -54.5t235.5 -151.5t139 -226.5t47.5 -284.5t-47.5 -284.5t-139 -226.5t-235.5 -151.5t-327 -54.5h-301q-14 0 -22.5 9t-8.5 22v1372q0 13 8.5 22t22.5 9h301zM457 121q304 0 461 157.5t157 438.5t-157 438.5t-461 157.5h-203v-1192h203z" />
<glyph unicode="E" horiz-adv-x="983" d="M850 121q14 0 22.5 -8.5t8.5 -22.5v-59q0 -13 -8.5 -22t-22.5 -9h-694q-14 0 -22.5 9t-8.5 22v1372q0 13 8.5 22t22.5 9h692q14 0 22.5 -9t8.5 -22v-60q0 -13 -8.5 -21.5t-22.5 -8.5h-594v-488h559q14 0 22.5 -8.5t8.5 -21.5v-60q0 -13 -8.5 -21.5t-22.5 -8.5h-559v-584 h596z" />
<glyph unicode="F" horiz-adv-x="962" d="M829 1434q13 0 22 -9t9 -22v-60q0 -13 -8.5 -21.5t-22.5 -8.5h-575v-488h549q14 0 22.5 -8.5t8.5 -21.5v-60q0 -13 -8.5 -21.5t-22.5 -8.5h-549v-674q0 -13 -9 -22t-22 -9h-67q-14 0 -22.5 9t-8.5 22v1372q0 13 8.5 22t22.5 9h673z" />
<glyph unicode="G" horiz-adv-x="1536" d="M1432 723q13 0 21.5 -8.5t8.5 -22.5v-49q0 -193 -78.5 -344t-229.5 -238.5t-351 -87.5q-152 0 -286.5 58.5t-229 158t-149 237t-54.5 290.5q0 200 94.5 368.5t259.5 266.5t363 98q251 0 479 -190q26 -22 2 -43l-43 -43q-21 -19 -43 0q-182 151 -393 151 q-120 0 -228.5 -47t-188 -127t-126.5 -193.5t-47 -240.5q0 -174 78.5 -316.5t213.5 -222.5t298 -80q230 0 381.5 139t158.5 363h-516q-13 0 -21.5 8.5t-8.5 22.5v61q0 14 8.5 22.5t21.5 8.5h605z" />
<glyph unicode="H" horiz-adv-x="1210" d="M1055 1434q13 0 21.5 -8.5t8.5 -22.5v-1372q0 -14 -8.5 -22.5t-21.5 -8.5h-68q-13 0 -22 9t-9 22v624h-702v-624q0 -13 -9 -22t-22 -9h-67q-14 0 -22.5 9t-8.5 22v1372q0 13 8.5 22t22.5 9h67q13 0 22 -9t9 -22v-627h702v627q0 13 9 22t22 9h68z" />
<glyph unicode="I" horiz-adv-x="378" d="M125 1403q0 13 8.5 22t22.5 9h67q13 0 22 -9t9 -22v-1372q0 -13 -9 -22t-22 -9h-67q-14 0 -22.5 9t-8.5 22v1372z" />
<glyph unicode="J" horiz-adv-x="946" d="M106 193q23 23 46 -3q104 -90 243 -90q142 0 219.5 103.5t77.5 312.5v887q0 13 9 22t22 9h68q13 0 21.5 -8.5t8.5 -22.5v-893q0 -269 -111.5 -398.5t-314.5 -129.5q-209 0 -323 127q-19 23 -2 43z" />
<glyph unicode="K" horiz-adv-x="1148" d="M1085 37q11 -15 6 -26t-24 -11h-84q-24 0 -37 18l-547 727l-145 -157v-557q0 -13 -9 -22t-22 -9h-67q-14 0 -22.5 9t-8.5 22v1372q0 13 8.5 22t22.5 9h67q13 0 22 -9t9 -22v-643l598 657q14 17 37 17h92q20 0 25 -12t-9 -25l-518 -563z" />
<glyph unicode="L" horiz-adv-x="923" d="M809 121q13 0 22 -8.5t9 -22.5v-59q0 -13 -9 -22t-22 -9h-653q-14 0 -22.5 9t-8.5 22v1372q0 13 8.5 22t22.5 9h67q13 0 22 -9t9 -22v-1282h555z" />
<glyph unicode="M" horiz-adv-x="1675" d="M1520 1434q13 0 21.5 -8.5t8.5 -22.5v-1372q0 -14 -8.5 -22.5t-21.5 -8.5h-68q-14 0 -22.5 9t-8.5 22v1183l-514 -1191q-9 -23 -35 -23h-73q-26 0 -35 23l-510 1183v-1175q0 -13 -9 -22t-22 -9h-67q-14 0 -22.5 9t-8.5 22v1372q0 13 8.5 22t22.5 9h100q28 0 37 -21 l545 -1272l540 1272q9 21 37 21h105z" />
<glyph unicode="N" horiz-adv-x="1284" d="M1128 1434q14 0 22.5 -9t8.5 -22v-1372q0 -12 -7 -21t-17 -10h-107q-26 0 -37 20l-737 1237v-1226q0 -13 -9 -22t-22 -9h-67q-14 0 -22.5 9t-8.5 22v1372q0 27 25 31h106q25 0 37 -21l737 -1237v1227q0 13 9 22t22 9h67z" />
<glyph unicode="O" horiz-adv-x="1630" d="M817 -27q-150 0 -285.5 58t-233.5 156.5t-156 235.5t-58 288q0 152 58 289t156 235.5t233.5 156.5t285.5 58q149 0 283.5 -58t232.5 -156.5t155.5 -235.5t57.5 -289q0 -151 -57.5 -288t-155.5 -235.5t-232.5 -156.5t-283.5 -58zM817 92q166 0 305.5 82.5t220 225 t80.5 311.5q0 171 -80.5 314t-220 225.5t-305.5 82.5q-168 0 -308.5 -82.5t-221 -225.5t-80.5 -314q0 -170 80.5 -312t221 -224.5t308.5 -82.5z" />
<glyph unicode="P" horiz-adv-x="1062" d="M530 1434q222 0 345.5 -122.5t123.5 -316.5q0 -193 -123.5 -315.5t-345.5 -122.5h-276v-526q0 -13 -9 -22t-22 -9h-67q-14 0 -22.5 9t-8.5 22v1372q0 13 8.5 22t22.5 9h374zM522 678q104 0 180.5 31t124 103.5t47.5 182.5q0 162 -96.5 240t-255.5 78h-268v-635h268z" />
<glyph unicode="Q" horiz-adv-x="1630" d="M1370 229l166 -163q22 -22 0 -43l-41 -41q-22 -26 -45 0l-164 163q-200 -172 -469 -172q-150 0 -285.5 58t-233.5 156.5t-156 235.5t-58 288q0 152 58 289t156 235.5t233.5 156.5t285.5 58q149 0 283.5 -58t232.5 -156.5t155.5 -235.5t57.5 -289q0 -277 -176 -482z M817 92q219 0 385 137l-198 199q-19 19 0 43l40 41q22 22 43 0l199 -197q137 169 137 396q0 171 -80.5 314t-220 225.5t-305.5 82.5q-168 0 -308.5 -82.5t-221 -225.5t-80.5 -314q0 -170 80.5 -312t221 -224.5t308.5 -82.5z" />
<glyph unicode="R" horiz-adv-x="1091" d="M1001 37q10 -17 4.5 -27t-24.5 -10h-76q-26 0 -37 20l-360 537h-254v-526q0 -13 -9 -22t-22 -9h-67q-14 0 -22.5 9t-8.5 22v1372q0 13 8.5 22t22.5 9h374q222 0 345.5 -122.5t123.5 -316.5q0 -167 -93.5 -283.5t-266.5 -146.5zM254 1313v-635h268q104 0 180.5 31 t124 103.5t47.5 182.5q0 162 -96.5 240t-255.5 78h-268z" />
<glyph unicode="S" horiz-adv-x="1054" d="M227 1094q0 -57 26 -103.5t69.5 -79t100 -60t119 -53t125 -52t119 -62t100 -78.5t69.5 -106t26 -140q0 -157 -133 -272t-326 -115q-141 0 -254 58.5t-186 156.5q-13 23 8 41l43 37q21 18 43 -4q145 -172 342 -172q151 0 243.5 81.5t92.5 199.5q0 59 -25.5 107t-69 81.5 t-99.5 62t-118 53.5t-124 51t-118 60t-99.5 75t-69 101t-25.5 134q0 152 115 253t291 101q111 0 218 -52t179 -141q18 -21 -4 -43l-35 -30q-22 -22 -43 -2q-71 76 -147 114.5t-170 38.5q-122 0 -202.5 -63.5t-80.5 -177.5z" />
<glyph unicode="T" horiz-adv-x="1017" d="M903 1434q13 0 22 -9t9 -22v-60q0 -13 -8.5 -21.5t-22.5 -8.5h-330v-1282q0 -14 -8.5 -22.5t-21.5 -8.5h-68q-13 0 -22 9t-9 22v1282h-329q-14 0 -22.5 8.5t-8.5 21.5v60q0 13 9 22t22 9h788z" />
<glyph unicode="U" horiz-adv-x="1243" d="M1098 1434q13 0 21.5 -8.5t8.5 -22.5v-848q0 -280 -139.5 -431t-365.5 -151q-228 0 -368 151t-140 431v848q0 14 8.5 22.5t21.5 8.5h68q13 0 22 -9t9 -22v-848q0 -229 105 -347t274 -118q167 0 271.5 118t104.5 347v848q0 13 8.5 22t22.5 9h68z" />
<glyph unicode="V" horiz-adv-x="1312" d="M1112 1409q8 25 35 25h65q17 0 24 -10t1 -25l-506 -1374q-9 -25 -37 -25h-76q-27 0 -36 25l-506 1374q-6 15 0.5 25t23.5 10h66q27 0 35 -25l456 -1259z" />
<glyph unicode="W" horiz-adv-x="2197" d="M2095 1434q35 0 25 -35l-449 -1374q-9 -25 -37 -25h-80q-30 0 -36 25l-422 1214l-420 -1214q-9 -25 -37 -25h-82q-29 0 -35 25l-446 1374q-6 15 0.5 25t23.5 10h66q27 0 35 -25l397 -1259l434 1259q1 4 4.5 8.5t3.5 5.5q7 11 25 11h61q11 0 19 -4q8 -5 14 -21l436 -1259 l402 1259q6 25 35 25h63z" />
<glyph unicode="X" horiz-adv-x="1185" d="M1104 37q9 -15 3 -26t-24 -11h-69q-26 0 -37 20l-385 605l-383 -605q-11 -20 -37 -20h-72q-18 0 -23.5 11t3.5 26l442 696l-422 664q-9 15 -3 26t24 11h72q24 0 36 -21l363 -571l364 571q12 21 37 21h70q18 0 23.5 -11t-3.5 -26l-421 -664z" />
<glyph unicode="Y" horiz-adv-x="1138" d="M1038 1434q18 0 24 -11t-3 -26l-426 -699v-667q0 -13 -8.5 -22t-22.5 -9h-65q-13 0 -22 9t-9 22v667l-426 699q-9 15 -3.5 26t23.5 11h72q25 0 37 -21l360 -592l361 592q12 21 37 21h71z" />
<glyph unicode="Z" horiz-adv-x="1120" d="M995 121q13 0 22 -8.5t9 -22.5v-59q0 -13 -9 -22t-22 -9h-870q-13 0 -22 9t-9 22v69q0 19 12 37l768 1176h-729q-13 0 -21.5 8.5t-8.5 21.5v60q0 14 8.5 22.5t21.5 8.5h830q13 0 22 -9t9 -22v-70q0 -17 -13 -37l-768 -1175h770z" />
<glyph unicode="[" horiz-adv-x="522" d="M389 1526q13 0 22 -9t9 -22v-45q0 -14 -9 -22.5t-22 -8.5h-158v-1579h158q14 0 22.5 -8.5t8.5 -21.5v-46q0 -13 -8.5 -21.5t-22.5 -8.5h-256q-14 0 -22.5 8.5t-8.5 21.5v1731q0 13 9 22t22 9h256z" />
<glyph unicode="\" horiz-adv-x="833" d="M49 1526h51q28 0 37 -25l672 -1732q12 -35 -25 -35h-51q-28 0 -37 24l-671 1733q-12 35 24 35z" />
<glyph unicode="]" horiz-adv-x="522" d="M133 1526h256q13 0 22 -9t9 -22v-1731q0 -13 -8.5 -21.5t-22.5 -8.5h-256q-14 0 -22.5 8.5t-8.5 21.5v46q0 13 8.5 21.5t22.5 8.5h158v1579h-158q-13 0 -22 8.5t-9 22.5v45q0 13 9 22t22 9z" />
<glyph unicode="^" horiz-adv-x="1161" d="M1055 657q9 -15 2 -25.5t-25 -10.5h-49q-24 0 -37 22l-366 680l-367 -680q-13 -22 -37 -22h-49q-17 0 -23.5 10.5t2.5 25.5l410 754q13 23 37 23h57q24 0 37 -23z" />
<glyph unicode="_" horiz-adv-x="1228" d="M1096 0q13 0 21.5 -8.5t8.5 -22.5v-49q0 -14 -8.5 -22.5t-21.5 -8.5h-963q-13 0 -22 8.5t-9 22.5v49q0 13 9 22t22 9h963z" />
<glyph unicode="`" horiz-adv-x="294" d="M86 1491h37q24 0 35 -25l123 -258q15 -34 -25 -34h-37q-24 0 -35 24l-123 258q-7 17 0 26t25 9z" />
<glyph unicode="a" d="M1030 1004q14 0 22.5 -9t8.5 -22v-942q0 -13 -8.5 -22t-22.5 -9h-55q-28 0 -31 31l-10 133q-60 -89 -154 -139t-213 -50q-214 0 -353.5 151.5t-139.5 373.5t139.5 373t353.5 151q120 0 214.5 -50t154.5 -140l8 139q3 31 31 31h55zM575 88q140 0 242 92.5t129 233.5l4 86 l-4 88q-27 141 -129 233t-242 92q-165 0 -273.5 -117t-108.5 -294q0 -179 108 -296.5t274 -117.5z" />
<glyph unicode="b" d="M600 1024q142 0 255.5 -69.5t176 -189.5t62.5 -265q0 -222 -140 -373.5t-354 -151.5q-119 0 -213 50t-154 139l-10 -133q-3 -31 -30 -31h-56q-13 0 -22 9t-9 22v1433q0 14 9 22.5t22 8.5h62q13 0 21.5 -8.5t8.5 -22.5v-604l2 -26q60 90 154.5 140t214.5 50zM592 88 q166 0 274.5 117.5t108.5 296.5q0 177 -108.5 294t-274.5 117q-140 0 -242 -92t-129 -233l-4 -88l4 -86q27 -141 129 -233.5t242 -92.5z" />
<glyph unicode="c" horiz-adv-x="1036" d="M575 84q63 0 113.5 12t89 37t57.5 41.5t50 48.5q23 23 45 0l33 -28q21 -21 2 -43q-154 -179 -390 -179q-215 0 -358 152t-143 375t143 374.5t358 151.5q229 0 383 -178q19 -22 -2 -43l-32 -27q-22 -22 -45 -2q-2 2 -22.5 21t-26 24.5t-27 22.5t-34 23t-37 18t-45.5 16.5 t-50.5 9t-61.5 4.5q-168 0 -275 -117.5t-107 -297.5t107 -298t275 -118z" />
<glyph unicode="d" d="M1030 1495q14 0 22.5 -8.5t8.5 -22.5v-1433q0 -13 -8.5 -22t-22.5 -9h-55q-28 0 -31 31l-10 133q-60 -89 -154 -139t-213 -50q-214 0 -353.5 151.5t-139.5 373.5t139.5 373t353.5 151q120 0 214.5 -50t154.5 -140l2 26v604q0 14 9 22.5t22 8.5h61zM575 88q140 0 242 92.5 t129 233.5l4 86l-4 88q-27 141 -129 233t-242 92q-165 0 -273.5 -117t-108.5 -294q0 -179 108 -296.5t274 -117.5z" />
<glyph unicode="e" horiz-adv-x="1105" d="M563 1026q139 0 247.5 -68.5t165 -178t56.5 -236.5q0 -53 -11 -75t-46 -22h-780q18 -157 125 -259.5t272 -102.5q169 0 289 109q25 22 43 6l26 -25q24 -24 2 -47q-148 -154 -374 -154q-145 0 -260.5 70t-179.5 190.5t-64 266.5q0 224 137.5 375t351.5 151zM561 915 q-152 0 -252 -103.5t-114 -262.5h729q-3 152 -105.5 259t-257.5 107z" />
<glyph unicode="f" horiz-adv-x="663" d="M698 1411q9 -14 -2 -25l-41 -38q-8 -10 -12.5 -10t-11.5 5q-7 4 -20.5 12.5t-20 12.5t-18.5 10.5t-20.5 9.5t-20.5 6.5t-24 5t-26 1.5q-80 0 -112.5 -37.5t-32.5 -114.5v-245h201q13 0 21.5 -8.5t8.5 -22.5v-45q0 -14 -8.5 -22.5t-21.5 -8.5h-201v-866q0 -13 -9 -22 t-22 -9h-61q-14 0 -22.5 9t-8.5 22v866h-119q-14 0 -22.5 8.5t-8.5 22.5v45q0 13 8.5 22t22.5 9h119v247q0 127 64.5 191.5t205.5 64.5q135 0 215 -96z" />
<glyph unicode="g" d="M1030 1004q14 0 22.5 -9t8.5 -22v-950q0 -89 -30 -162.5t-80 -122t-116 -82t-135 -48t-141 -14.5q-221 0 -371 93q-24 15 -10 43l19 34q6 12 17.5 15.5t23.5 -2.5q147 -70 313 -70q74 0 141 17.5t123.5 52.5t89.5 95.5t33 139.5v178q-62 -92 -156.5 -143t-214.5 -51 q-141 0 -255 69.5t-176 186.5t-62 258t62 258t176 186.5t255 69.5q120 0 214.5 -50.5t154.5 -139.5l8 139q3 31 31 31h55zM575 109q142 0 245 93.5t128 233.5l6 76l-2 51q-19 148 -124 249t-253 101q-165 0 -273.5 -115.5t-108.5 -285.5q0 -171 108.5 -287t273.5 -116z" />
<glyph unicode="h" horiz-adv-x="1028" d="M573 1026q165 0 258 -98.5t93 -294.5v-602q0 -13 -9 -22t-22 -9h-62q-13 0 -21.5 8.5t-8.5 22.5v602q0 137 -63.5 212t-180.5 75q-73 0 -139.5 -33t-105.5 -77t-62 -83t-23 -57v-639q0 -14 -8.5 -22.5t-21.5 -8.5h-62q-13 0 -22 9t-9 22v1433q0 14 9 22.5t22 8.5h62 q13 0 21.5 -8.5t8.5 -22.5v-637q62 90 149.5 144.5t196.5 54.5z" />
<glyph unicode="i" horiz-adv-x="329" d="M164 1255q-35 0 -59.5 24.5t-24.5 61.5q0 35 24.5 59.5t59.5 24.5q37 0 61.5 -24.5t24.5 -59.5q0 -37 -24.5 -61.5t-61.5 -24.5zM104 973q0 13 9 22t22 9h62q13 0 21.5 -8.5t8.5 -22.5v-942q0 -14 -8.5 -22.5t-21.5 -8.5h-62q-13 0 -22 9t-9 22v942z" />
<glyph unicode="j" horiz-adv-x="464" d="M301 1255q-37 0 -61.5 24.5t-24.5 61.5q0 35 24.5 59.5t61.5 24.5q35 0 59.5 -24.5t24.5 -59.5q0 -37 -24.5 -61.5t-59.5 -24.5zM270 1004h62q13 0 21.5 -8.5t8.5 -22.5v-965q0 -401 -311 -414q-18 0 -22 19l-17 65q-3 9 2 16t15 7q115 7 163 80t48 227v965 q0 14 8.5 22.5t21.5 8.5z" />
<glyph unicode="k" horiz-adv-x="976" d="M938 37q12 -15 6.5 -26t-24.5 -11h-72q-24 0 -37 18l-379 484l-205 -211v-260q0 -14 -8.5 -22.5t-21.5 -8.5h-62q-13 0 -22 9t-9 22v1433q0 14 9 22.5t22 8.5h62q13 0 21.5 -8.5t8.5 -22.5v-1030l529 553q14 17 39 17h69q20 0 25 -11t-8 -26l-377 -389z" />
<glyph unicode="l" horiz-adv-x="333" d="M104 1464q0 14 9 22.5t22 8.5h62q13 0 21.5 -8.5t8.5 -22.5v-1433q0 -14 -8.5 -22.5t-21.5 -8.5h-62q-13 0 -22 9t-9 22v1433z" />
<glyph unicode="m" horiz-adv-x="1724" d="M1272 1026q163 0 255.5 -98.5t92.5 -294.5v-602q0 -13 -9 -22t-22 -9h-61q-14 0 -22.5 9t-8.5 22v602q0 137 -63.5 212t-180.5 75q-68 0 -125 -20.5t-94 -52.5t-62.5 -71.5t-36.5 -76t-11 -68.5v-600q0 -13 -9 -22t-22 -9h-62q-13 0 -21.5 8.5t-8.5 22.5v602 q0 137 -63.5 212t-180.5 75q-73 0 -139.5 -33t-105.5 -77t-62 -83t-23 -57v-639q0 -14 -8.5 -22.5t-21.5 -8.5h-62q-13 0 -22 9t-9 22v942q0 13 9 22t22 9h53q28 0 31 -31l8 -144v-2q62 90 149.5 144.5t196.5 54.5q119 0 202.5 -52.5t119.5 -156.5q57 94 151.5 151.5 t225.5 57.5z" />
<glyph unicode="n" horiz-adv-x="1028" d="M573 1026q165 0 258 -98.5t93 -294.5v-602q0 -13 -9 -22t-22 -9h-62q-13 0 -21.5 8.5t-8.5 22.5v602q0 137 -63.5 212t-180.5 75q-73 0 -139.5 -33t-105.5 -77t-62 -83t-23 -57v-639q0 -14 -8.5 -22.5t-21.5 -8.5h-62q-13 0 -22 9t-9 22v942q0 13 9 22t22 9h53 q28 0 31 -31l8 -144v-2q62 90 149.5 144.5t196.5 54.5z" />
<glyph unicode="o" horiz-adv-x="1159" d="M580 -27q-141 0 -257.5 69.5t-182.5 190.5t-66 267q0 223 145.5 374.5t360.5 151.5q141 0 256.5 -69t181 -189.5t65.5 -267.5t-65.5 -267.5t-181 -190t-256.5 -69.5zM580 84q164 0 275.5 118t111.5 298t-111.5 297.5t-275.5 117.5q-165 0 -276 -117.5t-111 -297.5 t111 -298t276 -118z" />
<glyph unicode="p" d="M600 1024q142 0 255.5 -69.5t176 -189.5t62.5 -265q0 -222 -140 -373.5t-354 -151.5q-119 0 -213 50t-154 139l-6 -76v-446q0 -14 -8.5 -22.5t-21.5 -8.5h-62q-13 0 -22 8.5t-9 22.5v614q0 8 2 12v705q0 13 9 22t22 9h56q27 0 30 -31l8 -139q60 90 154.5 140t214.5 50z M592 88q166 0 274.5 117.5t108.5 296.5q0 177 -108.5 294t-274.5 117q-140 0 -242 -92t-129 -233l-4 -88l4 -86q27 -141 129 -233.5t242 -92.5z" />
<glyph unicode="q" d="M1061 268q2 -4 2 -12v-614q0 -14 -8.5 -22.5t-22.5 -8.5h-61q-13 0 -22 8.5t-9 22.5v446l-6 76q-60 -89 -154 -139t-213 -50q-214 0 -353.5 151.5t-139.5 373.5t139.5 373t353.5 151q120 0 214.5 -50t154.5 -140l8 139q3 31 31 31h55q14 0 22.5 -9t8.5 -22v-705zM575 88 q140 0 242 92.5t129 233.5l4 86l-4 88q-27 141 -129 233t-242 92q-165 0 -273.5 -117t-108.5 -294q0 -179 108 -296.5t274 -117.5z" />
<glyph unicode="r" horiz-adv-x="612" d="M590 997q15 -9 4 -30l-25 -52q-10 -18 -34 -12q-45 10 -80 10q-94 0 -161 -64t-67 -161v-657q0 -14 -8.5 -22.5t-21.5 -8.5h-62q-13 0 -22 9t-9 22v942q0 13 9 22t22 9h51q28 0 31 -31l8 -84q95 137 246 137q72 0 119 -29z" />
<glyph unicode="s" horiz-adv-x="843" d="M209 760q0 -49 31.5 -86t81.5 -61t111 -45.5t121.5 -47.5t110.5 -59t81.5 -87.5t31.5 -125.5q0 -119 -101 -197t-235 -78q-116 0 -212.5 48.5t-157.5 119.5q-17 20 -2 39l36 41q11 13 19 11.5t22 -15.5q46 -48 123.5 -90.5t169.5 -42.5q100 0 159.5 44.5t59.5 119.5 q0 47 -24.5 83.5t-64.5 59.5t-91 45.5t-104.5 40t-104.5 43t-91 55.5t-64.5 77.5t-24.5 107.5q0 115 91 190.5t227 75.5q79 0 166.5 -40.5t148.5 -111.5q16 -18 -2 -43l-23 -28q-18 -25 -45 2q-64 59 -121 86t-131 27q-31 0 -62.5 -8t-61.5 -24.5t-49 -49t-19 -76.5z" />
<glyph unicode="t" horiz-adv-x="600" d="M504 1004q14 0 22.5 -9t8.5 -22v-45q0 -14 -8.5 -22.5t-22.5 -8.5h-144v-866q0 -14 -8.5 -22.5t-21.5 -8.5h-62q-13 0 -21.5 8.5t-8.5 22.5v866h-144q-14 0 -22.5 8.5t-8.5 22.5v45q0 13 8.5 22t22.5 9h144v276q0 14 8.5 22.5t21.5 8.5h62q13 0 21.5 -8.5t8.5 -22.5v-276 h144z" />
<glyph unicode="u" horiz-adv-x="1017" d="M883 1004q13 0 21.5 -8.5t8.5 -22.5v-942q0 -14 -8.5 -22.5t-21.5 -8.5h-54q-27 0 -30 31l-8 125q-126 -183 -328 -183q-175 0 -272 100.5t-97 297.5v602q0 13 9 22t22 9h61q14 0 22.5 -9t8.5 -22v-602q0 -138 66 -215.5t188 -77.5q58 0 111.5 21.5t90 53.5t64.5 68.5 t41 68t13 50.5v633q0 14 8.5 22.5t21.5 8.5h62z" />
<glyph unicode="v" horiz-adv-x="1013" d="M829 979q9 25 37 25h64q36 0 24 -35l-372 -944q-9 -25 -37 -25h-76q-28 0 -37 25l-375 944q-12 35 25 35h63q28 0 37 -25l324 -842z" />
<glyph unicode="w" horiz-adv-x="1753" d="M1669 1004q37 0 25 -35l-357 -944q-9 -25 -37 -25h-73q-28 0 -37 25l-313 815l-314 -815q-9 -25 -37 -25h-73q-28 0 -37 25l-359 944q-12 35 25 35h61q28 0 37 -25l312 -846l323 846q7 17 21 20q10 5 16 5h49q7 0 17 -5q13 -3 20 -20l324 -846l311 846q9 25 37 25h59z " />
<glyph unicode="x" horiz-adv-x="894" d="M825 37q11 -15 5 -26t-25 -11h-70q-26 0 -37 20l-249 394l-252 -394q-14 -20 -37 -20h-70q-19 0 -25 11t5 26l317 475l-303 455q-9 15 -3.5 26t23.5 11h70q22 0 37 -21l238 -371l235 371q12 21 37 21h70q19 0 25 -11t-5 -26l-305 -455z" />
<glyph unicode="y" horiz-adv-x="1013" d="M932 1004q36 0 24 -35l-528 -1334q-9 -24 -37 -24h-63q-37 0 -25 35l139 350l-385 973q-12 35 25 35h63q28 0 37 -25l324 -842l323 842q9 25 37 25h66z" />
<glyph unicode="z" horiz-adv-x="927" d="M862 973v-53q0 -25 -14 -39l-641 -772h624q13 0 22 -8.5t9 -22.5v-47q0 -13 -9 -22t-22 -9h-737q-14 0 -22.5 9t-8.5 22v55q0 24 15 39l643 772h-627q-14 0 -22.5 8.5t-8.5 22.5v45q0 13 8.5 22t22.5 9h737q13 0 22 -9t9 -22z" />
<glyph unicode="{" horiz-adv-x="563" d="M430 1526q14 0 22.5 -9t8.5 -22v-49q0 -14 -8.5 -22.5t-22.5 -8.5h-41q-32 0 -52 -20t-20 -52v-557q0 -18 -10 -38l-55 -101q-11 -22 0 -41l55 -96q10 -18 10 -39v-555q0 -32 20 -52t52 -20h41q14 0 22.5 -8.5t8.5 -21.5v-50q0 -13 -8.5 -21.5t-22.5 -8.5h-104 q-62 0 -100 41.5t-38 99.5v586q0 24 -10 39l-67 106q-13 22 -2 41l69 111q10 18 10 39v587q0 58 38 100t100 42h104z" />
<glyph unicode="|" horiz-adv-x="378" d="M125 1608q0 13 8.5 21.5t22.5 8.5h67q14 0 22.5 -8.5t8.5 -21.5v-1966q0 -14 -9 -22.5t-22 -8.5h-67q-14 0 -22.5 8.5t-8.5 22.5v1966z" />
<glyph unicode="}" horiz-adv-x="512" d="M82 1526h104q62 0 100 -42t38 -100v-587q0 -21 10 -39l69 -111q11 -19 -2 -41l-67 -106q-10 -15 -10 -39v-586q0 -58 -38 -99.5t-100 -41.5h-104q-14 0 -22.5 8.5t-8.5 21.5v50q0 13 8.5 21.5t22.5 8.5h41q32 0 52 20t20 52v555q0 21 10 39l55 96q11 19 0 41l-55 101 q-10 20 -10 38v557q0 32 -20 52t-52 20h-41q-14 0 -22.5 8.5t-8.5 22.5v49q0 13 8.5 22t22.5 9z" />
<glyph unicode="~" horiz-adv-x="851" d="M279 709q41 1 77 -14t61.5 -36.5t49.5 -43.5t53.5 -37.5t61.5 -16.5q66 2 94 74q6 21 24 18h27q11 2 17.5 -4t5.5 -18q-17 -73 -62.5 -113.5t-105.5 -40.5q-44 0 -81.5 15t-64 37t-51 43t-54 35.5t-61.5 13.5q-71 5 -94 -70q-9 -18 -24 -23h-29q-23 7 -21 29 q10 73 59 113.5t118 38.5z" />
<glyph unicode="&#xa1;" horiz-adv-x="305" d="M217 1092q35 0 59.5 -24.5t24.5 -61.5q0 -35 -24.5 -59.5t-59.5 -24.5q-37 0 -61.5 24.5t-24.5 59.5q0 37 24.5 61.5t61.5 24.5zM293 -305q0 -32 -23.5 -56t-54.5 -24q-30 0 -54 24t-24 56l41 960q0 14 9.5 22.5t23.5 8.5h8q14 0 24 -8.5t9 -22.5z" />
<glyph unicode="&#xa2;" horiz-adv-x="1036" d="M963 344q21 -22 2 -41q-145 -162 -357 -176v-178q0 -14 -8.5 -22.5t-21.5 -8.5h-41q-13 0 -22 9t-9 22v182q-189 25 -310.5 169.5t-121.5 342.5t121.5 342.5t310.5 169.5v248q0 13 9 22t22 9h41q13 0 21.5 -8.5t8.5 -22.5v-244q207 -14 350 -174q19 -22 -2 -43l-32 -27 q-22 -19 -45 -2l-23 22q-23 22 -29.5 26.5t-29 23t-38 25t-40.5 18t-52.5 16.5t-58.5 7v-815q55 4 99.5 16.5t79.5 36.5t52.5 39.5t45.5 44.5q23 23 45 0zM193 643q0 -157 86 -267.5t227 -133.5v802q-141 -23 -227 -133.5t-86 -267.5z" />
<glyph unicode="&#xa3;" horiz-adv-x="1062" d="M918 121q13 0 21.5 -8.5t8.5 -22.5v-59q0 -14 -8.5 -22.5t-21.5 -8.5h-787q-13 0 -22 9t-9 22v90q29 18 61 47t66 71t56 98t22 114q0 89 -18 157h-154q-13 0 -22 9t-9 22v59q0 14 9 22.5t22 8.5h111q-6 14 -26.5 56.5t-28.5 63.5t-21 58.5t-18 74.5t-5 79q0 161 116 275 t280 114q116 0 224 -56t183 -157q23 -29 -2 -61l-12 -13q-14 -17 -31 -16.5t-33 16.5q-94 89 -165 125.5t-170 36.5q-110 0 -189.5 -71.5t-79.5 -192.5q0 -57 15.5 -108t45.5 -117.5t44 -106.5h481q14 0 22.5 -8.5t8.5 -22.5v-59q0 -13 -8.5 -22t-22.5 -9h-449 q15 -84 15 -157q0 -95 -39.5 -183t-104.5 -147h644z" />
<glyph unicode="&#xa4;" horiz-adv-x="1136" d="M1028 975q0 -163 -102 -289l98 -98l-74 -72l-98 98q-125 -98 -283 -98q-159 0 -284 98l-99 -98l-73 72l98 98q-100 127 -100 289t100 289l-98 98l73 72l99 -99q127 99 284 99q156 0 283 -99l98 99l74 -72l-98 -98q102 -126 102 -289zM186 975q0 -159 116 -271t267 -112 t268 112t117 271q0 158 -117 270.5t-268 112.5t-267 -112.5t-116 -270.5z" />
<glyph unicode="&#xa5;" horiz-adv-x="1138" d="M1059 1397l-426 -699v-22h184q13 0 22 -9t9 -22v-51q0 -14 -9 -22.5t-22 -8.5h-184v-90h184q13 0 22 -8.5t9 -22.5v-51q0 -13 -9 -22t-22 -9h-184v-329q0 -13 -8.5 -22t-22.5 -9h-65q-13 0 -22 9t-9 22v329h-182q-14 0 -22.5 9t-8.5 22v51q0 14 8.5 22.5t22.5 8.5h182v90 h-182q-14 0 -22.5 8.5t-8.5 22.5v51q0 13 8.5 22t22.5 9h182v22l-426 699q-9 15 -3.5 26t23.5 11h72q25 0 37 -21l360 -592l361 592q12 21 37 21h71q18 0 24 -11t-3 -26z" />
<glyph unicode="&#xa6;" horiz-adv-x="378" d="M223 1638q14 0 22.5 -8.5t8.5 -21.5v-574q0 -13 -8.5 -21.5t-22.5 -8.5h-67q-14 0 -22.5 8.5t-8.5 21.5v574q0 13 8.5 21.5t22.5 8.5h67zM223 246q13 0 22 -9t9 -22v-573q0 -14 -9 -22.5t-22 -8.5h-67q-14 0 -22.5 8.5t-8.5 22.5v573q0 13 8.5 22t22.5 9h67z" />
<glyph unicode="&#xa7;" horiz-adv-x="1282" d="M1208 549q0 -98 -47 -176t-131 -129q-36 -128 -160 -204.5t-290 -76.5q-154 0 -281.5 66t-208.5 170q-24 30 -4 55l25 29q18 18 29 16.5t32 -23.5q88 -94 181 -143t235 -49q152 0 241 70.5t89 197.5q0 75 -44.5 131.5t-115 92.5t-156 67t-171.5 66t-156.5 79t-115 116.5 t-44.5 168.5q0 93 46.5 171.5t131.5 125.5q33 121 145 194.5t275 73.5q122 0 237.5 -53.5t196.5 -159.5q22 -31 -2 -61l-12 -12q-32 -37 -64 0q-95 94 -169.5 133t-188.5 39q-141 0 -226.5 -63t-85.5 -179q0 -58 27.5 -105t74.5 -79t107.5 -59.5t128 -52.5t134.5 -51 t127.5 -61t107.5 -78t74.5 -106t27.5 -141zM1036 408q47 62 47 153q0 72 -40.5 126.5t-106 89.5t-145.5 65t-162.5 62.5t-153.5 71t-122.5 100.5t-65.5 143q-54 -61 -54 -146q0 -70 40.5 -123.5t106.5 -88.5t146.5 -65.5t163.5 -63.5t155 -73t124 -104t67 -147z" />
<glyph unicode="&#xa8;" horiz-adv-x="532" d="M88 1292q-32 0 -55 22.5t-23 53.5t23 53.5t55 22.5t55 -22.5t23 -53.5t-23 -53.5t-55 -22.5zM444 1292q-31 0 -54 22.5t-23 53.5t23 53.5t54 22.5q32 0 55 -22.5t23 -53.5t-23 -53.5t-55 -22.5z" />
<glyph unicode="&#xa9;" horiz-adv-x="1339" d="M670 279q-159 0 -294 78t-213.5 213t-78.5 294t78.5 294t213.5 213.5t294 78.5t293.5 -78.5t212 -213t77.5 -294.5q0 -119 -46 -227.5t-124 -187t-186 -124.5t-227 -46zM670 387q197 0 334 139t137 338t-137 338t-334 139q-97 0 -185 -37.5t-151.5 -101.5t-101 -152.5 t-37.5 -185.5t37.5 -185.5t101 -152.5t151.5 -101.5t185 -37.5zM883 629q23 -23 0 -43q-88 -72 -207 -72q-143 0 -242.5 101t-99.5 249q0 150 99 250t243 100q124 0 207 -71q23 -20 0 -43l-25 -23q-18 -18 -43 -2q-64 41 -137 41q-103 0 -174.5 -72.5t-71.5 -179.5 t71.5 -179.5t174.5 -72.5q70 0 137 41q25 16 43 -2z" />
<glyph unicode="&#xaa;" horiz-adv-x="886" d="M733 1434h78v-736h-78l-20 109l2 10q-96 -119 -269 -119q-155 0 -263.5 109t-108.5 264t108.5 264t263.5 109q173 0 267 -117v4zM446 793q117 0 198 81t81 197t-81 197.5t-198 81.5q-115 0 -195.5 -81.5t-80.5 -197.5t80.5 -197t195.5 -81z" />
<glyph unicode="&#xab;" horiz-adv-x="690" d="M72 645q0 24 16 37l201 174q15 12 26 8t11 -24v-43q0 -23 -17 -37l-176 -154l176 -153q17 -14 17 -37v-43q0 -20 -11 -24.5t-26 7.5l-201 174q-16 13 -16 37v78zM365 645q0 24 16 37l201 174q15 12 25.5 8t10.5 -24v-43q0 -24 -16 -37l-176 -154l176 -153q16 -13 16 -37 v-43q0 -20 -10.5 -24.5t-25.5 7.5l-201 174q-16 13 -16 37v78z" />
<glyph unicode="&#xac;" horiz-adv-x="972" d="M840 614q14 0 22 -8t8 -22v-240q0 -14 -8.5 -22.5t-21.5 -8.5h-62q-13 0 -21.5 8.5t-8.5 22.5v162h-615q-13 0 -22 9t-9 22v47q0 13 8.5 21.5t22.5 8.5h707z" />
<glyph unicode="&#xad;" horiz-adv-x="798" d="M676 637q14 0 22.5 -8.5t8.5 -22.5v-49q0 -13 -8.5 -22t-22.5 -9h-553q-13 0 -22 9t-9 22v49q0 14 9 22.5t22 8.5h553z" />
<glyph unicode="&#xae;" horiz-adv-x="1339" d="M670 1450q159 0 293.5 -78.5t212 -213t77.5 -294.5q0 -119 -46 -227.5t-124 -187t-186 -124.5t-227 -46q-159 0 -294 78t-213.5 213t-78.5 294t78.5 294t213.5 213.5t294 78.5zM670 387q197 0 334 139t137 338t-137 338t-334 139q-97 0 -185 -37.5t-151.5 -101.5 t-101 -152.5t-37.5 -185.5t37.5 -185.5t101 -152.5t151.5 -101.5t185 -37.5zM952 975q0 -78 -49 -129.5t-143 -63.5l180 -202q8 -9 4 -17t-18 -8h-76q-14 0 -23 12l-184 211h-135v-205q0 -7 -6.5 -12.5t-14.5 -5.5h-59q-8 0 -13 5.5t-5 12.5v586q0 8 5.5 13.5t12.5 5.5h279 q120 0 182.5 -54.5t62.5 -148.5zM709 872q75 0 112 29.5t37 73.5q0 106 -149 106h-201v-209h201z" />
<glyph unicode="&#xaf;" horiz-adv-x="624" d="M584 1434q13 0 21.5 -8.5t8.5 -22.5v-43q0 -14 -8.5 -22.5t-21.5 -8.5h-543q-13 0 -22 8.5t-9 22.5v43q0 13 9 22t22 9h543z" />
<glyph unicode="&#xb0;" horiz-adv-x="800" d="M401 1473q124 0 210.5 -87t86.5 -210q0 -126 -86 -212.5t-211 -86.5t-212 86.5t-87 212.5q0 123 87.5 210t211.5 87zM401 1378q-84 0 -143 -56t-59 -146q0 -89 59 -146t143 -57q82 0 142.5 57.5t60.5 145.5q0 89 -60 145.5t-143 56.5z" />
<glyph unicode="&#xb1;" horiz-adv-x="862" d="M164 483q-14 0 -22.5 8.5t-8.5 22.5v51q0 13 8.5 22t22.5 9h213v211q0 13 8.5 22t22.5 9h51q13 0 21.5 -8.5t8.5 -22.5v-211h209q14 0 22.5 -9t8.5 -22v-51q0 -14 -8.5 -22.5t-22.5 -8.5h-209v-211q0 -14 -8.5 -22t-21.5 -8h-51q-14 0 -22.5 8.5t-8.5 21.5v211h-213z M719 113q13 0 22 -8.5t9 -22.5v-51q0 -13 -9 -22t-22 -9h-576q-13 0 -21.5 8.5t-8.5 22.5v51q0 14 8.5 22.5t21.5 8.5h576z" />
<glyph unicode="&#xb2;" horiz-adv-x="520" d="M256 1442q70 0 121 -46.5t51 -107.5q0 -54 -29.5 -96.5t-109.5 -124.5l-96 -100h241v-66h-344v66l139 141q58 60 75 79t31.5 46t14.5 55q0 38 -28.5 64t-65.5 26q-39 0 -67.5 -26.5t-28.5 -75.5v-29h-76v29q0 72 50.5 119t121.5 47z" />
<glyph unicode="&#xb3;" horiz-adv-x="518" d="M258 1440q66 0 115 -42t49 -98q0 -64 -62 -108q38 -16 62 -50.5t24 -84.5q0 -69 -56 -116.5t-132 -47.5q-83 0 -135.5 55t-50.5 131h78q3 -51 31.5 -86t76.5 -35q46 0 78.5 28t32.5 71q0 54 -38.5 75.5t-113.5 24.5v57q66 0 97.5 23.5t31.5 62.5q0 32 -25.5 54t-62.5 22 q-44 0 -69.5 -28t-26.5 -82h-76q0 78 48 126t124 48z" />
<glyph unicode="&#xb4;" horiz-adv-x="247" d="M209 1491q39 0 24 -35l-122 -258q-11 -24 -35 -24h-37q-40 0 -25 34l123 258q11 25 35 25h37z" />
<glyph unicode="&#xb5;" horiz-adv-x="1017" d="M883 1004q13 0 21.5 -8.5t8.5 -22.5v-942q0 -14 -8.5 -22.5t-21.5 -8.5h-54q-27 0 -30 31l-8 125q-126 -183 -328 -183q-155 0 -246 76v-407q0 -14 -8.5 -22.5t-22.5 -8.5h-61q-13 0 -22 8.5t-9 22.5v1331q0 13 9 22t22 9h61q14 0 22.5 -9t8.5 -22v-602q0 -138 66 -215.5 t188 -77.5q58 0 111.5 21.5t90 53.5t64.5 68.5t41 68t13 50.5v633q0 14 8.5 22.5t21.5 8.5h62z" />
<glyph unicode="&#xb6;" horiz-adv-x="1339" d="M553 1434h375q13 0 21.5 -8.5t8.5 -22.5v-1372q0 -14 -8.5 -22.5t-21.5 -8.5h-68q-14 0 -22.5 9t-8.5 22v526h-276q-222 0 -345.5 122.5t-123.5 315.5q0 194 123.5 316.5t345.5 122.5zM1085 1403q0 13 8.5 22t22.5 9h68q13 0 21.5 -8.5t8.5 -22.5v-1372q0 -14 -8.5 -22.5 t-21.5 -8.5h-68q-14 0 -22.5 9t-8.5 22v1372zM561 678h268v635h-268q-159 0 -255.5 -78t-96.5 -240q0 -110 47.5 -182.5t124 -103.5t180.5 -31z" />
<glyph unicode="&#xb7;" horiz-adv-x="305" d="M158 500q-37 0 -61.5 24.5t-24.5 61.5q0 35 24.5 59.5t61.5 24.5q35 0 59.5 -24.5t24.5 -59.5q0 -37 -24.5 -61.5t-59.5 -24.5z" />
<glyph unicode="&#xb8;" horiz-adv-x="335" d="M164 -82q68 -5 115 -47.5t47 -108.5q0 -59 -27 -102t-70 -62.5t-96 -28t-104 0.5q-19 3 -19 22v50q0 20 23 20q86 -9 136 14.5t50 75.5q0 50 -55.5 71t-128.5 -5q-11 -5 -18 -0.5t-7 14.5v41q0 12 10 25l93 102h129z" />
<glyph unicode="&#xb9;" horiz-adv-x="311" d="M205 1436v-535h-76v461h-55v74h131z" />
<glyph unicode="&#xba;" horiz-adv-x="894" d="M446 698q-155 0 -263.5 109t-108.5 264t108.5 264t263.5 109t264 -109t109 -264t-109 -264t-264 -109zM446 793q117 0 198 81t81 197t-81 197.5t-198 81.5q-115 0 -195.5 -81.5t-80.5 -197.5t80.5 -197t195.5 -81z" />
<glyph unicode="&#xbb;" horiz-adv-x="690" d="M326 645v-78q0 -23 -17 -37l-200 -174q-15 -12 -26 -7.5t-11 24.5v43q0 24 16 37l176 153l-176 154q-16 13 -16 37v43q0 20 11 24t26 -8l200 -174q17 -14 17 -37zM618 645v-78q0 -24 -16 -37l-201 -174q-15 -12 -25.5 -7.5t-10.5 24.5v43q0 24 16 37l176 153l-176 154 q-16 13 -16 37v43q0 20 10.5 24t25.5 -8l201 -174q16 -13 16 -37z" />
<glyph unicode="&#xbc;" horiz-adv-x="1185" d="M199 1436v-535h-76v461h-55v74h131zM1061 1434l-881 -1434h-98l893 1434h86zM1069 535v-316h55v-63h-55v-156h-76v156h-270l270 379h76zM993 424l-143 -205h143v205z" />
<glyph unicode="&#xbd;" horiz-adv-x="1134" d="M199 1436v-535h-76v461h-55v74h131zM1061 1434l-881 -1434h-98l893 1434h86zM895 541q70 0 121 -46.5t51 -107.5q0 -54 -29.5 -96.5t-109.5 -124.5l-97 -100h242v-66h-344v66l139 141q58 60 75 79t31.5 46t14.5 55q0 38 -28.5 64t-65.5 26q-39 0 -67.5 -26.5t-28.5 -75.5 v-29h-76v29q0 72 50.5 119t121.5 47z" />
<glyph unicode="&#xbe;" horiz-adv-x="1222" d="M248 1440q66 0 115 -42t49 -98q0 -64 -62 -108q38 -16 62 -50.5t24 -84.5q0 -69 -56 -116.5t-132 -47.5q-83 0 -136 55t-51 131h78q3 -51 32 -86t77 -35q45 0 77.5 28t32.5 71q0 55 -38 76t-113 24v57q66 0 97.5 23.5t31.5 62.5q0 32 -25.5 54t-62.5 22q-44 0 -69.5 -28 t-26.5 -82h-76q0 78 48 126t124 48zM1118 1434l-880 -1434h-99l893 1434h86zM1106 535v-316h55v-63h-55v-156h-76v156h-270l270 379h76zM1030 424l-143 -205h143v205z" />
<glyph unicode="&#xbf;" horiz-adv-x="968" d="M512 922q-35 0 -59.5 24.5t-24.5 59.5q0 37 24.5 61.5t59.5 24.5q37 0 61.5 -24.5t24.5 -61.5q0 -35 -24.5 -59.5t-61.5 -24.5zM903 -137q26 -32 2 -62q-66 -83 -180.5 -134.5t-230.5 -51.5q-187 0 -304.5 102.5t-117.5 259.5q0 272 387 426l6 254q0 13 8.5 22t22.5 9h43 q28 0 28 -31l11 -299q0 -25 -27 -34q-195 -67 -278 -150t-83 -205q0 -112 81.5 -175.5t215.5 -63.5q181 0 342 145q38 33 64 0z" />
<glyph unicode="&#xc0;" horiz-adv-x="1275" d="M578 1567l-123 258q-15 35 24 35h37q24 0 35 -25l123 -258q7 -17 0 -26t-25 -9h-37q-23 0 -34 25zM1219 35q6 -15 -1 -25t-24 -10h-66q-26 0 -34 25l-119 331h-672l-121 -331q-8 -25 -35 -25h-65q-17 0 -24 10t-1 25l506 1374q9 25 37 25h76q28 0 37 -25zM344 471h588 l-293 813z" />
<glyph unicode="&#xc1;" horiz-adv-x="1275" d="M635 1542q-18 0 -25 9t0 26l123 258q11 25 35 25h37q39 0 24 -35l-122 -258q-11 -25 -35 -25h-37zM1219 35q6 -15 -1 -25t-24 -10h-66q-26 0 -34 25l-119 331h-672l-121 -331q-8 -25 -35 -25h-65q-17 0 -24 10t-1 25l506 1374q9 25 37 25h76q28 0 37 -25zM344 471h588 l-293 813z" />
<glyph unicode="&#xc2;" horiz-adv-x="1275" d="M416 1606q-20 0 -24.5 10.5t7.5 25.5l174 201q14 17 37 17h78q23 0 37 -17l174 -201q12 -15 8 -25.5t-24 -10.5h-43q-24 0 -37 16l-154 176l-153 -176q-13 -16 -37 -16h-43zM1219 35q6 -15 -1 -25t-24 -10h-66q-26 0 -34 25l-119 331h-672l-121 -331q-8 -25 -35 -25h-65 q-17 0 -24 10t-1 25l506 1374q9 25 37 25h76q28 0 37 -25zM344 471h588l-293 813z" />
<glyph unicode="&#xc3;" horiz-adv-x="1275" d="M377 1733q-22 0 -19 24q7 65 52 101t110 36q45 0 85 -21t64 -45.5t58 -45.5t68 -21q61 0 84 66q6 18 22 18h27q20 0 20 -20q-9 -67 -53 -104.5t-100 -37.5q-48 0 -89.5 21t-66.5 46t-59 46t-68 21q-68 0 -86 -66q-6 -18 -23 -18h-26zM1219 35q6 -15 -1 -25t-24 -10h-66 q-26 0 -34 25l-119 331h-672l-121 -331q-8 -25 -35 -25h-65q-17 0 -24 10t-1 25l506 1374q9 25 37 25h76q28 0 37 -25zM344 471h588l-293 813z" />
<glyph unicode="&#xc4;" horiz-adv-x="1275" d="M471 1722q-32 0 -55 22.5t-23 53.5t23 53.5t55 22.5t55 -22.5t23 -53.5t-23 -53.5t-55 -22.5zM827 1722q-31 0 -54 22.5t-23 53.5t23 53.5t54 22.5q32 0 55 -22.5t23 -53.5t-23 -53.5t-55 -22.5zM1219 35q6 -15 -1 -25t-24 -10h-66q-26 0 -34 25l-119 331h-672l-121 -331 q-8 -25 -35 -25h-65q-17 0 -24 10t-1 25l506 1374q9 25 37 25h76q28 0 37 -25zM344 471h588l-293 813z" />
<glyph unicode="&#xc5;" horiz-adv-x="1275" d="M651 1591q-65 0 -110 44t-45 106t45 106.5t110 44.5q61 0 105.5 -44.5t44.5 -106.5q0 -61 -44.5 -105.5t-105.5 -44.5zM651 1798q-26 0 -42.5 -16t-16.5 -41q0 -24 16.5 -41t42.5 -17q23 0 40.5 17.5t17.5 40.5q0 24 -17 40.5t-41 16.5zM1219 35q6 -15 -1 -25t-24 -10 h-66q-26 0 -34 25l-119 331h-672l-121 -331q-8 -25 -35 -25h-65q-17 0 -24 10t-1 25l506 1374q9 25 37 25h76q28 0 37 -25zM344 471h588l-293 813z" />
<glyph unicode="&#xc6;" horiz-adv-x="1699" d="M1567 121q13 0 21.5 -8.5t8.5 -22.5v-59q0 -14 -8.5 -22.5t-21.5 -8.5h-695q-13 0 -21.5 8.5t-8.5 22.5v336h-480l-176 -342q-11 -25 -34 -25h-70q-17 0 -24.5 10t-0.5 25l711 1374q12 25 37 25h760q13 0 21.5 -8.5t8.5 -22.5v-60q0 -13 -8.5 -21.5t-21.5 -8.5h-594v-488 h559q14 0 22.5 -8.5t8.5 -21.5v-60q0 -13 -8.5 -21.5t-22.5 -8.5h-559v-584h596zM422 483h420v820z" />
<glyph unicode="&#xc7;" horiz-adv-x="1368" d="M1282 209q11 -11 10 -23t-12 -20q-218 -181 -442 -191l-54 -57q68 -5 115 -47.5t47 -108.5q0 -59 -27 -102t-70 -62.5t-96 -28t-104 0.5q-18 3 -18 22v50q0 20 22 20q86 -9 136.5 14.5t50.5 75.5q0 50 -56 71t-129 -5q-11 -4 -17.5 -0.5t-6.5 14.5v41q0 12 10 25l74 82 q-179 21 -323 122.5t-226 261.5t-82 347q0 152 56 289t151 235.5t228.5 156.5t281.5 58q251 0 479 -190q26 -22 2 -43l-43 -43q-21 -19 -43 0q-182 151 -393 151q-160 0 -295.5 -79.5t-215 -221t-79.5 -313.5q0 -171 79.5 -312.5t215 -221t295.5 -79.5q210 0 393 152 q22 19 43 0z" />
<glyph unicode="&#xc8;" horiz-adv-x="983" d="M334 1860h37q24 0 35 -25l122 -258q15 -35 -24 -35h-37q-24 0 -35 25l-123 258q-7 17 0 26t25 9zM850 121q14 0 22.5 -8.5t8.5 -22.5v-59q0 -13 -8.5 -22t-22.5 -9h-694q-14 0 -22.5 9t-8.5 22v1372q0 13 8.5 22t22.5 9h692q14 0 22.5 -9t8.5 -22v-60q0 -13 -8.5 -21.5 t-22.5 -8.5h-594v-488h559q14 0 22.5 -8.5t8.5 -21.5v-60q0 -13 -8.5 -21.5t-22.5 -8.5h-559v-584h596z" />
<glyph unicode="&#xc9;" horiz-adv-x="983" d="M659 1860q18 0 25 -9t0 -26l-123 -258q-11 -25 -35 -25h-37q-39 0 -24 35l123 258q11 25 35 25h36zM850 121q14 0 22.5 -8.5t8.5 -22.5v-59q0 -13 -8.5 -22t-22.5 -9h-694q-14 0 -22.5 9t-8.5 22v1372q0 13 8.5 22t22.5 9h692q14 0 22.5 -9t8.5 -22v-60q0 -13 -8.5 -21.5 t-22.5 -8.5h-594v-488h559q14 0 22.5 -8.5t8.5 -21.5v-60q0 -13 -8.5 -21.5t-22.5 -8.5h-559v-584h596z" />
<glyph unicode="&#xca;" horiz-adv-x="983" d="M543 1860q23 0 37 -17l174 -201q12 -15 7.5 -25.5t-24.5 -10.5h-43q-24 0 -37 16l-153 176l-154 -176q-13 -16 -37 -16h-43q-20 0 -24 10.5t8 25.5l174 201q14 17 37 17h78zM850 121q14 0 22.5 -8.5t8.5 -22.5v-59q0 -13 -8.5 -22t-22.5 -9h-694q-14 0 -22.5 9t-8.5 22 v1372q0 13 8.5 22t22.5 9h692q14 0 22.5 -9t8.5 -22v-60q0 -13 -8.5 -21.5t-22.5 -8.5h-594v-488h559q14 0 22.5 -8.5t8.5 -21.5v-60q0 -13 -8.5 -21.5t-22.5 -8.5h-559v-584h596z" />
<glyph unicode="&#xcb;" horiz-adv-x="983" d="M326 1722q-32 0 -55 22.5t-23 53.5t23 53.5t55 22.5t54.5 -22.5t22.5 -53.5t-22.5 -53.5t-54.5 -22.5zM682 1722q-31 0 -54.5 22.5t-23.5 53.5t23.5 53.5t54.5 22.5q32 0 55 -22.5t23 -53.5t-23 -53.5t-55 -22.5zM850 121q14 0 22.5 -8.5t8.5 -22.5v-59q0 -13 -8.5 -22 t-22.5 -9h-694q-14 0 -22.5 9t-8.5 22v1372q0 13 8.5 22t22.5 9h692q14 0 22.5 -9t8.5 -22v-60q0 -13 -8.5 -21.5t-22.5 -8.5h-594v-488h559q14 0 22.5 -8.5t8.5 -21.5v-60q0 -13 -8.5 -21.5t-22.5 -8.5h-559v-584h596z" />
<glyph unicode="&#xcc;" horiz-adv-x="378" d="M20 1860h37q24 0 35 -25l123 -258q7 -17 0 -26t-25 -9h-36q-24 0 -35 25l-123 258q-15 35 24 35zM125 1403q0 13 8.5 22t22.5 9h67q13 0 22 -9t9 -22v-1372q0 -13 -9 -22t-22 -9h-67q-14 0 -22.5 9t-8.5 22v1372z" />
<glyph unicode="&#xcd;" horiz-adv-x="378" d="M346 1860q18 0 25 -9t0 -26l-123 -258q-11 -25 -35 -25h-37q-39 0 -24 35l122 258q11 25 35 25h37zM125 1403q0 13 8.5 22t22.5 9h67q13 0 22 -9t9 -22v-1372q0 -13 -9 -22t-22 -9h-67q-14 0 -22.5 9t-8.5 22v1372z" />
<glyph unicode="&#xce;" horiz-adv-x="378" d="M229 1860q23 0 37 -17l174 -201q12 -15 8 -25.5t-24 -10.5h-43q-24 0 -37 16l-154 176l-153 -176q-13 -16 -37 -16h-43q-20 0 -24 10.5t8 25.5l174 201q14 17 37 17h77zM125 1403q0 13 8.5 22t22.5 9h67q13 0 22 -9t9 -22v-1372q0 -13 -9 -22t-22 -9h-67q-14 0 -22.5 9 t-8.5 22v1372z" />
<glyph unicode="&#xcf;" horiz-adv-x="378" d="M12 1722q-32 0 -55 22.5t-23 53.5t23 53.5t55 22.5t55 -22.5t23 -53.5t-23 -53.5t-55 -22.5zM369 1722q-31 0 -54.5 22.5t-23.5 53.5t23.5 53.5t54.5 22.5q32 0 54.5 -22.5t22.5 -53.5t-22.5 -53.5t-54.5 -22.5zM125 1403q0 13 8.5 22t22.5 9h67q13 0 22 -9t9 -22v-1372 q0 -13 -9 -22t-22 -9h-67q-14 0 -22.5 9t-8.5 22v1372z" />
<glyph unicode="&#xd0;" horiz-adv-x="1296" d="M473 1434q183 0 327.5 -54.5t236 -151.5t139 -226.5t47.5 -284.5t-47.5 -284.5t-139 -226.5t-236 -151.5t-327.5 -54.5h-301q-14 0 -22.5 9t-8.5 22v637h-80q-13 0 -21.5 8t-8.5 22v43q0 14 8.5 22.5t21.5 8.5h80v631q0 13 8.5 22t22.5 9h301zM473 121q305 0 462 157.5 t157 438.5t-157 438.5t-462 157.5h-203v-541h334q14 0 22.5 -9t8.5 -22v-43q0 -13 -8.5 -21.5t-22.5 -8.5h-334v-547h203z" />
<glyph unicode="&#xd1;" horiz-adv-x="1284" d="M369 1733q-22 0 -19 24q7 65 52 101t110 36q45 0 85 -21t64 -45.5t57.5 -45.5t67.5 -21q61 0 84 66q6 18 23 18h27q20 0 20 -20q-9 -67 -53.5 -104.5t-100.5 -37.5q-40 0 -74 14t-58 33.5t-46.5 39t-49 33.5t-54.5 14q-68 0 -86 -66q-6 -18 -23 -18h-26zM1128 1434 q14 0 22.5 -9t8.5 -22v-1372q0 -12 -7 -21t-17 -10h-107q-26 0 -37 20l-737 1237v-1226q0 -13 -9 -22t-22 -9h-67q-14 0 -22.5 9t-8.5 22v1372q0 27 25 31h106q25 0 37 -21l737 -1237v1227q0 13 9 22t22 9h67z" />
<glyph unicode="&#xd2;" horiz-adv-x="1630" d="M647 1860h37q24 0 35 -25l123 -258q7 -17 0 -26t-25 -9h-37q-24 0 -35 25l-122 258q-15 35 24 35zM817 -27q-150 0 -285.5 58t-233.5 156.5t-156 235.5t-58 288q0 152 58 289t156 235.5t233.5 156.5t285.5 58q149 0 283.5 -58t232.5 -156.5t155.5 -235.5t57.5 -289 q0 -151 -57.5 -288t-155.5 -235.5t-232.5 -156.5t-283.5 -58zM817 92q166 0 305.5 82.5t220 225t80.5 311.5q0 171 -80.5 314t-220 225.5t-305.5 82.5q-168 0 -308.5 -82.5t-221 -225.5t-80.5 -314q0 -170 80.5 -312t221 -224.5t308.5 -82.5z" />
<glyph unicode="&#xd3;" horiz-adv-x="1630" d="M973 1860q39 0 24 -35l-123 -258q-11 -25 -34 -25h-37q-18 0 -25 9t0 26l123 258q11 25 35 25h37zM817 -27q-150 0 -285.5 58t-233.5 156.5t-156 235.5t-58 288q0 152 58 289t156 235.5t233.5 156.5t285.5 58q149 0 283.5 -58t232.5 -156.5t155.5 -235.5t57.5 -289 q0 -151 -57.5 -288t-155.5 -235.5t-232.5 -156.5t-283.5 -58zM817 92q166 0 305.5 82.5t220 225t80.5 311.5q0 171 -80.5 314t-220 225.5t-305.5 82.5q-168 0 -308.5 -82.5t-221 -225.5t-80.5 -314q0 -170 80.5 -312t221 -224.5t308.5 -82.5z" />
<glyph unicode="&#xd4;" horiz-adv-x="1630" d="M856 1860q23 0 37 -17l174 -201q12 -15 8 -25.5t-24 -10.5h-43q-24 0 -37 16l-154 176l-153 -176q-13 -16 -37 -16h-43q-20 0 -24.5 10.5t7.5 25.5l174 201q14 17 37 17h78zM817 -27q-150 0 -285.5 58t-233.5 156.5t-156 235.5t-58 288q0 152 58 289t156 235.5 t233.5 156.5t285.5 58q149 0 283.5 -58t232.5 -156.5t155.5 -235.5t57.5 -289q0 -151 -57.5 -288t-155.5 -235.5t-232.5 -156.5t-283.5 -58zM817 92q166 0 305.5 82.5t220 225t80.5 311.5q0 171 -80.5 314t-220 225.5t-305.5 82.5q-168 0 -308.5 -82.5t-221 -225.5 t-80.5 -314q0 -170 80.5 -312t221 -224.5t308.5 -82.5z" />
<glyph unicode="&#xd5;" horiz-adv-x="1630" d="M688 1894q45 0 85 -21t64 -45.5t58 -45.5t68 -21q61 0 84 66q6 18 22 18h27q20 0 20 -20q-9 -67 -53 -104.5t-100 -37.5q-48 0 -89.5 21t-66.5 46t-59 46t-68 21q-68 0 -86 -66q-6 -18 -23 -18h-26q-22 0 -19 24q7 65 52 101t110 36zM817 -27q-150 0 -285.5 58 t-233.5 156.5t-156 235.5t-58 288q0 152 58 289t156 235.5t233.5 156.5t285.5 58q149 0 283.5 -58t232.5 -156.5t155.5 -235.5t57.5 -289q0 -151 -57.5 -288t-155.5 -235.5t-232.5 -156.5t-283.5 -58zM817 92q166 0 305.5 82.5t220 225t80.5 311.5q0 171 -80.5 314 t-220 225.5t-305.5 82.5q-168 0 -308.5 -82.5t-221 -225.5t-80.5 -314q0 -170 80.5 -312t221 -224.5t308.5 -82.5z" />
<glyph unicode="&#xd6;" horiz-adv-x="1630" d="M639 1722q-32 0 -55 22.5t-23 53.5t23 53.5t55 22.5t55 -22.5t23 -53.5t-23 -53.5t-55 -22.5zM995 1722q-31 0 -54 22.5t-23 53.5t23 53.5t54 22.5q32 0 55 -22.5t23 -53.5t-23 -53.5t-55 -22.5zM817 -27q-150 0 -285.5 58t-233.5 156.5t-156 235.5t-58 288q0 152 58 289 t156 235.5t233.5 156.5t285.5 58q149 0 283.5 -58t232.5 -156.5t155.5 -235.5t57.5 -289q0 -151 -57.5 -288t-155.5 -235.5t-232.5 -156.5t-283.5 -58zM817 92q166 0 305.5 82.5t220 225t80.5 311.5q0 171 -80.5 314t-220 225.5t-305.5 82.5q-168 0 -308.5 -82.5 t-221 -225.5t-80.5 -314q0 -170 80.5 -312t221 -224.5t308.5 -82.5z" />
<glyph unicode="&#xd7;" horiz-adv-x="702" d="M432 580l148 -148q20 -23 0 -43l-37 -37q-9 -9 -21.5 -9t-21.5 9l-148 148l-149 -150q-9 -9 -21.5 -9t-21.5 9l-37 37q-9 9 -9 21.5t9 21.5l149 150l-151 151q-20 20 0 43l37 35q23 23 43 0l151 -150l150 150q9 9 21.5 9t21.5 -9l37 -37q9 -9 9 -21.5t-9 -21.5z" />
<glyph unicode="&#xd8;" horiz-adv-x="1630" d="M1167 1360q172 -96 275.5 -268.5t103.5 -380.5q0 -151 -57.5 -288t-155.5 -235.5t-232.5 -156.5t-283.5 -58q-134 0 -250 43l-43 -96q-8 -22 -35 -22h-57q-17 0 -23 9.5t1 26.5l57 127q-175 95 -279 268.5t-104 381.5q0 152 58 289t156 235.5t233.5 156.5t285.5 58 q126 0 250 -43l43 96q9 23 35 23h57q17 0 23.5 -10t-0.5 -27zM207 711q0 -173 84 -316.5t225 -222.5l502 1126q-93 35 -201 35q-168 0 -308.5 -82.5t-221 -225.5t-80.5 -314zM817 92q166 0 305.5 82.5t220 225t80.5 311.5q0 173 -82.5 317t-222.5 225l-502 -1128 q101 -33 201 -33z" />
<glyph unicode="&#xd9;" horiz-adv-x="1243" d="M453 1860h36q24 0 35 -25l123 -258q15 -35 -24 -35h-37q-24 0 -35 25l-123 258q-7 17 0 26t25 9zM1098 1434q13 0 21.5 -8.5t8.5 -22.5v-848q0 -280 -139.5 -431t-365.5 -151q-228 0 -368 151t-140 431v848q0 14 8.5 22.5t21.5 8.5h68q13 0 22 -9t9 -22v-848 q0 -229 105 -347t274 -118q167 0 271.5 118t104.5 347v848q0 13 8.5 22t22.5 9h68z" />
<glyph unicode="&#xda;" horiz-adv-x="1243" d="M778 1860q18 0 25 -9t0 -26l-123 -258q-11 -25 -35 -25h-37q-39 0 -24 35l123 258q11 25 34 25h37zM1098 1434q13 0 21.5 -8.5t8.5 -22.5v-848q0 -280 -139.5 -431t-365.5 -151q-228 0 -368 151t-140 431v848q0 14 8.5 22.5t21.5 8.5h68q13 0 22 -9t9 -22v-848 q0 -229 105 -347t274 -118q167 0 271.5 118t104.5 347v848q0 13 8.5 22t22.5 9h68z" />
<glyph unicode="&#xdb;" horiz-adv-x="1243" d="M662 1860q22 0 36 -17l174 -201q12 -15 8 -25.5t-24 -10.5h-43q-24 0 -37 16l-153 176l-154 -176q-13 -16 -37 -16h-43q-20 0 -24 10.5t8 25.5l174 201q14 17 37 17h78zM1098 1434q13 0 21.5 -8.5t8.5 -22.5v-848q0 -280 -139.5 -431t-365.5 -151q-228 0 -368 151 t-140 431v848q0 14 8.5 22.5t21.5 8.5h68q13 0 22 -9t9 -22v-848q0 -229 105 -347t274 -118q167 0 271.5 118t104.5 347v848q0 13 8.5 22t22.5 9h68z" />
<glyph unicode="&#xdc;" horiz-adv-x="1243" d="M444 1722q-32 0 -54.5 22.5t-22.5 53.5t22.5 53.5t54.5 22.5t55 -22.5t23 -53.5t-23 -53.5t-55 -22.5zM801 1722q-31 0 -54.5 22.5t-23.5 53.5t23.5 53.5t54.5 22.5q32 0 55 -22.5t23 -53.5t-23 -53.5t-55 -22.5zM1098 1434q13 0 21.5 -8.5t8.5 -22.5v-848 q0 -280 -139.5 -431t-365.5 -151q-228 0 -368 151t-140 431v848q0 14 8.5 22.5t21.5 8.5h68q13 0 22 -9t9 -22v-848q0 -229 105 -347t274 -118q167 0 271.5 118t104.5 347v848q0 13 8.5 22t22.5 9h68z" />
<glyph unicode="&#xdd;" horiz-adv-x="1138" d="M555 1542q-18 0 -25 9t0 26l123 258q11 25 35 25h37q18 0 25 -9t0 -26l-123 -258q-11 -25 -35 -25h-37zM1038 1434q18 0 24 -11t-3 -26l-426 -699v-667q0 -13 -8.5 -22t-22.5 -9h-65q-13 0 -22 9t-9 22v667l-426 699q-9 15 -3.5 26t23.5 11h72q25 0 37 -21l360 -592 l361 592q12 21 37 21h71z" />
<glyph unicode="&#xde;" horiz-adv-x="1083" d="M559 1155q222 0 341.5 -122.5t119.5 -315.5t-119.5 -315.5t-341.5 -122.5h-305v-248q0 -13 -9 -22t-22 -9h-67q-14 0 -22.5 9t-8.5 22v1372q0 13 8.5 22t22.5 9h67q13 0 22 -9t9 -22v-248h305zM547 399q159 0 253.5 77.5t94.5 240.5t-94 240t-254 77h-293v-635h293z" />
<glyph unicode="&#xdf;" horiz-adv-x="1148" d="M756 784q162 -33 245.5 -131.5t83.5 -242.5q0 -211 -139 -310.5t-426 -99.5h-133q-13 0 -22 9t-9 22v49q0 14 9 22.5t22 8.5h133q232 0 339.5 67.5t107.5 235.5q0 150 -116 228.5t-323 78.5h-141q-13 0 -22 8.5t-9 22.5v49q0 13 8.5 21.5t22.5 8.5h141q165 0 261 69.5 t96 203.5q0 109 -85 167t-249 58q-89 0 -150.5 -19t-93.5 -55t-45.5 -78.5t-13.5 -97.5v-1048q0 -13 -9 -22t-22 -9h-61q-14 0 -22.5 9t-8.5 22v1048q0 160 107.5 257.5t318.5 97.5q212 0 332.5 -91.5t120.5 -246.5q0 -110 -62.5 -191.5t-185.5 -120.5z" />
<glyph unicode="&#xe0;" d="M508 1137l-123 258q-7 17 0 26t25 9h36q24 0 35 -25l123 -258q15 -35 -24 -35h-37q-24 0 -35 25zM1030 1004q14 0 22.5 -9t8.5 -22v-942q0 -13 -8.5 -22t-22.5 -9h-55q-28 0 -31 31l-10 133q-60 -89 -154 -139t-213 -50q-214 0 -353.5 151.5t-139.5 373.5t139.5 373 t353.5 151q120 0 214.5 -50t154.5 -140l8 139q3 31 31 31h55zM575 88q140 0 242 92.5t129 233.5l4 86l-4 88q-27 141 -129 233t-242 92q-165 0 -273.5 -117t-108.5 -294q0 -179 108 -296.5t274 -117.5z" />
<glyph unicode="&#xe1;" d="M565 1112q-39 0 -24 35l123 258q11 25 34 25h37q18 0 25 -9t0 -26l-123 -258q-11 -25 -35 -25h-37zM1030 1004q14 0 22.5 -9t8.5 -22v-942q0 -13 -8.5 -22t-22.5 -9h-55q-28 0 -31 31l-10 133q-60 -89 -154 -139t-213 -50q-214 0 -353.5 151.5t-139.5 373.5t139.5 373 t353.5 151q120 0 214.5 -50t154.5 -140l8 139q3 31 31 31h55zM575 88q140 0 242 92.5t129 233.5l4 86l-4 88q-27 141 -129 233t-242 92q-165 0 -273.5 -117t-108.5 -294q0 -179 108 -296.5t274 -117.5z" />
<glyph unicode="&#xe2;" d="M346 1176q-20 0 -24 10.5t8 25.5l174 201q14 17 37 17h77q23 0 37 -17l174 -201q12 -15 8 -25.5t-24 -10.5h-43q-24 0 -37 16l-153 176l-154 -176q-13 -16 -37 -16h-43zM1030 1004q14 0 22.5 -9t8.5 -22v-942q0 -13 -8.5 -22t-22.5 -9h-55q-28 0 -31 31l-10 133 q-60 -89 -154 -139t-213 -50q-214 0 -353.5 151.5t-139.5 373.5t139.5 373t353.5 151q120 0 214.5 -50t154.5 -140l8 139q3 31 31 31h55zM575 88q140 0 242 92.5t129 233.5l4 86l-4 88q-27 141 -129 233t-242 92q-165 0 -273.5 -117t-108.5 -294q0 -179 108 -296.5 t274 -117.5z" />
<glyph unicode="&#xe3;" d="M307 1303q-21 0 -18 24q7 65 52 101t110 36q45 0 85 -21t64 -45.5t57.5 -45.5t67.5 -21q61 0 84 66q6 18 22 18h27q21 0 21 -20q-9 -67 -53.5 -104.5t-100.5 -37.5q-48 0 -89.5 21t-66.5 45.5t-59 45.5t-68 21q-68 0 -86 -65q-6 -18 -22 -18h-27zM1030 1004q14 0 22.5 -9 t8.5 -22v-942q0 -13 -8.5 -22t-22.5 -9h-55q-28 0 -31 31l-10 133q-60 -89 -154 -139t-213 -50q-214 0 -353.5 151.5t-139.5 373.5t139.5 373t353.5 151q120 0 214.5 -50t154.5 -140l8 139q3 31 31 31h55zM575 88q140 0 242 92.5t129 233.5l4 86l-4 88q-27 141 -129 233 t-242 92q-165 0 -273.5 -117t-108.5 -294q0 -179 108 -296.5t274 -117.5z" />
<glyph unicode="&#xe4;" d="M401 1292q-32 0 -54.5 22.5t-22.5 53.5t22.5 53.5t54.5 22.5t55 -22.5t23 -53.5t-23 -53.5t-55 -22.5zM758 1292q-31 0 -54.5 22.5t-23.5 53.5t23.5 53.5t54.5 22.5q32 0 55 -22.5t23 -53.5t-23 -53.5t-55 -22.5zM1030 1004q14 0 22.5 -9t8.5 -22v-942q0 -13 -8.5 -22 t-22.5 -9h-55q-28 0 -31 31l-10 133q-60 -89 -154 -139t-213 -50q-214 0 -353.5 151.5t-139.5 373.5t139.5 373t353.5 151q120 0 214.5 -50t154.5 -140l8 139q3 31 31 31h55zM575 88q140 0 242 92.5t129 233.5l4 86l-4 88q-27 141 -129 233t-242 92q-165 0 -273.5 -117 t-108.5 -294q0 -179 108 -296.5t274 -117.5z" />
<glyph unicode="&#xe5;" d="M582 1161q-66 0 -111 44t-45 106t45.5 106.5t110.5 44.5q61 0 105 -44.5t44 -106.5t-44 -106t-105 -44zM582 1368q-26 0 -43 -16t-17 -41q0 -24 17 -41t43 -17q23 0 40 17.5t17 40.5q0 24 -16.5 40.5t-40.5 16.5zM1030 1004q14 0 22.5 -9t8.5 -22v-942q0 -13 -8.5 -22 t-22.5 -9h-55q-28 0 -31 31l-10 133q-60 -89 -154 -139t-213 -50q-214 0 -353.5 151.5t-139.5 373.5t139.5 373t353.5 151q120 0 214.5 -50t154.5 -140l8 139q3 31 31 31h55zM575 88q140 0 242 92.5t129 233.5l4 86l-4 88q-27 141 -129 233t-242 92q-165 0 -273.5 -117 t-108.5 -294q0 -179 108 -296.5t274 -117.5z" />
<glyph unicode="&#xe6;" horiz-adv-x="1984" d="M1442 1026q139 0 247.5 -68.5t165 -178t56.5 -236.5q0 -53 -11.5 -75t-46.5 -22h-780q18 -157 125 -259.5t272 -102.5q169 0 289 109q25 22 43 6l27 -25q25 -24 2 -47q-148 -154 -375 -154q-122 0 -224 50.5t-171 140.5v-133q0 -13 -8.5 -22t-22.5 -9h-55q-28 0 -31 31 l-10 133q-60 -89 -154 -139t-213 -50q-214 0 -353.5 151.5t-139.5 373.5t139.5 373t353.5 151q120 0 214.5 -50t154.5 -140l8 139q3 31 31 31h55q14 0 22.5 -9t8.5 -22v-133q66 88 164.5 137t216.5 49zM1440 915q-152 0 -252.5 -103.5t-114.5 -262.5h729q-3 153 -105 259.5 t-257 106.5zM575 88q140 0 242 92.5t129 233.5l4 86l-4 88q-27 141 -129 233t-242 92q-165 0 -273.5 -117t-108.5 -294q0 -179 108 -296.5t274 -117.5z" />
<glyph unicode="&#xe7;" horiz-adv-x="1114" d="M963 195q21 -21 2 -43q-127 -146 -306 -172l-59 -62q68 -5 115 -47.5t47 -108.5q0 -59 -27 -102t-70 -62.5t-96 -28t-104 0.5q-19 3 -19 22v50q0 20 23 20q86 -9 136 14.5t50 75.5q0 50 -55.5 71t-128.5 -5q-11 -5 -18 -0.5t-7 14.5v41q0 10 11 25l69 77 q-198 19 -325 167t-127 358q0 223 143 374.5t358 151.5q229 0 383 -178q19 -22 -2 -43l-32 -27q-22 -22 -45 -2q-2 2 -22.5 21t-26 24.5t-27 22.5t-34 23t-37 18t-45.5 16.5t-50.5 9t-61.5 4.5q-168 0 -275 -117.5t-107 -297.5t107 -298t275 -118q63 0 113.5 12t89 37 t57.5 41.5t50 48.5q23 23 45 0z" />
<glyph unicode="&#xe8;" horiz-adv-x="1105" d="M481 1137l-123 258q-7 17 0 26t25 9h37q24 0 35 -25l123 -258q7 -17 0 -26t-25 -9h-37q-24 0 -35 25zM563 1026q139 0 247.5 -68.5t165 -178t56.5 -236.5q0 -53 -11 -75t-46 -22h-780q18 -157 125 -259.5t272 -102.5q169 0 289 109q25 22 43 6l26 -25q24 -24 2 -47 q-148 -154 -374 -154q-145 0 -260.5 70t-179.5 190.5t-64 266.5q0 224 137.5 375t351.5 151zM561 915q-152 0 -252 -103.5t-114 -262.5h729q-3 152 -105.5 259t-257.5 107z" />
<glyph unicode="&#xe9;" horiz-adv-x="1105" d="M539 1112q-18 0 -25 9t0 26l123 258q11 25 35 25h37q39 0 24 -35l-123 -258q-11 -25 -35 -25h-36zM563 1026q139 0 247.5 -68.5t165 -178t56.5 -236.5q0 -53 -11 -75t-46 -22h-780q18 -157 125 -259.5t272 -102.5q169 0 289 109q25 22 43 6l26 -25q24 -24 2 -47 q-148 -154 -374 -154q-145 0 -260.5 70t-179.5 190.5t-64 266.5q0 224 137.5 375t351.5 151zM561 915q-152 0 -252 -103.5t-114 -262.5h729q-3 152 -105.5 259t-257.5 107z" />
<glyph unicode="&#xea;" horiz-adv-x="1105" d="M319 1176q-20 0 -24 10.5t8 25.5l174 201q14 17 37 17h78q23 0 37 -17l174 -201q12 -15 7.5 -25.5t-24.5 -10.5h-43q-23 0 -36 16l-154 176l-154 -176q-13 -16 -37 -16h-43zM563 1026q139 0 247.5 -68.5t165 -178t56.5 -236.5q0 -53 -11 -75t-46 -22h-780 q18 -157 125 -259.5t272 -102.5q169 0 289 109q25 22 43 6l26 -25q24 -24 2 -47q-148 -154 -374 -154q-145 0 -260.5 70t-179.5 190.5t-64 266.5q0 224 137.5 375t351.5 151zM561 915q-152 0 -252 -103.5t-114 -262.5h729q-3 152 -105.5 259t-257.5 107z" />
<glyph unicode="&#xeb;" horiz-adv-x="1105" d="M375 1292q-32 0 -55 22.5t-23 53.5t23 53.5t55 22.5t55 -22.5t23 -53.5t-23 -53.5t-55 -22.5zM731 1292q-31 0 -54.5 22.5t-23.5 53.5t23.5 53.5t54.5 22.5q32 0 55 -22.5t23 -53.5t-23 -53.5t-55 -22.5zM563 1026q139 0 247.5 -68.5t165 -178t56.5 -236.5q0 -53 -11 -75 t-46 -22h-780q18 -157 125 -259.5t272 -102.5q169 0 289 109q25 22 43 6l26 -25q24 -24 2 -47q-148 -154 -374 -154q-145 0 -260.5 70t-179.5 190.5t-64 266.5q0 224 137.5 375t351.5 151zM561 915q-152 0 -252 -103.5t-114 -262.5h729q-3 152 -105.5 259t-257.5 107z" />
<glyph unicode="&#xec;" horiz-adv-x="333" d="M-2 1430h37q24 0 35 -25l123 -258q7 -17 0 -26t-25 -9h-37q-24 0 -35 25l-123 258q-7 17 0 26t25 9zM104 973q0 13 9 22t22 9h62q13 0 21.5 -8.5t8.5 -22.5v-942q0 -14 -8.5 -22.5t-21.5 -8.5h-62q-13 0 -22 9t-9 22v942z" />
<glyph unicode="&#xed;" horiz-adv-x="333" d="M324 1430q39 0 24 -35l-123 -258q-11 -25 -35 -25h-36q-18 0 -25 9t0 26l123 258q11 25 35 25h37zM104 973q0 13 9 22t22 9h62q13 0 21.5 -8.5t8.5 -22.5v-942q0 -14 -8.5 -22.5t-21.5 -8.5h-62q-13 0 -22 9t-9 22v942z" />
<glyph unicode="&#xee;" horiz-adv-x="333" d="M207 1430q23 0 37 -17l174 -201q12 -15 7.5 -25.5t-24.5 -10.5h-43q-23 0 -36 16l-154 176l-154 -176q-13 -16 -37 -16h-43q-20 0 -24 10.5t8 25.5l174 201q14 17 37 17h78zM104 973q0 13 9 22t22 9h62q13 0 21.5 -8.5t8.5 -22.5v-942q0 -14 -8.5 -22.5t-21.5 -8.5h-62 q-13 0 -22 9t-9 22v942z" />
<glyph unicode="&#xef;" horiz-adv-x="333" d="M-10 1292q-32 0 -55 22.5t-23 53.5t23 53.5t55 22.5t55 -22.5t23 -53.5t-23 -53.5t-55 -22.5zM346 1292q-31 0 -54.5 22.5t-23.5 53.5t23.5 53.5t54.5 22.5q32 0 55 -22.5t23 -53.5t-23 -53.5t-55 -22.5zM104 973q0 13 9 22t22 9h62q13 0 21.5 -8.5t8.5 -22.5v-942 q0 -14 -8.5 -22.5t-21.5 -8.5h-62q-13 0 -22 9t-9 22v942z" />
<glyph unicode="&#xf0;" d="M1124 1278q33 3 33 -29v-41q0 -29 -29 -32l-67 -11v-1134q0 -13 -8.5 -22t-22.5 -9h-55q-28 0 -31 31l-10 133q-60 -89 -154 -139t-213 -50q-214 0 -353.5 151.5t-139.5 373.5t139.5 373t353.5 151q120 0 214.5 -50t154.5 -140l2 26v287l-184 -27q-33 -3 -33 29v41 q0 30 29 33l188 28v213q0 14 9 22.5t22 8.5h61q14 0 22.5 -8.5t8.5 -22.5v-196zM575 88q140 0 242 92.5t129 233.5l4 86l-4 88q-27 141 -129 233t-242 92q-165 0 -273.5 -117t-108.5 -294q0 -179 108 -296.5t274 -117.5z" />
<glyph unicode="&#xf1;" horiz-adv-x="1028" d="M244 1303q-22 0 -19 24q7 65 52 101t110 36q45 0 85 -21t64 -45.5t58 -45.5t68 -21q60 0 83 66q6 18 23 18h27q20 0 20 -20q-9 -67 -53 -104.5t-100 -37.5q-48 0 -89.5 21t-66.5 45.5t-59 45.5t-68 21q-68 0 -86 -65q-6 -18 -23 -18h-26zM573 1026q165 0 258 -98.5 t93 -294.5v-602q0 -13 -9 -22t-22 -9h-62q-13 0 -21.5 8.5t-8.5 22.5v602q0 137 -63.5 212t-180.5 75q-73 0 -139.5 -33t-105.5 -77t-62 -83t-23 -57v-639q0 -14 -8.5 -22.5t-21.5 -8.5h-62q-13 0 -22 9t-9 22v942q0 13 9 22t22 9h53q28 0 31 -31l8 -144v-2 q62 90 149.5 144.5t196.5 54.5z" />
<glyph unicode="&#xf2;" horiz-adv-x="1159" d="M410 1430h36q24 0 35 -25l123 -258q15 -35 -24 -35h-37q-24 0 -35 25l-123 258q-7 17 0 26t25 9zM580 -27q-141 0 -257.5 69.5t-182.5 190.5t-66 267q0 223 145.5 374.5t360.5 151.5q141 0 256.5 -69t181 -189.5t65.5 -267.5t-65.5 -267.5t-181 -190t-256.5 -69.5z M580 84q164 0 275.5 118t111.5 298t-111.5 297.5t-275.5 117.5q-165 0 -276 -117.5t-111 -297.5t111 -298t276 -118z" />
<glyph unicode="&#xf3;" horiz-adv-x="1159" d="M735 1430q18 0 25 -9t0 -26l-123 -258q-11 -25 -35 -25h-37q-39 0 -24 35l123 258q11 25 34 25h37zM580 -27q-141 0 -257.5 69.5t-182.5 190.5t-66 267q0 223 145.5 374.5t360.5 151.5q141 0 256.5 -69t181 -189.5t65.5 -267.5t-65.5 -267.5t-181 -190t-256.5 -69.5z M580 84q164 0 275.5 118t111.5 298t-111.5 297.5t-275.5 117.5q-165 0 -276 -117.5t-111 -297.5t111 -298t276 -118z" />
<glyph unicode="&#xf4;" horiz-adv-x="1159" d="M618 1430q23 0 37 -17l174 -201q12 -15 8 -25.5t-24 -10.5h-43q-24 0 -37 16l-153 176l-154 -176q-13 -16 -37 -16h-43q-20 0 -24 10.5t8 25.5l174 201q14 17 37 17h77zM580 -27q-141 0 -257.5 69.5t-182.5 190.5t-66 267q0 223 145.5 374.5t360.5 151.5q141 0 256.5 -69 t181 -189.5t65.5 -267.5t-65.5 -267.5t-181 -190t-256.5 -69.5zM580 84q164 0 275.5 118t111.5 298t-111.5 297.5t-275.5 117.5q-165 0 -276 -117.5t-111 -297.5t111 -298t276 -118z" />
<glyph unicode="&#xf5;" horiz-adv-x="1159" d="M451 1464q45 0 85 -21t64 -45.5t57.5 -45.5t67.5 -21q61 0 84 66q6 18 22 18h27q21 0 21 -20q-9 -67 -53.5 -104.5t-100.5 -37.5q-48 0 -89.5 21t-66.5 45.5t-59 45.5t-68 21q-68 0 -86 -65q-6 -18 -22 -18h-27q-21 0 -18 24q7 65 52 101t110 36zM580 -27 q-141 0 -257.5 69.5t-182.5 190.5t-66 267q0 223 145.5 374.5t360.5 151.5q141 0 256.5 -69t181 -189.5t65.5 -267.5t-65.5 -267.5t-181 -190t-256.5 -69.5zM580 84q164 0 275.5 118t111.5 298t-111.5 297.5t-275.5 117.5q-165 0 -276 -117.5t-111 -297.5t111 -298t276 -118 z" />
<glyph unicode="&#xf6;" horiz-adv-x="1159" d="M401 1292q-32 0 -54.5 22.5t-22.5 53.5t22.5 53.5t54.5 22.5t55 -22.5t23 -53.5t-23 -53.5t-55 -22.5zM758 1292q-31 0 -54.5 22.5t-23.5 53.5t23.5 53.5t54.5 22.5q32 0 55 -22.5t23 -53.5t-23 -53.5t-55 -22.5zM580 -27q-141 0 -257.5 69.5t-182.5 190.5t-66 267 q0 223 145.5 374.5t360.5 151.5q141 0 256.5 -69t181 -189.5t65.5 -267.5t-65.5 -267.5t-181 -190t-256.5 -69.5zM580 84q164 0 275.5 118t111.5 298t-111.5 297.5t-275.5 117.5q-165 0 -276 -117.5t-111 -297.5t111 -298t276 -118z" />
<glyph unicode="&#xf7;" horiz-adv-x="862" d="M434 754q-37 0 -61.5 24.5t-24.5 61.5q0 35 24.5 59.5t61.5 24.5q35 0 59.5 -24.5t24.5 -59.5q0 -37 -24.5 -61.5t-59.5 -24.5zM719 637q13 0 22 -8.5t9 -22.5v-51q0 -13 -9 -22t-22 -9h-576q-13 0 -21.5 8.5t-8.5 22.5v51q0 14 8.5 22.5t21.5 8.5h576zM434 205 q-37 0 -61.5 24.5t-24.5 61.5q0 35 24.5 59.5t61.5 24.5q35 0 59.5 -24.5t24.5 -59.5q0 -37 -24.5 -61.5t-59.5 -24.5z" />
<glyph unicode="&#xf8;" horiz-adv-x="1159" d="M844 950q111 -69 175 -187.5t64 -262.5q0 -147 -65.5 -267.5t-181 -190t-256.5 -69.5q-85 0 -170 29l-56 -123q-9 -22 -35 -22h-51q-17 0 -23 10t1 27l69 153q-112 68 -176.5 187.5t-64.5 265.5q0 223 145.5 374.5t360.5 151.5q85 0 170 -29l55 123q10 23 35 23h53 q17 0 23 -10t-1 -27zM193 500q0 -112 45 -202.5t124 -147.5l340 745q-56 20 -122 20q-165 0 -276 -117.5t-111 -297.5zM580 84q164 0 275.5 118t111.5 298q0 112 -45 202.5t-125 145.5l-340 -744q56 -20 123 -20z" />
<glyph unicode="&#xf9;" horiz-adv-x="1017" d="M434 1137l-123 258q-7 17 0 26t25 9h37q24 0 35 -25l122 -258q15 -35 -24 -35h-37q-24 0 -35 25zM883 1004q13 0 21.5 -8.5t8.5 -22.5v-942q0 -14 -8.5 -22.5t-21.5 -8.5h-54q-27 0 -30 31l-8 125q-126 -183 -328 -183q-175 0 -272 100.5t-97 297.5v602q0 13 9 22t22 9 h61q14 0 22.5 -9t8.5 -22v-602q0 -138 66 -215.5t188 -77.5q58 0 111.5 21.5t90 53.5t64.5 68.5t41 68t13 50.5v633q0 14 8.5 22.5t21.5 8.5h62z" />
<glyph unicode="&#xfa;" horiz-adv-x="1017" d="M492 1112q-18 0 -25 9t0 26l123 258q11 25 35 25h37q39 0 24 -35l-123 -258q-11 -25 -35 -25h-36zM883 1004q13 0 21.5 -8.5t8.5 -22.5v-942q0 -14 -8.5 -22.5t-21.5 -8.5h-54q-27 0 -30 31l-8 125q-126 -183 -328 -183q-175 0 -272 100.5t-97 297.5v602q0 13 9 22t22 9 h61q14 0 22.5 -9t8.5 -22v-602q0 -138 66 -215.5t188 -77.5q58 0 111.5 21.5t90 53.5t64.5 68.5t41 68t13 50.5v633q0 14 8.5 22.5t21.5 8.5h62z" />
<glyph unicode="&#xfb;" horiz-adv-x="1017" d="M272 1176q-20 0 -24 10.5t8 25.5l174 201q14 17 37 17h78q23 0 37 -17l174 -201q12 -15 7.5 -25.5t-24.5 -10.5h-43q-24 0 -37 16l-153 176l-154 -176q-13 -16 -37 -16h-43zM883 1004q13 0 21.5 -8.5t8.5 -22.5v-942q0 -14 -8.5 -22.5t-21.5 -8.5h-54q-27 0 -30 31 l-8 125q-126 -183 -328 -183q-175 0 -272 100.5t-97 297.5v602q0 13 9 22t22 9h61q14 0 22.5 -9t8.5 -22v-602q0 -138 66 -215.5t188 -77.5q58 0 111.5 21.5t90 53.5t64.5 68.5t41 68t13 50.5v633q0 14 8.5 22.5t21.5 8.5h62z" />
<glyph unicode="&#xfc;" horiz-adv-x="1017" d="M328 1292q-32 0 -55 22.5t-23 53.5t23 53.5t55 22.5t55 -22.5t23 -53.5t-23 -53.5t-55 -22.5zM684 1292q-31 0 -54.5 22.5t-23.5 53.5t23.5 53.5t54.5 22.5q32 0 55 -22.5t23 -53.5t-23 -53.5t-55 -22.5zM883 1004q13 0 21.5 -8.5t8.5 -22.5v-942q0 -14 -8.5 -22.5 t-21.5 -8.5h-54q-27 0 -30 31l-8 125q-126 -183 -328 -183q-175 0 -272 100.5t-97 297.5v602q0 13 9 22t22 9h61q14 0 22.5 -9t8.5 -22v-602q0 -138 66 -215.5t188 -77.5q58 0 111.5 21.5t90 53.5t64.5 68.5t41 68t13 50.5v633q0 14 8.5 22.5t21.5 8.5h62z" />
<glyph unicode="&#xfd;" horiz-adv-x="1013" d="M662 1430q39 0 24 -35l-123 -258q-11 -25 -35 -25h-36q-18 0 -25 9t0 26l123 258q11 25 35 25h37zM932 1004q36 0 24 -35l-528 -1334q-9 -24 -37 -24h-63q-37 0 -25 35l139 350l-385 973q-12 35 25 35h63q28 0 37 -25l324 -842l323 842q9 25 37 25h66z" />
<glyph unicode="&#xfe;" horiz-adv-x="1181" d="M616 1024q142 0 255.5 -69.5t176 -189.5t62.5 -265q0 -222 -140 -373.5t-354 -151.5h-8h-8q-220 0 -352 168l-4 -55v-446q0 -14 -9 -22.5t-22 -8.5h-61q-14 0 -22.5 8.5t-8.5 22.5v362q-15 8 -15 27v1433q0 14 9 22.5t22 8.5h62q13 0 21.5 -8.5t8.5 -22.5v-469 q8 -5 11 -22l6 -119q131 170 354 170h8h8zM238 414q27 -139 126 -231t236 -95q163 3 269 120t106 294q0 175 -106 291.5t-269 119.5q-137 -3 -236 -94.5t-126 -230.5l-5 -88z" />
<glyph unicode="&#xff;" horiz-adv-x="1013" d="M328 1292q-32 0 -55 22.5t-23 53.5t23 53.5t55 22.5t55 -22.5t23 -53.5t-23 -53.5t-55 -22.5zM684 1292q-31 0 -54.5 22.5t-23.5 53.5t23.5 53.5t54.5 22.5q32 0 55 -22.5t23 -53.5t-23 -53.5t-55 -22.5zM932 1004q36 0 24 -35l-528 -1334q-9 -24 -37 -24h-63 q-37 0 -25 35l139 350l-385 973q-12 35 25 35h63q28 0 37 -25l324 -842l323 842q9 25 37 25h66z" />
<glyph unicode="&#x100;" horiz-adv-x="1275" d="M379 1755q-13 0 -22 8.5t-9 22.5v43q0 13 9 22t22 9h543q13 0 21.5 -8.5t8.5 -22.5v-43q0 -14 -8.5 -22.5t-21.5 -8.5h-543zM1219 35q6 -15 -1 -25t-24 -10h-66q-26 0 -34 25l-119 331h-672l-121 -331q-8 -25 -35 -25h-65q-17 0 -24 10t-1 25l506 1374q9 25 37 25h76 q28 0 37 -25zM344 471h588l-293 813z" />
<glyph unicode="&#x101;" d="M309 1325q-13 0 -21.5 8.5t-8.5 22.5v43q0 14 8.5 22.5t21.5 8.5h543q14 0 22.5 -9t8.5 -22v-43q0 -14 -8.5 -22.5t-22.5 -8.5h-543zM1030 1004q14 0 22.5 -9t8.5 -22v-942q0 -13 -8.5 -22t-22.5 -9h-55q-28 0 -31 31l-10 133q-60 -89 -154 -139t-213 -50 q-214 0 -353.5 151.5t-139.5 373.5t139.5 373t353.5 151q120 0 214.5 -50t154.5 -140l8 139q3 31 31 31h55zM575 88q140 0 242 92.5t129 233.5l4 86l-4 88q-27 141 -129 233t-242 92q-165 0 -273.5 -117t-108.5 -294q0 -179 108 -296.5t274 -117.5z" />
<glyph unicode="&#x102;" horiz-adv-x="1275" d="M649 1595q-113 0 -186 66.5t-84 169.5q-3 31 29 31h30q27 0 33 -29q12 -65 59 -105t119 -40t120 40t60 105q6 29 33 29h31q32 0 29 -31q-11 -103 -85 -169.5t-188 -66.5zM1219 35q6 -15 -1 -25t-24 -10h-66q-26 0 -34 25l-119 331h-672l-121 -331q-8 -25 -35 -25h-65 q-17 0 -24 10t-1 25l506 1374q9 25 37 25h76q28 0 37 -25zM344 471h588l-293 813z" />
<glyph unicode="&#x103;" d="M580 1165q-113 0 -186.5 67t-84.5 169q-3 31 29 31h31q26 0 32 -29q12 -65 59.5 -105.5t119.5 -40.5t120 40.5t60 105.5q6 29 33 29h30q32 0 29 -31q-11 -103 -84.5 -169.5t-187.5 -66.5zM1030 1004q14 0 22.5 -9t8.5 -22v-942q0 -13 -8.5 -22t-22.5 -9h-55q-28 0 -31 31 l-10 133q-60 -89 -154 -139t-213 -50q-214 0 -353.5 151.5t-139.5 373.5t139.5 373t353.5 151q120 0 214.5 -50t154.5 -140l8 139q3 31 31 31h55zM575 88q140 0 242 92.5t129 233.5l4 86l-4 88q-27 141 -129 233t-242 92q-165 0 -273.5 -117t-108.5 -294q0 -179 108 -296.5 t274 -117.5z" />
<glyph unicode="&#x104;" horiz-adv-x="1275" d="M1219 35q6 -15 -1 -25t-24 -10q-104 0 -175 -62t-71 -133q0 -75 50.5 -105t136.5 -11v-95q-35 -16 -84.5 -16.5t-98.5 16t-83.5 65t-34.5 120.5q0 105 71.5 178t173.5 106l-104 293h-672l-121 -331q-8 -25 -35 -25h-65q-17 0 -24 10t-1 25l506 1374q9 25 37 25h76 q28 0 37 -25zM344 471h588l-293 813z" />
<glyph unicode="&#x105;" horiz-adv-x="1171" d="M1055 0q-113 0 -179.5 -60.5t-66.5 -134.5q0 -75 50 -105t136 -11v-95q-35 -16 -84.5 -16.5t-98.5 16t-83.5 65t-34.5 120.5q0 102 71 174t177 106l-8 105q-60 -89 -154 -139t-213 -50q-214 0 -353.5 151.5t-139.5 373.5t139.5 373t353.5 151q120 0 214.5 -50t154.5 -140 l8 139q3 31 31 31h55q14 0 22.5 -9t8.5 -22v-891h20zM575 88q140 0 242 92.5t129 233.5l4 86l-4 88q-27 141 -129 233t-242 92q-165 0 -273.5 -117t-108.5 -294q0 -179 108 -296.5t274 -117.5z" />
<glyph unicode="&#x106;" horiz-adv-x="1368" d="M942 1860q18 0 25 -9t0 -26l-123 -258q-11 -25 -35 -25h-37q-39 0 -24 35l122 258q11 25 35 25h37zM1239 250l43 -41q11 -11 10 -23t-12 -20q-228 -193 -479 -193q-198 0 -363 98.5t-259.5 268t-94.5 371.5q0 152 56 289t151 235.5t228.5 156.5t281.5 58q251 0 479 -190 q26 -22 2 -43l-43 -43q-21 -19 -43 0q-182 151 -393 151q-160 0 -295.5 -79.5t-215 -221t-79.5 -313.5q0 -171 79.5 -312.5t215 -221t295.5 -79.5q210 0 393 152q22 19 43 0z" />
<glyph unicode="&#x107;" horiz-adv-x="1114" d="M748 1491q39 0 24 -35l-123 -258q-11 -24 -35 -24h-36q-40 0 -25 34l123 258q11 25 35 25h37zM575 84q63 0 113.5 12t89 37t57.5 41.5t50 48.5q23 23 45 0l33 -28q21 -21 2 -43q-154 -179 -390 -179q-215 0 -358 152t-143 375t143 374.5t358 151.5q229 0 383 -178 q19 -22 -2 -43l-32 -27q-22 -22 -45 -2q-2 2 -22.5 21t-26 24.5t-27 22.5t-34 23t-37 18t-45.5 16.5t-50.5 9t-61.5 4.5q-168 0 -275 -117.5t-107 -297.5t107 -298t275 -118z" />
<glyph unicode="&#x10a;" horiz-adv-x="1368" d="M786 1722q-32 0 -54.5 22.5t-22.5 53.5t22.5 53.5t54.5 22.5t55 -22.5t23 -53.5t-23 -53.5t-55 -22.5zM1239 250l43 -41q11 -11 10 -23t-12 -20q-228 -193 -479 -193q-198 0 -363 98.5t-259.5 268t-94.5 371.5q0 152 56 289t151 235.5t228.5 156.5t281.5 58 q251 0 479 -190q26 -22 2 -43l-43 -43q-21 -19 -43 0q-182 151 -393 151q-160 0 -295.5 -79.5t-215 -221t-79.5 -313.5q0 -171 79.5 -312.5t215 -221t295.5 -79.5q210 0 393 152q22 19 43 0z" />
<glyph unicode="&#x10b;" horiz-adv-x="1114" d="M590 1292q-32 0 -55 22.5t-23 53.5t23 53.5t55 22.5t55 -22.5t23 -53.5t-23 -53.5t-55 -22.5zM575 84q63 0 113.5 12t89 37t57.5 41.5t50 48.5q23 23 45 0l33 -28q21 -21 2 -43q-154 -179 -390 -179q-215 0 -358 152t-143 375t143 374.5t358 151.5q229 0 383 -178 q19 -22 -2 -43l-32 -27q-22 -22 -45 -2q-2 2 -22.5 21t-26 24.5t-27 22.5t-34 23t-37 18t-45.5 16.5t-50.5 9t-61.5 4.5q-168 0 -275 -117.5t-107 -297.5t107 -298t275 -118z" />
<glyph unicode="&#x10c;" horiz-adv-x="1368" d="M825 1606h-77q-24 0 -37 16l-174 201q-12 15 -8 26t24 11h43q23 0 37 -17l153 -176l154 176q14 17 37 17h43q20 0 24 -11t-8 -26l-174 -201q-13 -16 -37 -16zM1239 250l43 -41q11 -11 10 -23t-12 -20q-228 -193 -479 -193q-198 0 -363 98.5t-259.5 268t-94.5 371.5 q0 152 56 289t151 235.5t228.5 156.5t281.5 58q251 0 479 -190q26 -22 2 -43l-43 -43q-21 -19 -43 0q-182 151 -393 151q-160 0 -295.5 -79.5t-215 -221t-79.5 -313.5q0 -171 79.5 -312.5t215 -221t295.5 -79.5q210 0 393 152q22 19 43 0z" />
<glyph unicode="&#x10d;" horiz-adv-x="1114" d="M598 1180h-78q-24 0 -37 16l-174 201q-12 15 -7.5 26t24.5 11h43q23 0 37 -17l153 -176l154 176q14 17 37 17h43q20 0 24 -11t-8 -26l-174 -201q-13 -16 -37 -16zM575 84q63 0 113.5 12t89 37t57.5 41.5t50 48.5q23 23 45 0l33 -28q21 -21 2 -43q-154 -179 -390 -179 q-215 0 -358 152t-143 375t143 374.5t358 151.5q229 0 383 -178q19 -22 -2 -43l-32 -27q-22 -22 -45 -2q-2 2 -22.5 21t-26 24.5t-27 22.5t-34 23t-37 18t-45.5 16.5t-50.5 9t-61.5 4.5q-168 0 -275 -117.5t-107 -297.5t107 -298t275 -118z" />
<glyph unicode="&#x10e;" horiz-adv-x="1280" d="M545 1622l-174 201q-12 15 -8 26t24 11h43q23 0 37 -17l154 -176l153 176q14 17 37 17h43q20 0 24 -11t-8 -26l-174 -201q-13 -16 -37 -16h-77q-24 0 -37 16zM457 1434q183 0 327 -54.5t235.5 -151.5t139 -226.5t47.5 -284.5t-47.5 -284.5t-139 -226.5t-235.5 -151.5 t-327 -54.5h-301q-14 0 -22.5 9t-8.5 22v1372q0 13 8.5 22t22.5 9h301zM457 121q304 0 461 157.5t157 438.5t-157 438.5t-461 157.5h-203v-1192h203z" />
<glyph unicode="&#x10f;" horiz-adv-x="1357" d="M1030 1495q14 0 22.5 -8.5t8.5 -22.5v-1433q0 -13 -8.5 -22t-22.5 -9h-55q-28 0 -31 31l-10 133q-60 -89 -154 -139t-213 -50q-214 0 -353.5 151.5t-139.5 373.5t139.5 373t353.5 151q120 0 214.5 -50t154.5 -140l2 26v604q0 14 9 22.5t22 8.5h61zM1352 1495q39 0 24 -35 l-123 -258q-11 -24 -34 -24h-37q-40 0 -25 34l123 258q11 25 35 25h37zM575 88q140 0 242 92.5t129 233.5l4 86l-4 88q-27 141 -129 233t-242 92q-165 0 -273.5 -117t-108.5 -294q0 -179 108 -296.5t274 -117.5z" />
<glyph unicode="&#x110;" horiz-adv-x="1296" d="M473 1434q183 0 327.5 -54.5t236 -151.5t139 -226.5t47.5 -284.5t-47.5 -284.5t-139 -226.5t-236 -151.5t-327.5 -54.5h-301q-14 0 -22.5 9t-8.5 22v637h-80q-13 0 -21.5 8t-8.5 22v43q0 14 8.5 22.5t21.5 8.5h80v631q0 13 8.5 22t22.5 9h301zM473 121q305 0 462 157.5 t157 438.5t-157 438.5t-462 157.5h-203v-541h334q14 0 22.5 -9t8.5 -22v-43q0 -13 -8.5 -21.5t-22.5 -8.5h-334v-547h203z" />
<glyph unicode="&#x111;" horiz-adv-x="1228" d="M1188 1296q14 0 22.5 -8.5t8.5 -21.5v-43q0 -13 -8.5 -22t-22.5 -9h-127v-1161q0 -13 -8.5 -22t-22.5 -9h-55q-28 0 -31 31l-10 133q-60 -89 -154 -139t-213 -50q-214 0 -353.5 151.5t-139.5 373.5t139.5 373t353.5 151q120 0 214.5 -50t154.5 -140l2 26v332h-293 q-13 0 -22 9t-9 22v43q0 13 8.5 21.5t22.5 8.5h293v168q0 14 9 22.5t22 8.5h61q14 0 22.5 -8.5t8.5 -22.5v-168h127zM575 88q140 0 242 92.5t129 233.5l4 86l-4 88q-27 141 -129 233t-242 92q-165 0 -273.5 -117t-108.5 -294q0 -179 108 -296.5t274 -117.5z" />
<glyph unicode="&#x112;" horiz-adv-x="983" d="M776 1860q14 0 22.5 -9t8.5 -22v-43q0 -14 -8.5 -22.5t-22.5 -8.5h-543q-13 0 -21.5 8.5t-8.5 22.5v43q0 14 8.5 22.5t21.5 8.5h543zM850 121q14 0 22.5 -8.5t8.5 -22.5v-59q0 -13 -8.5 -22t-22.5 -9h-694q-14 0 -22.5 9t-8.5 22v1372q0 13 8.5 22t22.5 9h692 q14 0 22.5 -9t8.5 -22v-60q0 -13 -8.5 -21.5t-22.5 -8.5h-594v-488h559q14 0 22.5 -8.5t8.5 -21.5v-60q0 -13 -8.5 -21.5t-22.5 -8.5h-559v-584h596z" />
<glyph unicode="&#x113;" horiz-adv-x="1105" d="M283 1325q-13 0 -22 8.5t-9 22.5v43q0 13 9 22t22 9h542q13 0 22 -9t9 -22v-43q0 -14 -9 -22.5t-22 -8.5h-542zM563 1026q139 0 247.5 -68.5t165 -178t56.5 -236.5q0 -53 -11 -75t-46 -22h-780q18 -157 125 -259.5t272 -102.5q169 0 289 109q25 22 43 6l26 -25 q24 -24 2 -47q-148 -154 -374 -154q-145 0 -260.5 70t-179.5 190.5t-64 266.5q0 224 137.5 375t351.5 151zM561 915q-152 0 -252 -103.5t-114 -262.5h729q-3 152 -105.5 259t-257.5 107z" />
<glyph unicode="&#x116;" horiz-adv-x="983" d="M504 1722q-32 0 -55 22.5t-23 53.5t23 53.5t55 22.5t55 -22.5t23 -53.5t-23 -53.5t-55 -22.5zM850 121q14 0 22.5 -8.5t8.5 -22.5v-59q0 -13 -8.5 -22t-22.5 -9h-694q-14 0 -22.5 9t-8.5 22v1372q0 13 8.5 22t22.5 9h692q14 0 22.5 -9t8.5 -22v-60q0 -13 -8.5 -21.5 t-22.5 -8.5h-594v-488h559q14 0 22.5 -8.5t8.5 -21.5v-60q0 -13 -8.5 -21.5t-22.5 -8.5h-559v-584h596z" />
<glyph unicode="&#x117;" horiz-adv-x="1105" d="M553 1292q-32 0 -55 22.5t-23 53.5t23 53.5t55 22.5t55 -22.5t23 -53.5t-23 -53.5t-55 -22.5zM563 1026q139 0 247.5 -68.5t165 -178t56.5 -236.5q0 -53 -11 -75t-46 -22h-780q18 -157 125 -259.5t272 -102.5q169 0 289 109q25 22 43 6l26 -25q24 -24 2 -47 q-148 -154 -374 -154q-145 0 -260.5 70t-179.5 190.5t-64 266.5q0 224 137.5 375t351.5 151zM561 915q-152 0 -252 -103.5t-114 -262.5h729q-3 152 -105.5 259t-257.5 107z" />
<glyph unicode="&#x118;" horiz-adv-x="983" d="M850 121q14 0 22.5 -8.5t8.5 -22.5v-59q0 -13 -8.5 -22t-22.5 -9h-82q-63 -25 -101 -75t-38 -99q0 -75 50 -105.5t136 -11.5v-94q-27 -13 -65 -17t-79 5t-76 30.5t-58 64.5t-23 101q0 118 96 201h-454q-14 0 -22.5 9t-8.5 22v1372q0 13 8.5 22t22.5 9h692q14 0 22.5 -9 t8.5 -22v-60q0 -13 -8.5 -21.5t-22.5 -8.5h-594v-488h559q14 0 22.5 -8.5t8.5 -21.5v-60q0 -13 -8.5 -21.5t-22.5 -8.5h-559v-584h596z" />
<glyph unicode="&#x119;" horiz-adv-x="1105" d="M563 1026q139 0 247.5 -68.5t165 -178t56.5 -236.5q0 -53 -11 -75t-46 -22h-780q18 -157 125 -259.5t272 -102.5q169 0 289 109q25 22 43 6l26 -25q24 -24 2 -47q-94 -99 -235 -137q-82 -29 -134.5 -84t-52.5 -119q0 -70 50 -99t137 -10v-94q-35 -16 -84.5 -16.5 t-98.5 16t-83.5 65t-34.5 120.5q0 118 110 206q-199 19 -325.5 167t-126.5 358q0 224 137.5 375t351.5 151zM561 915q-152 0 -252 -103.5t-114 -262.5h729q-3 152 -105.5 259t-257.5 107z" />
<glyph unicode="&#x11a;" horiz-adv-x="983" d="M543 1606h-78q-24 0 -37 16l-174 201q-12 15 -8 26t24 11h43q23 0 37 -17l154 -176l153 176q14 17 37 17h43q20 0 24.5 -11t-7.5 -26l-174 -201q-13 -16 -37 -16zM850 121q14 0 22.5 -8.5t8.5 -22.5v-59q0 -13 -8.5 -22t-22.5 -9h-694q-14 0 -22.5 9t-8.5 22v1372 q0 13 8.5 22t22.5 9h692q14 0 22.5 -9t8.5 -22v-60q0 -13 -8.5 -21.5t-22.5 -8.5h-594v-488h559q14 0 22.5 -8.5t8.5 -21.5v-60q0 -13 -8.5 -21.5t-22.5 -8.5h-559v-584h596z" />
<glyph unicode="&#x11b;" horiz-adv-x="1105" d="M477 1192l-174 201q-12 15 -8 26t24 11h43q23 0 37 -17l154 -176l154 176q14 17 36 17h43q20 0 24.5 -11t-7.5 -26l-174 -201q-13 -16 -37 -16h-78q-24 0 -37 16zM563 1026q139 0 247.5 -68.5t165 -178t56.5 -236.5q0 -53 -11 -75t-46 -22h-780q18 -157 125 -259.5 t272 -102.5q169 0 289 109q25 22 43 6l26 -25q24 -24 2 -47q-148 -154 -374 -154q-145 0 -260.5 70t-179.5 190.5t-64 266.5q0 224 137.5 375t351.5 151zM561 915q-152 0 -252 -103.5t-114 -262.5h729q-3 152 -105.5 259t-257.5 107z" />
<glyph unicode="&#x11e;" horiz-adv-x="1536" d="M795 1595q-113 0 -186.5 67t-84.5 169q-3 31 29 31h31q26 0 32 -29q12 -65 59.5 -105t119.5 -40t120 40t60 105q6 29 33 29h30q32 0 29 -31q-11 -103 -84.5 -169.5t-187.5 -66.5zM1432 723q13 0 21.5 -8.5t8.5 -22.5v-49q0 -193 -78.5 -344t-229.5 -238.5t-351 -87.5 q-152 0 -286.5 58.5t-229 158t-149 237t-54.5 290.5q0 200 94.5 368.5t259.5 266.5t363 98q251 0 479 -190q26 -22 2 -43l-43 -43q-21 -19 -43 0q-182 151 -393 151q-120 0 -228.5 -47t-188 -127t-126.5 -193.5t-47 -240.5q0 -174 78.5 -316.5t213.5 -222.5t298 -80 q230 0 381.5 139t158.5 363h-516q-13 0 -21.5 8.5t-8.5 22.5v61q0 14 8.5 22.5t21.5 8.5h605z" />
<glyph unicode="&#x11f;" d="M584 1165q-113 0 -186.5 67t-84.5 169q-3 31 29 31h31q27 0 33 -29q12 -65 59.5 -105.5t118.5 -40.5q72 0 120 40.5t60 105.5q6 29 33 29h30q32 0 29 -31q-11 -103 -84.5 -169.5t-187.5 -66.5zM1030 1004q14 0 22.5 -9t8.5 -22v-950q0 -89 -30 -162.5t-80 -122t-116 -82 t-135 -48t-141 -14.5q-221 0 -371 93q-24 15 -10 43l19 34q6 12 17.5 15.5t23.5 -2.5q147 -70 313 -70q74 0 141 17.5t123.5 52.5t89.5 95.5t33 139.5v178q-62 -92 -156.5 -143t-214.5 -51q-141 0 -255 69.5t-176 186.5t-62 258t62 258t176 186.5t255 69.5 q120 0 214.5 -50.5t154.5 -139.5l8 139q3 31 31 31h55zM575 109q142 0 245 93.5t128 233.5l6 76l-2 51q-19 148 -124 249t-253 101q-165 0 -273.5 -115.5t-108.5 -285.5q0 -171 108.5 -287t273.5 -116z" />
<glyph unicode="&#x120;" horiz-adv-x="1536" d="M795 1722q-32 0 -55 22.5t-23 53.5t23 53.5t55 22.5t54.5 -22.5t22.5 -53.5t-22.5 -53.5t-54.5 -22.5zM1432 723q13 0 21.5 -8.5t8.5 -22.5v-49q0 -193 -78.5 -344t-229.5 -238.5t-351 -87.5q-152 0 -286.5 58.5t-229 158t-149 237t-54.5 290.5q0 200 94.5 368.5 t259.5 266.5t363 98q251 0 479 -190q26 -22 2 -43l-43 -43q-21 -19 -43 0q-182 151 -393 151q-120 0 -228.5 -47t-188 -127t-126.5 -193.5t-47 -240.5q0 -174 78.5 -316.5t213.5 -222.5t298 -80q230 0 381.5 139t158.5 363h-516q-13 0 -21.5 8.5t-8.5 22.5v61q0 14 8.5 22.5 t21.5 8.5h605z" />
<glyph unicode="&#x121;" d="M584 1292q-32 0 -55 22.5t-23 53.5t23 53.5t55 22.5t55 -22.5t23 -53.5t-23 -53.5t-55 -22.5zM1030 1004q14 0 22.5 -9t8.5 -22v-950q0 -89 -30 -162.5t-80 -122t-116 -82t-135 -48t-141 -14.5q-221 0 -371 93q-24 15 -10 43l19 34q6 12 17.5 15.5t23.5 -2.5 q147 -70 313 -70q74 0 141 17.5t123.5 52.5t89.5 95.5t33 139.5v178q-62 -92 -156.5 -143t-214.5 -51q-141 0 -255 69.5t-176 186.5t-62 258t62 258t176 186.5t255 69.5q120 0 214.5 -50.5t154.5 -139.5l8 139q3 31 31 31h55zM575 109q142 0 245 93.5t128 233.5l6 76l-2 51 q-19 148 -124 249t-253 101q-165 0 -273.5 -115.5t-108.5 -285.5q0 -171 108.5 -287t273.5 -116z" />
<glyph unicode="&#x122;" horiz-adv-x="1536" d="M1432 723q13 0 21.5 -8.5t8.5 -22.5v-49q0 -193 -78.5 -344t-229.5 -238.5t-351 -87.5q-152 0 -286.5 58.5t-229 158t-149 237t-54.5 290.5q0 200 94.5 368.5t259.5 266.5t363 98q251 0 479 -190q26 -22 2 -43l-43 -43q-21 -19 -43 0q-182 151 -393 151 q-120 0 -228.5 -47t-188 -127t-126.5 -193.5t-47 -240.5q0 -174 78.5 -316.5t213.5 -222.5t298 -80q230 0 381.5 139t158.5 363h-516q-13 0 -21.5 8.5t-8.5 22.5v61q0 14 8.5 22.5t21.5 8.5h605zM776 -78q37 0 61.5 -27.5t24.5 -76.5q0 -116 -86 -224q-3 -6 -10 -6h-23 q-5 0 -7 4t1 9q39 76 39 151q-37 0 -61.5 24.5t-24.5 61.5q0 35 24.5 59.5t61.5 24.5z" />
<glyph unicode="&#x123;" d="M590 1141q-37 0 -61.5 27.5t-24.5 76.5q0 115 86 223q4 7 10 7h23q5 0 7 -4.5t-1 -8.5q-39 -76 -39 -151q37 0 61.5 -24.5t24.5 -61.5q0 -35 -24.5 -59.5t-61.5 -24.5zM1030 1004q14 0 22.5 -9t8.5 -22v-950q0 -89 -30 -162.5t-80 -122t-116 -82t-135 -48t-141 -14.5 q-221 0 -371 93q-24 15 -10 43l19 34q6 12 17.5 15.5t23.5 -2.5q147 -70 313 -70q74 0 141 17.5t123.5 52.5t89.5 95.5t33 139.5v178q-62 -92 -156.5 -143t-214.5 -51q-141 0 -255 69.5t-176 186.5t-62 258t62 258t176 186.5t255 69.5q120 0 214.5 -50.5t154.5 -139.5l8 139 q3 31 31 31h55zM575 109q142 0 245 93.5t128 233.5l6 76l-2 51q-19 148 -124 249t-253 101q-165 0 -273.5 -115.5t-108.5 -285.5q0 -171 108.5 -287t273.5 -116z" />
<glyph unicode="&#x126;" horiz-adv-x="1210" d="M1055 1434q13 0 21.5 -8.5t8.5 -22.5v-1372q0 -14 -8.5 -22.5t-21.5 -8.5h-68q-13 0 -22 9t-9 22v624h-702v-624q0 -13 -9 -22t-22 -9h-67q-14 0 -22.5 9t-8.5 22v1372q0 13 8.5 22t22.5 9h67q13 0 22 -9t9 -22v-299h702v299q0 13 9 22t22 9h68zM254 776h702v213h-702 v-213z" />
<glyph unicode="&#x127;" horiz-adv-x="1036" d="M582 1026q165 0 257.5 -98.5t92.5 -294.5v-602q0 -13 -9 -22t-22 -9h-61q-14 0 -22.5 9t-8.5 22v602q0 137 -63.5 212t-180.5 75q-60 0 -115 -22t-92.5 -54t-66 -68t-42 -64t-13.5 -42v-639q0 -13 -9 -22t-22 -9h-62q-13 0 -21.5 8.5t-8.5 22.5v1165h-72q-13 0 -22 9 t-9 22v43q0 13 8.5 21.5t22.5 8.5h72v164q0 14 8.5 22.5t21.5 8.5h62q13 0 22 -8.5t9 -22.5v-164h348q14 0 22 -8t8 -22v-43q0 -14 -8.5 -22.5t-21.5 -8.5h-348v-369q62 90 149.5 144.5t196.5 54.5z" />
<glyph unicode="&#x12a;" horiz-adv-x="378" d="M463 1860q13 0 22 -9t9 -22v-43q0 -14 -9 -22.5t-22 -8.5h-543q-14 0 -22.5 8.5t-8.5 22.5v43q0 13 8.5 22t22.5 9h543zM125 1403q0 13 8.5 22t22.5 9h67q13 0 22 -9t9 -22v-1372q0 -13 -9 -22t-22 -9h-67q-14 0 -22.5 9t-8.5 22v1372z" />
<glyph unicode="&#x12b;" horiz-adv-x="333" d="M440 1430q14 0 22.5 -9t8.5 -22v-43q0 -14 -8.5 -22.5t-22.5 -8.5h-542q-14 0 -22.5 8.5t-8.5 22.5v43q0 13 8.5 22t22.5 9h542zM104 973q0 13 9 22t22 9h62q13 0 21.5 -8.5t8.5 -22.5v-942q0 -14 -8.5 -22.5t-21.5 -8.5h-62q-13 0 -22 9t-9 22v942z" />
<glyph unicode="&#x12f;" horiz-adv-x="333" d="M168 1292q-32 0 -55 22.5t-23 53.5t23 53.5t55 22.5t55 -22.5t23 -53.5t-23 -53.5t-55 -22.5zM197 1004q13 0 21.5 -8.5t8.5 -22.5v-942q0 -14 -8.5 -22.5t-21.5 -8.5q-104 0 -175 -62t-71 -133q0 -75 50 -105t136 -11v-95q-35 -16 -84.5 -16.5t-98.5 16t-83.5 65 t-34.5 120.5q0 58 24 108.5t63.5 86t85 59.5t95.5 37v903q0 13 9 22t22 9h62z" />
<glyph unicode="&#x130;" horiz-adv-x="378" d="M190 1722q-32 0 -54.5 22.5t-22.5 53.5t22.5 53.5t54.5 22.5t55 -22.5t23 -53.5t-23 -53.5t-55 -22.5zM125 1403q0 13 8.5 22t22.5 9h67q13 0 22 -9t9 -22v-1372q0 -13 -9 -22t-22 -9h-67q-14 0 -22.5 9t-8.5 22v1372z" />
<glyph unicode="&#x131;" horiz-adv-x="333" d="M104 973q0 13 9 22t22 9h62q13 0 21.5 -8.5t8.5 -22.5v-942q0 -14 -8.5 -22.5t-21.5 -8.5h-62q-13 0 -22 9t-9 22v942z" />
<glyph unicode="&#x132;" horiz-adv-x="1325" d="M125 1403q0 13 8.5 22t22.5 9h67q13 0 22 -9t9 -22v-1372q0 -13 -9 -22t-22 -9h-67q-14 0 -22.5 9t-8.5 22v1372zM485 193q23 23 45 -3q104 -90 244 -90q142 0 219.5 103.5t77.5 312.5v887q0 13 8.5 22t22.5 9h67q13 0 22 -9t9 -22v-893q0 -269 -111.5 -398.5 t-314.5 -129.5q-209 0 -323 127q-19 23 -2 43z" />
<glyph unicode="&#x133;" horiz-adv-x="753" d="M164 1255q-35 0 -59.5 24.5t-24.5 61.5q0 35 24.5 59.5t59.5 24.5q37 0 61.5 -24.5t24.5 -59.5q0 -37 -24.5 -61.5t-61.5 -24.5zM590 1255q-37 0 -61.5 24.5t-24.5 61.5q0 35 24.5 59.5t61.5 24.5q35 0 59.5 -24.5t24.5 -59.5q0 -37 -24.5 -61.5t-59.5 -24.5zM104 973 q0 13 9 22t22 9h62q13 0 21.5 -8.5t8.5 -22.5v-942q0 -14 -8.5 -22.5t-21.5 -8.5h-62q-13 0 -22 9t-9 22v942zM559 1004h62q13 0 21.5 -8.5t8.5 -22.5v-965q0 -401 -311 -414q-19 0 -23 19l-16 65q-3 9 1.5 16t14.5 7q115 7 163 80t48 227v965q0 13 9 22t22 9z" />
<glyph unicode="&#x136;" horiz-adv-x="985" d="M1085 37q11 -15 6 -26t-24 -11h-84q-24 0 -37 18l-547 727l-145 -157v-557q0 -13 -9 -22t-22 -9h-67q-14 0 -22.5 9t-8.5 22v1372q0 13 8.5 22t22.5 9h67q13 0 22 -9t9 -22v-643l598 657q14 17 37 17h92q20 0 25 -12t-9 -25l-518 -563zM500 -78q37 0 61.5 -27.5 t24.5 -76.5q0 -116 -86 -224q-3 -6 -11 -6h-22q-5 0 -7 4t1 9q39 76 39 151q-37 0 -61.5 24.5t-24.5 61.5q0 35 24.5 59.5t61.5 24.5z" />
<glyph unicode="&#x137;" horiz-adv-x="976" d="M938 37q12 -15 6.5 -26t-24.5 -11h-72q-24 0 -37 18l-379 484l-205 -211v-260q0 -14 -8.5 -22.5t-21.5 -8.5h-62q-13 0 -22 9t-9 22v1433q0 14 9 22.5t22 8.5h62q13 0 21.5 -8.5t8.5 -22.5v-1030l529 553q14 17 39 17h69q20 0 25 -11t-8 -26l-377 -389zM512 -78 q37 0 61.5 -27.5t24.5 -76.5q0 -116 -86 -224q-3 -6 -10 -6h-23q-5 0 -7 4t1 9q39 76 39 151q-37 0 -61.5 24.5t-24.5 61.5q0 35 24.5 59.5t61.5 24.5z" />
<glyph unicode="&#x139;" horiz-adv-x="923" d="M209 1538q-18 0 -25 9t0 26l123 258q11 24 35 24h37q39 0 24 -34l-122 -258q-11 -25 -35 -25h-37zM809 121q13 0 22 -8.5t9 -22.5v-59q0 -13 -9 -22t-22 -9h-653q-14 0 -22.5 9t-8.5 22v1372q0 13 8.5 22t22.5 9h67q13 0 22 -9t9 -22v-1282h555z" />
<glyph unicode="&#x13a;" horiz-adv-x="333" d="M324 1921q39 0 24 -35l-123 -258q-11 -24 -35 -24h-36q-40 0 -25 34l123 258q11 25 35 25h37zM104 1464q0 14 9 22.5t22 8.5h62q13 0 21.5 -8.5t8.5 -22.5v-1433q0 -14 -8.5 -22.5t-21.5 -8.5h-62q-13 0 -22 9t-9 22v1433z" />
<glyph unicode="&#x13b;" horiz-adv-x="923" d="M809 121q13 0 22 -8.5t9 -22.5v-59q0 -13 -9 -22t-22 -9h-653q-14 0 -22.5 9t-8.5 22v1372q0 13 8.5 22t22.5 9h67q13 0 22 -9t9 -22v-1282h555zM461 -78q37 0 61.5 -27.5t24.5 -76.5q0 -116 -86 -224q-3 -6 -10 -6h-23q-5 0 -7 4t1 9q39 76 39 151q-37 0 -61.5 24.5 t-24.5 61.5q0 35 24.5 59.5t61.5 24.5z" />
<glyph unicode="&#x13c;" horiz-adv-x="333" d="M104 1464q0 14 9 22.5t22 8.5h62q13 0 21.5 -8.5t8.5 -22.5v-1433q0 -14 -8.5 -22.5t-21.5 -8.5h-62q-13 0 -22 9t-9 22v1433zM172 -78q37 0 61.5 -27.5t24.5 -76.5q0 -116 -86 -224q-3 -6 -10 -6h-23q-5 0 -7 4t1 9q39 76 39 151q-37 0 -61.5 24.5t-24.5 61.5 q0 35 24.5 59.5t61.5 24.5z" />
<glyph unicode="&#x13d;" horiz-adv-x="923" d="M547 1290q-37 0 -61.5 24.5t-24.5 61.5q0 35 24.5 59.5t61.5 24.5t61.5 -27.5t24.5 -76.5q0 -115 -86 -223q-3 -7 -10 -7h-23q-5 0 -7 4t1 9q39 76 39 151zM809 121q13 0 22 -8.5t9 -22.5v-59q0 -13 -9 -22t-22 -9h-653q-14 0 -22.5 9t-8.5 22v1372q0 13 8.5 22t22.5 9 h67q13 0 22 -9t9 -22v-1282h555z" />
<glyph unicode="&#x13e;" horiz-adv-x="544" d="M104 1464q0 14 9 22.5t22 8.5h62q13 0 21.5 -8.5t8.5 -22.5v-1433q0 -14 -8.5 -22.5t-21.5 -8.5h-62q-13 0 -22 9t-9 22v1433zM428 1493q37 0 61.5 -27.5t24.5 -76.5q0 -116 -86 -224q-3 -6 -10 -6h-23q-5 0 -7 3.5t1 8.5q39 76 39 152q-37 0 -61.5 24.5t-24.5 61.5 q0 35 24.5 59.5t61.5 24.5z" />
<glyph unicode="&#x13f;" horiz-adv-x="915" d="M809 121q13 0 22 -8.5t9 -22.5v-59q0 -13 -9 -22t-22 -9h-653q-14 0 -22.5 9t-8.5 22v1372q0 13 8.5 22t22.5 9h67q13 0 22 -9t9 -22v-1282h555zM598 678q-37 0 -61.5 24.5t-24.5 61.5q0 35 24.5 59.5t61.5 24.5q35 0 59.5 -24.5t24.5 -59.5q0 -37 -24.5 -61.5 t-59.5 -24.5z" />
<glyph unicode="&#x140;" horiz-adv-x="552" d="M104 1464q0 14 9 22.5t22 8.5h62q13 0 21.5 -8.5t8.5 -22.5v-1433q0 -14 -8.5 -22.5t-21.5 -8.5h-62q-13 0 -22 9t-9 22v1433zM403 674q-37 0 -61.5 24.5t-24.5 61.5q0 35 24.5 59.5t61.5 24.5q35 0 59.5 -24.5t24.5 -59.5q0 -37 -24.5 -61.5t-59.5 -24.5z" />
<glyph unicode="&#x141;" horiz-adv-x="954" d="M840 121q13 0 21.5 -8.5t8.5 -22.5v-59q0 -14 -8.5 -22.5t-21.5 -8.5h-654q-13 0 -21.5 8.5t-8.5 22.5v467l-78 -76q-15 -15 -26 -10t-11 26v80q0 23 16 39l99 94v752q0 14 8.5 22.5t21.5 8.5h68q14 0 22.5 -9t8.5 -22v-627l229 221q15 15 26 10t11 -26v-78 q0 -23 -16 -39l-250 -241v-502h555z" />
<glyph unicode="&#x142;" horiz-adv-x="677" d="M606 1051v-109l-231 -244v-667q0 -13 -8.5 -22t-22.5 -9h-61q-13 0 -22 9t-9 22v538l-180 -190v110l180 191v784q0 14 9 22.5t22 8.5h61q14 0 22.5 -8.5t8.5 -22.5v-655l229 242h2z" />
<glyph unicode="&#x143;" horiz-adv-x="1284" d="M627 1542q-18 0 -25 9t0 26l123 258q11 25 35 25h37q39 0 24 -35l-123 -258q-11 -25 -34 -25h-37zM1128 1434q14 0 22.5 -9t8.5 -22v-1372q0 -12 -7 -21t-17 -10h-107q-26 0 -37 20l-737 1237v-1226q0 -13 -9 -22t-22 -9h-67q-14 0 -22.5 9t-8.5 22v1372q0 27 25 31h106 q25 0 37 -21l737 -1237v1227q0 13 9 22t22 9h67z" />
<glyph unicode="&#x144;" horiz-adv-x="1028" d="M502 1112q-18 0 -25 9t0 26l123 258q11 25 35 25h37q39 0 24 -35l-123 -258q-11 -25 -34 -25h-37zM573 1026q165 0 258 -98.5t93 -294.5v-602q0 -13 -9 -22t-22 -9h-62q-13 0 -21.5 8.5t-8.5 22.5v602q0 137 -63.5 212t-180.5 75q-73 0 -139.5 -33t-105.5 -77t-62 -83 t-23 -57v-639q0 -14 -8.5 -22.5t-21.5 -8.5h-62q-13 0 -22 9t-9 22v942q0 13 9 22t22 9h53q28 0 31 -31l8 -144v-2q62 90 149.5 144.5t196.5 54.5z" />
<glyph unicode="&#x145;" horiz-adv-x="1284" d="M1128 1434q14 0 22.5 -9t8.5 -22v-1372q0 -12 -7 -21t-17 -10h-107q-26 0 -37 20l-737 1237v-1226q0 -13 -9 -22t-22 -9h-67q-14 0 -22.5 9t-8.5 22v1372q0 27 25 31h106q25 0 37 -21l737 -1237v1227q0 13 9 22t22 9h67zM645 -78q37 0 61.5 -27.5t24.5 -76.5 q0 -116 -86 -224q-3 -6 -10 -6h-23q-5 0 -7 4t1 9q39 76 39 151q-37 0 -61.5 24.5t-24.5 61.5q0 35 24.5 59.5t61.5 24.5z" />
<glyph unicode="&#x146;" horiz-adv-x="1028" d="M573 1026q165 0 258 -98.5t93 -294.5v-602q0 -13 -9 -22t-22 -9h-62q-13 0 -21.5 8.5t-8.5 22.5v602q0 137 -63.5 212t-180.5 75q-73 0 -139.5 -33t-105.5 -77t-62 -83t-23 -57v-639q0 -14 -8.5 -22.5t-21.5 -8.5h-62q-13 0 -22 9t-9 22v942q0 13 9 22t22 9h53 q28 0 31 -31l8 -144v-2q62 90 149.5 144.5t196.5 54.5zM520 -78q37 0 61.5 -27.5t24.5 -76.5q0 -116 -86 -224q-3 -6 -10 -6h-23q-5 0 -7 4t1 9q39 76 39 151q-37 0 -61.5 24.5t-24.5 61.5q0 35 24.5 59.5t61.5 24.5z" />
<glyph unicode="&#x147;" horiz-adv-x="1284" d="M565 1622l-174 201q-12 15 -7.5 26t24.5 11h43q22 0 36 -17l154 -176l154 176q14 17 36 17h43q20 0 24.5 -11t-7.5 -26l-174 -201q-13 -16 -37 -16h-78q-24 0 -37 16zM1128 1434q14 0 22.5 -9t8.5 -22v-1372q0 -12 -7 -21t-17 -10h-107q-26 0 -37 20l-737 1237v-1226 q0 -13 -9 -22t-22 -9h-67q-14 0 -22.5 9t-8.5 22v1372q0 27 25 31h106q25 0 37 -21l737 -1237v1227q0 13 9 22t22 9h67z" />
<glyph unicode="&#x148;" horiz-adv-x="1028" d="M440 1192l-174 201q-12 15 -7.5 26t24.5 11h43q22 0 36 -17l154 -176l154 176q14 17 37 17h43q20 0 24 -11t-8 -26l-174 -201q-13 -16 -37 -16h-78q-24 0 -37 16zM573 1026q165 0 258 -98.5t93 -294.5v-602q0 -13 -9 -22t-22 -9h-62q-13 0 -21.5 8.5t-8.5 22.5v602 q0 137 -63.5 212t-180.5 75q-73 0 -139.5 -33t-105.5 -77t-62 -83t-23 -57v-639q0 -14 -8.5 -22.5t-21.5 -8.5h-62q-13 0 -22 9t-9 22v942q0 13 9 22t22 9h53q28 0 31 -31l8 -144v-2q62 90 149.5 144.5t196.5 54.5z" />
<glyph unicode="&#x14a;" horiz-adv-x="1284" d="M1128 1434q14 0 22.5 -9t8.5 -22v-1372q0 -5 -4 -17q-18 -223 -127 -330.5t-295 -107.5q-209 0 -323 127q-19 23 -2 43l36 41q23 23 45 -2q104 -90 244 -90q121 0 196 75.5t95 229.5q-22 3 -33 20l-737 1237v-1226q0 -13 -9 -22t-22 -9h-67q-14 0 -22.5 9t-8.5 22v1372 q0 27 25 31h106q25 0 37 -21l737 -1237v1227q0 13 9 22t22 9h67z" />
<glyph unicode="&#x14b;" horiz-adv-x="1028" d="M573 1026q165 0 258 -98.5t93 -294.5v-625q0 -207 -81.5 -310.5t-230.5 -103.5q-18 0 -22 19l-17 65q-3 9 2 16t15 7q114 0 162.5 75.5t48.5 231.5v625q0 137 -63.5 212t-180.5 75q-73 0 -139.5 -33t-105.5 -77t-62 -83t-23 -57v-639q0 -14 -8.5 -22.5t-21.5 -8.5h-62 q-13 0 -22 9t-9 22v942q0 13 9 22t22 9h53q28 0 31 -31l8 -144v-2q62 90 149.5 144.5t196.5 54.5z" />
<glyph unicode="&#x14c;" horiz-adv-x="1630" d="M1090 1860q13 0 21.5 -8.5t8.5 -22.5v-43q0 -14 -8.5 -22.5t-21.5 -8.5h-543q-13 0 -22 8.5t-9 22.5v43q0 13 9 22t22 9h543zM817 -27q-150 0 -285.5 58t-233.5 156.5t-156 235.5t-58 288q0 152 58 289t156 235.5t233.5 156.5t285.5 58q149 0 283.5 -58t232.5 -156.5 t155.5 -235.5t57.5 -289q0 -151 -57.5 -288t-155.5 -235.5t-232.5 -156.5t-283.5 -58zM817 92q166 0 305.5 82.5t220 225t80.5 311.5q0 171 -80.5 314t-220 225.5t-305.5 82.5q-168 0 -308.5 -82.5t-221 -225.5t-80.5 -314q0 -170 80.5 -312t221 -224.5t308.5 -82.5z" />
<glyph unicode="&#x14d;" horiz-adv-x="1159" d="M852 1430q14 0 22.5 -9t8.5 -22v-43q0 -14 -8.5 -22.5t-22.5 -8.5h-543q-13 0 -21.5 8.5t-8.5 22.5v43q0 14 8.5 22.5t21.5 8.5h543zM580 -27q-141 0 -257.5 69.5t-182.5 190.5t-66 267q0 223 145.5 374.5t360.5 151.5q141 0 256.5 -69t181 -189.5t65.5 -267.5 t-65.5 -267.5t-181 -190t-256.5 -69.5zM580 84q164 0 275.5 118t111.5 298t-111.5 297.5t-275.5 117.5q-165 0 -276 -117.5t-111 -297.5t111 -298t276 -118z" />
<glyph unicode="&#x150;" horiz-adv-x="1630" d="M756 1860q39 0 24 -35l-123 -258q-11 -25 -34 -25h-37q-18 0 -25 9t0 26l123 258q11 25 35 25h37zM1032 1860q18 0 25 -9t0 -26l-123 -258q-11 -25 -35 -25h-37q-39 0 -24 35l123 258q11 25 34 25h37zM817 -27q-150 0 -285.5 58t-233.5 156.5t-156 235.5t-58 288 q0 152 58 289t156 235.5t233.5 156.5t285.5 58q149 0 283.5 -58t232.5 -156.5t155.5 -235.5t57.5 -289q0 -151 -57.5 -288t-155.5 -235.5t-232.5 -156.5t-283.5 -58zM817 92q166 0 305.5 82.5t220 225t80.5 311.5q0 171 -80.5 314t-220 225.5t-305.5 82.5 q-168 0 -308.5 -82.5t-221 -225.5t-80.5 -314q0 -170 80.5 -312t221 -224.5t308.5 -82.5z" />
<glyph unicode="&#x151;" horiz-adv-x="1159" d="M518 1430q18 0 25 -9t0 -26l-123 -258q-11 -25 -35 -25h-37q-39 0 -24 35l122 258q11 25 35 25h37zM795 1430q39 0 24 -35l-123 -258q-11 -25 -34 -25h-37q-18 0 -25 9t0 26l123 258q11 25 35 25h37zM580 -27q-141 0 -257.5 69.5t-182.5 190.5t-66 267q0 223 145.5 374.5 t360.5 151.5q141 0 256.5 -69t181 -189.5t65.5 -267.5t-65.5 -267.5t-181 -190t-256.5 -69.5zM580 84q164 0 275.5 118t111.5 298t-111.5 297.5t-275.5 117.5q-165 0 -276 -117.5t-111 -297.5t111 -298t276 -118z" />
<glyph unicode="&#x152;" horiz-adv-x="2281" d="M2148 121q14 0 22.5 -8.5t8.5 -22.5v-59q0 -13 -8.5 -22t-22.5 -9h-694q-14 0 -22.5 9t-8.5 22v268q-100 -151 -259.5 -238.5t-346.5 -87.5q-150 0 -285.5 58t-233.5 156.5t-156 235.5t-58 288q0 152 58 289t156 235.5t233.5 156.5t285.5 58q187 0 346.5 -87.5 t259.5 -238.5v279q0 13 8.5 22t22.5 9h692q14 0 22.5 -9t8.5 -22v-60q0 -13 -8.5 -21.5t-22.5 -8.5h-594v-488h559q14 0 22.5 -8.5t8.5 -21.5v-60q0 -13 -8.5 -21.5t-22.5 -8.5h-559v-584h596zM817 92q166 0 305.5 82.5t220 225t80.5 311.5q0 171 -80.5 314t-220 225.5 t-305.5 82.5q-168 0 -308.5 -82.5t-221 -225.5t-80.5 -314q0 -170 80.5 -312t221 -224.5t308.5 -82.5z" />
<glyph unicode="&#x153;" horiz-adv-x="1998" d="M1456 1026q139 0 247.5 -68.5t165 -178t56.5 -236.5q0 -53 -11 -75t-46 -22h-781q18 -157 125 -259.5t273 -102.5q169 0 289 109q25 22 43 6l26 -25q25 -24 2 -47q-148 -154 -375 -154q-149 0 -266 73.5t-180 199.5q-63 -125 -180.5 -199t-263.5 -74q-141 0 -257.5 69.5 t-182.5 190.5t-66 267q0 223 145.5 374.5t360.5 151.5q145 0 262.5 -73t181.5 -197q60 124 173.5 197t258.5 73zM580 84q164 0 275.5 118t111.5 298t-111.5 297.5t-275.5 117.5q-165 0 -276 -117.5t-111 -297.5t111 -298t276 -118zM1454 915q-152 0 -252.5 -103.5 t-114.5 -262.5h730q-3 152 -105.5 259t-257.5 107z" />
<glyph unicode="&#x154;" horiz-adv-x="1091" d="M508 1542q-18 0 -25 9t0 26l123 258q11 25 35 25h37q39 0 24 -35l-122 -258q-11 -25 -35 -25h-37zM1001 37q10 -17 4.5 -27t-24.5 -10h-76q-26 0 -37 20l-360 537h-254v-526q0 -13 -9 -22t-22 -9h-67q-14 0 -22.5 9t-8.5 22v1372q0 13 8.5 22t22.5 9h374 q222 0 345.5 -122.5t123.5 -316.5q0 -167 -93.5 -283.5t-266.5 -146.5zM254 1313v-635h268q104 0 180.5 31t124 103.5t47.5 182.5q0 162 -96.5 240t-255.5 78h-268z" />
<glyph unicode="&#x155;" horiz-adv-x="612" d="M285 1112q-18 0 -25 9t0 26l123 258q11 25 35 25h37q39 0 24 -35l-123 -258q-11 -25 -34 -25h-37zM590 997q15 -9 4 -30l-25 -52q-10 -18 -34 -12q-45 10 -80 10q-94 0 -161 -64t-67 -161v-657q0 -14 -8.5 -22.5t-21.5 -8.5h-62q-13 0 -22 9t-9 22v942q0 13 9 22t22 9h51 q28 0 31 -31l8 -84q95 137 246 137q72 0 119 -29z" />
<glyph unicode="&#x156;" horiz-adv-x="1091" d="M1001 37q10 -17 4.5 -27t-24.5 -10h-76q-26 0 -37 20l-360 537h-254v-526q0 -13 -9 -22t-22 -9h-67q-14 0 -22.5 9t-8.5 22v1372q0 13 8.5 22t22.5 9h374q222 0 345.5 -122.5t123.5 -316.5q0 -167 -93.5 -283.5t-266.5 -146.5zM254 1313v-635h268q104 0 180.5 31 t124 103.5t47.5 182.5q0 162 -96.5 240t-255.5 78h-268zM526 -78q37 0 61.5 -27.5t24.5 -76.5q0 -116 -86 -224q-3 -6 -10 -6h-22q-5 0 -7.5 4t0.5 9q39 76 39 151q-37 0 -61.5 24.5t-24.5 61.5q0 35 24.5 59.5t61.5 24.5z" />
<glyph unicode="&#x157;" horiz-adv-x="612" d="M590 997q15 -9 4 -30l-25 -52q-10 -18 -34 -12q-45 10 -80 10q-94 0 -161 -64t-67 -161v-657q0 -14 -8.5 -22.5t-21.5 -8.5h-62q-13 0 -22 9t-9 22v942q0 13 9 22t22 9h51q28 0 31 -31l8 -84q95 137 246 137q72 0 119 -29zM172 -78q37 0 61.5 -27.5t24.5 -76.5 q0 -116 -86 -224q-3 -6 -10 -6h-23q-5 0 -7 4t1 9q39 76 39 151q-37 0 -61.5 24.5t-24.5 61.5q0 35 24.5 59.5t61.5 24.5z" />
<glyph unicode="&#x158;" horiz-adv-x="1091" d="M446 1622l-174 201q-12 15 -7.5 26t24.5 11h43q23 0 37 -17l153 -176l154 176q14 17 37 17h43q20 0 24 -11t-8 -26l-174 -201q-13 -16 -37 -16h-78q-24 0 -37 16zM1001 37q10 -17 4.5 -27t-24.5 -10h-76q-26 0 -37 20l-360 537h-254v-526q0 -13 -9 -22t-22 -9h-67 q-14 0 -22.5 9t-8.5 22v1372q0 13 8.5 22t22.5 9h374q222 0 345.5 -122.5t123.5 -316.5q0 -167 -93.5 -283.5t-266.5 -146.5zM254 1313v-635h268q104 0 180.5 31t124 103.5t47.5 182.5q0 162 -96.5 240t-255.5 78h-268z" />
<glyph unicode="&#x159;" horiz-adv-x="612" d="M260 1176q-24 0 -37 16l-174 201q-12 15 -7.5 26t24.5 11h43q22 0 36 -17l154 -176l154 176q14 17 36 17h43q20 0 24.5 -11t-7.5 -26l-174 -201q-13 -16 -37 -16h-78zM590 997q15 -9 4 -30l-25 -52q-10 -18 -34 -12q-45 10 -80 10q-94 0 -161 -64t-67 -161v-657 q0 -14 -8.5 -22.5t-21.5 -8.5h-62q-13 0 -22 9t-9 22v942q0 13 9 22t22 9h51q28 0 31 -31l8 -84q95 137 246 137q72 0 119 -29z" />
<glyph unicode="&#x15a;" horiz-adv-x="1054" d="M664 1860q39 0 24 -35l-123 -258q-11 -25 -35 -25h-36q-18 0 -25 9t0 26l123 258q11 25 35 25h37zM227 1094q0 -57 26 -103.5t69.5 -79t100 -60t119 -53t125 -52t119 -62t100 -78.5t69.5 -106t26 -140q0 -157 -133 -272t-326 -115q-141 0 -254 58.5t-186 156.5 q-13 23 8 41l43 37q21 18 43 -4q145 -172 342 -172q151 0 243.5 81.5t92.5 199.5q0 59 -25.5 107t-69 81.5t-99.5 62t-118 53.5t-124 51t-118 60t-99.5 75t-69 101t-25.5 134q0 152 115 253t291 101q111 0 218 -52t179 -141q18 -21 -4 -43l-35 -30q-22 -22 -43 -2 q-71 76 -147 114.5t-170 38.5q-122 0 -202.5 -63.5t-80.5 -177.5z" />
<glyph unicode="&#x15b;" horiz-adv-x="843" d="M578 1430q39 0 24 -35l-123 -258q-11 -25 -35 -25h-36q-18 0 -25 9t0 26l123 258q11 25 35 25h37zM209 760q0 -49 31.5 -86t81.5 -61t111 -45.5t121.5 -47.5t110.5 -59t81.5 -87.5t31.5 -125.5q0 -119 -101 -197t-235 -78q-116 0 -212.5 48.5t-157.5 119.5q-17 20 -2 39 l36 41q11 13 19 11.5t22 -15.5q46 -48 123.5 -90.5t169.5 -42.5q100 0 159.5 44.5t59.5 119.5q0 47 -24.5 83.5t-64.5 59.5t-91 45.5t-104.5 40t-104.5 43t-91 55.5t-64.5 77.5t-24.5 107.5q0 115 91 190.5t227 75.5q79 0 166.5 -40.5t148.5 -111.5q16 -18 -2 -43l-23 -28 q-18 -25 -45 2q-64 59 -121 86t-131 27q-31 0 -62.5 -8t-61.5 -24.5t-49 -49t-19 -76.5z" />
<glyph unicode="&#x15e;" horiz-adv-x="1054" d="M981 360q0 -149 -121 -261t-301 -124l-53 -57q68 -5 115 -47.5t47 -108.5q0 -59 -27 -102t-70 -62.5t-96 -28t-104 0.5q-19 3 -19 22v50q0 20 23 20q86 -9 136 14.5t50 75.5q0 50 -55.5 71t-128.5 -5q-11 -5 -18 -0.5t-7 14.5v41q0 12 10 25l74 82q-223 33 -354 208 q-13 23 8 41l43 37q21 18 43 -4q145 -172 342 -172q151 0 243.5 81.5t92.5 199.5q0 59 -25.5 107t-69 81.5t-99.5 62t-118 53.5t-124 51t-118 60t-99.5 75t-69 101t-25.5 134q0 152 115 253t291 101q111 0 218 -52t179 -141q18 -21 -4 -43l-35 -30q-22 -22 -43 -2 q-71 76 -147 114.5t-170 38.5q-122 0 -202.5 -63.5t-80.5 -177.5q0 -57 26 -103.5t69.5 -79t100 -60t119 -53t125 -52t119 -62t100 -78.5t69.5 -106t26 -140z" />
<glyph unicode="&#x15f;" horiz-adv-x="843" d="M778 248q0 -112 -90 -188t-215 -85l-53 -57q68 -5 115 -47.5t47 -108.5q0 -59 -27 -102t-70 -62.5t-96 -28t-104 0.5q-19 3 -19 22v50q0 20 23 20q86 -9 136 14.5t50 75.5q0 50 -55.5 71t-128.5 -5q-11 -5 -18 -0.5t-7 14.5v41q0 12 10 25l76 84q-87 16 -160.5 60 t-119.5 99q-17 20 -2 39l36 41q11 13 19 11.5t22 -15.5q46 -48 123.5 -90.5t169.5 -42.5q100 0 159.5 44.5t59.5 119.5q0 47 -24.5 83.5t-64.5 59.5t-91 45.5t-104.5 40t-104.5 43t-91 55.5t-64.5 77.5t-24.5 107.5q0 115 91 190.5t227 75.5q79 0 166.5 -40.5t148.5 -111.5 q16 -18 -2 -43l-23 -28q-18 -25 -45 2q-64 59 -121 86t-131 27q-31 0 -62.5 -8t-61.5 -24.5t-49 -49t-19 -76.5q0 -49 31.5 -86t81.5 -61t111 -45.5t121.5 -47.5t110.5 -59t81.5 -87.5t31.5 -125.5z" />
<glyph unicode="&#x160;" horiz-adv-x="1054" d="M547 1606h-78q-24 0 -37 16l-174 201q-12 15 -8 26t24 11h43q23 0 37 -17l154 -176l154 176q14 17 36 17h43q20 0 24.5 -11t-7.5 -26l-174 -201q-13 -16 -37 -16zM227 1094q0 -57 26 -103.5t69.5 -79t100 -60t119 -53t125 -52t119 -62t100 -78.5t69.5 -106t26 -140 q0 -157 -133 -272t-326 -115q-141 0 -254 58.5t-186 156.5q-13 23 8 41l43 37q21 18 43 -4q145 -172 342 -172q151 0 243.5 81.5t92.5 199.5q0 59 -25.5 107t-69 81.5t-99.5 62t-118 53.5t-124 51t-118 60t-99.5 75t-69 101t-25.5 134q0 152 115 253t291 101q111 0 218 -52 t179 -141q18 -21 -4 -43l-35 -30q-22 -22 -43 -2q-71 76 -147 114.5t-170 38.5q-122 0 -202.5 -63.5t-80.5 -177.5z" />
<glyph unicode="&#x161;" horiz-adv-x="843" d="M461 1176h-78q-24 0 -37 16l-174 201q-12 15 -8 26t24 11h43q23 0 37 -17l154 -176l153 176q14 17 37 17h43q20 0 24.5 -11t-7.5 -26l-174 -201q-13 -16 -37 -16zM209 760q0 -49 31.5 -86t81.5 -61t111 -45.5t121.5 -47.5t110.5 -59t81.5 -87.5t31.5 -125.5 q0 -119 -101 -197t-235 -78q-116 0 -212.5 48.5t-157.5 119.5q-17 20 -2 39l36 41q11 13 19 11.5t22 -15.5q46 -48 123.5 -90.5t169.5 -42.5q100 0 159.5 44.5t59.5 119.5q0 47 -24.5 83.5t-64.5 59.5t-91 45.5t-104.5 40t-104.5 43t-91 55.5t-64.5 77.5t-24.5 107.5 q0 115 91 190.5t227 75.5q79 0 166.5 -40.5t148.5 -111.5q16 -18 -2 -43l-23 -28q-18 -25 -45 2q-64 59 -121 86t-131 27q-31 0 -62.5 -8t-61.5 -24.5t-49 -49t-19 -76.5z" />
<glyph unicode="&#x162;" horiz-adv-x="1017" d="M903 1434q13 0 22 -9t9 -22v-60q0 -13 -8.5 -21.5t-22.5 -8.5h-330v-1282q0 -14 -8.5 -22.5t-21.5 -8.5h43l-78 -82q68 -5 115 -47.5t47 -108.5q0 -59 -27 -102t-70 -62.5t-96 -28t-104 0.5q-19 3 -19 22v50q0 20 23 20q86 -9 136 14.5t50 75.5q0 50 -55.5 71t-128.5 -5 q-11 -5 -18 -0.5t-7 14.5v41q0 10 11 25l92 102h18q-13 0 -22 9t-9 22v1282h-329q-14 0 -22.5 8.5t-8.5 21.5v60q0 13 9 22t22 9h788z" />
<glyph unicode="&#x163;" horiz-adv-x="600" d="M504 1004q14 0 22.5 -9t8.5 -22v-45q0 -14 -8.5 -22.5t-22.5 -8.5h-144v-866q0 -7 -2 -11h7l-78 -81q68 -5 115 -47.5t47 -108.5q0 -59 -27 -102t-70 -63t-96 -28.5t-104 0.5q-19 3 -19 23v49q0 21 23 21q86 -9 136 14.5t50 75.5q0 50 -55 70.5t-129 -5.5q-10 -4 -17.5 0 t-7.5 15v41q0 11 10 24l93 102h4q-2 4 -2 11v866h-144q-14 0 -22.5 8.5t-8.5 22.5v45q0 13 8.5 22t22.5 9h144v276q0 14 8.5 22.5t21.5 8.5h62q13 0 21.5 -8.5t8.5 -22.5v-276h144z" />
<glyph unicode="&#x164;" horiz-adv-x="1017" d="M549 1606h-78q-24 0 -37 16l-174 201q-12 15 -8 26t24 11h43q23 0 37 -17l154 -176l154 176q14 17 36 17h43q20 0 24.5 -11t-7.5 -26l-174 -201q-13 -16 -37 -16zM903 1434q13 0 22 -9t9 -22v-60q0 -13 -8.5 -21.5t-22.5 -8.5h-330v-1282q0 -14 -8.5 -22.5t-21.5 -8.5 h-68q-13 0 -22 9t-9 22v1282h-329q-14 0 -22.5 8.5t-8.5 21.5v60q0 13 9 22t22 9h788z" />
<glyph unicode="&#x165;" horiz-adv-x="665" d="M627 1436q39 0 24 -35l-123 -258q-11 -25 -34 -25h-37q-18 0 -25 9t0 26l123 258q11 25 35 25h37zM504 1004q14 0 22.5 -9t8.5 -22v-45q0 -14 -8.5 -22.5t-22.5 -8.5h-144v-866q0 -14 -8.5 -22.5t-21.5 -8.5h-62q-13 0 -21.5 8.5t-8.5 22.5v866h-144q-14 0 -22.5 8.5 t-8.5 22.5v45q0 13 8.5 22t22.5 9h144v276q0 14 8.5 22.5t21.5 8.5h62q13 0 21.5 -8.5t8.5 -22.5v-276h144z" />
<glyph unicode="&#x166;" horiz-adv-x="1017" d="M903 1434q13 0 22 -9t9 -22v-60q0 -13 -8.5 -21.5t-22.5 -8.5h-330v-309h207q14 0 22.5 -9t8.5 -22v-43q0 -14 -8.5 -22.5t-22.5 -8.5h-207v-868q0 -14 -8.5 -22.5t-21.5 -8.5h-68q-13 0 -22 9t-9 22v868h-206q-14 0 -22.5 8.5t-8.5 22.5v43q0 13 8.5 22t22.5 9h206v309 h-329q-14 0 -22.5 8.5t-8.5 21.5v60q0 13 9 22t22 9h788z" />
<glyph unicode="&#x167;" horiz-adv-x="600" d="M504 897h-144v-158h144q14 0 22.5 -8.5t8.5 -21.5v-47q0 -14 -8.5 -22.5t-22.5 -8.5h-144v-600q0 -14 -8.5 -22.5t-21.5 -8.5h-62q-13 0 -21.5 8.5t-8.5 22.5v600h-144q-14 0 -22.5 8.5t-8.5 22.5v47q0 13 8.5 21.5t22.5 8.5h144v158h-144q-14 0 -22.5 8.5t-8.5 22.5v45 q0 13 8.5 22t22.5 9h144v276q0 14 8.5 22.5t21.5 8.5h62q13 0 21.5 -8.5t8.5 -22.5v-276h144q14 0 22.5 -9t8.5 -22v-45q0 -14 -8.5 -22.5t-22.5 -8.5z" />
<glyph unicode="&#x16a;" horiz-adv-x="1243" d="M895 1860q13 0 22 -9t9 -22v-43q0 -14 -9 -22.5t-22 -8.5h-543q-13 0 -21.5 8.5t-8.5 22.5v43q0 14 8.5 22.5t21.5 8.5h543zM1098 1434q13 0 21.5 -8.5t8.5 -22.5v-848q0 -280 -139.5 -431t-365.5 -151q-228 0 -368 151t-140 431v848q0 14 8.5 22.5t21.5 8.5h68 q13 0 22 -9t9 -22v-848q0 -229 105 -347t274 -118q167 0 271.5 118t104.5 347v848q0 13 8.5 22t22.5 9h68z" />
<glyph unicode="&#x16b;" horiz-adv-x="1017" d="M236 1325q-14 0 -22.5 8.5t-8.5 22.5v43q0 13 8.5 22t22.5 9h542q14 0 22.5 -9t8.5 -22v-43q0 -14 -8.5 -22.5t-22.5 -8.5h-542zM883 1004q13 0 21.5 -8.5t8.5 -22.5v-942q0 -14 -8.5 -22.5t-21.5 -8.5h-54q-27 0 -30 31l-8 125q-126 -183 -328 -183q-175 0 -272 100.5 t-97 297.5v602q0 13 9 22t22 9h61q14 0 22.5 -9t8.5 -22v-602q0 -138 66 -215.5t188 -77.5q58 0 111.5 21.5t90 53.5t64.5 68.5t41 68t13 50.5v633q0 14 8.5 22.5t21.5 8.5h62z" />
<glyph unicode="&#x16c;" horiz-adv-x="1243" d="M803 1833q6 29 33 29h30q32 0 29 -31q-11 -103 -84.5 -169.5t-187.5 -66.5q-113 0 -186.5 67t-84.5 169q-3 31 29 31h31q26 0 32 -29q12 -65 59.5 -105t119.5 -40t120 40t60 105zM1098 1434q13 0 21.5 -8.5t8.5 -22.5v-848q0 -280 -139.5 -431t-365.5 -151 q-228 0 -368 151t-140 431v848q0 14 8.5 22.5t21.5 8.5h68q13 0 22 -9t9 -22v-848q0 -229 105 -347t274 -118q167 0 271.5 118t104.5 347v848q0 13 8.5 22t22.5 9h68z" />
<glyph unicode="&#x16d;" horiz-adv-x="1017" d="M506 1165q-113 0 -186 66.5t-84 169.5q-3 31 28 31h31q27 0 33 -29q12 -65 59.5 -105.5t118.5 -40.5q72 0 120 40.5t60 105.5q6 29 33 29h31q31 0 28 -31q-11 -103 -84.5 -169.5t-187.5 -66.5zM883 1004q13 0 21.5 -8.5t8.5 -22.5v-942q0 -14 -8.5 -22.5t-21.5 -8.5h-54 q-27 0 -30 31l-8 125q-126 -183 -328 -183q-175 0 -272 100.5t-97 297.5v602q0 13 9 22t22 9h61q14 0 22.5 -9t8.5 -22v-602q0 -138 66 -215.5t188 -77.5q58 0 111.5 21.5t90 53.5t64.5 68.5t41 68t13 50.5v633q0 14 8.5 22.5t21.5 8.5h62z" />
<glyph unicode="&#x16e;" horiz-adv-x="1243" d="M625 1892q61 0 105 -44.5t44 -106.5t-44 -106t-105 -44q-66 0 -111 44t-45 106t45.5 106.5t110.5 44.5zM625 1683q23 0 40 17.5t17 40.5q0 24 -16.5 40.5t-40.5 16.5q-26 0 -43 -16t-17 -41q0 -24 17 -41t43 -17zM1098 1434q13 0 21.5 -8.5t8.5 -22.5v-848 q0 -280 -139.5 -431t-365.5 -151q-228 0 -368 151t-140 431v848q0 14 8.5 22.5t21.5 8.5h68q13 0 22 -9t9 -22v-848q0 -229 105 -347t274 -118q167 0 271.5 118t104.5 347v848q0 13 8.5 22t22.5 9h68z" />
<glyph unicode="&#x16f;" horiz-adv-x="1017" d="M508 1161q-66 0 -111 44t-45 106t45.5 106.5t110.5 44.5q61 0 105 -44.5t44 -106.5t-44 -106t-105 -44zM508 1368q-26 0 -42.5 -16t-16.5 -41q0 -24 16.5 -41t42.5 -17q23 0 40 17.5t17 40.5q0 24 -16.5 40.5t-40.5 16.5zM883 1004q13 0 21.5 -8.5t8.5 -22.5v-942 q0 -14 -8.5 -22.5t-21.5 -8.5h-54q-27 0 -30 31l-8 125q-126 -183 -328 -183q-175 0 -272 100.5t-97 297.5v602q0 13 9 22t22 9h61q14 0 22.5 -9t8.5 -22v-602q0 -138 66 -215.5t188 -77.5q58 0 111.5 21.5t90 53.5t64.5 68.5t41 68t13 50.5v633q0 14 8.5 22.5t21.5 8.5h62z " />
<glyph unicode="&#x170;" horiz-adv-x="1243" d="M561 1860q18 0 25 -9t0 -26l-123 -258q-11 -25 -35 -25h-37q-39 0 -24 35l122 258q11 25 35 25h37zM838 1860q39 0 24 -35l-123 -258q-11 -25 -34 -25h-37q-18 0 -25 9t0 26l123 258q11 25 35 25h37zM1098 1434q13 0 21.5 -8.5t8.5 -22.5v-848q0 -280 -139.5 -431 t-365.5 -151q-228 0 -368 151t-140 431v848q0 14 8.5 22.5t21.5 8.5h68q13 0 22 -9t9 -22v-848q0 -229 105 -347t274 -118q167 0 271.5 118t104.5 347v848q0 13 8.5 22t22.5 9h68z" />
<glyph unicode="&#x171;" horiz-adv-x="1017" d="M274 1112q-39 0 -24 35l123 258q11 25 35 25h36q18 0 25 -9t0 -26l-123 -258q-11 -25 -35 -25h-37zM551 1112q-18 0 -25 9t0 26l123 258q11 25 35 25h37q39 0 24 -35l-122 -258q-11 -25 -35 -25h-37zM883 1004q13 0 21.5 -8.5t8.5 -22.5v-942q0 -14 -8.5 -22.5 t-21.5 -8.5h-54q-27 0 -30 31l-8 125q-126 -183 -328 -183q-175 0 -272 100.5t-97 297.5v602q0 13 9 22t22 9h61q14 0 22.5 -9t8.5 -22v-602q0 -138 66 -215.5t188 -77.5q58 0 111.5 21.5t90 53.5t64.5 68.5t41 68t13 50.5v633q0 14 8.5 22.5t21.5 8.5h62z" />
<glyph unicode="&#x172;" horiz-adv-x="1243" d="M1098 1434q13 0 21.5 -8.5t8.5 -22.5v-848q0 -225 -91.5 -367.5t-250.5 -191.5q-83 -34 -132.5 -85t-49.5 -114q0 -70 50 -98.5t137 -9.5v-95q-28 -13 -66 -16.5t-80 5.5t-77 30t-58 64.5t-23 101.5q0 113 97 196q-212 12 -340.5 162t-128.5 418v848q0 14 8.5 22.5 t21.5 8.5h68q13 0 22 -9t9 -22v-848q0 -229 105 -347t274 -118q167 0 271.5 118t104.5 347v848q0 13 8.5 22t22.5 9h68z" />
<glyph unicode="&#x173;" horiz-adv-x="1017" d="M920 82l-7 -19v-32q0 -22 -20 -29v-2q-112 0 -178 -61t-66 -134q0 -75 49.5 -105t137.5 -11v-95q-28 -13 -66 -16.5t-80 5.5t-77 30t-58 64.5t-23 101.5q0 106 77 179.5t188 104.5l-6 93q-126 -183 -328 -183q-175 0 -272 100.5t-97 297.5v602q0 13 9 22t22 9h61 q14 0 22.5 -9t8.5 -22v-602q0 -138 66 -215.5t188 -77.5q58 0 111.5 21.5t90 53.5t64.5 68.5t41 68t13 50.5v633q0 14 8.5 22.5t21.5 8.5h62q13 0 21.5 -8.5t8.5 -22.5v-891h7z" />
<glyph unicode="&#x174;" horiz-adv-x="2197" d="M866 1606q-20 0 -24 10.5t8 25.5l174 201q14 17 37 17h78q23 0 37 -17l174 -201q12 -15 7.5 -25.5t-24.5 -10.5h-43q-24 0 -37 16l-153 176l-154 -176q-13 -16 -37 -16h-43zM2095 1434q35 0 25 -35l-449 -1374q-9 -25 -37 -25h-80q-30 0 -36 25l-422 1214l-420 -1214 q-9 -25 -37 -25h-82q-29 0 -35 25l-446 1374q-6 15 0.5 25t23.5 10h66q27 0 35 -25l397 -1259l434 1259q1 4 4.5 8.5t3.5 5.5q7 11 25 11h61q11 0 19 -4q8 -5 14 -21l436 -1259l402 1259q6 25 35 25h63z" />
<glyph unicode="&#x175;" horiz-adv-x="1753" d="M643 1176q-20 0 -24 10.5t8 25.5l174 201q14 17 37 17h77q23 0 37 -17l174 -201q12 -15 8 -25.5t-24 -10.5h-43q-24 0 -37 16l-153 176l-154 -176q-13 -16 -37 -16h-43zM1669 1004q37 0 25 -35l-357 -944q-9 -25 -37 -25h-73q-28 0 -37 25l-313 815l-314 -815 q-9 -25 -37 -25h-73q-28 0 -37 25l-359 944q-12 35 25 35h61q28 0 37 -25l312 -846l323 846q7 17 21 20q10 5 16 5h49q7 0 17 -5q13 -3 20 -20l324 -846l311 846q9 25 37 25h59z" />
<glyph unicode="&#x176;" horiz-adv-x="1138" d="M336 1606q-20 0 -24.5 10.5t7.5 25.5l175 201q14 17 36 17h78q23 0 37 -17l174 -201q12 -15 8 -25.5t-24 -10.5h-43q-24 0 -37 16l-154 176l-153 -176q-13 -16 -37 -16h-43zM1038 1434q18 0 24 -11t-3 -26l-426 -699v-667q0 -13 -8.5 -22t-22.5 -9h-65q-13 0 -22 9t-9 22 v667l-426 699q-9 15 -3.5 26t23.5 11h72q25 0 37 -21l360 -592l361 592q12 21 37 21h71z" />
<glyph unicode="&#x177;" horiz-adv-x="1013" d="M545 1430q23 0 37 -17l174 -201q12 -15 7.5 -25.5t-24.5 -10.5h-43q-24 0 -37 16l-153 176l-154 -176q-13 -16 -37 -16h-43q-20 0 -24 10.5t8 25.5l174 201q14 17 37 17h78zM932 1004q36 0 24 -35l-528 -1334q-9 -24 -37 -24h-63q-37 0 -25 35l139 350l-385 973 q-12 35 25 35h63q28 0 37 -25l324 -842l323 842q9 25 37 25h66z" />
<glyph unicode="&#x178;" horiz-adv-x="1138" d="M391 1722q-32 0 -55 22.5t-23 53.5t23 53.5t55 22.5t55 -22.5t23 -53.5t-23 -53.5t-55 -22.5zM748 1722q-31 0 -54.5 22.5t-23.5 53.5t23.5 53.5t54.5 22.5q32 0 54.5 -22.5t22.5 -53.5t-22.5 -53.5t-54.5 -22.5zM1038 1434q18 0 24 -11t-3 -26l-426 -699v-667 q0 -13 -8.5 -22t-22.5 -9h-65q-13 0 -22 9t-9 22v667l-426 699q-9 15 -3.5 26t23.5 11h72q25 0 37 -21l360 -592l361 592q12 21 37 21h71z" />
<glyph unicode="&#x179;" horiz-adv-x="1120" d="M715 1860q39 0 24 -35l-123 -258q-11 -25 -34 -25h-37q-18 0 -25 9t0 26l123 258q11 25 35 25h37zM995 121q13 0 22 -8.5t9 -22.5v-59q0 -13 -9 -22t-22 -9h-870q-13 0 -22 9t-9 22v69q0 19 12 37l768 1176h-729q-13 0 -21.5 8.5t-8.5 21.5v60q0 14 8.5 22.5t21.5 8.5 h830q13 0 22 -9t9 -22v-70q0 -17 -13 -37l-768 -1175h770z" />
<glyph unicode="&#x17a;" horiz-adv-x="927" d="M621 1430q39 0 24 -35l-123 -258q-11 -25 -35 -25h-36q-18 0 -25 9t0 26l123 258q11 25 35 25h37zM862 973v-53q0 -25 -14 -39l-641 -772h624q13 0 22 -8.5t9 -22.5v-47q0 -13 -9 -22t-22 -9h-737q-14 0 -22.5 9t-8.5 22v55q0 24 15 39l643 772h-627q-14 0 -22.5 8.5 t-8.5 22.5v45q0 13 8.5 22t22.5 9h737q13 0 22 -9t9 -22z" />
<glyph unicode="&#x17b;" horiz-adv-x="1120" d="M559 1722q-32 0 -55 22.5t-23 53.5t23 53.5t55 22.5t55 -22.5t23 -53.5t-23 -53.5t-55 -22.5zM995 121q13 0 22 -8.5t9 -22.5v-59q0 -13 -9 -22t-22 -9h-870q-13 0 -22 9t-9 22v69q0 19 12 37l768 1176h-729q-13 0 -21.5 8.5t-8.5 21.5v60q0 14 8.5 22.5t21.5 8.5h830 q13 0 22 -9t9 -22v-70q0 -17 -13 -37l-768 -1175h770z" />
<glyph unicode="&#x17c;" horiz-adv-x="927" d="M465 1292q-32 0 -55 22.5t-23 53.5t23 53.5t55 22.5t55 -22.5t23 -53.5t-23 -53.5t-55 -22.5zM862 973v-53q0 -25 -14 -39l-641 -772h624q13 0 22 -8.5t9 -22.5v-47q0 -13 -9 -22t-22 -9h-737q-14 0 -22.5 9t-8.5 22v55q0 24 15 39l643 772h-627q-14 0 -22.5 8.5 t-8.5 22.5v45q0 13 8.5 22t22.5 9h737q13 0 22 -9t9 -22z" />
<glyph unicode="&#x17d;" horiz-adv-x="1120" d="M598 1606h-78q-24 0 -37 16l-174 201q-12 15 -7.5 26t24.5 11h43q23 0 37 -17l153 -176l154 176q14 17 37 17h43q20 0 24 -11t-8 -26l-174 -201q-13 -16 -37 -16zM995 121q13 0 22 -8.5t9 -22.5v-59q0 -13 -9 -22t-22 -9h-870q-13 0 -22 9t-9 22v69q0 19 12 37l768 1176 h-729q-13 0 -21.5 8.5t-8.5 21.5v60q0 14 8.5 22.5t21.5 8.5h830q13 0 22 -9t9 -22v-70q0 -17 -13 -37l-768 -1175h770z" />
<glyph unicode="&#x17e;" horiz-adv-x="927" d="M504 1176h-78q-24 0 -37 16l-174 201q-12 15 -8 26t24 11h43q23 0 37 -17l154 -176l153 176q14 17 37 17h43q20 0 24.5 -11t-7.5 -26l-174 -201q-13 -16 -37 -16zM862 973v-53q0 -25 -14 -39l-641 -772h624q13 0 22 -8.5t9 -22.5v-47q0 -13 -9 -22t-22 -9h-737 q-14 0 -22.5 9t-8.5 22v55q0 24 15 39l643 772h-627q-14 0 -22.5 8.5t-8.5 22.5v45q0 13 8.5 22t22.5 9h737q13 0 22 -9t9 -22z" />
<glyph unicode="&#x192;" horiz-adv-x="620" d="M641 1434q21 -12 21 -37v-49q0 -40 -37 -21q-64 33 -113 33q-80 0 -110.5 -37t-30.5 -115v-204h213q13 0 21.5 -8.5t8.5 -22.5v-45q0 -14 -8.5 -22.5t-21.5 -8.5h-213v-1030q0 -127 -62.5 -191.5t-202.5 -64.5q-68 0 -126 33q-21 12 -21 37v49q0 39 37 20q64 -33 110 -33 q81 0 111.5 37t30.5 115v1028h-119q-13 0 -22 8.5t-9 22.5v45q0 13 9 22t22 9h119v206q0 127 62.5 191.5t203.5 64.5q68 0 127 -32z" />
<glyph unicode="&#x1cd;" horiz-adv-x="1275" d="M573 1622l-174 201q-12 15 -7.5 26t24.5 11h43q23 0 37 -17l153 -176l154 176q14 17 37 17h43q20 0 24 -11t-8 -26l-174 -201q-13 -16 -37 -16h-78q-24 0 -37 16zM1219 35q6 -15 -1 -25t-24 -10h-66q-26 0 -34 25l-119 331h-672l-121 -331q-8 -25 -35 -25h-65 q-17 0 -24 10t-1 25l506 1374q9 25 37 25h76q28 0 37 -25zM344 471h588l-293 813z" />
<glyph unicode="&#x1ce;" d="M504 1192l-174 201q-12 15 -8 26t24 11h43q23 0 37 -17l154 -176l153 176q14 17 37 17h43q20 0 24 -11t-8 -26l-174 -201q-13 -16 -37 -16h-77q-24 0 -37 16zM1030 1004q14 0 22.5 -9t8.5 -22v-942q0 -13 -8.5 -22t-22.5 -9h-55q-28 0 -31 31l-10 133q-60 -89 -154 -139 t-213 -50q-214 0 -353.5 151.5t-139.5 373.5t139.5 373t353.5 151q120 0 214.5 -50t154.5 -140l8 139q3 31 31 31h55zM575 88q140 0 242 92.5t129 233.5l4 86l-4 88q-27 141 -129 233t-242 92q-165 0 -273.5 -117t-108.5 -294q0 -179 108 -296.5t274 -117.5z" />
<glyph unicode="&#x1cf;" horiz-adv-x="378" d="M229 1606h-77q-24 0 -37 16l-174 201q-12 15 -8 26t24 11h43q23 0 37 -17l153 -176l154 176q14 17 37 17h43q20 0 24 -11t-8 -26l-174 -201q-13 -16 -37 -16zM125 1403q0 13 8.5 22t22.5 9h67q13 0 22 -9t9 -22v-1372q0 -13 -9 -22t-22 -9h-67q-14 0 -22.5 9t-8.5 22 v1372z" />
<glyph unicode="&#x1d0;" horiz-adv-x="333" d="M207 1176h-78q-24 0 -37 16l-174 201q-12 15 -8 26t24 11h43q23 0 37 -17l154 -176l154 176q14 17 36 17h43q20 0 24.5 -11t-7.5 -26l-174 -201q-13 -16 -37 -16zM104 973q0 13 9 22t22 9h62q13 0 21.5 -8.5t8.5 -22.5v-942q0 -14 -8.5 -22.5t-21.5 -8.5h-62q-13 0 -22 9 t-9 22v942z" />
<glyph unicode="&#x1d1;" horiz-adv-x="1630" d="M856 1606h-78q-24 0 -37 16l-174 201q-12 15 -7.5 26t24.5 11h43q23 0 37 -17l153 -176l154 176q14 17 37 17h43q20 0 24 -11t-8 -26l-174 -201q-13 -16 -37 -16zM817 -27q-150 0 -285.5 58t-233.5 156.5t-156 235.5t-58 288q0 152 58 289t156 235.5t233.5 156.5 t285.5 58q149 0 283.5 -58t232.5 -156.5t155.5 -235.5t57.5 -289q0 -151 -57.5 -288t-155.5 -235.5t-232.5 -156.5t-283.5 -58zM817 92q166 0 305.5 82.5t220 225t80.5 311.5q0 171 -80.5 314t-220 225.5t-305.5 82.5q-168 0 -308.5 -82.5t-221 -225.5t-80.5 -314 q0 -170 80.5 -312t221 -224.5t308.5 -82.5z" />
<glyph unicode="&#x1d2;" horiz-adv-x="1159" d="M618 1176h-77q-24 0 -37 16l-174 201q-12 15 -8 26t24 11h43q23 0 37 -17l154 -176l153 176q14 17 37 17h43q20 0 24 -11t-8 -26l-174 -201q-13 -16 -37 -16zM580 -27q-141 0 -257.5 69.5t-182.5 190.5t-66 267q0 223 145.5 374.5t360.5 151.5q141 0 256.5 -69 t181 -189.5t65.5 -267.5t-65.5 -267.5t-181 -190t-256.5 -69.5zM580 84q164 0 275.5 118t111.5 298t-111.5 297.5t-275.5 117.5q-165 0 -276 -117.5t-111 -297.5t111 -298t276 -118z" />
<glyph unicode="&#x1d3;" horiz-adv-x="1243" d="M662 1606h-78q-24 0 -37 16l-174 201q-12 15 -8 26t24 11h43q23 0 37 -17l154 -176l153 176q14 17 37 17h43q20 0 24 -11t-8 -26l-174 -201q-13 -16 -36 -16zM1098 1434q13 0 21.5 -8.5t8.5 -22.5v-848q0 -280 -139.5 -431t-365.5 -151q-228 0 -368 151t-140 431v848 q0 14 8.5 22.5t21.5 8.5h68q13 0 22 -9t9 -22v-848q0 -229 105 -347t274 -118q167 0 271.5 118t104.5 347v848q0 13 8.5 22t22.5 9h68z" />
<glyph unicode="&#x1d4;" horiz-adv-x="1017" d="M430 1192l-174 201q-12 15 -8 26t24 11h43q23 0 37 -17l154 -176l153 176q14 17 37 17h43q20 0 24.5 -11t-7.5 -26l-174 -201q-13 -16 -37 -16h-78q-24 0 -37 16zM883 1004q13 0 21.5 -8.5t8.5 -22.5v-942q0 -14 -8.5 -22.5t-21.5 -8.5h-54q-27 0 -30 31l-8 125 q-126 -183 -328 -183q-175 0 -272 100.5t-97 297.5v602q0 13 9 22t22 9h61q14 0 22.5 -9t8.5 -22v-602q0 -138 66 -215.5t188 -77.5q58 0 111.5 21.5t90 53.5t64.5 68.5t41 68t13 50.5v633q0 14 8.5 22.5t21.5 8.5h62z" />
<glyph unicode="&#x1ea;" horiz-adv-x="1630" d="M893 -23q-60 -27 -96.5 -75.5t-36.5 -96.5q0 -75 50 -105t136 -11v-95q-35 -16 -84.5 -16.5t-98.5 16t-83.5 65t-34.5 120.5q0 113 92 198q-136 14 -256.5 77.5t-208 160t-138 226t-50.5 270.5q0 152 58 289t156 235.5t233.5 156.5t285.5 58q149 0 283.5 -58 t232.5 -156.5t155.5 -235.5t57.5 -289q0 -188 -86 -350t-235.5 -263.5t-331.5 -120.5zM207 711q0 -170 80.5 -312t221 -224.5t308.5 -82.5q166 0 305.5 82.5t220 225t80.5 311.5q0 171 -80.5 314t-220 225.5t-305.5 82.5q-168 0 -308.5 -82.5t-221 -225.5t-80.5 -314z" />
<glyph unicode="&#x1eb;" horiz-adv-x="1159" d="M666 -20q-64 -32 -103 -80.5t-39 -102.5q0 -70 50.5 -98.5t136.5 -9.5v-95q-35 -16 -84.5 -16.5t-98.5 16t-83.5 65t-34.5 120.5q0 117 102 198q-191 25 -314.5 172t-123.5 351q0 223 145.5 374.5t360.5 151.5q141 0 256.5 -69t181 -189.5t65.5 -267.5q0 -199 -117 -344 t-300 -176zM193 500q0 -180 111 -298t276 -118q164 0 275.5 118t111.5 298t-111.5 297.5t-275.5 117.5q-165 0 -276 -117.5t-111 -297.5z" />
<glyph unicode="&#x218;" horiz-adv-x="1054" d="M227 1094q0 -57 26 -103.5t69.5 -79t100 -60t119 -53t125 -52t119 -62t100 -78.5t69.5 -106t26 -140q0 -157 -133 -272t-326 -115q-141 0 -254 58.5t-186 156.5q-13 23 8 41l43 37q21 18 43 -4q145 -172 342 -172q151 0 243.5 81.5t92.5 199.5q0 59 -25.5 107t-69 81.5 t-99.5 62t-118 53.5t-124 51t-118 60t-99.5 75t-69 101t-25.5 134q0 152 115 253t291 101q111 0 218 -52t179 -141q18 -21 -4 -43l-35 -30q-22 -22 -43 -2q-71 76 -147 114.5t-170 38.5q-122 0 -202.5 -63.5t-80.5 -177.5zM512 -78q37 0 61.5 -27.5t24.5 -76.5 q0 -116 -86 -224q-3 -6 -10 -6h-23q-5 0 -7 4t1 9q39 76 39 151q-37 0 -61.5 24.5t-24.5 61.5q0 35 24.5 59.5t61.5 24.5z" />
<glyph unicode="&#x219;" horiz-adv-x="843" d="M209 760q0 -49 31.5 -86t81.5 -61t111 -45.5t121.5 -47.5t110.5 -59t81.5 -87.5t31.5 -125.5q0 -119 -101 -197t-235 -78q-116 0 -212.5 48.5t-157.5 119.5q-17 20 -2 39l36 41q11 13 19 11.5t22 -15.5q46 -48 123.5 -90.5t169.5 -42.5q100 0 159.5 44.5t59.5 119.5 q0 47 -24.5 83.5t-64.5 59.5t-91 45.5t-104.5 40t-104.5 43t-91 55.5t-64.5 77.5t-24.5 107.5q0 115 91 190.5t227 75.5q79 0 166.5 -40.5t148.5 -111.5q16 -18 -2 -43l-23 -28q-18 -25 -45 2q-64 59 -121 86t-131 27q-31 0 -62.5 -8t-61.5 -24.5t-49 -49t-19 -76.5z M426 -78q37 0 61.5 -27.5t24.5 -76.5q0 -116 -86 -224q-3 -6 -10 -6h-23q-5 0 -7 4t1 9q39 76 39 151q-37 0 -61.5 24.5t-24.5 61.5q0 35 24.5 59.5t61.5 24.5z" />
<glyph unicode="&#x21a;" horiz-adv-x="1017" d="M903 1434q13 0 22 -9t9 -22v-60q0 -13 -8.5 -21.5t-22.5 -8.5h-330v-1282q0 -14 -8.5 -22.5t-21.5 -8.5h-68q-13 0 -22 9t-9 22v1282h-329q-14 0 -22.5 8.5t-8.5 21.5v60q0 13 9 22t22 9h788zM514 -78q37 0 61.5 -27.5t24.5 -76.5q0 -116 -86 -224q-3 -6 -10 -6h-23 q-5 0 -7 4t1 9q39 76 39 151q-37 0 -61.5 24.5t-24.5 61.5q0 35 24.5 59.5t61.5 24.5z" />
<glyph unicode="&#x21b;" horiz-adv-x="600" d="M504 1004q14 0 22.5 -9t8.5 -22v-45q0 -14 -8.5 -22.5t-22.5 -8.5h-144v-866q0 -14 -8.5 -22.5t-21.5 -8.5h-62q-13 0 -21.5 8.5t-8.5 22.5v866h-144q-14 0 -22.5 8.5t-8.5 22.5v45q0 13 8.5 22t22.5 9h144v276q0 14 8.5 22.5t21.5 8.5h62q13 0 21.5 -8.5t8.5 -22.5v-276 h144zM293 -57q37 0 61.5 -28t24.5 -77q0 -115 -86 -223q-3 -6 -10 -6h-23q-5 0 -7 3.5t1 8.5q39 76 39 152q-37 0 -61.5 24.5t-24.5 61.5q0 35 24.5 59.5t61.5 24.5z" />
<glyph unicode="&#x2c6;" horiz-adv-x="540" d="M309 1434q23 0 37 -17l174 -200q12 -15 8 -26t-24 -11h-43q-24 0 -37 16l-154 176l-153 -176q-13 -16 -37 -16h-43q-20 0 -24.5 11t7.5 26l175 200q14 17 36 17h78z" />
<glyph unicode="&#x2da;" horiz-adv-x="325" d="M166 1462q61 0 105 -44.5t44 -106.5t-44 -106t-105 -44q-66 0 -111 44t-45 106t45.5 106.5t110.5 44.5zM166 1253q23 0 40 17.5t17 40.5q0 24 -16.5 40.5t-40.5 16.5q-26 0 -43 -16t-17 -41q0 -24 17 -41t43 -17z" />
<glyph unicode="&#x2dc;" horiz-adv-x="612" d="M174 1468q45 0 85 -21t64 -45.5t58 -45.5t68 -21q60 0 83 66q6 18 23 18h27q20 0 20 -20q-9 -67 -53 -104.5t-100 -37.5q-48 0 -89.5 21t-66.5 46t-59 46t-68 21q-68 0 -86 -66q-6 -18 -23 -18h-26q-22 0 -19 24q7 65 52 101t110 36z" />
<glyph unicode="&#x1e80;" horiz-adv-x="2197" d="M1028 1567l-123 258q-7 17 0 26t25 9h37q23 0 34 -25l123 -258q15 -35 -24 -35h-37q-24 0 -35 25zM2095 1434q35 0 25 -35l-449 -1374q-9 -25 -37 -25h-80q-30 0 -36 25l-422 1214l-420 -1214q-9 -25 -37 -25h-82q-29 0 -35 25l-446 1374q-6 15 0.5 25t23.5 10h66 q27 0 35 -25l397 -1259l434 1259q1 4 4.5 8.5t3.5 5.5q7 11 25 11h61q11 0 19 -4q8 -5 14 -21l436 -1259l402 1259q6 25 35 25h63z" />
<glyph unicode="&#x1e81;" horiz-adv-x="1753" d="M805 1137l-123 258q-7 17 0 26t25 9h36q24 0 35 -25l123 -258q15 -35 -24 -35h-37q-24 0 -35 25zM1669 1004q37 0 25 -35l-357 -944q-9 -25 -37 -25h-73q-28 0 -37 25l-313 815l-314 -815q-9 -25 -37 -25h-73q-28 0 -37 25l-359 944q-12 35 25 35h61q28 0 37 -25 l312 -846l323 846q7 17 21 20q10 5 16 5h49q7 0 17 -5q13 -3 20 -20l324 -846l311 846q9 25 37 25h59z" />
<glyph unicode="&#x1e82;" horiz-adv-x="2197" d="M1085 1542q-39 0 -24 35l123 258q11 25 35 25h36q18 0 25 -9t0 -26l-123 -258q-11 -25 -35 -25h-37zM2095 1434q35 0 25 -35l-449 -1374q-9 -25 -37 -25h-80q-30 0 -36 25l-422 1214l-420 -1214q-9 -25 -37 -25h-82q-29 0 -35 25l-446 1374q-6 15 0.5 25t23.5 10h66 q27 0 35 -25l397 -1259l434 1259q1 4 4.5 8.5t3.5 5.5q7 11 25 11h61q11 0 19 -4q8 -5 14 -21l436 -1259l402 1259q6 25 35 25h63z" />
<glyph unicode="&#x1e83;" horiz-adv-x="1753" d="M862 1112q-39 0 -24 35l123 258q11 25 34 25h37q18 0 25 -9t0 -26l-123 -258q-11 -25 -35 -25h-37zM1669 1004q37 0 25 -35l-357 -944q-9 -25 -37 -25h-73q-28 0 -37 25l-313 815l-314 -815q-9 -25 -37 -25h-73q-28 0 -37 25l-359 944q-12 35 25 35h61q28 0 37 -25 l312 -846l323 846q7 17 21 20q10 5 16 5h49q7 0 17 -5q13 -3 20 -20l324 -846l311 846q9 25 37 25h59z" />
<glyph unicode="&#x1e84;" horiz-adv-x="2197" d="M922 1722q-32 0 -55 22.5t-23 53.5t23 53.5t55 22.5t54.5 -22.5t22.5 -53.5t-22.5 -53.5t-54.5 -22.5zM1278 1722q-31 0 -54.5 22.5t-23.5 53.5t23.5 53.5t54.5 22.5q32 0 55 -22.5t23 -53.5t-23 -53.5t-55 -22.5zM2095 1434q35 0 25 -35l-449 -1374q-9 -25 -37 -25h-80 q-30 0 -36 25l-422 1214l-420 -1214q-9 -25 -37 -25h-82q-29 0 -35 25l-446 1374q-6 15 0.5 25t23.5 10h66q27 0 35 -25l397 -1259l434 1259q1 4 4.5 8.5t3.5 5.5q7 11 25 11h61q11 0 19 -4q8 -5 14 -21l436 -1259l402 1259q6 25 35 25h63z" />
<glyph unicode="&#x1e85;" horiz-adv-x="1753" d="M698 1292q-32 0 -54.5 22.5t-22.5 53.5t22.5 53.5t54.5 22.5t55 -22.5t23 -53.5t-23 -53.5t-55 -22.5zM1055 1292q-31 0 -54.5 22.5t-23.5 53.5t23.5 53.5t54.5 22.5q32 0 55 -22.5t23 -53.5t-23 -53.5t-55 -22.5zM1669 1004q37 0 25 -35l-357 -944q-9 -25 -37 -25h-73 q-28 0 -37 25l-313 815l-314 -815q-9 -25 -37 -25h-73q-28 0 -37 25l-359 944q-12 35 25 35h61q28 0 37 -25l312 -846l323 846q7 17 21 20q10 5 16 5h49q7 0 17 -5q13 -3 20 -20l324 -846l311 846q9 25 37 25h59z" />
<glyph unicode="&#x1ef2;" horiz-adv-x="1138" d="M498 1567l-123 258q-15 35 24 35h37q24 0 35 -25l123 -258q7 -17 0 -26t-25 -9h-37q-23 0 -34 25zM1038 1434q18 0 24 -11t-3 -26l-426 -699v-667q0 -13 -8.5 -22t-22.5 -9h-65q-13 0 -22 9t-9 22v667l-426 699q-9 15 -3.5 26t23.5 11h72q25 0 37 -21l360 -592l361 592 q12 21 37 21h71z" />
<glyph unicode="&#x1ef3;" horiz-adv-x="1013" d="M336 1430h37q24 0 35 -25l122 -258q15 -35 -24 -35h-37q-24 0 -35 25l-123 258q-7 17 0 26t25 9zM932 1004q36 0 24 -35l-528 -1334q-9 -24 -37 -24h-63q-37 0 -25 35l139 350l-385 973q-12 35 25 35h63q28 0 37 -25l324 -842l323 842q9 25 37 25h66z" />
<glyph unicode="&#x2000;" horiz-adv-x="960" />
<glyph unicode="&#x2001;" horiz-adv-x="1921" />
<glyph unicode="&#x2002;" horiz-adv-x="960" />
<glyph unicode="&#x2003;" horiz-adv-x="1921" />
<glyph unicode="&#x2004;" horiz-adv-x="640" />
<glyph unicode="&#x2005;" horiz-adv-x="480" />
<glyph unicode="&#x2006;" horiz-adv-x="320" />
<glyph unicode="&#x2007;" horiz-adv-x="320" />
<glyph unicode="&#x2008;" horiz-adv-x="240" />
<glyph unicode="&#x2009;" horiz-adv-x="384" />
<glyph unicode="&#x200a;" horiz-adv-x="106" />
<glyph unicode="&#x2010;" horiz-adv-x="798" d="M676 637q14 0 22.5 -8.5t8.5 -22.5v-49q0 -13 -8.5 -22t-22.5 -9h-553q-13 0 -22 9t-9 22v49q0 14 9 22.5t22 8.5h553z" />
<glyph unicode="&#x2011;" horiz-adv-x="798" d="M676 637q14 0 22.5 -8.5t8.5 -22.5v-49q0 -13 -8.5 -22t-22.5 -9h-553q-13 0 -22 9t-9 22v49q0 14 9 22.5t22 8.5h553z" />
<glyph unicode="&#x2012;" horiz-adv-x="798" d="M676 637q14 0 22.5 -8.5t8.5 -22.5v-49q0 -13 -8.5 -22t-22.5 -9h-553q-13 0 -22 9t-9 22v49q0 14 9 22.5t22 8.5h553z" />
<glyph unicode="&#x2013;" horiz-adv-x="1249" d="M1116 637q14 0 22.5 -8.5t8.5 -22.5v-49q0 -13 -8.5 -22t-22.5 -9h-983q-13 0 -22 9t-9 22v49q0 14 9 22.5t22 8.5h983z" />
<glyph unicode="&#x2014;" horiz-adv-x="1372" d="M1239 637q13 0 22 -8.5t9 -22.5v-49q0 -13 -9 -22t-22 -9h-1106q-13 0 -22 9t-9 22v49q0 14 9 22.5t22 8.5h1106z" />
<glyph unicode="&#x2018;" horiz-adv-x="294" d="M147 1126q-37 0 -61.5 28t-24.5 77q0 115 86 223q3 6 11 6h22q5 0 7 -4t-1 -8q-39 -76 -39 -152q37 0 61.5 -24.5t24.5 -61.5q0 -35 -24.5 -59.5t-61.5 -24.5z" />
<glyph unicode="&#x2019;" horiz-adv-x="294" d="M147 1427q37 0 61.5 -27.5t24.5 -76.5q0 -115 -86 -223q-3 -6 -10 -6h-22q-5 0 -7 4t1 8q38 74 38 151q-37 0 -61.5 24.5t-24.5 61.5q0 35 24.5 59.5t61.5 24.5z" />
<glyph unicode="&#x201a;" horiz-adv-x="294" d="M147 143q37 0 61.5 -27.5t24.5 -76.5q0 -115 -86 -223q-3 -6 -10 -6h-22q-5 0 -7 4t1 8q38 74 38 151q-37 0 -61.5 24.5t-24.5 61.5q0 35 24.5 59.5t61.5 24.5z" />
<glyph unicode="&#x201c;" horiz-adv-x="530" d="M147 1126q-37 0 -61.5 28t-24.5 77q0 115 86 223q3 6 11 6h22q5 0 7 -4t-1 -8q-39 -76 -39 -152q37 0 61.5 -24.5t24.5 -61.5q0 -35 -24.5 -59.5t-61.5 -24.5zM383 1126q-37 0 -61.5 28t-24.5 77q0 115 86 223q3 6 10 6h23q5 0 7 -4t-1 -8q-39 -76 -39 -152 q37 0 61.5 -24.5t24.5 -61.5q0 -35 -24.5 -59.5t-61.5 -24.5z" />
<glyph unicode="&#x201d;" horiz-adv-x="530" d="M147 1427q37 0 61.5 -27.5t24.5 -76.5q0 -115 -86 -223q-3 -6 -10 -6h-22q-5 0 -7 4t1 8q38 74 38 151q-37 0 -61.5 24.5t-24.5 61.5q0 35 24.5 59.5t61.5 24.5zM383 1427q37 0 61.5 -27.5t24.5 -76.5q0 -115 -86 -223q-3 -6 -10 -6h-23q-5 0 -7 4t1 8q39 76 39 151 q-37 0 -61.5 24.5t-24.5 61.5q0 35 24.5 59.5t61.5 24.5z" />
<glyph unicode="&#x201e;" horiz-adv-x="499" d="M147 143q37 0 61.5 -27.5t24.5 -76.5q0 -115 -86 -223q-3 -6 -10 -6h-22q-5 0 -7 4t1 8q38 74 38 151q-37 0 -61.5 24.5t-24.5 61.5q0 35 24.5 59.5t61.5 24.5zM352 143q37 0 61.5 -27.5t24.5 -76.5q0 -115 -86 -223q-3 -6 -10 -6h-23q-5 0 -7 4t1 8q39 76 39 151 q-37 0 -61.5 24.5t-24.5 61.5q0 35 24.5 59.5t61.5 24.5z" />
<glyph unicode="&#x2026;" horiz-adv-x="1325" d="M158 -27q-37 0 -61.5 24.5t-24.5 61.5q0 35 24.5 59.5t61.5 24.5q35 0 59.5 -24.5t24.5 -59.5q0 -37 -24.5 -61.5t-59.5 -24.5zM664 -27q-37 0 -61.5 24.5t-24.5 61.5q0 35 24.5 59.5t61.5 24.5q35 0 59.5 -24.5t24.5 -59.5q0 -37 -24.5 -61.5t-59.5 -24.5zM1169 -27 q-37 0 -61.5 24.5t-24.5 61.5q0 35 24.5 59.5t61.5 24.5q35 0 59.5 -24.5t24.5 -59.5q0 -37 -24.5 -61.5t-59.5 -24.5z" />
<glyph unicode="&#x202f;" horiz-adv-x="384" />
<glyph unicode="&#x2039;" horiz-adv-x="397" d="M72 645q0 24 16 37l201 174q15 12 26 8t11 -24v-43q0 -23 -17 -37l-176 -154l176 -153q17 -14 17 -37v-43q0 -20 -11 -24.5t-26 7.5l-201 174q-16 13 -16 37v78z" />
<glyph unicode="&#x203a;" horiz-adv-x="397" d="M326 625v-78q0 -23 -17 -37l-200 -174q-15 -12 -26 -8t-11 24v43q0 24 16 37l176 154l-176 153q-16 13 -16 37v43q0 20 11 24.5t26 -7.5l200 -174q17 -14 17 -37z" />
<glyph unicode="&#x2044;" horiz-adv-x="262" d="M621 1434l-881 -1434h-98l893 1434h86z" />
<glyph unicode="&#x205f;" horiz-adv-x="480" />
<glyph unicode="&#x20ac;" horiz-adv-x="1439" d="M1354 209q11 -11 10 -23t-12 -20q-228 -193 -480 -193q-258 0 -451.5 161.5t-248.5 412.5h-80q-14 0 -22.5 8.5t-8.5 22.5v51q0 13 8.5 21.5t22.5 8.5h66q-2 16 -2 52v37h-64q-14 0 -22.5 8.5t-8.5 21.5v51q0 13 8.5 22t22.5 9h78q50 256 245.5 423t456.5 167 q252 0 480 -190q26 -22 2 -43l-43 -43q-21 -19 -43 0q-182 151 -394 151q-207 0 -366.5 -129.5t-206.5 -335.5h285q13 0 21.5 -8.5t8.5 -22.5v-51q0 -14 -8 -22t-22 -8h-301v-37q0 -36 2 -52h299q14 0 22 -8.5t8 -21.5v-51q0 -14 -8.5 -22.5t-21.5 -8.5h-281 q51 -199 209 -324t360 -125q211 0 394 152q22 19 43 0z" />
<glyph unicode="&#x2122;" horiz-adv-x="1067" d="M453 1434q10 0 10 -11v-34q0 -11 -10 -11h-136v-303q0 -10 -10 -10h-39q-10 0 -10 10v303h-135q-10 0 -10 11v34q0 11 10 11h330zM944 1434q10 0 10 -11v-348q0 -10 -10 -10h-41q-10 0 -10 10v246l-119 -248q-4 -8 -12 -8h-37q-8 0 -12 8l-117 248v-246q0 -10 -10 -10 h-41q-10 0 -10 10v348q0 11 10 11h51q8 0 12 -9l135 -290l136 290q5 9 12 9h53z" />
<glyph unicode="&#x25fc;" horiz-adv-x="1003" d="M0 1004h1004v-1004h-1004v1004z" />
<glyph horiz-adv-x="333" d="M168 1292q-32 0 -55 22.5t-23 53.5t23 53.5t55 22.5t55 -22.5t23 -53.5t-23 -53.5t-55 -22.5zM104 973q0 13 9 22t22 9h62q13 0 21.5 -8.5t8.5 -22.5v-942q0 -14 -8.5 -22.5t-21.5 -8.5h-62q-13 0 -22 9t-9 22v942z" />
<glyph horiz-adv-x="677" d="M606 1475q21 -12 21 -37v-49q0 -40 -37 -21q-2 1 -14.5 6.5t-15.5 7t-13.5 6t-16.5 6t-15.5 3.5t-18.5 3t-19 1q-80 0 -110.5 -37t-30.5 -115v-245h213q13 0 22 -9t9 -22v-45q0 -14 -9 -22.5t-22 -8.5h-213v-866q0 -13 -9 -22t-22 -9h-61q-14 0 -22.5 9t-8.5 22v866h-119 q-14 0 -22.5 8.5t-8.5 22.5v45q0 13 8.5 22t22.5 9h119v247q0 127 62.5 191.5t203.5 64.5q72 0 127 -32z" />
<glyph horiz-adv-x="638" d="M535 897h-170v-711q0 -88 79 -88q53 0 78 4q17 3 27 -5t10 -23v-37q0 -26 -42.5 -38.5t-92.5 -12.5q-93 0 -137.5 48t-44.5 150v713h-148q-14 0 -22.5 8.5t-8.5 22.5v45q0 13 8.5 22t22.5 9h148v194q0 14 8.5 22.5t21.5 8.5h62q14 0 22.5 -8.5t8.5 -22.5v-194h170 q13 0 21.5 -8.5t8.5 -22.5v-45q0 -14 -8.5 -22.5t-21.5 -8.5z" />
<glyph horiz-adv-x="1454" d="M727 1450q247 0 386.5 -195t139.5 -544q0 -347 -140 -542.5t-386 -195.5q-245 0 -385.5 196t-140.5 542q0 349 140 544t386 195zM727 1339q-188 0 -298 -164t-110 -464q0 -298 110.5 -462.5t297.5 -164.5q189 0 299.5 164.5t110.5 462.5q0 300 -110.5 464t-299.5 164z " />
<glyph horiz-adv-x="1454" d="M870 1434q14 0 22.5 -9t8.5 -22v-1372q0 -13 -8.5 -22t-22.5 -9h-61q-13 0 -22 9t-9 22v1292h-145q-13 0 -22 8.5t-9 22.5v49q0 13 9 22t22 9h237z" />
<glyph horiz-adv-x="1454" d="M1116 111q14 0 22.5 -8.5t8.5 -22.5v-49q0 -13 -8.5 -22t-22.5 -9h-797q-13 0 -21.5 8.5t-8.5 22.5v80l377 385q76 78 115 119t88.5 96.5t72.5 89.5t46.5 76.5t31.5 79t8 77.5q0 136 -81.5 220.5t-237.5 84.5q-48 0 -93 -10.5t-74 -22.5t-64 -36.5t-48 -35.5t-41 -36 q-24 -21 -45 0l-33 29q-21 21 -2 43q71 82 178 131t220 49q139 0 240.5 -57t150.5 -150.5t49 -210.5q0 -125 -83 -250t-278 -323l-342 -348h672z" />
<glyph horiz-adv-x="1454" d="M901 772q116 -47 191 -143.5t75 -218.5q0 -190 -135.5 -313.5t-329.5 -123.5q-255 0 -409 179q-19 22 2 43l33 28q22 23 45 0q26 -28 50.5 -47.5t64.5 -43t96 -36t123 -12.5q145 0 245.5 89t100.5 233q0 97 -55 167.5t-142 104.5t-197 37q-30 0 -30 30v46q0 32 30 32 q152 4 243 81t91 188q0 108 -87 178.5t-201 70.5q-52 0 -98 -12.5t-83 -36.5t-60 -44t-50 -48q-22 -22 -45 0l-31 31q-21 21 -2 43q70 83 165 129.5t199 46.5q106 0 200 -46.5t152 -131.5t58 -187q0 -98 -57.5 -181.5t-151.5 -131.5z" />
<glyph horiz-adv-x="1454" d="M1124 504q14 0 22.5 -9t8.5 -22v-47q0 -14 -8.5 -22.5t-22.5 -8.5h-147v-364q0 -13 -8.5 -22t-22.5 -9h-61q-13 0 -22 9t-9 22v364h-522q-14 0 -22.5 8.5t-8.5 22.5v57q0 22 10 39l531 891q12 21 37 21h67q14 0 22.5 -9t8.5 -22v-899h147zM854 504v725l-430 -725h430z " />
<glyph horiz-adv-x="1454" d="M698 930q88 0 171 -34t148 -93.5t104.5 -149.5t39.5 -194q0 -109 -39 -201t-105.5 -153.5t-153.5 -95.5t-183 -34q-127 0 -231.5 53.5t-159.5 127.5q-17 26 6 43l37 34q26 19 45 -6q123 -141 305 -141q91 0 172 44t134.5 131t53.5 198q0 80 -32.5 149.5t-84.5 114 t-113.5 69.5t-121.5 25q-184 0 -297 -139q-16 -22 -41 -10l-45 24q-26 16 -20 41l176 674q7 27 33 27h548q14 0 22.5 -9t8.5 -22v-45q0 -14 -8.5 -22.5t-22.5 -8.5h-491l-125 -481q109 84 270 84z" />
<glyph horiz-adv-x="1454" d="M717 907q194 0 325.5 -134.5t131.5 -330.5q0 -128 -59.5 -235.5t-165 -170.5t-232.5 -63t-233 63t-166 171t-60 235q0 165 121 332l502 682q18 24 43 6l39 -32q11 -6 13 -19t-7 -25l-367 -495q62 16 115 16zM717 84q146 0 243 100.5t97 257.5q0 153 -97.5 254t-242.5 101 q-146 0 -243 -100.5t-97 -254.5q0 -157 96.5 -257.5t243.5 -100.5z" />
<glyph horiz-adv-x="1454" d="M1145 1434q14 0 21 -9t3 -22l-538 -1372q-10 -31 -37 -31h-57q-14 0 -21.5 9t-3.5 22l512 1292h-664q-13 0 -21.5 8.5t-8.5 22.5v49q0 14 8.5 22.5t21.5 8.5h785z" />
<glyph horiz-adv-x="1454" d="M893 791q117 -44 199 -152t82 -246q0 -124 -62 -221.5t-162.5 -148t-220.5 -50.5q-90 0 -171 30t-142 83.5t-97 133t-36 173.5q0 138 81.5 246t198.5 152q-99 45 -153 129t-54 182q0 140 105 244t268 104t268 -104t105 -244q0 -98 -54.5 -182t-154.5 -129zM467 1110 q-3 -108 74.5 -182t187.5 -74t186.5 74t75.5 182q-3 102 -72.5 171t-189.5 69t-190 -69.5t-72 -170.5zM729 84q139 0 234.5 84t95.5 227q0 138 -96 230t-234 92q-139 0 -235.5 -92t-96.5 -230q0 -142 96 -226.5t236 -84.5z" />
<glyph horiz-adv-x="1454" d="M711 1450q127 0 233 -63t165.5 -170.5t59.5 -235.5q0 -167 -120 -332l-502 -682q-18 -24 -43 -6l-39 33q-11 6 -13 18.5t7 24.5l366 495q-62 -16 -114 -16q-194 0 -325.5 134.5t-131.5 330.5q0 128 59.5 235.5t165 170.5t232.5 63zM711 627q147 0 243.5 100.5t96.5 253.5 q0 157 -96.5 257.5t-243.5 100.5q-146 0 -243 -100.5t-97 -257.5q0 -153 97.5 -253.5t242.5 -100.5z" />
<glyph horiz-adv-x="552" d="M276 539q96 0 156 -71.5t60 -186.5v-27q0 -115 -60 -186.5t-156 -71.5q-93 0 -154 72t-61 186v27q0 114 61 186t154 72zM276 475q-60 0 -99.5 -52t-39.5 -142v-27q0 -90 39.5 -142.5t99.5 -52.5q64 0 102 52t38 143v27q0 91 -38 142.5t-102 51.5z" />
<glyph horiz-adv-x="253" d="M193 535v-535h-76v461h-56v74h132z" />
<glyph horiz-adv-x="473" d="M233 541q70 0 121.5 -46.5t51.5 -107.5q0 -54 -29.5 -96t-110.5 -125l-96 -100h242v-66h-344v66l139 141q58 60 75 79t31.5 46t14.5 55q0 37 -28.5 63.5t-66.5 26.5q-39 0 -67.5 -26.5t-28.5 -75.5v-29h-76v29q0 72 50.5 119t121.5 47z" />
<glyph horiz-adv-x="497" d="M248 539q66 0 115 -42t49 -98q0 -64 -62 -108q38 -16 62 -50.5t24 -84.5q0 -69 -56 -116.5t-132 -47.5q-83 0 -136 55t-51 131h78q3 -51 32 -86t77 -35q45 0 77.5 28t32.5 71q0 55 -38 76t-113 24v57q66 0 97.5 23.5t31.5 62.5q0 32 -25.5 54t-62.5 22q-44 0 -69.5 -28 t-26.5 -82h-76q0 77 48 125.5t124 48.5z" />
<glyph horiz-adv-x="524" d="M408 535v-316h55v-63h-55v-156h-76v156h-271l271 379h76zM332 424l-144 -205h144v205z" />
<glyph horiz-adv-x="501" d="M391 535v-66h-213l-16 -119q47 21 92 21q72 0 129 -55t57 -134t-57 -134.5t-137 -55.5q-67 0 -119.5 38.5t-65.5 88.5l68 39q3 -42 35.5 -71.5t81.5 -29.5q47 0 81.5 35.5t34.5 89.5q0 51 -33.5 87t-74.5 36q-72 0 -117 -59l-65 16l37 273h282z" />
<glyph horiz-adv-x="477" d="M367 535l-140 -197h13q69 0 122.5 -51.5t53.5 -120.5q0 -71 -53.5 -122.5t-122.5 -51.5q-70 0 -124.5 51.5t-54.5 122.5q0 32 11 63.5t21 47.5t36.5 50.5t34.5 45.5l117 162h86zM240 272q-45 0 -74 -28.5t-29 -77.5q0 -47 32 -78t71 -31q38 0 69 31t31 78t-31 76.5 t-69 29.5z" />
<glyph horiz-adv-x="477" d="M416 535l-209 -535h-80l182 469h-248v66h355z" />
<glyph horiz-adv-x="497" d="M248 539q74 0 118 -41.5t44 -96.5q0 -69 -62 -108q88 -45 88 -135q0 -69 -55 -115.5t-133 -46.5q-75 0 -131 46.5t-56 115.5q0 91 89 135q-62 41 -62 108q0 54 44.5 96t115.5 42zM248 475q-40 0 -62 -22t-22 -52q0 -31 26 -55t58 -24q36 0 60 23.5t24 55.5q0 31 -20 52.5 t-64 21.5zM248 258q-44 0 -77.5 -28.5t-33.5 -71.5q0 -42 33.5 -70.5t77.5 -28.5q49 0 79.5 27.5t30.5 71.5t-30.5 72t-79.5 28z" />
<glyph horiz-adv-x="479" d="M240 541q70 0 124 -50.5t54 -121.5q0 -26 -5.5 -49.5t-18.5 -46t-22 -36.5t-30 -40t-29 -37l-114 -160h-88l139 195h-10q-71 0 -125 52.5t-54 121.5q0 71 54.5 121.5t124.5 50.5zM240 475q-39 0 -71 -30.5t-32 -75.5q0 -47 32 -78t71 -31q45 0 72.5 30t27.5 79 q0 45 -31.5 75.5t-68.5 30.5z" />
<glyph horiz-adv-x="552" d="M276 1440q96 0 156 -71.5t60 -186.5v-27q0 -115 -60 -186.5t-156 -71.5q-93 0 -154 72t-61 186v27q0 114 61 186t154 72zM276 1376q-60 0 -99.5 -52t-39.5 -142v-27q0 -90 39.5 -142t99.5 -52q64 0 102 51.5t38 142.5v27q0 91 -38 142.5t-102 51.5z" />
<glyph horiz-adv-x="253" d="M193 1436v-535h-76v461h-56v74h132z" />
<glyph horiz-adv-x="473" d="M233 1442q70 0 121.5 -46.5t51.5 -107.5q0 -54 -29.5 -96t-110.5 -125l-96 -100h242v-66h-344v66l139 141q58 60 75 79t31.5 46t14.5 55q0 37 -28.5 63.5t-66.5 26.5q-39 0 -67.5 -26.5t-28.5 -75.5v-29h-76v29q0 72 50.5 119t121.5 47z" />
<glyph horiz-adv-x="497" d="M248 1440q66 0 115 -42t49 -98q0 -64 -62 -108q38 -16 62 -50.5t24 -84.5q0 -69 -56 -116.5t-132 -47.5q-83 0 -136 55t-51 131h78q3 -51 32 -86t77 -35q45 0 77.5 28t32.5 71q0 55 -38 76t-113 24v57q66 0 97.5 23.5t31.5 62.5q0 32 -25.5 54t-62.5 22q-44 0 -69.5 -28 t-26.5 -82h-76q0 78 48 126t124 48z" />
<glyph horiz-adv-x="524" d="M408 1436v-316h55v-63h-55v-156h-76v156h-271l271 379h76zM332 1325l-144 -205h144v205z" />
<glyph horiz-adv-x="501" d="M391 1436v-66h-213l-16 -119q47 21 92 21q72 0 129 -55t57 -134t-57 -134.5t-137 -55.5q-67 0 -119.5 38.5t-65.5 88.5l68 39q3 -42 35.5 -71.5t81.5 -29.5q47 0 81.5 35.5t34.5 89.5q0 51 -33.5 87t-74.5 36q-72 0 -117 -59l-65 16l37 273h282z" />
<glyph horiz-adv-x="477" d="M367 1436l-140 -197h13q69 0 122.5 -51.5t53.5 -120.5q0 -71 -53.5 -122.5t-122.5 -51.5q-70 0 -124.5 51.5t-54.5 122.5q0 32 11 63.5t21 47.5t36.5 50.5t34.5 45.5l117 162h86zM240 1174q-45 0 -74 -29t-29 -78q0 -47 32 -78t71 -31q38 0 69 31t31 78t-31 77t-69 30z " />
<glyph horiz-adv-x="477" d="M416 1436l-209 -535h-80l182 469h-248v66h355z" />
<glyph horiz-adv-x="497" d="M248 1440q74 0 118 -41t44 -96q0 -70 -62 -109q88 -45 88 -135q0 -69 -55 -115.5t-133 -46.5q-75 0 -131 46.5t-56 115.5q0 91 89 135q-62 41 -62 109q0 54 44 95.5t116 41.5zM248 1376q-40 0 -62 -21.5t-22 -51.5q0 -31 26 -55.5t58 -24.5q36 0 60 24t24 56q0 31 -20 52 t-64 21zM248 1159q-44 0 -77.5 -28.5t-33.5 -71.5q0 -42 33.5 -70t77.5 -28q50 0 80 27t30 71t-30.5 72t-79.5 28z" />
<glyph horiz-adv-x="479" d="M240 1442q70 0 124 -50.5t54 -121.5q0 -26 -5.5 -49.5t-18.5 -46t-22 -36.5t-30 -40t-29 -37l-114 -160h-88l139 195h-10q-71 0 -125 52.5t-54 121.5q0 71 54.5 121.5t124.5 50.5zM240 1376q-39 0 -71 -30.5t-32 -75.5q0 -47 32 -78t71 -31q45 0 72.5 30t27.5 79 q0 45 -31.5 75.5t-68.5 30.5z" />
</font>
</defs>
</svg>
