<svg width="85" height="116" viewBox="0 0 85 116" fill="none" xmlns="http://www.w3.org/2000/svg">
<g clip-path="url(#clip0_476_682)">
<path fill-rule="evenodd" clip-rule="evenodd" d="M64.836 42.2086C64.7286 39.2317 63.6478 34.778 61.7434 31.5275C60.7733 29.8693 59.2302 27.2517 55.1381 24.2914C53.0188 22.7551 50.0368 21.5782 47.9501 21.0837C45.8666 20.5859 45.2904 20.4508 42.4647 20.3783C39.7757 20.309 35.625 20.7969 31.2985 23.0782C26.9721 25.3595 22.9223 29.7012 21.0993 35.012C19.4292 39.8779 18.6121 46.4481 22.2973 53.2062C24.2798 56.8391 25.9401 58.6424 27.3595 60.2478C28.7756 61.85 29.5732 62.7236 30.6051 64.8631C31.6338 67.0026 31.7673 68.6608 31.7641 73.3553C31.7641 73.6684 31.738 73.9421 32.0733 73.9421C32.5877 73.9421 43.9329 73.9552 44.125 73.9421C44.3203 73.9289 44.2552 74.0311 44.0501 74.097C43.8417 74.1629 32.3175 76.6025 32.0343 76.6783C31.751 76.7574 31.7771 76.9684 31.7641 77.1893C31.751 77.4101 31.751 79.4442 31.7641 79.6914C31.7771 79.9419 31.9301 79.9156 32.1091 79.8892C32.4445 79.8365 35.1562 79.2431 49.962 76.131C52.371 75.6266 52.3938 75.6233 52.3938 75.6233C52.3938 75.6233 52.6477 75.5442 52.664 75.231C52.69 74.8025 52.6509 72.7157 52.664 72.063C52.7388 68.3279 52.8267 65.4202 55.3692 62.2027C56.144 61.2236 57.495 59.7006 58.2666 58.8006C59.0414 57.9006 61.9778 54.3402 63.2897 50.9744C64.4942 47.892 64.976 46.1481 64.836 42.2086ZM61.089 51.0139C59.3767 54.5051 57.6285 56.4039 54.9818 59.661C52.3384 62.9181 51.7752 64.4148 51.1958 66.2708C50.6163 68.1301 50.6814 70.7839 50.6944 70.9289C50.7074 71.0707 50.6944 71.2289 50.4633 71.2421C50.2321 71.2553 34.2219 71.2553 34.0819 71.2421C33.9387 71.2289 33.8508 71.2322 33.8508 71.0839C33.8508 70.9355 33.8964 69.4718 33.6164 67.6817C33.3364 65.8917 32.6626 64.3159 31.725 62.6346C30.7874 60.95 29.3388 59.3478 28.4793 58.3687C27.6199 57.3896 26.6563 56.2655 25.2337 54.0666C23.02 50.6414 22.001 47.8195 21.7569 44.1668C21.4867 40.1449 22.3493 37.1647 23.1469 35.0879C24.104 32.6055 25.7708 29.9055 28.5933 27.4594C31.865 24.6276 34.3847 23.8232 36.5528 23.1573C39.6455 22.2079 43.7213 22.0365 47.8752 23.1573C52.0454 24.2815 55.1739 26.332 57.9573 29.5726C61.0402 33.1593 62.287 37.1252 62.7102 40.646C63.1367 44.1668 62.7981 47.5228 61.089 51.0139Z" fill="#464646"/>
<path fill-rule="evenodd" clip-rule="evenodd" d="M32.1516 80.7861C31.9986 80.8256 31.7772 80.8124 31.7642 81.2542C31.7511 81.6992 31.7511 83.6937 31.7642 83.875C31.7772 84.0563 31.8293 84.1618 32.1125 84.1091C32.4738 84.0431 52.179 79.9355 52.4362 79.8828C52.6934 79.83 52.6673 79.6487 52.6673 79.4509V76.7905C52.6673 76.6092 52.6315 76.5499 52.3971 76.596C52.0618 76.662 32.3046 80.7432 32.1516 80.7828V80.7861Z" fill="#464646"/>
<path fill-rule="evenodd" clip-rule="evenodd" d="M36.0517 84.3463C35.9248 84.376 35.6936 84.4848 35.8206 84.7386C35.9476 84.9925 37.24 87.2342 37.3279 87.399C37.4158 87.5638 37.6078 87.6331 37.8683 87.6331C38.1287 87.6331 46.5408 87.6529 46.7556 87.6331C46.9672 87.6133 47.0258 87.5441 47.1039 87.4386C47.1821 87.3298 48.3019 85.3353 48.3801 85.21C48.4582 85.0815 48.5624 84.9859 48.8424 84.9364C49.1223 84.887 52.1954 84.2606 52.4363 84.1947C52.6772 84.1255 52.6675 83.9211 52.6675 83.7266C52.6675 83.5321 52.6577 81.3002 52.6675 81.1848C52.6773 81.0662 52.6284 80.9508 52.4363 80.9903C52.2443 81.0299 36.1787 84.3265 36.055 84.3562V84.3463H36.0517Z" fill="#464646"/>
<path fill-rule="evenodd" clip-rule="evenodd" d="M61.1284 43.0725C60.9916 46.2505 60.2201 48.568 59.1556 50.6614C58.0943 52.7548 56.2289 55.4118 54.0576 57.7821C51.795 60.248 50.6752 61.6656 49.692 64.082C48.7056 66.4984 48.813 68.6413 48.8033 68.9347C48.7935 69.2281 48.7838 69.4621 48.4159 69.5215C48.048 69.5775 45.7204 69.5412 42.6212 69.5577C39.5188 69.5775 36.68 69.5478 36.1689 69.5215C35.6546 69.4918 35.7425 68.9907 35.7425 68.816C35.7425 68.6413 35.762 68.4501 35.6643 67.5237C35.5504 66.3995 35.4234 65.2062 34.3524 62.948C33.2781 60.6865 30.8626 58.214 29.7525 56.9613C27.389 54.2811 26.0055 51.924 25.273 50.5064C24.5373 49.0856 23.5151 46.4153 23.4174 43.3461C23.3197 40.2737 23.8276 38.1671 24.3843 36.4595C24.9735 34.6496 26.3636 32.2991 27.7048 30.6673C29.6288 28.3299 31.4616 27.1267 33.2325 26.1311C36.4294 24.3311 39.7109 23.8762 41.6543 23.8993C43.8094 23.9256 46.3682 23.7641 50.4636 25.6992C54.5589 27.6377 56.8735 30.4233 58.384 32.82C60.5489 36.2551 61.2618 39.8913 61.1284 43.0725Z" fill="url(#paint0_radial_476_682)"/>
<path d="M12.3164 115.272V109.236H14.6896V115.272H12.3164ZM12.3164 108.616V106.642H14.6896V108.616H12.3164Z" fill="#464646"/>
<path d="M16.9815 112.483C17.3429 112.885 17.6879 113.182 18.0167 113.373C18.3618 113.571 18.7004 113.667 19.0292 113.667C19.3385 113.667 19.5956 113.581 19.8007 113.413C20.0058 113.245 20.1067 113.031 20.1067 112.77C20.1067 112.487 20.0221 112.266 19.8528 112.104C19.6705 111.953 19.2733 111.791 18.6581 111.626C17.8182 111.399 17.2224 111.102 16.8741 110.743C16.5192 110.373 16.3435 109.869 16.3435 109.233C16.3435 108.409 16.6202 107.736 17.1736 107.215C17.7205 106.691 18.4334 106.431 19.3189 106.431C19.817 106.431 20.2695 106.497 20.6732 106.625C21.0964 106.754 21.5001 106.948 21.8809 107.202L21.1452 108.893C20.8848 108.669 20.6113 108.498 20.3216 108.376C20.0384 108.26 19.7617 108.204 19.4915 108.204C19.2213 108.204 18.9869 108.273 18.8013 108.412C18.6255 108.541 18.5376 108.715 18.5376 108.93C18.5376 109.144 18.6125 109.312 18.7688 109.447C18.9283 109.576 19.231 109.701 19.677 109.82C19.6933 109.823 19.7063 109.826 19.7193 109.833C19.7324 109.833 19.7486 109.836 19.7714 109.846C20.7285 110.1 21.3633 110.39 21.6693 110.706C21.8712 110.908 22.0274 111.161 22.1414 111.468C22.2423 111.758 22.2944 112.088 22.2944 112.457C22.2944 113.37 21.9949 114.105 21.3926 114.669C20.7871 115.223 19.9863 115.5 18.9901 115.5C18.3781 115.5 17.8312 115.401 17.3461 115.2C16.8676 114.999 16.3923 114.676 15.9268 114.234L16.988 112.483H16.9815Z" fill="#464646"/>
<path d="M24.8532 115.272V108.682H22.9194V106.642H29.1341V108.682H27.2003V115.272H24.8499H24.8532Z" fill="#464646"/>
<path d="M32.5686 112.045H34.906L34.027 109.196C34.0075 109.147 33.9717 109.005 33.9163 108.771C33.8512 108.501 33.7894 108.254 33.734 108.033C33.6787 108.234 33.6331 108.435 33.594 108.639C33.5322 108.837 33.4769 109.022 33.4345 109.193L32.5686 112.041V112.045ZM29.2773 115.269L32.2528 106.638H35.199L38.181 115.269H35.8436L35.4073 113.723H32.0673L31.6213 115.269H29.2773Z" fill="#464646"/>
<path d="M39.0077 115.272V106.642H41.2767L44.5354 111.082C44.6168 111.204 44.7209 111.385 44.8479 111.629C45.0074 111.943 45.1669 112.269 45.3199 112.602C45.2613 112.15 45.2288 111.834 45.219 111.652C45.1962 111.369 45.1832 111.118 45.1832 110.904V106.642H47.4392V115.272H45.1832L41.9245 110.815C41.8789 110.753 41.7748 110.568 41.612 110.261C41.472 110.011 41.3125 109.691 41.14 109.305C41.179 109.612 41.2148 109.932 41.2506 110.261C41.2669 110.631 41.2734 110.881 41.2734 111.01V115.272H39.0044H39.0077Z" fill="#464646"/>
<path d="M51.4697 110.09H51.9418C52.5277 110.09 52.9249 110.027 53.1365 109.902C53.3514 109.77 53.4588 109.546 53.4588 109.236C53.4588 108.91 53.3579 108.679 53.1593 108.547C52.9379 108.409 52.544 108.339 51.9743 108.339H51.4665V110.09H51.4697ZM49.2886 115.272V106.642H51.652C52.6026 106.642 53.283 106.675 53.6899 106.737C54.0708 106.797 54.4061 106.905 54.6926 107.06C55.0084 107.245 55.2493 107.479 55.4186 107.762C55.5878 108.062 55.6725 108.409 55.6725 108.801C55.6725 109.299 55.5455 109.694 55.2949 109.981C55.0474 110.265 54.6503 110.479 54.1034 110.631C54.6991 110.677 55.1809 110.891 55.539 111.267C55.8841 111.652 56.0566 112.167 56.0566 112.813C56.0566 113.268 55.959 113.673 55.7604 114.023C55.5651 114.385 55.2883 114.659 54.9302 114.844C54.6568 114.989 54.2954 115.104 53.8462 115.186C53.3839 115.249 52.6742 115.282 51.7204 115.282H49.2886V115.272ZM51.4697 113.508H52.2933C52.85 113.508 53.2439 113.436 53.4718 113.291C53.7062 113.156 53.8267 112.928 53.8267 112.602C53.8267 112.249 53.7192 111.995 53.5076 111.84C53.296 111.699 52.9021 111.629 52.3292 111.629H51.4697V113.508Z" fill="#464646"/>
<path d="M57.4139 106.642H59.7708V110.838C59.7708 111.478 59.7871 111.923 59.8164 112.17C59.8555 112.463 59.9076 112.688 59.9759 112.843C60.0573 113.067 60.2136 113.232 60.4415 113.337C60.6693 113.459 60.9428 113.518 61.2651 113.518C61.5874 113.518 61.8576 113.459 62.0822 113.337C62.2905 113.235 62.4468 113.07 62.5542 112.843C62.6161 112.684 62.6682 112.46 62.7072 112.17C62.743 111.933 62.7593 111.491 62.7593 110.838V106.642H65.0967V111.204C65.0967 112.14 65.0414 112.836 64.9274 113.291C64.82 113.743 64.6279 114.132 64.3512 114.451C64.0452 114.807 63.6383 115.071 63.1304 115.236C62.6291 115.414 62.0041 115.5 61.2618 115.5C60.5196 115.5 59.8783 115.411 59.3899 115.236C58.8919 115.071 58.4849 114.811 58.1692 114.451C57.899 114.138 57.7069 113.749 57.593 113.291C57.4725 112.826 57.4106 112.131 57.4106 111.204V106.642H57.4139Z" fill="#464646"/>
<path d="M66.8936 115.272V106.642H69.244V113.255H72.1674V115.272H66.8936Z" fill="#464646"/>
<path fill-rule="evenodd" clip-rule="evenodd" d="M17.5675 93.31C17.5089 93.155 17.4308 93.188 17.3527 93.188H15.4222C15.3343 93.188 15.1618 93.1682 15.1129 93.3067C15.0641 93.4451 11.6459 103.292 11.5971 103.401C11.5482 103.51 11.6361 103.52 11.7143 103.52H13.8791C14.0028 103.52 14.0582 103.401 14.1103 103.246C14.1656 103.091 14.5823 101.618 14.6116 101.565C14.6409 101.509 14.6897 101.486 14.8427 101.486H17.8963C17.981 101.486 18.0135 101.565 18.0493 101.68C18.0884 101.799 18.5442 103.276 18.5897 103.401C18.6353 103.526 18.7069 103.556 18.8209 103.556H20.9467C21.015 103.556 21.0639 103.5 21.0248 103.361C20.9955 103.253 17.6554 93.5308 17.5708 93.31H17.5675ZM17.3136 99.567H15.3831C15.3115 99.567 15.1943 99.5901 15.2301 99.4879C15.2627 99.3857 16.1742 96.2638 16.197 96.1616C16.2198 96.0594 16.2523 95.9242 16.3142 95.9275C16.4086 95.9308 16.4412 96.089 16.4672 96.2011C16.4932 96.3132 17.3104 99.1648 17.3559 99.3296C17.4015 99.4978 17.3787 99.5637 17.3169 99.5637H17.3136V99.567Z" fill="#464646"/>
<path fill-rule="evenodd" clip-rule="evenodd" d="M30.2964 93.1517C30.1597 93.1451 28.2358 93.1517 28.0958 93.1517C27.9558 93.1517 27.7735 93.1583 27.6693 93.3067C27.5651 93.455 24.4627 97.9121 24.3846 98.0011C24.3065 98.0934 24.2251 98.0341 24.2316 97.922C24.2381 97.8099 24.2316 93.4155 24.2316 93.3429C24.2316 93.2704 24.173 93.1484 24.0395 93.1484C23.906 93.1484 22.2295 93.1353 22.109 93.1484C21.9853 93.1616 21.8844 93.1682 21.8779 93.3034C21.8714 93.4418 21.8779 103.378 21.8779 103.437C21.8714 103.523 21.9756 103.563 22.07 103.556C22.1676 103.549 24.0069 103.556 24.0786 103.556C24.1502 103.556 24.2381 103.45 24.2316 103.361C24.2251 103.269 24.2251 98.7626 24.2316 98.7066C24.2381 98.6472 24.3097 98.6077 24.3846 98.7066C24.4627 98.8055 27.347 103.272 27.4382 103.401C27.5293 103.533 27.5847 103.556 27.7474 103.556H30.1825C30.2802 103.556 30.2737 103.45 30.2216 103.361C30.1695 103.269 27.1061 98.522 27.015 98.3934C26.9238 98.2615 26.9173 98.1923 27.054 98.0011C27.1908 97.8132 30.2411 93.4616 30.3388 93.3462C30.4364 93.2276 30.4364 93.1583 30.2997 93.1517H30.2964Z" fill="#464646"/>
<path fill-rule="evenodd" clip-rule="evenodd" d="M43.6272 96.8275C43.7476 95.5187 43.3472 94.9055 43.2007 94.6352C43.0575 94.3682 42.3868 93.4484 41.0749 93.3033C40.668 93.2572 39.8443 93.1847 39.3365 93.1847H36.4392C36.3285 93.1847 36.0518 93.1715 36.0518 93.4583V103.358C36.0518 103.464 36.1104 103.546 36.2438 103.553C36.3806 103.559 38.132 103.553 38.2134 103.553C38.2948 103.553 38.3989 103.487 38.4054 103.319C38.4119 103.15 38.4054 99.9659 38.4054 99.8769C38.4054 99.7977 38.4695 99.7582 38.5975 99.7582H39.6783C39.8216 99.7582 41.1367 99.6922 41.9181 99.3263C42.7026 98.9637 43.4969 98.1296 43.6174 96.8209L43.6272 96.8275ZM41.2702 97.0615C40.9707 97.7373 40.1276 97.6879 39.802 97.6879H38.4868C38.438 97.6879 38.4087 97.6615 38.4087 97.6088V95.4165C38.4087 95.3605 38.4347 95.2978 38.5259 95.2978C38.617 95.2978 39.6132 95.2912 40.0722 95.2978C40.5312 95.3044 40.7624 95.3637 41.0391 95.611C41.3158 95.8582 41.5697 96.3824 41.2702 97.0582V97.0615Z" fill="#464646"/>
<path fill-rule="evenodd" clip-rule="evenodd" d="M48.4159 93.3463C48.3508 93.1584 48.2726 93.198 48.1066 93.1914C47.9406 93.1848 46.2054 93.1914 46.1371 93.1914C46.0687 93.1914 45.9645 93.1848 45.9059 93.3463C45.8473 93.5079 42.4942 103.18 42.4291 103.362C42.364 103.543 42.4291 103.549 42.5463 103.556C42.6635 103.563 44.5158 103.556 44.633 103.556C44.7502 103.556 44.8642 103.464 44.9032 103.362C44.9423 103.259 45.3655 101.756 45.4046 101.641C45.4437 101.522 45.5283 101.486 45.6357 101.486H48.6112C48.7479 101.486 48.8423 101.492 48.8814 101.641C48.9205 101.789 49.3892 103.289 49.4218 103.401C49.4543 103.513 49.5064 103.563 49.7311 103.556C49.9557 103.549 51.668 103.556 51.7787 103.556C51.8894 103.556 51.8829 103.451 51.8569 103.362C51.8308 103.269 48.4842 93.5343 48.4191 93.3463H48.4159ZM48.0675 99.5671H46.251C46.2054 99.5671 46.0589 99.5869 46.098 99.4122C46.1371 99.2374 47.0421 96.132 47.0649 96.0463C47.1137 95.8518 47.1821 95.9243 47.2179 96.0859C47.2407 96.1848 48.1392 99.2078 48.1847 99.3726C48.2303 99.5341 48.1587 99.5671 48.0675 99.5671Z" fill="#464646"/>
<path fill-rule="evenodd" clip-rule="evenodd" d="M58.8106 99.5272C58.7325 99.3459 58.7911 99.2602 58.9278 99.1745C59.0646 99.0887 60.23 98.1294 60.357 96.8668C60.4872 95.6009 59.9631 94.302 58.9669 93.6987C58.0652 93.1515 55.8384 93.1911 55.4901 93.1911H52.902C52.8402 93.1911 52.71 93.2504 52.71 93.3856V103.401C52.71 103.493 52.7816 103.556 52.863 103.556H54.8716C54.9627 103.556 55.0636 103.496 55.0636 103.322V99.8404C55.0636 99.7547 55.1092 99.7217 55.2166 99.7217H56.4146C56.4863 99.7217 56.5872 99.7019 56.6458 99.8766C56.7044 100.051 58.0359 103.371 58.0749 103.437C58.114 103.503 58.1791 103.562 58.3451 103.556C58.5111 103.549 60.3212 103.556 60.3928 103.556C60.4644 103.556 60.523 103.516 60.4709 103.361C60.4188 103.206 58.8855 99.7085 58.8106 99.5272ZM57.8047 97.2591C57.4824 97.6646 56.8444 97.6514 56.6458 97.6514H55.2166C55.0929 97.6514 55.0636 97.6119 55.0636 97.5327V95.4591C55.0636 95.3602 55.1092 95.3405 55.1808 95.3405H56.3398C57.0364 95.3405 57.3522 95.3075 57.7689 95.6932C58.1856 96.0789 58.1303 96.8536 57.808 97.2591H57.8047Z" fill="#464646"/>
<path fill-rule="evenodd" clip-rule="evenodd" d="M68.3525 93.1913H61.1645C61.0669 93.1913 60.966 93.2243 60.9725 93.3858C60.979 93.5473 60.9725 95.1132 60.9725 95.1858C60.9725 95.2583 61.0441 95.3407 61.1645 95.3407H63.4433C63.541 95.3407 63.5898 95.3605 63.5963 95.4956C63.6029 95.6341 63.5963 103.315 63.5963 103.398C63.5963 103.48 63.668 103.559 63.8275 103.553C63.9382 103.549 65.6701 103.553 65.758 103.553C65.8459 103.553 65.911 103.493 65.911 103.358V95.4561C65.911 95.3572 65.9305 95.3374 66.064 95.3374H68.3037C68.4209 95.3374 68.5348 95.2451 68.5348 95.1033V93.3825C68.5348 93.277 68.4632 93.188 68.3428 93.188H68.3525V93.1913Z" fill="#464646"/>
<path fill-rule="evenodd" clip-rule="evenodd" d="M71.2889 93.1519H69.4723C69.4007 93.1519 69.2803 93.165 69.2803 93.2705V95.1101C69.2803 95.1628 69.3063 95.265 69.4333 95.265H71.2889C71.3996 95.265 71.4419 95.1595 71.4419 95.0705V93.3101C71.4419 93.2046 71.3833 93.1552 71.2889 93.1552V93.1519Z" fill="#464646"/>
<path fill-rule="evenodd" clip-rule="evenodd" d="M71.2886 96.0464C71.1845 96.0464 69.5437 96.0398 69.4721 96.0464C69.4005 96.053 69.2735 96.0596 69.28 96.2013C69.2865 96.3464 69.28 103.315 69.28 103.401C69.28 103.487 69.3386 103.556 69.433 103.556H71.2886C71.3863 103.556 71.4416 103.47 71.4416 103.362V96.2409C71.4416 96.1288 71.3895 96.0464 71.2886 96.0464Z" fill="#464646"/>
<path fill-rule="evenodd" clip-rule="evenodd" d="M49.2264 43.4285C47.8917 43.201 46.7783 43.3065 45.7561 43.5504C44.48 42.7461 43.3438 42.2318 42.4714 42.2549C42.3411 42.2549 42.2109 42.2549 42.0807 42.2549C41.2115 42.2285 40.0721 42.7461 38.796 43.5504C37.7738 43.3065 36.6604 43.201 35.3257 43.4285C34.0137 43.8406 33.099 44.3482 32.998 45.0537C32.998 45.0537 33.0208 45.3471 33.4213 45.6372C33.8184 45.9306 34.7723 48.1954 34.7723 48.1954L38.0863 55.3788L39.7921 59.5655C39.7921 59.5655 39.3917 60.2051 39.3917 61.1809V69.4752H40.1991V60.5809C40.1991 60.3435 40.3911 60.149 40.6255 60.149H41.8724V49.7613C41.8724 49.6327 41.7812 49.524 41.6542 49.5042L40.9576 49.3921C40.7785 49.3624 40.6451 49.2042 40.6451 49.0196C40.6451 48.8152 40.8111 48.6471 41.0162 48.6471H43.5359C43.741 48.6471 43.907 48.8152 43.907 49.0196C43.907 49.2042 43.7735 49.3624 43.5945 49.3921L42.8978 49.5042C42.7741 49.524 42.6797 49.6327 42.6797 49.7613V60.149H43.9265C44.1609 60.149 44.353 60.3435 44.353 60.5809V69.4752H45.1604V61.1809C45.1604 60.2051 44.7599 59.5655 44.7599 59.5655L46.4658 55.3788L49.7798 48.1954C49.7798 48.1954 50.7337 45.9306 51.1308 45.6372C51.5312 45.3471 51.554 45.0537 51.554 45.0537C51.4531 44.3482 50.5383 43.8406 49.2264 43.4285ZM40.9315 49.9591C41.0162 49.9822 41.078 50.0547 41.078 50.1437V59.2161H40.58L34.4076 45.3669C34.3653 45.2746 34.3784 45.1592 34.4532 45.09C35.2215 44.368 36.8167 44.6285 38.4379 44.9186C38.516 44.9317 38.5779 44.9845 38.6104 45.057L40.1242 48.6108C39.9321 48.9108 39.9875 49.313 40.2316 49.5701C40.4172 49.7646 40.6516 49.8899 40.9283 49.9591H40.9315ZM43.8614 48.057C43.8093 48.1921 43.6661 48.2548 43.5294 48.2185C43.2103 48.1328 42.7578 48.1229 42.276 48.1295C41.7942 48.1229 41.3417 48.1295 41.0227 48.2185C40.886 48.2548 40.7427 48.1921 40.6906 48.057L39.3494 44.6845C40.3846 43.8966 41.3417 43.7021 42.276 43.6757C43.2103 43.7021 44.1674 43.8966 45.2027 44.6845L43.8614 48.057ZM50.1444 45.3669L43.9721 59.2161H43.474V50.1437C43.474 50.0547 43.5359 49.9822 43.6205 49.9591C43.9558 49.8734 44.2326 49.7086 44.4279 49.435C44.6004 49.1943 44.5874 48.8646 44.4279 48.6141V48.6075L45.9384 45.0537C45.9677 44.9812 46.0328 44.9284 46.1109 44.9153C47.7321 44.6219 49.3273 44.3614 50.0956 45.0867C50.1705 45.1559 50.1835 45.268 50.1412 45.3636H50.1444V45.3669Z" fill="url(#paint1_radial_476_682)"/>
<path fill-rule="evenodd" clip-rule="evenodd" d="M84.0754 42.9933C83.5969 43.0889 77.2488 44.5362 75.0742 44.9878C72.8995 45.4395 68.3126 46.5537 67.3848 46.7482C67.2058 46.7878 66.8737 46.89 66.6816 46.7977C67.3816 45.9241 67.8308 44.5626 67.8308 43.0329C67.8308 41.5033 67.3848 40.1483 66.6881 39.2747C66.7565 39.2319 66.8574 39.2154 67.0007 39.2385C67.5183 39.3143 70.3114 39.9077 72.2908 40.333C74.2733 40.7582 83.9452 42.7758 84.0364 42.7988C84.1308 42.8186 84.5572 42.8977 84.0754 42.9933Z" fill="url(#paint2_linear_476_682)"/>
<path fill-rule="evenodd" clip-rule="evenodd" d="M67.831 43.0331C67.831 44.5627 67.3817 45.9242 66.6818 46.7978C66.5907 46.7583 66.5321 46.6726 66.5353 46.5143C66.5581 45.7891 66.5907 43.5638 66.6135 43.0331C66.6362 42.5023 66.5418 40.0628 66.5353 39.8254C66.5321 39.6507 66.5028 39.3804 66.6883 39.2749C67.385 40.1485 67.831 41.5067 67.831 43.0331Z" fill="#ED9023"/>
<path fill-rule="evenodd" clip-rule="evenodd" d="M0.525097 42.9933C1.00365 43.0889 7.35175 44.5362 9.52638 44.9878C11.701 45.4395 16.2879 46.5537 17.2157 46.7482C17.3948 46.7878 17.7268 46.89 17.9189 46.7977C17.219 45.9241 16.7697 44.5626 16.7697 43.0329C16.7697 41.5033 17.2157 40.1483 17.9124 39.2747C17.844 39.2319 17.7431 39.2154 17.5999 39.2385C17.0822 39.3143 14.2891 39.9077 12.3098 40.333C10.3272 40.7582 0.655314 42.7758 0.564162 42.7988C0.469754 42.8186 0.0432923 42.8977 0.525097 42.9933Z" fill="url(#paint3_linear_476_682)"/>
<path fill-rule="evenodd" clip-rule="evenodd" d="M16.7695 43.0331C16.7695 44.5627 17.2188 45.9242 17.9187 46.7978C18.0099 46.7583 18.0684 46.6726 18.0652 46.5143C18.0424 45.7891 18.0099 43.5638 17.9871 43.0331C17.9643 42.5023 18.0587 40.0628 18.0652 39.8254C18.0684 39.6507 18.0977 39.3804 17.9122 39.2749C17.2155 40.1485 16.7695 41.5067 16.7695 43.0331Z" fill="#ED9023"/>
<path fill-rule="evenodd" clip-rule="evenodd" d="M42.3378 0.727167C42.2434 1.21177 40.8142 7.64022 40.3682 9.84238C39.9222 12.0445 38.8219 16.6895 38.6298 17.629C38.5908 17.8104 38.4898 18.1466 38.581 18.3411C39.4437 17.6323 40.7882 17.1774 42.2987 17.1774C43.8092 17.1774 45.1472 17.629 46.0099 18.3345C46.0522 18.2653 46.0685 18.1631 46.0457 18.018C45.9708 17.4939 45.3848 14.6654 44.9649 12.661C44.5449 10.6534 42.5526 0.859033 42.5298 0.766727C42.5103 0.671124 42.4322 0.239264 42.3378 0.727167Z" fill="url(#paint4_linear_476_682)"/>
<path fill-rule="evenodd" clip-rule="evenodd" d="M42.2988 17.1772C40.7882 17.1772 39.4437 17.6322 38.5811 18.341C38.6201 18.4333 38.7048 18.4926 38.861 18.4893C39.5772 18.4662 41.7746 18.4333 42.2988 18.4102C42.8229 18.3871 45.2319 18.4827 45.4663 18.4893C45.6388 18.4926 45.9058 18.5223 46.01 18.3344C45.1473 17.6289 43.806 17.1772 42.2988 17.1772Z" fill="#ED9023"/>
<path fill-rule="evenodd" clip-rule="evenodd" d="M12.7884 72.9695C13.0586 72.5607 16.5386 66.9894 17.7594 65.1136C18.9802 63.2378 21.4478 59.1631 21.9687 58.3621C22.0664 58.2071 22.2324 57.8972 22.431 57.8247C22.5449 58.9423 23.1797 60.228 24.2475 61.3093C25.3153 62.3906 26.5784 63.0301 27.6787 63.1488C27.6592 63.2279 27.6006 63.3103 27.4834 63.3993C27.0634 63.7158 24.674 65.2982 22.9779 66.4125C21.2785 67.53 13.0325 73.0288 12.9511 73.0783C12.8697 73.131 12.5149 73.3816 12.7884 72.9695Z" fill="url(#paint5_linear_476_682)"/>
<path fill-rule="evenodd" clip-rule="evenodd" d="M24.2477 61.3127C23.1799 60.2314 22.5451 58.9457 22.4312 57.8282C22.5223 57.7919 22.6232 57.8084 22.7339 57.9238C23.2255 58.4546 24.7555 60.0501 25.1104 60.4424C25.4652 60.8347 27.2362 62.4929 27.4055 62.6545C27.5292 62.7764 27.7408 62.9446 27.6822 63.1523C26.5786 63.0336 25.3155 62.3907 24.2509 61.3127H24.2477Z" fill="#ED9023"/>
<path fill-rule="evenodd" clip-rule="evenodd" d="M71.8681 13.1422C71.4644 13.4158 65.9627 16.9399 64.1104 18.1762C62.258 19.4124 58.2343 21.9113 57.4432 22.4387C57.2902 22.5376 56.9842 22.7057 56.9126 22.9068C58.0162 23.0222 59.2858 23.6651 60.3536 24.7464C61.4214 25.8277 62.0529 27.1068 62.1701 28.221C62.2483 28.2012 62.3296 28.1419 62.4175 28.0232C62.7301 27.598 64.2927 25.1782 65.393 23.4607C66.4966 21.7398 71.9267 13.3894 71.9755 13.307C72.0276 13.2246 72.275 12.8653 71.8681 13.1422Z" fill="url(#paint6_linear_476_682)"/>
<path fill-rule="evenodd" clip-rule="evenodd" d="M60.3534 24.7463C59.2857 23.665 58.016 23.0221 56.9124 22.9067C56.8766 22.999 56.8929 23.1012 57.0069 23.2133C57.531 23.7111 59.1066 25.2605 59.494 25.6199C59.8814 25.9792 61.5189 27.7726 61.6784 27.944C61.7989 28.0693 61.9649 28.2836 62.17 28.2242C62.0528 27.1067 61.418 25.8276 60.3534 24.7496V24.7463Z" fill="#ED9023"/>
<path fill-rule="evenodd" clip-rule="evenodd" d="M71.8681 73.1023C71.4644 72.8286 65.9627 69.3045 64.1104 68.0683C62.258 66.8321 58.2343 64.3332 57.4432 63.8057C57.2902 63.7068 56.9842 63.5387 56.9126 63.3376C58.0162 63.2222 59.2858 62.5794 60.3536 61.4981C61.4214 60.4168 62.0529 59.1377 62.1701 58.0234C62.2483 58.0432 62.3296 58.1026 62.4175 58.2212C62.7301 58.6465 64.2927 61.0662 65.393 62.7838C66.4966 64.5046 71.9267 72.855 71.9755 72.9374C72.0276 73.0199 72.275 73.3792 71.8681 73.1023Z" fill="url(#paint7_linear_476_682)"/>
<path fill-rule="evenodd" clip-rule="evenodd" d="M60.3534 61.4979C59.2857 62.5792 58.016 63.222 56.9124 63.3374C56.8766 63.2451 56.8929 63.1429 57.0069 63.0308C57.531 62.533 59.1066 60.9836 59.494 60.6243C59.8814 60.265 61.5189 58.4716 61.6784 58.3002C61.7989 58.1749 61.9649 57.9606 62.17 58.0199C62.0528 59.1375 61.418 60.4166 60.3534 61.4946V61.4979Z" fill="#ED9023"/>
<path fill-rule="evenodd" clip-rule="evenodd" d="M12.7884 13.2744C13.0586 13.6832 16.5386 19.2545 17.7594 21.1303C18.9802 23.0061 21.4478 27.0808 21.9687 27.8818C22.0664 28.0368 22.2324 28.3467 22.431 28.4192C22.5449 27.3016 23.1797 26.0159 24.2475 24.9346C25.3153 23.8534 26.5784 23.2138 27.6787 23.0951C27.6592 23.016 27.6006 22.9336 27.4834 22.8446C27.0634 22.5281 24.674 20.9457 22.9779 19.8314C21.2785 18.7139 13.0325 13.2151 12.9511 13.1656C12.8697 13.1129 12.5149 12.8624 12.7884 13.2744Z" fill="url(#paint8_linear_476_682)"/>
<path fill-rule="evenodd" clip-rule="evenodd" d="M24.2477 24.9347C23.1799 26.016 22.5451 27.3017 22.4312 28.4193C22.5223 28.4556 22.6232 28.4391 22.7339 28.3237C23.2255 27.7929 24.7555 26.1974 25.1104 25.8051C25.4652 25.4128 27.2362 23.7545 27.4055 23.593C27.5292 23.471 27.7408 23.3029 27.6822 23.0952C26.5786 23.2139 25.3155 23.8567 24.2509 24.9347H24.2477Z" fill="#ED9023"/>
</g>
<defs>
<radialGradient id="paint0_radial_476_682" cx="0" cy="0" r="1" gradientUnits="userSpaceOnUse" gradientTransform="translate(42.0548 32.6189) scale(27.1568 27.5006)">
<stop stop-color="#FFF6E1"/>
<stop offset="0.27" stop-color="#FFD644"/>
<stop offset="1" stop-color="#F68C1F"/>
</radialGradient>
<radialGradient id="paint1_radial_476_682" cx="0" cy="0" r="1" gradientUnits="userSpaceOnUse" gradientTransform="translate(41.9798 43.1219) scale(23.4001 23.6962)">
<stop stop-color="#474846"/>
<stop offset="0.48" stop-color="#363736"/>
<stop offset="1" stop-color="#232323"/>
</radialGradient>
<linearGradient id="paint2_linear_476_682" x1="75.4908" y1="39.0473" x2="75.4908" y2="47.0548" gradientUnits="userSpaceOnUse">
<stop stop-color="#F68C1F"/>
<stop offset="0.5" stop-color="#FFD644"/>
<stop offset="1" stop-color="#F68C1F"/>
</linearGradient>
<linearGradient id="paint3_linear_476_682" x1="9.10968" y1="225.822" x2="9.10968" y2="225.822" gradientUnits="userSpaceOnUse">
<stop stop-color="#F68C1F"/>
<stop offset="0.5" stop-color="#FFD644"/>
<stop offset="1" stop-color="#F68C1F"/>
</linearGradient>
<linearGradient id="paint4_linear_476_682" x1="46.2345" y1="9.42041" x2="38.3271" y2="9.42041" gradientUnits="userSpaceOnUse">
<stop stop-color="#F68C1F"/>
<stop offset="0.5" stop-color="#FFD644"/>
<stop offset="1" stop-color="#F68C1F"/>
</linearGradient>
<linearGradient id="paint5_linear_476_682" x1="21.612" y1="69.6138" x2="15.9502" y2="64.0228" gradientUnits="userSpaceOnUse">
<stop stop-color="#F68C1F"/>
<stop offset="0.5" stop-color="#FFD644"/>
<stop offset="1" stop-color="#F68C1F"/>
</linearGradient>
<linearGradient id="paint6_linear_476_682" x1="68.5533" y1="22.0786" x2="62.8915" y2="16.4876" gradientUnits="userSpaceOnUse">
<stop stop-color="#F68C1F"/>
<stop offset="0.5" stop-color="#FFD644"/>
<stop offset="1" stop-color="#F68C1F"/>
</linearGradient>
<linearGradient id="paint7_linear_476_682" x1="68.555" y1="64.1666" x2="62.8933" y2="69.7576" gradientUnits="userSpaceOnUse">
<stop stop-color="#F68C1F"/>
<stop offset="0.5" stop-color="#FFD644"/>
<stop offset="1" stop-color="#F68C1F"/>
</linearGradient>
<linearGradient id="paint8_linear_476_682" x1="21.6137" y1="16.6308" x2="15.952" y2="22.2218" gradientUnits="userSpaceOnUse">
<stop stop-color="#F68C1F"/>
<stop offset="0.5" stop-color="#FFD644"/>
<stop offset="1" stop-color="#F68C1F"/>
</linearGradient>
<clipPath id="clip0_476_682">
<rect width="84" height="115" fill="white" transform="translate(0.300293 0.499512)"/>
</clipPath>
</defs>
</svg>
