<svg width="62" height="84" viewBox="0 0 62 84" fill="none" xmlns="http://www.w3.org/2000/svg">
<path fill-rule="evenodd" clip-rule="evenodd" d="M47.5605 30.8142C47.4816 28.6539 46.6873 25.422 45.2878 23.0632C44.575 21.8599 43.441 19.9604 40.4339 17.8121C38.8765 16.6973 36.6852 15.8433 35.1518 15.4845C33.6207 15.1232 33.1973 15.0251 31.1208 14.9725C29.1448 14.9223 26.0946 15.2763 22.9153 16.9318C19.7359 18.5872 16.7599 21.7379 15.4203 25.5918C14.193 29.1228 13.5926 33.8906 16.3006 38.7948C17.7575 41.4311 18.9776 42.7397 20.0206 43.9047C21.0612 45.0674 21.6474 45.7013 22.4057 47.2539C23.1617 48.8065 23.2597 50.0098 23.2574 53.4164C23.2574 53.6437 23.2382 53.8423 23.4846 53.8423C23.8626 53.8423 32.1997 53.8518 32.3408 53.8423C32.4844 53.8327 32.4365 53.9068 32.2858 53.9547C32.1327 54.0025 23.664 55.7728 23.4559 55.8278C23.2478 55.8853 23.2669 56.0384 23.2574 56.1986C23.2478 56.3589 23.2478 57.835 23.2574 58.0144C23.2669 58.1962 23.3794 58.1771 23.5109 58.1579C23.7573 58.1196 25.7501 57.689 36.6302 55.4307C38.4005 55.0647 38.4172 55.0623 38.4172 55.0623C38.4172 55.0623 38.6038 55.0049 38.6158 54.7776C38.6349 54.4666 38.6062 52.9523 38.6158 52.4787C38.6708 49.7682 38.7354 47.6582 40.6038 45.3233C41.1731 44.6128 42.1659 43.5076 42.7329 42.8545C43.3023 42.2014 45.4601 39.6178 46.4242 37.1752C47.3093 34.9385 47.6634 33.6729 47.5605 30.8142ZM44.807 37.204C43.5487 39.7374 42.264 41.1153 40.3191 43.4789C38.3766 45.8425 37.9627 46.9286 37.5369 48.2754C37.111 49.6247 37.1589 51.5504 37.1685 51.6557C37.178 51.7586 37.1685 51.8734 36.9986 51.883C36.8288 51.8925 25.0635 51.8925 24.9607 51.883C24.8554 51.8734 24.7908 51.8758 24.7908 51.7681C24.7908 51.6605 24.8243 50.5983 24.6186 49.2993C24.4128 48.0003 23.9176 46.8568 23.2286 45.6367C22.5397 44.4143 21.4751 43.2516 20.8435 42.5411C20.212 41.8306 19.5039 41.0149 18.4584 39.4192C16.8317 36.9336 16.0829 34.8858 15.9035 32.2352C15.7049 29.3166 16.3389 27.154 16.925 25.6469C17.6283 23.8455 18.8532 21.8862 20.9273 20.1111C23.3315 18.0562 25.1831 17.4724 26.7764 16.9892C29.0491 16.3002 32.0442 16.1758 35.0967 16.9892C38.1613 17.805 40.4602 19.293 42.5056 21.6446C44.7711 24.2474 45.6874 27.1253 45.9984 29.6802C46.3117 32.2352 46.0629 34.6705 44.807 37.204Z" fill="white"/>
<path fill-rule="evenodd" clip-rule="evenodd" d="M44.8358 31.4409C44.7353 33.7471 44.1684 35.4289 43.3861 36.948C42.6062 38.4671 41.2354 40.3952 39.6398 42.1153C37.9772 43.9047 37.1542 44.9334 36.4317 46.6869C35.7069 48.4405 35.7858 49.9955 35.7786 50.2084C35.7715 50.4213 35.7643 50.5911 35.494 50.6342C35.2236 50.6749 33.5132 50.6485 31.2357 50.6605C28.9559 50.6749 26.8698 50.6533 26.4942 50.6342C26.1162 50.6127 26.1808 50.249 26.1808 50.1222C26.1808 49.9955 26.1952 49.8567 26.1234 49.1845C26.0397 48.3687 25.9464 47.5027 25.1593 45.864C24.3699 44.2229 22.5948 42.4287 21.779 41.5196C20.0422 39.5747 19.0255 37.8642 18.4873 36.8355C17.9466 35.8045 17.1954 33.8667 17.1237 31.6395C17.0519 29.4099 17.4251 27.8812 17.8342 26.642C18.2672 25.3287 19.2887 23.623 20.2743 22.4388C21.6881 20.7427 23.035 19.8695 24.3364 19.147C26.6856 17.8408 29.097 17.5107 30.5252 17.5275C32.1089 17.5466 33.9892 17.4294 36.9987 18.8336C40.0082 20.2403 41.7091 22.2618 42.8191 24.001C44.41 26.4937 44.9339 29.1324 44.8358 31.4409Z" fill="url(#paint0_radial_568_53)"/>
<path fill-rule="evenodd" clip-rule="evenodd" d="M23.542 58.8086C23.4295 58.8373 23.2669 58.8278 23.2573 59.1483C23.2477 59.4713 23.2477 60.9186 23.2573 61.0502C23.2669 61.1818 23.3051 61.2583 23.5133 61.22C23.7788 61.1722 38.2593 58.1914 38.4483 58.1531C38.6372 58.1149 38.6181 57.9833 38.6181 57.8398V55.9092C38.6181 55.7776 38.5918 55.7345 38.4196 55.768C38.1731 55.8159 23.6544 58.7775 23.542 58.8062V58.8086Z" fill="white"/>
<path fill-rule="evenodd" clip-rule="evenodd" d="M26.4079 61.3923C26.3146 61.4138 26.1447 61.4928 26.238 61.677C26.3313 61.8612 27.2811 63.4879 27.3457 63.6076C27.4103 63.7272 27.5514 63.7774 27.7428 63.7774C27.9342 63.7774 34.1158 63.7918 34.2737 63.7774C34.4292 63.7631 34.4723 63.7128 34.5297 63.6363C34.5871 63.5573 35.41 62.11 35.4675 62.0191C35.5249 61.9258 35.6014 61.8564 35.8072 61.8205C36.0129 61.7846 38.2712 61.3301 38.4482 61.2823C38.6253 61.232 38.6181 61.0837 38.6181 60.9426C38.6181 60.8014 38.6109 59.1818 38.6181 59.0981C38.6253 59.012 38.5894 58.9283 38.4482 58.957C38.3071 58.9857 26.5012 61.378 26.4103 61.3995V61.3923H26.4079Z" fill="white"/>
<path d="M8.96572 83.8343V79.454H10.7097V83.8343H8.96572ZM8.96572 79.0043V77.5713H10.7097V79.0043H8.96572Z" fill="white"/>
<path d="M12.3939 81.8104C12.6595 82.1023 12.9131 82.3176 13.1547 82.4563C13.4083 82.5999 13.6571 82.6693 13.8987 82.6693C14.1259 82.6693 14.3149 82.6071 14.4656 82.4851C14.6164 82.363 14.6905 82.2075 14.6905 82.0186C14.6905 81.8128 14.6283 81.6525 14.5039 81.5353C14.37 81.4253 14.0781 81.308 13.626 81.1884C13.0088 81.0234 12.571 80.8081 12.315 80.5473C12.0542 80.2794 11.925 79.9133 11.925 79.4516C11.925 78.8536 12.1284 78.3655 12.5351 77.9876C12.937 77.6072 13.4609 77.4182 14.1116 77.4182C14.4776 77.4182 14.8101 77.4661 15.1068 77.5593C15.4178 77.6526 15.7144 77.7938 15.9943 77.978L15.4537 79.2052C15.2623 79.0426 15.0613 78.9182 14.8484 78.8296C14.6403 78.7459 14.4369 78.7052 14.2384 78.7052C14.0398 78.7052 13.8676 78.7555 13.7312 78.856C13.602 78.9493 13.5374 79.0761 13.5374 79.2316C13.5374 79.387 13.5925 79.5091 13.7073 79.6071C13.8245 79.7004 14.047 79.7913 14.3747 79.8775C14.3867 79.8799 14.3963 79.8822 14.4058 79.887C14.4154 79.887 14.4274 79.8894 14.4441 79.8966C15.1474 80.0808 15.6139 80.2913 15.8388 80.521C15.9871 80.6669 16.102 80.8511 16.1857 81.0736C16.2599 81.2841 16.2981 81.5233 16.2981 81.7913C16.2981 82.4539 16.078 82.9874 15.6355 83.3965C15.1905 83.7984 14.602 83.9994 13.87 83.9994C13.4202 83.9994 13.0183 83.9276 12.6619 83.7817C12.3102 83.6357 11.9609 83.4013 11.6188 83.0807L12.3987 81.8104H12.3939Z" fill="white"/>
<path d="M18.1784 83.8343V79.0521H16.7574V77.5713H21.3242V79.0521H19.9032V83.8343H18.176H18.1784Z" fill="white"/>
<path d="M23.8481 81.4922H25.5658L24.9198 79.4253C24.9055 79.3894 24.8792 79.2866 24.8385 79.1167C24.7907 78.9205 24.7452 78.7411 24.7045 78.5808C24.6639 78.7268 24.6304 78.8727 24.6017 79.021C24.5562 79.1646 24.5155 79.2985 24.4844 79.4229L23.8481 81.4898V81.4922ZM21.4295 83.8319L23.616 77.5689H25.7811L27.9724 83.8319H26.2547L25.9342 82.7099H23.4797L23.1519 83.8319H21.4295Z" fill="white"/>
<path d="M28.5801 83.8343V77.5713H30.2475L32.6422 80.7937C32.702 80.8822 32.7785 81.0138 32.8718 81.1908C32.989 81.4181 33.1063 81.6549 33.2187 81.8966C33.1756 81.5688 33.1517 81.3392 33.1445 81.2076C33.1278 81.0018 33.1182 80.82 33.1182 80.6645V77.5713H34.7761V83.8343H33.1182L30.7235 80.5999C30.6901 80.5545 30.6135 80.4205 30.4939 80.198C30.391 80.0162 30.2738 79.7842 30.147 79.5043C30.1757 79.7268 30.202 79.9588 30.2283 80.198C30.2403 80.466 30.2451 80.6478 30.2451 80.7411V83.8343H28.5777H28.5801Z" fill="white"/>
<path d="M38.0846 80.0736C38.5152 80.0736 38.807 80.0282 38.9625 79.9373C39.1204 79.8416 39.1994 79.6789 39.1994 79.454C39.1994 79.2172 39.1252 79.0497 38.9793 78.9541C38.8166 78.8536 38.5271 78.8033 38.1085 78.8033H37.7353V80.0736H38.0846ZM36.1349 77.5713H37.8717C38.5702 77.5713 39.0702 77.5952 39.3692 77.6407C39.6491 77.6838 39.8955 77.7627 40.1061 77.8751C40.3381 78.0091 40.5151 78.179 40.6395 78.3847C40.7639 78.6024 40.8261 78.8536 40.8261 79.1383C40.8261 79.4995 40.7328 79.7866 40.5486 79.9947C40.3668 80.2004 40.075 80.3559 39.6731 80.466C40.1108 80.4995 40.4649 80.655 40.728 80.9277C40.9816 81.2076 41.1084 81.5808 41.1084 82.0497C41.1084 82.3798 41.0366 82.674 40.8907 82.9276C40.7472 83.1908 40.5438 83.3893 40.2807 83.5233C40.0797 83.6286 39.8142 83.7123 39.4841 83.7721C39.1444 83.8176 38.6228 83.8415 37.9219 83.8415H36.1349V77.5713ZM37.7377 82.5544H38.3429C38.752 82.5544 39.0415 82.5018 39.2089 82.3965C39.3812 82.2985 39.4697 82.1334 39.4697 81.8966C39.4697 81.6406 39.3908 81.4564 39.2353 81.3439C39.0798 81.2411 38.7903 81.1908 38.3693 81.1908H37.7377V82.5544Z" fill="white"/>
<path d="M43.838 77.5713V80.6167C43.838 81.0808 43.85 81.4037 43.8715 81.5832C43.9002 81.7961 43.9385 81.9588 43.9887 82.0712C44.0485 82.2339 44.1634 82.3535 44.3308 82.43C44.4983 82.5185 44.6992 82.5616 44.9361 82.5616C45.1729 82.5616 45.3715 82.5185 45.5365 82.43C45.6896 82.3559 45.8045 82.2363 45.8834 82.0712C45.9289 81.9564 45.9671 81.7937 45.9958 81.5832C46.0222 81.4109 46.0341 81.0904 46.0341 80.6167V77.5713H47.7518V80.8822C47.7518 81.5616 47.7111 82.0664 47.6274 82.3965C47.5484 82.7243 47.4073 83.0066 47.204 83.2386C46.9791 83.497 46.68 83.6884 46.3068 83.808C45.9384 83.9372 45.4791 83.9994 44.9337 83.9994C44.3882 83.9994 43.917 83.9348 43.5581 83.808C43.1921 83.6884 42.8931 83.4994 42.661 83.2386C42.4625 83.0114 42.3213 82.7291 42.2376 82.3965C42.1491 82.0592 42.1036 81.5545 42.1036 80.8822V77.5713H43.838Z" fill="white"/>
<path d="M49.0723 83.8343V77.5713H50.7995V82.3702H52.9478V83.8343H49.0723Z" fill="white"/>
<path fill-rule="evenodd" clip-rule="evenodd" d="M12.8245 67.8969C12.7815 67.7845 12.7241 67.8084 12.6666 67.8084H11.248C11.1834 67.8084 11.0566 67.7941 11.0208 67.8945C10.9849 67.995 8.47298 75.1408 8.43709 75.2197C8.40121 75.2986 8.4658 75.3058 8.52321 75.3058H10.1141C10.205 75.3058 10.2457 75.2197 10.2839 75.1073C10.3246 74.9948 10.6308 73.9255 10.6523 73.8872C10.6739 73.8465 10.7098 73.8298 10.8222 73.8298H13.0662C13.1284 73.8298 13.1523 73.8872 13.1786 73.9709C13.2073 74.0571 13.5422 75.1288 13.5757 75.2197C13.6092 75.3106 13.6618 75.3321 13.7456 75.3321H15.3077C15.358 75.3321 15.3938 75.2915 15.3651 75.191C15.3436 75.112 12.8891 68.0572 12.8269 67.8969H12.8245ZM12.6379 72.4375H11.2193C11.1667 72.4375 11.0806 72.4542 11.1069 72.3801C11.1308 72.3059 11.8006 70.0404 11.8174 69.9663C11.8341 69.8921 11.8581 69.794 11.9035 69.7964C11.9729 69.7988 11.9968 69.9136 12.0159 69.995C12.0351 70.0763 12.6355 72.1456 12.669 72.2652C12.7025 72.3872 12.6858 72.4351 12.6403 72.4351H12.6379V72.4375Z" fill="white"/>
<path fill-rule="evenodd" clip-rule="evenodd" d="M22.1783 67.7821C22.0778 67.7773 20.664 67.7821 20.5611 67.7821C20.4583 67.7821 20.3243 67.7869 20.2477 67.8945C20.1712 68.0022 17.8913 71.2365 17.8339 71.3011C17.7765 71.3681 17.7167 71.325 17.7215 71.2437C17.7263 71.1624 17.7215 67.9735 17.7215 67.9208C17.7215 67.8682 17.6784 67.7797 17.5803 67.7797C17.4823 67.7797 16.2502 67.7701 16.1617 67.7797C16.0708 67.7892 15.9967 67.794 15.9919 67.8921C15.9871 67.9926 15.9919 75.2029 15.9919 75.246C15.9871 75.3082 16.0636 75.3369 16.133 75.3321C16.2048 75.3273 17.5564 75.3321 17.6091 75.3321C17.6617 75.3321 17.7263 75.2555 17.7215 75.191C17.7167 75.124 17.7167 71.8537 17.7215 71.8131C17.7263 71.77 17.7789 71.7413 17.8339 71.8131C17.8913 71.8848 20.0109 75.1264 20.0779 75.2197C20.1449 75.3154 20.1855 75.3321 20.3052 75.3321H22.0946C22.1663 75.3321 22.1616 75.2555 22.1233 75.191C22.085 75.124 19.8339 71.6791 19.7669 71.5858C19.6999 71.4901 19.6951 71.4399 19.7956 71.3011C19.8961 71.1648 22.1376 68.0069 22.2094 67.9232C22.2812 67.8371 22.2812 67.7868 22.1807 67.7821H22.1783Z" fill="white"/>
<path fill-rule="evenodd" clip-rule="evenodd" d="M31.9747 70.4495C32.0632 69.4998 31.769 69.0548 31.6613 68.8586C31.556 68.6648 31.0632 67.9974 30.0991 67.8921C29.8001 67.8587 29.1949 67.806 28.8217 67.806H26.6925C26.6112 67.806 26.4079 67.7965 26.4079 68.0046V75.1886C26.4079 75.2651 26.4509 75.325 26.549 75.3297C26.6495 75.3345 27.9365 75.3297 27.9963 75.3297C28.0561 75.3297 28.1327 75.2819 28.1375 75.1599C28.1423 75.0379 28.1375 72.7269 28.1375 72.6623C28.1375 72.6049 28.1845 72.5762 28.2786 72.5762H29.0729C29.1781 72.5762 30.1446 72.5284 30.7187 72.2628C31.2953 71.9997 31.879 71.3944 31.9675 70.4447L31.9747 70.4495ZM30.2427 70.6193C30.0226 71.1098 29.403 71.0739 29.1638 71.0739H28.1973C28.1614 71.0739 28.1399 71.0547 28.1399 71.0165V69.4256C28.1399 69.3849 28.159 69.3395 28.226 69.3395C28.293 69.3395 29.025 69.3347 29.3623 69.3395C29.6996 69.3443 29.8695 69.3873 30.0728 69.5667C30.2762 69.7462 30.4628 70.1265 30.2427 70.6169V70.6193Z" fill="white"/>
<path fill-rule="evenodd" clip-rule="evenodd" d="M35.4937 67.9232C35.4459 67.7869 35.3884 67.8156 35.2664 67.8108C35.1444 67.806 33.8693 67.8108 33.8191 67.8108C33.7689 67.8108 33.6923 67.806 33.6493 67.9232C33.6062 68.0404 31.1422 75.0594 31.0943 75.191C31.0465 75.3225 31.0943 75.3273 31.1804 75.3321C31.2665 75.3369 32.6278 75.3321 32.7139 75.3321C32.8 75.3321 32.8837 75.2651 32.9124 75.191C32.9411 75.1168 33.2521 74.0259 33.2808 73.9422C33.3096 73.8561 33.3718 73.8298 33.4507 73.8298H35.6372C35.7377 73.8298 35.8071 73.8345 35.8358 73.9422C35.8645 74.0498 36.209 75.1383 36.2329 75.2197C36.2568 75.301 36.2951 75.3369 36.4602 75.3321C36.6253 75.3273 37.8836 75.3321 37.9649 75.3321C38.0463 75.3321 38.0415 75.2555 38.0223 75.191C38.0032 75.124 35.5439 68.0596 35.4961 67.9232H35.4937ZM35.2377 72.4374H33.9028C33.8693 72.4374 33.7617 72.4518 33.7904 72.325C33.8191 72.1982 34.4842 69.9447 34.5009 69.8825C34.5368 69.7413 34.587 69.794 34.6133 69.9112C34.6301 69.983 35.2904 72.1767 35.3239 72.2963C35.3573 72.4135 35.3047 72.4374 35.2377 72.4374Z" fill="white"/>
<path fill-rule="evenodd" clip-rule="evenodd" d="M43.1323 72.4088C43.0749 72.2772 43.1179 72.215 43.2184 72.1528C43.3189 72.0906 44.1753 71.3944 44.2686 70.4782C44.3643 69.5596 43.9792 68.617 43.2471 68.1792C42.5845 67.7821 40.9481 67.8108 40.6922 67.8108H38.7903C38.7448 67.8108 38.6492 67.8539 38.6492 67.9519V75.2197C38.6492 75.2867 38.7018 75.3321 38.7616 75.3321H40.2376C40.3046 75.3321 40.3788 75.2891 40.3788 75.1623V72.636C40.3788 72.5738 40.4123 72.5499 40.4912 72.5499H41.3716C41.4242 72.5499 41.4984 72.5356 41.5414 72.6623C41.5845 72.7891 42.5629 75.1982 42.5916 75.246C42.6203 75.2938 42.6682 75.3369 42.7902 75.3321C42.9122 75.3273 44.2423 75.3321 44.2949 75.3321C44.3476 75.3321 44.3906 75.3034 44.3523 75.191C44.3141 75.0785 43.1873 72.5403 43.1323 72.4088ZM42.3931 70.7629C42.1562 71.0571 41.6874 71.0476 41.5414 71.0476H40.4912C40.4003 71.0476 40.3788 71.0188 40.3788 70.9614V69.4567C40.3788 69.3849 40.4123 69.3706 40.4649 69.3706H41.3165C41.8285 69.3706 42.0605 69.3466 42.3668 69.6265C42.673 69.9064 42.6323 70.4686 42.3955 70.7629H42.3931Z" fill="white"/>
<path fill-rule="evenodd" clip-rule="evenodd" d="M50.1441 67.8108H44.862C44.7902 67.8108 44.716 67.8347 44.7208 67.952C44.7256 68.0692 44.7208 69.2055 44.7208 69.2581C44.7208 69.3108 44.7734 69.3706 44.862 69.3706H46.5366C46.6083 69.3706 46.6442 69.3849 46.649 69.483C46.6538 69.5835 46.649 75.1575 46.649 75.2173C46.649 75.2771 46.7016 75.3345 46.8188 75.3297C46.9002 75.3273 48.1729 75.3297 48.2375 75.3297C48.3021 75.3297 48.3499 75.2867 48.3499 75.1886V69.4543C48.3499 69.3825 48.3643 69.3682 48.4623 69.3682H50.1082C50.1943 69.3682 50.2781 69.3012 50.2781 69.1983V67.9496C50.2781 67.873 50.2254 67.8084 50.1369 67.8084H50.1441V67.8108Z" fill="white"/>
<path fill-rule="evenodd" clip-rule="evenodd" d="M52.3019 67.7821H50.967C50.9143 67.7821 50.8258 67.7917 50.8258 67.8682V69.2031C50.8258 69.2414 50.845 69.3155 50.9383 69.3155H52.3019C52.3832 69.3155 52.4143 69.239 52.4143 69.1744V67.8969C52.4143 67.8204 52.3712 67.7845 52.3019 67.7845V67.7821Z" fill="white"/>
<path fill-rule="evenodd" clip-rule="evenodd" d="M52.3019 69.8825C52.2253 69.8825 51.0196 69.8777 50.967 69.8825C50.9143 69.8873 50.821 69.8921 50.8258 69.9949C50.8306 70.1002 50.8258 75.1575 50.8258 75.2197C50.8258 75.2819 50.8689 75.3321 50.9383 75.3321H52.3019C52.3736 75.3321 52.4143 75.2699 52.4143 75.191V70.0236C52.4143 69.9423 52.376 69.8825 52.3019 69.8825Z" fill="white"/>
<path fill-rule="evenodd" clip-rule="evenodd" d="M36.0896 31.6993C35.1087 31.5343 34.2906 31.6108 33.5394 31.7878C32.6016 31.2041 31.7667 30.8309 31.1256 30.8477C31.0299 30.8477 30.9342 30.8477 30.8385 30.8477C30.1998 30.8285 29.3625 31.2041 28.4247 31.7878C27.6735 31.6108 26.8554 31.5343 25.8745 31.6993C24.9105 31.9984 24.2382 32.3668 24.1641 32.8787C24.1641 32.8787 24.1808 33.0916 24.4751 33.3022C24.7669 33.5151 25.4679 35.1586 25.4679 35.1586L27.9032 40.3713L29.1567 43.4095C29.1567 43.4095 28.8625 43.8736 28.8625 44.5818V50.6007H29.4558V44.1464C29.4558 43.9741 29.5969 43.833 29.7692 43.833H30.6854V36.2949C30.6854 36.2016 30.6184 36.1227 30.5251 36.1083L30.0132 36.027C29.8816 36.0054 29.7835 35.8906 29.7835 35.7566C29.7835 35.6083 29.9055 35.4863 30.0562 35.4863H31.9079C32.0586 35.4863 32.1806 35.6083 32.1806 35.7566C32.1806 35.8906 32.0825 36.0054 31.9509 36.027L31.439 36.1083C31.3481 36.1227 31.2787 36.2016 31.2787 36.2949V43.833H32.1949C32.3672 43.833 32.5083 43.9741 32.5083 44.1464V50.6007H33.1016V44.5818C33.1016 43.8736 32.8074 43.4095 32.8074 43.4095L34.0609 40.3713L36.4963 35.1586C36.4963 35.1586 37.1972 33.5151 37.4891 33.3022C37.7833 33.0916 37.8001 32.8787 37.8001 32.8787C37.7259 32.3668 37.0537 31.9984 36.0896 31.6993ZM29.994 36.4384C30.0562 36.4552 30.1017 36.5078 30.1017 36.5724V43.156H29.7357L25.1999 33.106C25.1688 33.039 25.1784 32.9553 25.2334 32.905C25.798 32.3811 26.9702 32.5701 28.1616 32.7806C28.219 32.7902 28.2644 32.8285 28.2884 32.8811L29.4008 35.46C29.2596 35.6777 29.3003 35.9696 29.4797 36.1562C29.6161 36.2973 29.7883 36.3882 29.9917 36.4384H29.994ZM32.1471 35.0581C32.1088 35.1562 32.0036 35.2016 31.9031 35.1753C31.6686 35.1131 31.3361 35.1059 30.9821 35.1107C30.628 35.1059 30.2955 35.1107 30.061 35.1753C29.9606 35.2016 29.8553 35.1562 29.817 35.0581L28.8314 32.6108C29.5921 32.039 30.2955 31.8979 30.9821 31.8788C31.6686 31.8979 32.372 32.039 33.1327 32.6108L32.1471 35.0581ZM36.7642 33.106L32.2284 43.156H31.8624V36.5724C31.8624 36.5078 31.9079 36.4552 31.9701 36.4384C32.2165 36.3762 32.4198 36.2566 32.5634 36.0581C32.6901 35.8834 32.6806 35.6442 32.5634 35.4624V35.4576L33.6734 32.8787C33.6949 32.8261 33.7427 32.7878 33.8002 32.7783C34.9915 32.5653 36.1637 32.3763 36.7283 32.9027C36.7833 32.9529 36.7929 33.0342 36.7618 33.1036H36.7642V33.106Z" fill="url(#paint1_radial_568_53)"/>
<path fill-rule="evenodd" clip-rule="evenodd" d="M61.6989 31.3836C61.3473 31.4529 56.6823 32.5032 55.0843 32.8309C53.4862 33.1586 50.1155 33.9672 49.4337 34.1084C49.3021 34.1371 49.0581 34.2112 48.917 34.1443C49.4313 33.5103 49.7615 32.5223 49.7615 31.4123C49.7615 30.3023 49.4337 29.319 48.9218 28.6851C48.972 28.654 49.0462 28.642 49.1514 28.6588C49.5318 28.7138 51.5844 29.1444 53.0389 29.453C54.4958 29.7616 61.6032 31.2257 61.6702 31.2424C61.7396 31.2568 62.053 31.3142 61.6989 31.3836Z" fill="url(#paint2_linear_568_53)"/>
<path fill-rule="evenodd" clip-rule="evenodd" d="M49.7614 31.4123C49.7614 32.5223 49.4313 33.5103 48.9169 34.1443C48.8499 34.1156 48.8069 34.0534 48.8093 33.9385C48.826 33.4122 48.8499 31.7974 48.8667 31.4123C48.8834 31.0271 48.8141 29.2568 48.8093 29.0846C48.8069 28.9578 48.7854 28.7616 48.9217 28.6851C49.4337 29.319 49.7614 30.3047 49.7614 31.4123Z" fill="#ED9023"/>
<path fill-rule="evenodd" clip-rule="evenodd" d="M0.301055 31.3835C0.65272 31.4529 5.31766 32.5031 6.91571 32.8309C8.51375 33.1586 11.8845 33.9672 12.5663 34.1083C12.6978 34.1371 12.9419 34.2112 13.083 34.1442C12.5687 33.5103 12.2385 32.5223 12.2385 31.4123C12.2385 30.3022 12.5663 29.319 13.0782 28.6851C13.028 28.654 12.9538 28.642 12.8486 28.6587C12.4682 28.7138 10.4156 29.1444 8.96111 29.453C7.50421 29.7616 0.396747 31.2257 0.329763 31.2424C0.260387 31.2568 -0.0530018 31.3142 0.301055 31.3835Z" fill="url(#paint3_linear_568_53)"/>
<path fill-rule="evenodd" clip-rule="evenodd" d="M12.2385 31.4123C12.2385 32.5223 12.5687 33.5103 13.083 34.1442C13.15 34.1155 13.193 34.0533 13.1907 33.9385C13.1739 33.4122 13.15 31.7974 13.1332 31.4123C13.1165 31.0271 13.1859 29.2568 13.1907 29.0846C13.193 28.9578 13.2146 28.7616 13.0782 28.6851C12.5663 29.319 12.2385 30.3046 12.2385 31.4123Z" fill="#ED9023"/>
<path fill-rule="evenodd" clip-rule="evenodd" d="M31.0274 0.712127C30.958 1.06379 29.9078 5.72874 29.5801 7.32678C29.2523 8.92482 28.4438 12.2955 28.3026 12.9773C28.2739 13.1089 28.1997 13.3529 28.2667 13.4941C28.9007 12.9797 29.8887 12.6496 30.9987 12.6496C32.1087 12.6496 33.092 12.9773 33.7259 13.4893C33.757 13.4391 33.769 13.3649 33.7522 13.2596C33.6972 12.8793 33.2666 10.8267 32.958 9.37218C32.6494 7.91528 31.1853 0.807818 31.1686 0.740835C31.1542 0.671459 31.0968 0.35807 31.0274 0.712127Z" fill="url(#paint4_linear_568_53)"/>
<path fill-rule="evenodd" clip-rule="evenodd" d="M30.9988 12.6496C29.8888 12.6496 28.9008 12.9797 28.2668 13.4941C28.2956 13.5611 28.3578 13.6041 28.4726 13.6017C28.9989 13.585 30.6137 13.5611 30.9988 13.5443C31.384 13.5276 33.1543 13.5969 33.3265 13.6017C33.4533 13.6041 33.6495 13.6256 33.726 13.4893C33.0921 12.9773 32.1065 12.6496 30.9988 12.6496Z" fill="#ED9023"/>
<path fill-rule="evenodd" clip-rule="evenodd" d="M9.31288 53.1365C9.51143 52.8399 12.0688 48.7969 12.9659 47.4357C13.863 46.0745 15.6763 43.1177 16.0591 42.5363C16.1309 42.4239 16.2529 42.199 16.3988 42.1464C16.4825 42.9574 16.949 43.8904 17.7337 44.675C18.5184 45.4597 19.4466 45.9238 20.2552 46.0099C20.2408 46.0673 20.1977 46.1271 20.1116 46.1917C19.803 46.4214 18.0471 47.5697 16.8007 48.3783C15.5519 49.1893 9.4923 53.1796 9.43249 53.2155C9.37268 53.2537 9.11192 53.4356 9.31288 53.1365Z" fill="url(#paint5_linear_568_53)"/>
<path fill-rule="evenodd" clip-rule="evenodd" d="M17.7336 44.6774C16.9489 43.8928 16.4824 42.9598 16.3987 42.1488C16.4657 42.1225 16.5398 42.1344 16.6212 42.2182C16.9824 42.6033 18.1068 43.7612 18.3675 44.0459C18.6283 44.3306 19.9297 45.5339 20.0541 45.6511C20.145 45.7396 20.3005 45.8616 20.2574 46.0123C19.4464 45.9262 18.5182 45.4597 17.736 44.6774H17.7336Z" fill="#ED9023"/>
<path fill-rule="evenodd" clip-rule="evenodd" d="M52.7279 9.72144C52.4313 9.92 48.3883 12.4773 47.0271 13.3745C45.6659 14.2716 42.7091 16.0849 42.1277 16.4677C42.0153 16.5394 41.7904 16.6614 41.7378 16.8074C42.5488 16.8911 43.4818 17.3576 44.2664 18.1423C45.0511 18.9269 45.5152 19.8551 45.6013 20.6637C45.6587 20.6494 45.7185 20.6063 45.7831 20.5202C46.0128 20.2116 47.1611 18.4557 47.9697 17.2093C48.7807 15.9605 52.771 9.90087 52.8069 9.84106C52.8451 9.78125 53.027 9.52049 52.7279 9.72144Z" fill="url(#paint6_linear_568_53)"/>
<path fill-rule="evenodd" clip-rule="evenodd" d="M44.2664 18.1423C43.4818 17.3577 42.5488 16.8912 41.7378 16.8074C41.7115 16.8744 41.7234 16.9486 41.8072 17.0299C42.1923 17.3912 43.3502 18.5155 43.6349 18.7763C43.9195 19.037 45.1229 20.3384 45.2401 20.4628C45.3286 20.5537 45.4506 20.7092 45.6013 20.6662C45.5152 19.8552 45.0487 18.927 44.2664 18.1447V18.1423Z" fill="#ED9023"/>
<path fill-rule="evenodd" clip-rule="evenodd" d="M52.7277 53.2321C52.431 53.0335 48.3881 50.4762 47.0269 49.5791C45.6657 48.682 42.7088 46.8686 42.1275 46.4859C42.0151 46.4141 41.7902 46.2921 41.7375 46.1461C42.5485 46.0624 43.4815 45.5959 44.2662 44.8113C45.0509 44.0266 45.515 43.0984 45.6011 42.2898C45.6585 42.3041 45.7183 42.3472 45.7829 42.4333C46.0126 42.7419 47.1608 44.4979 47.9694 45.7442C48.7804 46.993 52.7707 53.0527 52.8066 53.1125C52.8449 53.1723 53.0267 53.433 52.7277 53.2321Z" fill="url(#paint7_linear_568_53)"/>
<path fill-rule="evenodd" clip-rule="evenodd" d="M44.2664 44.8114C43.4818 45.5961 42.5488 46.0626 41.7378 46.1463C41.7115 46.0793 41.7234 46.0051 41.8072 45.9238C42.1923 45.5626 43.3502 44.4382 43.6349 44.1774C43.9195 43.9167 45.1229 42.6153 45.2401 42.4909C45.3286 42.4 45.4506 42.2445 45.6013 42.2875C45.5152 43.0985 45.0487 44.0267 44.2664 44.809V44.8114Z" fill="#ED9023"/>
<path fill-rule="evenodd" clip-rule="evenodd" d="M9.31288 9.81711C9.51143 10.1138 12.0688 14.1567 12.9659 15.5179C13.863 16.8791 15.6763 19.836 16.0591 20.4173C16.1309 20.5297 16.2529 20.7546 16.3988 20.8072C16.4825 19.9963 16.949 19.0633 17.7337 18.2786C18.5184 17.4939 19.4466 17.0298 20.2552 16.9437C20.2408 16.8863 20.1977 16.8265 20.1116 16.7619C19.803 16.5322 18.0471 15.3839 16.8007 14.5754C15.5519 13.7644 9.4923 9.77405 9.43249 9.73817C9.37268 9.69989 9.11192 9.51808 9.31288 9.81711Z" fill="url(#paint8_linear_568_53)"/>
<path fill-rule="evenodd" clip-rule="evenodd" d="M17.7336 18.2786C16.9489 19.0633 16.4824 19.9963 16.3987 20.8073C16.4657 20.8336 16.5398 20.8216 16.6212 20.7379C16.9824 20.3527 18.1068 19.1949 18.3675 18.9102C18.6283 18.6255 19.9297 17.4222 20.0541 17.305C20.145 17.2164 20.3005 17.0944 20.2574 16.9437C19.4464 17.0298 18.5182 17.4963 17.736 18.2786H17.7336Z" fill="#ED9023"/>
<defs>
<radialGradient id="paint0_radial_568_53" cx="0" cy="0" r="1" gradientUnits="userSpaceOnUse" gradientTransform="translate(30.8195 23.855) scale(19.9564 19.9564)">
<stop stop-color="#FFF6E1"/>
<stop offset="0.27" stop-color="#FFDD00"/>
<stop offset="1" stop-color="#F59A00"/>
</radialGradient>
<radialGradient id="paint1_radial_568_53" cx="0" cy="0" r="1" gradientUnits="userSpaceOnUse" gradientTransform="translate(30.7644 31.4769) scale(17.1957)">
<stop stop-color="#474846"/>
<stop offset="0.48" stop-color="#363736"/>
<stop offset="1" stop-color="#232323"/>
</radialGradient>
<linearGradient id="paint2_linear_568_53" x1="55.3905" y1="28.52" x2="55.3905" y2="34.3309" gradientUnits="userSpaceOnUse">
<stop stop-color="#F68C1F"/>
<stop offset="0.5" stop-color="#FFD644"/>
<stop offset="1" stop-color="#F68C1F"/>
</linearGradient>
<linearGradient id="paint3_linear_568_53" x1="0.135498" y1="31.4113" x2="13.083" y2="31.4113" gradientUnits="userSpaceOnUse">
<stop stop-color="#F68C1F"/>
<stop offset="0.5" stop-color="#FFD644"/>
<stop offset="1" stop-color="#F68C1F"/>
</linearGradient>
<linearGradient id="paint4_linear_568_53" x1="33.891" y1="7.02057" x2="28.0801" y2="7.02057" gradientUnits="userSpaceOnUse">
<stop stop-color="#F68C1F"/>
<stop offset="0.5" stop-color="#FFD644"/>
<stop offset="1" stop-color="#F68C1F"/>
</linearGradient>
<linearGradient id="paint5_linear_568_53" x1="15.7994" y1="50.7011" x2="11.6905" y2="46.5922" gradientUnits="userSpaceOnUse">
<stop stop-color="#F68C1F"/>
<stop offset="0.5" stop-color="#FFD644"/>
<stop offset="1" stop-color="#F68C1F"/>
</linearGradient>
<linearGradient id="paint6_linear_568_53" x1="50.2933" y1="16.2071" x2="46.1845" y2="12.0982" gradientUnits="userSpaceOnUse">
<stop stop-color="#F68C1F"/>
<stop offset="0.5" stop-color="#FFD644"/>
<stop offset="1" stop-color="#F68C1F"/>
</linearGradient>
<linearGradient id="paint7_linear_568_53" x1="50.2927" y1="46.7472" x2="46.1838" y2="50.8561" gradientUnits="userSpaceOnUse">
<stop stop-color="#F68C1F"/>
<stop offset="0.5" stop-color="#FFD644"/>
<stop offset="1" stop-color="#F68C1F"/>
</linearGradient>
<linearGradient id="paint8_linear_568_53" x1="15.799" y1="12.2533" x2="11.6901" y2="16.3622" gradientUnits="userSpaceOnUse">
<stop stop-color="#F68C1F"/>
<stop offset="0.5" stop-color="#FFD644"/>
<stop offset="1" stop-color="#F68C1F"/>
</linearGradient>
</defs>
</svg>
