<svg width="793" height="265" viewBox="0 0 793 265" fill="none" xmlns="http://www.w3.org/2000/svg">
<path d="M113.542 0.711426V26.0076H94.3004V0.711426H71.1623V70.5284H94.3004V44.727H113.542V70.5284H136.68V0.711426H113.542Z" fill="white"/>
<path d="M169.949 52.3141V44.2132H195.545V26.3072H169.949V18.7201H197.086V0.711365H146.922V70.5284H198.105V52.3141H169.949Z" fill="white"/>
<path d="M264.42 20.8781C263.658 14.4727 260.952 9.66863 256.67 6.27754C251.558 2.22708 244.69 0.711365 237.009 0.711365H206.301V70.5284H229.439V48.7689H237.009C244.69 48.7689 251.549 47.2532 256.67 43.2027C261.414 39.4434 264.223 33.9629 264.6 26.5727C264.634 25.9989 264.651 25.3909 264.651 24.7829C264.651 23.4214 264.574 22.1197 264.42 20.8695V20.8781ZM241.162 26.5812C240.828 28.311 239.997 29.5099 238.756 30.3662C237.223 31.3767 235.681 31.5737 233.129 31.5737H229.336V17.9151H233.129C235.681 17.9151 237.223 18.1207 238.756 19.2253C239.389 19.6364 239.937 20.1844 240.366 20.8781C240.965 21.8628 241.316 23.1302 241.316 24.7915C241.316 25.4423 241.265 26.0418 241.162 26.5812Z" fill="white"/>
<path d="M337.859 33.8943L337.842 33.7573C340.711 32.6869 343.802 30.195 345.755 26.5727C346.662 24.9028 347.33 22.9932 347.613 20.8695C347.733 20.0817 347.784 19.2596 347.784 18.4118C347.784 10.3194 342.466 5.24994 337.345 3.23755C332.225 1.20804 325.571 0.711365 319.431 0.711365H290.247V70.5284H325.057C331.719 70.5284 338.878 69.0041 343.485 65.9727C348.092 62.9412 351.364 58.3855 351.364 51.2608C351.364 42.1837 346.037 36.1208 337.851 33.8943H337.859ZM313.291 17.1958H317.89C320.459 17.1958 321.469 17.1958 323.01 18.2149C324.115 18.9427 324.697 19.7819 324.929 20.8695C325.023 21.2891 325.057 21.7515 325.057 22.2568C325.057 23.978 324.552 25.2025 322.848 26.3158C322.702 26.41 322.565 26.4956 322.42 26.5727C321.238 27.2321 320.185 27.3177 317.89 27.3177H313.291V17.1958ZM325.656 52.5967C324.56 53.3246 323.533 53.6243 320.972 53.6243H313.291V42.5005H320.972C323.533 42.5005 324.552 42.706 325.742 43.4853C327.626 44.7355 328.14 46.2427 328.14 48.0667C328.14 49.7879 327.626 51.3036 325.656 52.6053V52.5967Z" fill="white"/>
<path d="M357.82 0.711365V20.8781H380.959V0.711365H357.82ZM357.82 26.5727V70.5284H380.959V26.5727H357.82Z" fill="white"/>
<path d="M439.309 44.0162C440.808 43.1257 443.659 41.4558 446.186 38.3302C448.352 35.6327 450.27 31.8563 450.887 26.5727C451.015 25.4423 451.092 24.2435 451.092 22.9675C451.092 22.2568 451.067 21.5546 450.998 20.8695C450.399 14.2586 447.025 8.97502 442.384 5.76376C437.271 2.21853 430.618 0.70282 421.909 0.70282H391.2V70.5198H414.339V47.2532H417.302L428.562 70.5198H455.186L439.309 44.0077V44.0162ZM425.188 28.842C424.264 29.5442 422.619 30.058 420.067 30.058H414.227V17.9152H420.067C422.628 17.9152 424.135 18.4461 425.188 19.2253C425.719 19.6193 426.396 20.0817 426.918 20.8781C427.398 21.5717 427.74 22.5479 427.74 23.9866C427.74 25.0912 427.552 25.9305 427.252 26.5813C426.738 27.7373 425.899 28.3282 425.18 28.842H425.188Z" fill="white"/>
<path d="M481.801 51.8089V0.711365H458.774V70.5284H505.864V51.8089H481.809H481.801Z" fill="white"/>
<path d="M512.004 26.5727V70.5284H535.133V26.5727H512.004ZM512.004 0.711365V20.8781H535.133V0.711365H512.004Z" fill="white"/>
<path d="M587.558 28.842L589.391 26.5812L594.015 20.8781L609.36 1.97874L610.388 0.711365H583.251L569.164 20.8781L568.41 21.957V0.711365H545.366V70.5284H568.41V52.3141L572.495 47.2532L584.27 70.5198H611.912L587.55 28.8334L587.558 28.842Z" fill="white"/>
<path d="M609.36 0.711365V18.5146H625.948V70.5284H649.086V18.5146H665.767V0.711365H609.36Z" fill="white"/>
<path d="M693.923 52.3141V44.2132H719.519V26.3072H693.923V18.7201H721.061V0.711365H670.897V70.5284H722.08V52.3141H693.923Z" fill="white"/>
<path d="M47.9128 128.091L47.8957 127.954C52.5884 126.207 57.8463 120.65 57.8463 112.6C57.8463 104.551 52.5199 99.4469 47.399 97.4259C42.2867 95.3964 35.633 94.8997 29.4845 94.8997H0.309143V164.725H35.1192C41.7729 164.725 48.9404 163.201 53.5475 160.17C58.146 157.138 61.4258 152.582 61.4258 145.458C61.4258 136.381 56.0994 130.318 47.9043 128.091H47.9128ZM23.3446 111.393H27.9516C30.5121 111.393 31.5311 111.393 33.064 112.403C34.6054 113.422 35.1192 114.63 35.1192 116.454C35.1192 118.175 34.6054 119.382 32.9098 120.504C31.5311 121.412 30.5121 121.515 27.9516 121.515H23.3446V111.393ZM35.71 146.785C34.6139 147.522 33.5863 147.821 31.0259 147.821H23.3446V136.689H31.0259C33.5863 136.689 34.6054 136.894 35.8042 137.682C37.6796 138.915 38.1934 140.44 38.1934 142.255C38.1934 144.07 37.6796 145.501 35.71 146.794V146.785Z" fill="white"/>
<path d="M67.3687 94.8997V115.066H90.6011V94.8997H67.3687ZM108.516 120.761V135.884C108.516 139.934 107.796 141.947 106.272 143.471C104.731 144.995 102.693 145.997 99.6183 145.997C96.5441 145.997 94.4974 144.987 92.956 143.471C91.4232 141.947 90.6011 140.037 90.6011 135.884V120.761H67.3687V134.865C67.3687 145.997 69.9292 152.582 75.0415 157.643C80.1624 162.704 88.3575 165.838 99.6183 165.838C110.879 165.838 119.066 162.704 124.187 157.643C129.299 152.582 131.859 146.006 131.859 134.865V120.761H108.516ZM108.516 94.8997V115.066H131.859V94.8997H108.516Z" fill="white"/>
<path d="M181.004 94.8997L171.996 115.066L170.463 118.483L168.947 115.066L160.016 94.8997H134.428L146.032 115.066L149.32 120.77L158.894 137.417V164.734H182.023V137.417L191.649 120.77L194.937 115.066L206.592 94.8997H180.996H181.004Z" fill="white"/>
<path d="M209.152 94.8997V115.066H232.393V94.8997H209.152ZM250.308 120.761V135.884C250.308 139.934 249.588 141.947 248.055 143.471C246.523 144.995 244.476 145.997 241.402 145.997C238.327 145.997 236.289 144.987 234.748 143.471C233.215 141.947 232.393 140.037 232.393 135.884V120.761H209.152V134.865C209.152 145.997 211.721 152.582 216.833 157.643C221.954 162.704 230.149 165.838 241.402 165.838C252.654 165.838 260.858 162.704 265.97 157.643C271.091 152.582 273.651 146.006 273.651 134.865V120.761H250.308ZM250.308 94.8997V115.066H273.651V94.8997H250.308Z" fill="white"/>
<path d="M325.571 123.03L327.412 120.761L332.036 115.058L348.392 94.8911H321.264L307.177 115.058L306.415 116.145V94.8911H283.371V164.717H306.415V146.494L310.508 141.433L322.274 164.708H349.917L325.554 123.022L325.571 123.03Z" fill="white"/>
<path d="M367.848 94.8997V112.703H384.435V164.725H407.574V112.703H424.264V94.8997H367.848Z" fill="white"/>
<path d="M428.862 94.8997V115.066H452.103V94.8997H428.862ZM470.018 120.761V135.884C470.018 139.934 469.298 141.947 467.765 143.471C466.233 144.995 464.186 145.997 461.112 145.997C458.037 145.997 455.999 144.987 454.458 143.471C452.917 141.947 452.103 140.037 452.103 135.884V120.761H428.862V134.865C428.862 145.997 431.431 152.582 436.543 157.643C441.664 162.704 449.851 165.838 461.112 165.838C472.372 165.838 480.568 162.704 485.68 157.643C490.801 152.582 493.361 146.006 493.361 134.865V120.761H470.018ZM470.018 94.8997V115.066H493.361V94.8997H470.018Z" fill="white"/>
<path d="M551.215 138.213C552.714 137.322 555.565 135.653 558.083 132.518C560.258 129.83 562.176 126.053 562.784 120.761C562.913 119.631 562.99 118.432 562.99 117.156C562.99 116.445 562.964 115.743 562.896 115.058C562.296 108.447 558.922 103.172 554.289 99.952C549.169 96.4153 542.515 94.8911 533.814 94.8911H503.098V164.717H526.236V141.441H529.207L540.468 164.717H567.083L551.215 138.204V138.213ZM537.086 123.039C536.161 123.741 534.525 124.246 531.965 124.246H526.133V112.103H531.965C534.534 112.103 536.041 112.643 537.086 113.422C537.617 113.816 538.293 114.278 538.815 115.066C539.295 115.768 539.638 116.745 539.638 118.183C539.638 119.271 539.458 120.119 539.149 120.769C538.636 121.926 537.796 122.516 537.077 123.039H537.086Z" fill="white"/>
<path d="M612.837 123.03L614.678 120.761L619.302 115.058L635.667 94.8911H608.53L594.443 115.058L593.681 116.145V94.8911H570.654V164.717H593.681V146.494L597.774 141.433L609.549 164.708H637.191L612.82 123.022L612.837 123.03Z" fill="white"/>
<path d="M640.274 94.8997V115.066H663.412V94.8997H640.274ZM640.274 120.761V164.725H663.412V120.761H640.274Z" fill="white"/>
<path d="M713.071 94.8997L704.054 115.066L702.521 118.483L701.005 115.066L692.082 94.8997H666.487L678.09 115.066L681.378 120.77L690.952 137.417V164.734H714.09V137.417L723.715 120.77L727.004 115.066L738.658 94.8997H713.063H713.071Z" fill="white"/>
<path d="M764.768 146.502V138.41H790.364V120.504H764.768V112.917H791.905V94.8997H741.741V164.725H792.924V146.502H764.768Z" fill="white"/>
<path d="M165.599 244.844L187.495 219.608L192.445 213.905L196.324 209.435V193.747H136.946V211.969H166.627L164.94 213.913L159.999 219.616L135.91 247.387V263.581H197.849V244.861H165.599V244.844Z" fill="white"/>
<path d="M258.648 219.599L256.644 213.896L249.554 193.729H223.967L216.876 213.896L214.872 219.599L199.398 263.564H223.453L226.108 253.75H246.283L249.049 263.564H274.122L258.648 219.599ZM231.023 236.246L235.656 219.599L236.229 217.518L236.812 219.599L241.462 236.246H231.023Z" fill="white"/>
<path d="M301.251 211.755H327.352V193.738H278.207V263.563H301.251V240.588H325.819V222.579H301.251V211.755Z" fill="white"/>
<path d="M357.564 245.341V237.248H383.159V219.342H357.564V211.755H384.692V193.738H334.528V263.563H385.72V245.341H357.564Z" fill="white"/>
<path d="M442.024 237.051C443.531 236.161 446.374 234.491 448.9 231.357C451.075 228.668 452.994 224.891 453.602 219.599C453.73 218.469 453.807 217.27 453.807 215.994C453.807 215.283 453.781 214.581 453.713 213.896C453.113 207.285 449.739 202.01 445.098 198.79C439.977 195.254 433.324 193.729 424.623 193.729H393.915V263.555H417.045V240.28H420.016L431.277 263.555H457.892L442.024 237.043V237.051ZM427.894 221.877C426.978 222.579 425.334 223.085 422.782 223.085H416.942V210.942H422.782C425.343 210.942 426.85 211.481 427.894 212.26C428.425 212.654 429.102 213.117 429.633 213.905C430.112 214.607 430.455 215.583 430.455 217.022C430.455 218.109 430.275 218.957 429.967 219.608C429.453 220.764 428.605 221.355 427.886 221.877H427.894Z" fill="white"/>
<path d="M461.471 263.563H484.609V219.599H461.471V263.563ZM461.471 193.738V213.905H484.609V193.738H461.471Z" fill="white"/>
<path d="M539.894 193.738V220.053C539.894 225.114 540.408 232.701 540.408 232.701L533.523 219.608L530.526 213.905L519.933 193.738H494.851V263.563H517.381V237.248C517.381 232.187 516.868 224.6 516.868 224.6L538.37 263.563H562.425V193.738H539.894Z" fill="white"/>
<path d="M595.693 245.341V237.248H621.289V219.342H595.693V211.755H622.831V193.738H572.666V263.563H623.858V245.341H595.693Z" fill="white"/>
<path d="M644.83 242.712C637.363 242.712 632.242 246.659 632.242 253.75C632.242 260.84 637.363 264.677 644.83 264.677C652.297 264.677 657.324 260.84 657.324 253.75C657.324 246.659 652.211 242.712 644.83 242.712ZM632.747 193.738L634.802 239.278H654.763L656.81 193.738H632.755H632.747Z" fill="white"/>
</svg>
