<svg width="355" height="349" viewBox="0 0 355 349" fill="none" xmlns="http://www.w3.org/2000/svg">
<path d="M1.84585 13.8823C2.45278 13.8823 2.9448 13.3869 2.9448 12.7758C2.9448 12.1648 2.45278 11.6694 1.84585 11.6694C1.23891 11.6694 0.746887 12.1648 0.746887 12.7758C0.746887 13.3869 1.23891 13.8823 1.84585 13.8823Z" fill="white" fill-opacity="0.5"/>
<path d="M21.3831 13.8823C21.99 13.8823 22.482 13.3869 22.482 12.7758C22.482 12.1648 21.99 11.6694 21.3831 11.6694C20.7761 11.6694 20.2841 12.1648 20.2841 12.7758C20.2841 13.3869 20.7761 13.8823 21.3831 13.8823Z" fill="white" fill-opacity="0.5" stroke="white" stroke-width="0.5"/>
<path d="M40.9198 13.8823C41.5268 13.8823 42.0188 13.3869 42.0188 12.7758C42.0188 12.1648 41.5268 11.6694 40.9198 11.6694C40.3129 11.6694 39.8209 12.1648 39.8209 12.7758C39.8209 13.3869 40.3129 13.8823 40.9198 13.8823Z" fill="white" fill-opacity="0.5"/>
<path d="M60.4571 13.8823C61.064 13.8823 61.556 13.3869 61.556 12.7758C61.556 12.1648 61.064 11.6694 60.4571 11.6694C59.8501 11.6694 59.3581 12.1648 59.3581 12.7758C59.3581 13.3869 59.8501 13.8823 60.4571 13.8823Z" fill="white" fill-opacity="0.5"/>
<path d="M79.994 13.8823C80.601 13.8823 81.093 13.3869 81.093 12.7758C81.093 12.1648 80.601 11.6694 79.994 11.6694C79.3871 11.6694 78.8951 12.1648 78.8951 12.7758C78.8951 13.3869 79.3871 13.8823 79.994 13.8823Z" fill="white" fill-opacity="0.5"/>
<path d="M99.5313 13.8823C100.138 13.8823 100.63 13.3869 100.63 12.7758C100.63 12.1648 100.138 11.6694 99.5313 11.6694C98.9244 11.6694 98.4323 12.1648 98.4323 12.7758C98.4323 13.3869 98.9244 13.8823 99.5313 13.8823Z" fill="white" fill-opacity="0.5"/>
<path d="M119.068 13.8823C119.675 13.8823 120.167 13.3869 120.167 12.7758C120.167 12.1648 119.675 11.6694 119.068 11.6694C118.461 11.6694 117.969 12.1648 117.969 12.7758C117.969 13.3869 118.461 13.8823 119.068 13.8823Z" fill="white" fill-opacity="0.5" stroke="white" stroke-width="0.5"/>
<path d="M138.605 13.8823C139.212 13.8823 139.704 13.3869 139.704 12.7758C139.704 12.1648 139.212 11.6694 138.605 11.6694C137.998 11.6694 137.506 12.1648 137.506 12.7758C137.506 13.3869 137.998 13.8823 138.605 13.8823Z" fill="white" fill-opacity="0.5"/>
<path d="M158.142 13.8823C158.749 13.8823 159.241 13.3869 159.241 12.7758C159.241 12.1648 158.749 11.6694 158.142 11.6694C157.535 11.6694 157.043 12.1648 157.043 12.7758C157.043 13.3869 157.535 13.8823 158.142 13.8823Z" fill="white" fill-opacity="0.5"/>
<path d="M177.679 13.8823C178.286 13.8823 178.778 13.3869 178.778 12.7758C178.778 12.1648 178.286 11.6694 177.679 11.6694C177.072 11.6694 176.58 12.1648 176.58 12.7758C176.58 13.3869 177.072 13.8823 177.679 13.8823Z" fill="white" fill-opacity="0.5"/>
<path d="M197.216 13.8823C197.823 13.8823 198.315 13.3869 198.315 12.7758C198.315 12.1648 197.823 11.6694 197.216 11.6694C196.609 11.6694 196.117 12.1648 196.117 12.7758C196.117 13.3869 196.609 13.8823 197.216 13.8823Z" fill="white" fill-opacity="0.5"/>
<path d="M216.753 13.8823C217.36 13.8823 217.852 13.3869 217.852 12.7758C217.852 12.1648 217.36 11.6694 216.753 11.6694C216.147 11.6694 215.655 12.1648 215.655 12.7758C215.655 13.3869 216.147 13.8823 216.753 13.8823Z" fill="white" fill-opacity="0.5"/>
<path d="M236.29 13.8823C236.897 13.8823 237.389 13.3869 237.389 12.7758C237.389 12.1648 236.897 11.6694 236.29 11.6694C235.684 11.6694 235.192 12.1648 235.192 12.7758C235.192 13.3869 235.684 13.8823 236.29 13.8823Z" fill="white" fill-opacity="0.5" stroke="white" stroke-width="0.5"/>
<path d="M255.827 13.8823C256.434 13.8823 256.926 13.3869 256.926 12.7758C256.926 12.1648 256.434 11.6694 255.827 11.6694C255.221 11.6694 254.729 12.1648 254.729 12.7758C254.729 13.3869 255.221 13.8823 255.827 13.8823Z" fill="white" fill-opacity="0.5"/>
<path d="M275.364 13.8823C275.971 13.8823 276.463 13.3869 276.463 12.7758C276.463 12.1648 275.971 11.6694 275.364 11.6694C274.758 11.6694 274.266 12.1648 274.266 12.7758C274.266 13.3869 274.758 13.8823 275.364 13.8823Z" fill="white" fill-opacity="0.5"/>
<path d="M294.901 13.8823C295.508 13.8823 296 13.3869 296 12.7758C296 12.1648 295.508 11.6694 294.901 11.6694C294.295 11.6694 293.802 12.1648 293.802 12.7758C293.802 13.3869 294.295 13.8823 294.901 13.8823Z" fill="white" fill-opacity="0.5"/>
<path d="M314.438 13.8823C315.045 13.8823 315.537 13.3869 315.537 12.7758C315.537 12.1648 315.045 11.6694 314.438 11.6694C313.831 11.6694 313.339 12.1648 313.339 12.7758C313.339 13.3869 313.831 13.8823 314.438 13.8823Z" fill="white" fill-opacity="0.5"/>
<path d="M333.975 13.8823C334.582 13.8823 335.074 13.3869 335.074 12.7758C335.074 12.1648 334.582 11.6694 333.975 11.6694C333.368 11.6694 332.876 12.1648 332.876 12.7758C332.876 13.3869 333.368 13.8823 333.975 13.8823Z" fill="white" fill-opacity="0.5"/>
<path d="M353.513 13.8823C354.12 13.8823 354.612 13.3869 354.612 12.7758C354.612 12.1648 354.12 11.6694 353.513 11.6694C352.906 11.6694 352.414 12.1648 352.414 12.7758C352.414 13.3869 352.906 13.8823 353.513 13.8823Z" fill="white" fill-opacity="0.5"/>
<path d="M1.84585 33.5518C2.45278 33.5518 2.9448 33.0565 2.9448 32.4454C2.9448 31.8343 2.45278 31.339 1.84585 31.339C1.23891 31.339 0.746887 31.8343 0.746887 32.4454C0.746887 33.0565 1.23891 33.5518 1.84585 33.5518Z" fill="white" fill-opacity="0.5"/>
<path d="M21.3831 33.5518C21.99 33.5518 22.482 33.0565 22.482 32.4454C22.482 31.8343 21.99 31.339 21.3831 31.339C20.7761 31.339 20.2841 31.8343 20.2841 32.4454C20.2841 33.0565 20.7761 33.5518 21.3831 33.5518Z" fill="white" fill-opacity="0.5" stroke="white" stroke-width="0.5"/>
<path d="M40.9198 33.5518C41.5268 33.5518 42.0188 33.0565 42.0188 32.4454C42.0188 31.8343 41.5268 31.339 40.9198 31.339C40.3129 31.339 39.8209 31.8343 39.8209 32.4454C39.8209 33.0565 40.3129 33.5518 40.9198 33.5518Z" fill="white" fill-opacity="0.5"/>
<path d="M60.4571 33.5518C61.064 33.5518 61.556 33.0565 61.556 32.4454C61.556 31.8343 61.064 31.339 60.4571 31.339C59.8501 31.339 59.3581 31.8343 59.3581 32.4454C59.3581 33.0565 59.8501 33.5518 60.4571 33.5518Z" fill="white" fill-opacity="0.5"/>
<path d="M79.994 33.5518C80.601 33.5518 81.093 33.0565 81.093 32.4454C81.093 31.8343 80.601 31.339 79.994 31.339C79.3871 31.339 78.8951 31.8343 78.8951 32.4454C78.8951 33.0565 79.3871 33.5518 79.994 33.5518Z" fill="white" fill-opacity="0.5"/>
<path d="M99.5313 33.5518C100.138 33.5518 100.63 33.0565 100.63 32.4454C100.63 31.8343 100.138 31.339 99.5313 31.339C98.9244 31.339 98.4323 31.8343 98.4323 32.4454C98.4323 33.0565 98.9244 33.5518 99.5313 33.5518Z" fill="white" fill-opacity="0.5"/>
<path d="M119.068 33.5518C119.675 33.5518 120.167 33.0565 120.167 32.4454C120.167 31.8343 119.675 31.339 119.068 31.339C118.461 31.339 117.969 31.8343 117.969 32.4454C117.969 33.0565 118.461 33.5518 119.068 33.5518Z" fill="white" fill-opacity="0.5"/>
<path d="M138.605 33.5518C139.212 33.5518 139.704 33.0565 139.704 32.4454C139.704 31.8343 139.212 31.339 138.605 31.339C137.998 31.339 137.506 31.8343 137.506 32.4454C137.506 33.0565 137.998 33.5518 138.605 33.5518Z" fill="white" fill-opacity="0.5"/>
<path d="M158.142 33.5518C158.749 33.5518 159.241 33.0565 159.241 32.4454C159.241 31.8343 158.749 31.339 158.142 31.339C157.535 31.339 157.043 31.8343 157.043 32.4454C157.043 33.0565 157.535 33.5518 158.142 33.5518Z" fill="white" fill-opacity="0.5"/>
<path d="M177.679 33.5518C178.286 33.5518 178.778 33.0565 178.778 32.4454C178.778 31.8343 178.286 31.339 177.679 31.339C177.072 31.339 176.58 31.8343 176.58 32.4454C176.58 33.0565 177.072 33.5518 177.679 33.5518Z" fill="white" fill-opacity="0.5"/>
<path d="M197.216 33.5518C197.823 33.5518 198.315 33.0565 198.315 32.4454C198.315 31.8343 197.823 31.339 197.216 31.339C196.609 31.339 196.117 31.8343 196.117 32.4454C196.117 33.0565 196.609 33.5518 197.216 33.5518Z" fill="white" fill-opacity="0.5"/>
<path d="M216.753 33.5518C217.36 33.5518 217.852 33.0565 217.852 32.4454C217.852 31.8343 217.36 31.339 216.753 31.339C216.147 31.339 215.655 31.8343 215.655 32.4454C215.655 33.0565 216.147 33.5518 216.753 33.5518Z" fill="white" fill-opacity="0.5"/>
<path d="M236.29 33.5518C236.897 33.5518 237.389 33.0565 237.389 32.4454C237.389 31.8343 236.897 31.339 236.29 31.339C235.684 31.339 235.192 31.8343 235.192 32.4454C235.192 33.0565 235.684 33.5518 236.29 33.5518Z" fill="white" fill-opacity="0.5"/>
<path d="M255.827 33.5518C256.434 33.5518 256.926 33.0565 256.926 32.4454C256.926 31.8343 256.434 31.339 255.827 31.339C255.221 31.339 254.729 31.8343 254.729 32.4454C254.729 33.0565 255.221 33.5518 255.827 33.5518Z" fill="white" fill-opacity="0.5"/>
<path d="M275.364 33.5518C275.971 33.5518 276.463 33.0565 276.463 32.4454C276.463 31.8343 275.971 31.339 275.364 31.339C274.758 31.339 274.266 31.8343 274.266 32.4454C274.266 33.0565 274.758 33.5518 275.364 33.5518Z" fill="white" fill-opacity="0.5"/>
<path d="M294.901 33.5518C295.508 33.5518 296 33.0565 296 32.4454C296 31.8343 295.508 31.339 294.901 31.339C294.295 31.339 293.802 31.8343 293.802 32.4454C293.802 33.0565 294.295 33.5518 294.901 33.5518Z" fill="white" fill-opacity="0.5"/>
<path d="M314.438 33.5518C315.045 33.5518 315.537 33.0565 315.537 32.4454C315.537 31.8343 315.045 31.339 314.438 31.339C313.831 31.339 313.339 31.8343 313.339 32.4454C313.339 33.0565 313.831 33.5518 314.438 33.5518Z" fill="white" fill-opacity="0.5"/>
<path d="M333.975 33.5518C334.582 33.5518 335.074 33.0565 335.074 32.4454C335.074 31.8343 334.582 31.339 333.975 31.339C333.368 31.339 332.876 31.8343 332.876 32.4454C332.876 33.0565 333.368 33.5518 333.975 33.5518Z" fill="white" fill-opacity="0.5"/>
<path d="M353.513 33.5518C354.12 33.5518 354.612 33.0565 354.612 32.4454C354.612 31.8343 354.12 31.339 353.513 31.339C352.906 31.339 352.414 31.8343 352.414 32.4454C352.414 33.0565 352.906 33.5518 353.513 33.5518Z" fill="white" fill-opacity="0.5"/>
<path d="M1.84585 53.2215C2.45278 53.2215 2.9448 52.7261 2.9448 52.1151C2.9448 51.504 2.45278 51.0087 1.84585 51.0087C1.23891 51.0087 0.746887 51.504 0.746887 52.1151C0.746887 52.7261 1.23891 53.2215 1.84585 53.2215Z" fill="white" fill-opacity="0.5"/>
<path d="M21.3831 53.2215C21.99 53.2215 22.482 52.7261 22.482 52.1151C22.482 51.504 21.99 51.0087 21.3831 51.0087C20.7761 51.0087 20.2841 51.504 20.2841 52.1151C20.2841 52.7261 20.7761 53.2215 21.3831 53.2215Z" fill="white" fill-opacity="0.5"/>
<path d="M40.9198 53.2215C41.5268 53.2215 42.0188 52.7261 42.0188 52.1151C42.0188 51.504 41.5268 51.0087 40.9198 51.0087C40.3129 51.0087 39.8209 51.504 39.8209 52.1151C39.8209 52.7261 40.3129 53.2215 40.9198 53.2215Z" fill="white" fill-opacity="0.5"/>
<path d="M60.4571 53.2215C61.064 53.2215 61.556 52.7261 61.556 52.1151C61.556 51.504 61.064 51.0087 60.4571 51.0087C59.8501 51.0087 59.3581 51.504 59.3581 52.1151C59.3581 52.7261 59.8501 53.2215 60.4571 53.2215Z" fill="white" fill-opacity="0.5"/>
<path d="M79.994 53.2215C80.601 53.2215 81.093 52.7261 81.093 52.1151C81.093 51.504 80.601 51.0087 79.994 51.0087C79.3871 51.0087 78.8951 51.504 78.8951 52.1151C78.8951 52.7261 79.3871 53.2215 79.994 53.2215Z" fill="white" fill-opacity="0.5" stroke="white" stroke-width="0.5"/>
<path d="M99.5313 53.2215C100.138 53.2215 100.63 52.7261 100.63 52.1151C100.63 51.504 100.138 51.0087 99.5313 51.0087C98.9244 51.0087 98.4323 51.504 98.4323 52.1151C98.4323 52.7261 98.9244 53.2215 99.5313 53.2215Z" fill="white" fill-opacity="0.5"/>
<path d="M119.068 53.2215C119.675 53.2215 120.167 52.7261 120.167 52.1151C120.167 51.504 119.675 51.0087 119.068 51.0087C118.461 51.0087 117.969 51.504 117.969 52.1151C117.969 52.7261 118.461 53.2215 119.068 53.2215Z" fill="white" fill-opacity="0.5"/>
<path d="M138.605 53.2215C139.212 53.2215 139.704 52.7261 139.704 52.1151C139.704 51.504 139.212 51.0087 138.605 51.0087C137.998 51.0087 137.506 51.504 137.506 52.1151C137.506 52.7261 137.998 53.2215 138.605 53.2215Z" fill="white" fill-opacity="0.5"/>
<path d="M158.142 53.2215C158.749 53.2215 159.241 52.7261 159.241 52.1151C159.241 51.504 158.749 51.0087 158.142 51.0087C157.535 51.0087 157.043 51.504 157.043 52.1151C157.043 52.7261 157.535 53.2215 158.142 53.2215Z" fill="white" fill-opacity="0.5"/>
<path d="M177.679 53.2215C178.286 53.2215 178.778 52.7261 178.778 52.1151C178.778 51.504 178.286 51.0087 177.679 51.0087C177.072 51.0087 176.58 51.504 176.58 52.1151C176.58 52.7261 177.072 53.2215 177.679 53.2215Z" fill="white" fill-opacity="0.5"/>
<path d="M197.216 53.2215C197.823 53.2215 198.315 52.7261 198.315 52.1151C198.315 51.504 197.823 51.0087 197.216 51.0087C196.609 51.0087 196.117 51.504 196.117 52.1151C196.117 52.7261 196.609 53.2215 197.216 53.2215Z" fill="white" fill-opacity="0.5"/>
<path d="M216.753 53.2215C217.36 53.2215 217.852 52.7261 217.852 52.1151C217.852 51.504 217.36 51.0087 216.753 51.0087C216.147 51.0087 215.655 51.504 215.655 52.1151C215.655 52.7261 216.147 53.2215 216.753 53.2215Z" fill="white" fill-opacity="0.5" stroke="white" stroke-width="0.5"/>
<path d="M236.29 53.2215C236.897 53.2215 237.389 52.7261 237.389 52.1151C237.389 51.504 236.897 51.0087 236.29 51.0087C235.684 51.0087 235.192 51.504 235.192 52.1151C235.192 52.7261 235.684 53.2215 236.29 53.2215Z" fill="white" fill-opacity="0.5"/>
<path d="M255.827 53.2215C256.434 53.2215 256.926 52.7261 256.926 52.1151C256.926 51.504 256.434 51.0087 255.827 51.0087C255.221 51.0087 254.729 51.504 254.729 52.1151C254.729 52.7261 255.221 53.2215 255.827 53.2215Z" fill="white" fill-opacity="0.5"/>
<path d="M275.364 53.2215C275.971 53.2215 276.463 52.7261 276.463 52.1151C276.463 51.504 275.971 51.0087 275.364 51.0087C274.758 51.0087 274.266 51.504 274.266 52.1151C274.266 52.7261 274.758 53.2215 275.364 53.2215Z" fill="white" fill-opacity="0.5"/>
<path d="M294.901 53.2215C295.508 53.2215 296 52.7261 296 52.1151C296 51.504 295.508 51.0087 294.901 51.0087C294.295 51.0087 293.802 51.504 293.802 52.1151C293.802 52.7261 294.295 53.2215 294.901 53.2215Z" fill="white" fill-opacity="0.5"/>
<path d="M314.438 53.2215C315.045 53.2215 315.537 52.7261 315.537 52.1151C315.537 51.504 315.045 51.0087 314.438 51.0087C313.831 51.0087 313.339 51.504 313.339 52.1151C313.339 52.7261 313.831 53.2215 314.438 53.2215Z" fill="white" fill-opacity="0.5"/>
<path d="M333.975 53.2215C334.582 53.2215 335.074 52.7261 335.074 52.1151C335.074 51.504 334.582 51.0087 333.975 51.0087C333.368 51.0087 332.876 51.504 332.876 52.1151C332.876 52.7261 333.368 53.2215 333.975 53.2215Z" fill="white" fill-opacity="0.5"/>
<path d="M353.513 53.2215C354.12 53.2215 354.612 52.7261 354.612 52.1151C354.612 51.504 354.12 51.0087 353.513 51.0087C352.906 51.0087 352.414 51.504 352.414 52.1151C352.414 52.7261 352.906 53.2215 353.513 53.2215Z" fill="white" fill-opacity="0.5"/>
<path d="M1.84585 72.8912C2.45278 72.8912 2.9448 72.3958 2.9448 71.7848C2.9448 71.1737 2.45278 70.6783 1.84585 70.6783C1.23891 70.6783 0.746887 71.1737 0.746887 71.7848C0.746887 72.3958 1.23891 72.8912 1.84585 72.8912Z" fill="white" fill-opacity="0.5"/>
<path d="M21.3831 72.8912C21.99 72.8912 22.482 72.3958 22.482 71.7848C22.482 71.1737 21.99 70.6783 21.3831 70.6783C20.7761 70.6783 20.2841 71.1737 20.2841 71.7848C20.2841 72.3958 20.7761 72.8912 21.3831 72.8912Z" fill="white" fill-opacity="0.5"/>
<path d="M40.9198 72.8912C41.5268 72.8912 42.0188 72.3958 42.0188 71.7848C42.0188 71.1737 41.5268 70.6783 40.9198 70.6783C40.3129 70.6783 39.8209 71.1737 39.8209 71.7848C39.8209 72.3958 40.3129 72.8912 40.9198 72.8912Z" fill="white" fill-opacity="0.5"/>
<path d="M60.4571 72.8912C61.064 72.8912 61.556 72.3958 61.556 71.7848C61.556 71.1737 61.064 70.6783 60.4571 70.6783C59.8501 70.6783 59.3581 71.1737 59.3581 71.7848C59.3581 72.3958 59.8501 72.8912 60.4571 72.8912Z" fill="white" fill-opacity="0.5"/>
<path d="M79.994 72.8912C80.601 72.8912 81.093 72.3958 81.093 71.7848C81.093 71.1737 80.601 70.6783 79.994 70.6783C79.3871 70.6783 78.8951 71.1737 78.8951 71.7848C78.8951 72.3958 79.3871 72.8912 79.994 72.8912Z" fill="white" fill-opacity="0.5"/>
<path d="M99.5313 72.8912C100.138 72.8912 100.63 72.3958 100.63 71.7848C100.63 71.1737 100.138 70.6783 99.5313 70.6783C98.9244 70.6783 98.4323 71.1737 98.4323 71.7848C98.4323 72.3958 98.9244 72.8912 99.5313 72.8912Z" fill="white" fill-opacity="0.5"/>
<path d="M119.068 72.8912C119.675 72.8912 120.167 72.3958 120.167 71.7848C120.167 71.1737 119.675 70.6783 119.068 70.6783C118.461 70.6783 117.969 71.1737 117.969 71.7848C117.969 72.3958 118.461 72.8912 119.068 72.8912Z" fill="white" fill-opacity="0.5"/>
<path d="M138.605 72.8912C139.212 72.8912 139.704 72.3958 139.704 71.7848C139.704 71.1737 139.212 70.6783 138.605 70.6783C137.998 70.6783 137.506 71.1737 137.506 71.7848C137.506 72.3958 137.998 72.8912 138.605 72.8912Z" fill="white" fill-opacity="0.5"/>
<path d="M158.142 72.8912C158.749 72.8912 159.241 72.3958 159.241 71.7848C159.241 71.1737 158.749 70.6783 158.142 70.6783C157.535 70.6783 157.043 71.1737 157.043 71.7848C157.043 72.3958 157.535 72.8912 158.142 72.8912Z" fill="white" fill-opacity="0.5" stroke="white" stroke-width="0.5"/>
<path d="M177.679 72.8912C178.286 72.8912 178.778 72.3958 178.778 71.7848C178.778 71.1737 178.286 70.6783 177.679 70.6783C177.072 70.6783 176.58 71.1737 176.58 71.7848C176.58 72.3958 177.072 72.8912 177.679 72.8912Z" fill="white" fill-opacity="0.5"/>
<path d="M197.216 72.8912C197.823 72.8912 198.315 72.3958 198.315 71.7848C198.315 71.1737 197.823 70.6783 197.216 70.6783C196.609 70.6783 196.117 71.1737 196.117 71.7848C196.117 72.3958 196.609 72.8912 197.216 72.8912Z" fill="white" fill-opacity="0.5"/>
<path d="M216.753 72.8912C217.36 72.8912 217.852 72.3958 217.852 71.7848C217.852 71.1737 217.36 70.6783 216.753 70.6783C216.147 70.6783 215.655 71.1737 215.655 71.7848C215.655 72.3958 216.147 72.8912 216.753 72.8912Z" fill="white" fill-opacity="0.5" stroke="white" stroke-width="0.5"/>
<path d="M236.29 72.8912C236.897 72.8912 237.389 72.3958 237.389 71.7848C237.389 71.1737 236.897 70.6783 236.29 70.6783C235.684 70.6783 235.192 71.1737 235.192 71.7848C235.192 72.3958 235.684 72.8912 236.29 72.8912Z" fill="white" fill-opacity="0.5"/>
<path d="M255.827 72.8912C256.434 72.8912 256.926 72.3958 256.926 71.7848C256.926 71.1737 256.434 70.6783 255.827 70.6783C255.221 70.6783 254.729 71.1737 254.729 71.7848C254.729 72.3958 255.221 72.8912 255.827 72.8912Z" fill="white" fill-opacity="0.5"/>
<path d="M275.364 72.8912C275.971 72.8912 276.463 72.3958 276.463 71.7848C276.463 71.1737 275.971 70.6783 275.364 70.6783C274.758 70.6783 274.266 71.1737 274.266 71.7848C274.266 72.3958 274.758 72.8912 275.364 72.8912Z" fill="white" fill-opacity="0.5" stroke="white" stroke-width="0.5"/>
<path d="M294.901 72.8912C295.508 72.8912 296 72.3958 296 71.7848C296 71.1737 295.508 70.6783 294.901 70.6783C294.295 70.6783 293.802 71.1737 293.802 71.7848C293.802 72.3958 294.295 72.8912 294.901 72.8912Z" fill="white" fill-opacity="0.5" stroke="white" stroke-width="0.5"/>
<path d="M314.438 72.8912C315.045 72.8912 315.537 72.3958 315.537 71.7848C315.537 71.1737 315.045 70.6783 314.438 70.6783C313.831 70.6783 313.339 71.1737 313.339 71.7848C313.339 72.3958 313.831 72.8912 314.438 72.8912Z" fill="white" fill-opacity="0.5"/>
<path d="M333.975 72.8912C334.582 72.8912 335.074 72.3958 335.074 71.7848C335.074 71.1737 334.582 70.6783 333.975 70.6783C333.368 70.6783 332.876 71.1737 332.876 71.7848C332.876 72.3958 333.368 72.8912 333.975 72.8912Z" fill="white" fill-opacity="0.5" stroke="white" stroke-width="0.5"/>
<path d="M353.513 72.8912C354.12 72.8912 354.612 72.3958 354.612 71.7848C354.612 71.1737 354.12 70.6783 353.513 70.6783C352.906 70.6783 352.414 71.1737 352.414 71.7848C352.414 72.3958 352.906 72.8912 353.513 72.8912Z" fill="white" fill-opacity="0.5"/>
<path d="M1.84585 92.5606C2.45278 92.5606 2.9448 92.0652 2.9448 91.4542C2.9448 90.8431 2.45278 90.3478 1.84585 90.3478C1.23891 90.3478 0.746887 90.8431 0.746887 91.4542C0.746887 92.0652 1.23891 92.5606 1.84585 92.5606Z" fill="white" fill-opacity="0.5"/>
<path d="M21.3831 92.5606C21.99 92.5606 22.482 92.0652 22.482 91.4542C22.482 90.8431 21.99 90.3478 21.3831 90.3478C20.7761 90.3478 20.2841 90.8431 20.2841 91.4542C20.2841 92.0652 20.7761 92.5606 21.3831 92.5606Z" fill="white" fill-opacity="0.5"/>
<path d="M40.9198 92.5606C41.5268 92.5606 42.0188 92.0652 42.0188 91.4542C42.0188 90.8431 41.5268 90.3478 40.9198 90.3478C40.3129 90.3478 39.8209 90.8431 39.8209 91.4542C39.8209 92.0652 40.3129 92.5606 40.9198 92.5606Z" fill="white" fill-opacity="0.5"/>
<path d="M60.4571 92.5606C61.064 92.5606 61.556 92.0652 61.556 91.4542C61.556 90.8431 61.064 90.3478 60.4571 90.3478C59.8501 90.3478 59.3581 90.8431 59.3581 91.4542C59.3581 92.0652 59.8501 92.5606 60.4571 92.5606Z" fill="white" fill-opacity="0.5" stroke="white" stroke-width="0.5"/>
<path d="M79.994 92.5606C80.601 92.5606 81.093 92.0652 81.093 91.4542C81.093 90.8431 80.601 90.3478 79.994 90.3478C79.3871 90.3478 78.8951 90.8431 78.8951 91.4542C78.8951 92.0652 79.3871 92.5606 79.994 92.5606Z" fill="white" fill-opacity="0.5"/>
<path d="M99.5313 92.5606C100.138 92.5606 100.63 92.0652 100.63 91.4542C100.63 90.8431 100.138 90.3478 99.5313 90.3478C98.9244 90.3478 98.4323 90.8431 98.4323 91.4542C98.4323 92.0652 98.9244 92.5606 99.5313 92.5606Z" fill="white" fill-opacity="0.5"/>
<path d="M119.068 92.5606C119.675 92.5606 120.167 92.0652 120.167 91.4542C120.167 90.8431 119.675 90.3478 119.068 90.3478C118.461 90.3478 117.969 90.8431 117.969 91.4542C117.969 92.0652 118.461 92.5606 119.068 92.5606Z" fill="white" fill-opacity="0.5"/>
<path d="M138.605 92.5606C139.212 92.5606 139.704 92.0652 139.704 91.4542C139.704 90.8431 139.212 90.3478 138.605 90.3478C137.998 90.3478 137.506 90.8431 137.506 91.4542C137.506 92.0652 137.998 92.5606 138.605 92.5606Z" fill="white" fill-opacity="0.5"/>
<path d="M158.142 92.5606C158.749 92.5606 159.241 92.0652 159.241 91.4542C159.241 90.8431 158.749 90.3478 158.142 90.3478C157.535 90.3478 157.043 90.8431 157.043 91.4542C157.043 92.0652 157.535 92.5606 158.142 92.5606Z" fill="white" fill-opacity="0.5"/>
<path d="M177.679 92.5606C178.286 92.5606 178.778 92.0652 178.778 91.4542C178.778 90.8431 178.286 90.3478 177.679 90.3478C177.072 90.3478 176.58 90.8431 176.58 91.4542C176.58 92.0652 177.072 92.5606 177.679 92.5606Z" fill="white" fill-opacity="0.5" stroke="white" stroke-width="0.5"/>
<path d="M197.216 92.5606C197.823 92.5606 198.315 92.0652 198.315 91.4542C198.315 90.8431 197.823 90.3478 197.216 90.3478C196.609 90.3478 196.117 90.8431 196.117 91.4542C196.117 92.0652 196.609 92.5606 197.216 92.5606Z" fill="white" fill-opacity="0.5"/>
<path d="M216.753 92.5606C217.36 92.5606 217.852 92.0652 217.852 91.4542C217.852 90.8431 217.36 90.3478 216.753 90.3478C216.147 90.3478 215.655 90.8431 215.655 91.4542C215.655 92.0652 216.147 92.5606 216.753 92.5606Z" fill="white" fill-opacity="0.5" stroke="white" stroke-width="0.5"/>
<path d="M236.29 92.5606C236.897 92.5606 237.389 92.0652 237.389 91.4542C237.389 90.8431 236.897 90.3478 236.29 90.3478C235.684 90.3478 235.192 90.8431 235.192 91.4542C235.192 92.0652 235.684 92.5606 236.29 92.5606Z" fill="white" fill-opacity="0.5"/>
<path d="M255.827 92.5606C256.434 92.5606 256.926 92.0652 256.926 91.4542C256.926 90.8431 256.434 90.3478 255.827 90.3478C255.221 90.3478 254.729 90.8431 254.729 91.4542C254.729 92.0652 255.221 92.5606 255.827 92.5606Z" fill="white" fill-opacity="0.5"/>
<path d="M275.364 92.5606C275.971 92.5606 276.463 92.0652 276.463 91.4542C276.463 90.8431 275.971 90.3478 275.364 90.3478C274.758 90.3478 274.266 90.8431 274.266 91.4542C274.266 92.0652 274.758 92.5606 275.364 92.5606Z" fill="white" fill-opacity="0.5"/>
<path d="M294.901 92.5606C295.508 92.5606 296 92.0652 296 91.4542C296 90.8431 295.508 90.3478 294.901 90.3478C294.295 90.3478 293.802 90.8431 293.802 91.4542C293.802 92.0652 294.295 92.5606 294.901 92.5606Z" fill="white" fill-opacity="0.5" stroke="white" stroke-width="0.5"/>
<path d="M314.438 92.5606C315.045 92.5606 315.537 92.0652 315.537 91.4542C315.537 90.8431 315.045 90.3478 314.438 90.3478C313.831 90.3478 313.339 90.8431 313.339 91.4542C313.339 92.0652 313.831 92.5606 314.438 92.5606Z" fill="white" fill-opacity="0.5"/>
<path d="M333.975 92.5606C334.582 92.5606 335.074 92.0652 335.074 91.4542C335.074 90.8431 334.582 90.3478 333.975 90.3478C333.368 90.3478 332.876 90.8431 332.876 91.4542C332.876 92.0652 333.368 92.5606 333.975 92.5606Z" fill="white" fill-opacity="0.5"/>
<path d="M353.513 92.5606C354.12 92.5606 354.612 92.0652 354.612 91.4542C354.612 90.8431 354.12 90.3478 353.513 90.3478C352.906 90.3478 352.414 90.8431 352.414 91.4542C352.414 92.0652 352.906 92.5606 353.513 92.5606Z" fill="white" fill-opacity="0.5"/>
<path d="M1.84585 112.23C2.45278 112.23 2.9448 111.735 2.9448 111.124C2.9448 110.513 2.45278 110.017 1.84585 110.017C1.23891 110.017 0.746887 110.513 0.746887 111.124C0.746887 111.735 1.23891 112.23 1.84585 112.23Z" fill="white" fill-opacity="0.5"/>
<path d="M21.3831 112.23C21.99 112.23 22.482 111.735 22.482 111.124C22.482 110.513 21.99 110.017 21.3831 110.017C20.7761 110.017 20.2841 110.513 20.2841 111.124C20.2841 111.735 20.7761 112.23 21.3831 112.23Z" fill="white" fill-opacity="0.5"/>
<path d="M40.9198 112.23C41.5268 112.23 42.0188 111.735 42.0188 111.124C42.0188 110.513 41.5268 110.017 40.9198 110.017C40.3129 110.017 39.8209 110.513 39.8209 111.124C39.8209 111.735 40.3129 112.23 40.9198 112.23Z" fill="white" fill-opacity="0.5"/>
<path d="M60.4571 112.23C61.064 112.23 61.556 111.735 61.556 111.124C61.556 110.513 61.064 110.017 60.4571 110.017C59.8501 110.017 59.3581 110.513 59.3581 111.124C59.3581 111.735 59.8501 112.23 60.4571 112.23Z" fill="white" fill-opacity="0.5"/>
<path d="M79.994 112.23C80.601 112.23 81.093 111.735 81.093 111.124C81.093 110.513 80.601 110.017 79.994 110.017C79.3871 110.017 78.8951 110.513 78.8951 111.124C78.8951 111.735 79.3871 112.23 79.994 112.23Z" fill="white" fill-opacity="0.5"/>
<path d="M99.5313 112.23C100.138 112.23 100.63 111.735 100.63 111.124C100.63 110.513 100.138 110.017 99.5313 110.017C98.9244 110.017 98.4323 110.513 98.4323 111.124C98.4323 111.735 98.9244 112.23 99.5313 112.23Z" fill="white" fill-opacity="0.5" stroke="white" stroke-width="0.5"/>
<path d="M119.068 112.23C119.675 112.23 120.167 111.735 120.167 111.124C120.167 110.513 119.675 110.017 119.068 110.017C118.461 110.017 117.969 110.513 117.969 111.124C117.969 111.735 118.461 112.23 119.068 112.23Z" fill="white" fill-opacity="0.5" stroke="white" stroke-width="0.5"/>
<path d="M138.605 112.23C139.212 112.23 139.704 111.735 139.704 111.124C139.704 110.513 139.212 110.017 138.605 110.017C137.998 110.017 137.506 110.513 137.506 111.124C137.506 111.735 137.998 112.23 138.605 112.23Z" fill="white" fill-opacity="0.5"/>
<path d="M158.142 112.23C158.749 112.23 159.241 111.735 159.241 111.124C159.241 110.513 158.749 110.017 158.142 110.017C157.535 110.017 157.043 110.513 157.043 111.124C157.043 111.735 157.535 112.23 158.142 112.23Z" fill="white" fill-opacity="0.5"/>
<path d="M177.679 112.23C178.286 112.23 178.778 111.735 178.778 111.124C178.778 110.513 178.286 110.017 177.679 110.017C177.072 110.017 176.58 110.513 176.58 111.124C176.58 111.735 177.072 112.23 177.679 112.23Z" fill="white" fill-opacity="0.5"/>
<path d="M197.216 112.23C197.823 112.23 198.315 111.735 198.315 111.124C198.315 110.513 197.823 110.017 197.216 110.017C196.609 110.017 196.117 110.513 196.117 111.124C196.117 111.735 196.609 112.23 197.216 112.23Z" fill="white" fill-opacity="0.5" stroke="white" stroke-width="0.5"/>
<path d="M216.753 112.23C217.36 112.23 217.852 111.735 217.852 111.124C217.852 110.513 217.36 110.017 216.753 110.017C216.147 110.017 215.655 110.513 215.655 111.124C215.655 111.735 216.147 112.23 216.753 112.23Z" fill="white" fill-opacity="0.5"/>
<path d="M236.29 112.23C236.897 112.23 237.389 111.735 237.389 111.124C237.389 110.513 236.897 110.017 236.29 110.017C235.684 110.017 235.192 110.513 235.192 111.124C235.192 111.735 235.684 112.23 236.29 112.23Z" fill="white" fill-opacity="0.5"/>
<path d="M255.827 112.23C256.434 112.23 256.926 111.735 256.926 111.124C256.926 110.513 256.434 110.017 255.827 110.017C255.221 110.017 254.729 110.513 254.729 111.124C254.729 111.735 255.221 112.23 255.827 112.23Z" fill="white" fill-opacity="0.5"/>
<path d="M275.364 112.23C275.971 112.23 276.463 111.735 276.463 111.124C276.463 110.513 275.971 110.017 275.364 110.017C274.758 110.017 274.266 110.513 274.266 111.124C274.266 111.735 274.758 112.23 275.364 112.23Z" fill="white" fill-opacity="0.5"/>
<path d="M294.901 112.23C295.508 112.23 296 111.735 296 111.124C296 110.513 295.508 110.017 294.901 110.017C294.295 110.017 293.802 110.513 293.802 111.124C293.802 111.735 294.295 112.23 294.901 112.23Z" fill="white" fill-opacity="0.5"/>
<path d="M314.438 112.23C315.045 112.23 315.537 111.735 315.537 111.124C315.537 110.513 315.045 110.017 314.438 110.017C313.831 110.017 313.339 110.513 313.339 111.124C313.339 111.735 313.831 112.23 314.438 112.23Z" fill="white" fill-opacity="0.5"/>
<path d="M333.975 112.23C334.582 112.23 335.074 111.735 335.074 111.124C335.074 110.513 334.582 110.017 333.975 110.017C333.368 110.017 332.876 110.513 332.876 111.124C332.876 111.735 333.368 112.23 333.975 112.23Z" fill="white" fill-opacity="0.5" stroke="white" stroke-width="0.5"/>
<path d="M353.513 112.23C354.12 112.23 354.612 111.735 354.612 111.124C354.612 110.513 354.12 110.017 353.513 110.017C352.906 110.017 352.414 110.513 352.414 111.124C352.414 111.735 352.906 112.23 353.513 112.23Z" fill="white" fill-opacity="0.5"/>
<path d="M1.84585 131.9C2.45278 131.9 2.9448 131.404 2.9448 130.793C2.9448 130.182 2.45278 129.687 1.84585 129.687C1.23891 129.687 0.746887 130.182 0.746887 130.793C0.746887 131.404 1.23891 131.9 1.84585 131.9Z" fill="white" fill-opacity="0.5"/>
<path d="M21.3831 131.9C21.99 131.9 22.482 131.404 22.482 130.793C22.482 130.182 21.99 129.687 21.3831 129.687C20.7761 129.687 20.2841 130.182 20.2841 130.793C20.2841 131.404 20.7761 131.9 21.3831 131.9Z" fill="white" fill-opacity="0.5"/>
<path d="M40.9198 131.9C41.5268 131.9 42.0188 131.404 42.0188 130.793C42.0188 130.182 41.5268 129.687 40.9198 129.687C40.3129 129.687 39.8209 130.182 39.8209 130.793C39.8209 131.404 40.3129 131.9 40.9198 131.9Z" fill="white" fill-opacity="0.5"/>
<path d="M60.4571 131.9C61.064 131.9 61.556 131.404 61.556 130.793C61.556 130.182 61.064 129.687 60.4571 129.687C59.8501 129.687 59.3581 130.182 59.3581 130.793C59.3581 131.404 59.8501 131.9 60.4571 131.9Z" fill="white" fill-opacity="0.5"/>
<path d="M79.994 131.9C80.601 131.9 81.093 131.404 81.093 130.793C81.093 130.182 80.601 129.687 79.994 129.687C79.3871 129.687 78.8951 130.182 78.8951 130.793C78.8951 131.404 79.3871 131.9 79.994 131.9Z" fill="white" fill-opacity="0.5" stroke="white" stroke-width="0.5"/>
<path d="M99.5313 131.9C100.138 131.9 100.63 131.404 100.63 130.793C100.63 130.182 100.138 129.687 99.5313 129.687C98.9244 129.687 98.4323 130.182 98.4323 130.793C98.4323 131.404 98.9244 131.9 99.5313 131.9Z" fill="white" fill-opacity="0.5" stroke="white" stroke-width="0.5"/>
<path d="M119.068 131.9C119.675 131.9 120.167 131.404 120.167 130.793C120.167 130.182 119.675 129.687 119.068 129.687C118.461 129.687 117.969 130.182 117.969 130.793C117.969 131.404 118.461 131.9 119.068 131.9Z" fill="white" fill-opacity="0.5"/>
<path d="M138.605 131.9C139.212 131.9 139.704 131.404 139.704 130.793C139.704 130.182 139.212 129.687 138.605 129.687C137.998 129.687 137.506 130.182 137.506 130.793C137.506 131.404 137.998 131.9 138.605 131.9Z" fill="white" fill-opacity="0.5"/>
<path d="M158.142 131.9C158.749 131.9 159.241 131.404 159.241 130.793C159.241 130.182 158.749 129.687 158.142 129.687C157.535 129.687 157.043 130.182 157.043 130.793C157.043 131.404 157.535 131.9 158.142 131.9Z" fill="white" fill-opacity="0.5"/>
<path d="M177.679 131.9C178.286 131.9 178.778 131.404 178.778 130.793C178.778 130.182 178.286 129.687 177.679 129.687C177.072 129.687 176.58 130.182 176.58 130.793C176.58 131.404 177.072 131.9 177.679 131.9Z" fill="white" fill-opacity="0.5"/>
<path d="M197.216 131.9C197.823 131.9 198.315 131.404 198.315 130.793C198.315 130.182 197.823 129.687 197.216 129.687C196.609 129.687 196.117 130.182 196.117 130.793C196.117 131.404 196.609 131.9 197.216 131.9Z" fill="white" fill-opacity="0.5" stroke="white" stroke-width="0.5"/>
<path d="M216.753 131.9C217.36 131.9 217.852 131.404 217.852 130.793C217.852 130.182 217.36 129.687 216.753 129.687C216.147 129.687 215.655 130.182 215.655 130.793C215.655 131.404 216.147 131.9 216.753 131.9Z" fill="white" fill-opacity="0.5"/>
<path d="M236.29 131.9C236.897 131.9 237.389 131.404 237.389 130.793C237.389 130.182 236.897 129.687 236.29 129.687C235.684 129.687 235.192 130.182 235.192 130.793C235.192 131.404 235.684 131.9 236.29 131.9Z" fill="white" fill-opacity="0.5" stroke="white" stroke-width="0.5"/>
<path d="M255.827 131.9C256.434 131.9 256.926 131.404 256.926 130.793C256.926 130.182 256.434 129.687 255.827 129.687C255.221 129.687 254.729 130.182 254.729 130.793C254.729 131.404 255.221 131.9 255.827 131.9Z" fill="white" fill-opacity="0.5" stroke="white" stroke-width="0.5"/>
<path d="M275.364 131.9C275.971 131.9 276.463 131.404 276.463 130.793C276.463 130.182 275.971 129.687 275.364 129.687C274.758 129.687 274.266 130.182 274.266 130.793C274.266 131.404 274.758 131.9 275.364 131.9Z" fill="white" fill-opacity="0.5" stroke="white" stroke-width="0.5"/>
<path d="M294.901 131.9C295.508 131.9 296 131.404 296 130.793C296 130.182 295.508 129.687 294.901 129.687C294.295 129.687 293.802 130.182 293.802 130.793C293.802 131.404 294.295 131.9 294.901 131.9Z" fill="white" fill-opacity="0.5" stroke="white" stroke-width="0.5"/>
<path d="M314.438 131.9C315.045 131.9 315.537 131.404 315.537 130.793C315.537 130.182 315.045 129.687 314.438 129.687C313.831 129.687 313.339 130.182 313.339 130.793C313.339 131.404 313.831 131.9 314.438 131.9Z" fill="white" fill-opacity="0.5"/>
<path d="M333.975 131.9C334.582 131.9 335.074 131.404 335.074 130.793C335.074 130.182 334.582 129.687 333.975 129.687C333.368 129.687 332.876 130.182 332.876 130.793C332.876 131.404 333.368 131.9 333.975 131.9Z" fill="white" fill-opacity="0.5"/>
<path d="M353.513 131.9C354.12 131.9 354.612 131.404 354.612 130.793C354.612 130.182 354.12 129.687 353.513 129.687C352.906 129.687 352.414 130.182 352.414 130.793C352.414 131.404 352.906 131.9 353.513 131.9Z" fill="white" fill-opacity="0.5"/>
<path d="M1.84585 151.57C2.45278 151.57 2.9448 151.074 2.9448 150.463C2.9448 149.852 2.45278 149.357 1.84585 149.357C1.23891 149.357 0.746887 149.852 0.746887 150.463C0.746887 151.074 1.23891 151.57 1.84585 151.57Z" fill="white" fill-opacity="0.5"/>
<path d="M21.3831 151.57C21.99 151.57 22.482 151.074 22.482 150.463C22.482 149.852 21.99 149.357 21.3831 149.357C20.7761 149.357 20.2841 149.852 20.2841 150.463C20.2841 151.074 20.7761 151.57 21.3831 151.57Z" fill="white" fill-opacity="0.5"/>
<path d="M40.9198 151.57C41.5268 151.57 42.0188 151.074 42.0188 150.463C42.0188 149.852 41.5268 149.357 40.9198 149.357C40.3129 149.357 39.8209 149.852 39.8209 150.463C39.8209 151.074 40.3129 151.57 40.9198 151.57Z" fill="white" fill-opacity="0.5"/>
<path d="M60.4571 151.57C61.064 151.57 61.556 151.074 61.556 150.463C61.556 149.852 61.064 149.357 60.4571 149.357C59.8501 149.357 59.3581 149.852 59.3581 150.463C59.3581 151.074 59.8501 151.57 60.4571 151.57Z" fill="white" fill-opacity="0.5"/>
<path d="M79.994 151.57C80.601 151.57 81.093 151.074 81.093 150.463C81.093 149.852 80.601 149.357 79.994 149.357C79.3871 149.357 78.8951 149.852 78.8951 150.463C78.8951 151.074 79.3871 151.57 79.994 151.57Z" fill="white" fill-opacity="0.5"/>
<path d="M99.5313 151.57C100.138 151.57 100.63 151.074 100.63 150.463C100.63 149.852 100.138 149.357 99.5313 149.357C98.9244 149.357 98.4323 149.852 98.4323 150.463C98.4323 151.074 98.9244 151.57 99.5313 151.57Z" fill="white" fill-opacity="0.5" stroke="white" stroke-width="0.5"/>
<path d="M119.068 151.57C119.675 151.57 120.167 151.074 120.167 150.463C120.167 149.852 119.675 149.357 119.068 149.357C118.461 149.357 117.969 149.852 117.969 150.463C117.969 151.074 118.461 151.57 119.068 151.57Z" fill="white" fill-opacity="0.5"/>
<path d="M138.605 151.57C139.212 151.57 139.704 151.074 139.704 150.463C139.704 149.852 139.212 149.357 138.605 149.357C137.998 149.357 137.506 149.852 137.506 150.463C137.506 151.074 137.998 151.57 138.605 151.57Z" fill="white" fill-opacity="0.5"/>
<path d="M158.142 151.57C158.749 151.57 159.241 151.074 159.241 150.463C159.241 149.852 158.749 149.357 158.142 149.357C157.535 149.357 157.043 149.852 157.043 150.463C157.043 151.074 157.535 151.57 158.142 151.57Z" fill="white" fill-opacity="0.5" stroke="white" stroke-width="0.5"/>
<path d="M177.679 151.57C178.286 151.57 178.778 151.074 178.778 150.463C178.778 149.852 178.286 149.357 177.679 149.357C177.072 149.357 176.58 149.852 176.58 150.463C176.58 151.074 177.072 151.57 177.679 151.57Z" fill="white" fill-opacity="0.5" stroke="white" stroke-width="0.5"/>
<path d="M197.216 151.57C197.823 151.57 198.315 151.074 198.315 150.463C198.315 149.852 197.823 149.357 197.216 149.357C196.609 149.357 196.117 149.852 196.117 150.463C196.117 151.074 196.609 151.57 197.216 151.57Z" fill="white" fill-opacity="0.5"/>
<path d="M216.753 151.57C217.36 151.57 217.852 151.074 217.852 150.463C217.852 149.852 217.36 149.357 216.753 149.357C216.147 149.357 215.655 149.852 215.655 150.463C215.655 151.074 216.147 151.57 216.753 151.57Z" fill="white" fill-opacity="0.5" stroke="white" stroke-width="0.5"/>
<path d="M236.29 151.57C236.897 151.57 237.389 151.074 237.389 150.463C237.389 149.852 236.897 149.357 236.29 149.357C235.684 149.357 235.192 149.852 235.192 150.463C235.192 151.074 235.684 151.57 236.29 151.57Z" fill="white" fill-opacity="0.5"/>
<path d="M255.827 151.57C256.434 151.57 256.926 151.074 256.926 150.463C256.926 149.852 256.434 149.357 255.827 149.357C255.221 149.357 254.729 149.852 254.729 150.463C254.729 151.074 255.221 151.57 255.827 151.57Z" fill="white" fill-opacity="0.5"/>
<path d="M275.364 151.57C275.971 151.57 276.463 151.074 276.463 150.463C276.463 149.852 275.971 149.357 275.364 149.357C274.758 149.357 274.266 149.852 274.266 150.463C274.266 151.074 274.758 151.57 275.364 151.57Z" fill="white" fill-opacity="0.5"/>
<path d="M294.901 151.57C295.508 151.57 296 151.074 296 150.463C296 149.852 295.508 149.357 294.901 149.357C294.295 149.357 293.802 149.852 293.802 150.463C293.802 151.074 294.295 151.57 294.901 151.57Z" fill="white" fill-opacity="0.5"/>
<path d="M314.438 151.57C315.045 151.57 315.537 151.074 315.537 150.463C315.537 149.852 315.045 149.357 314.438 149.357C313.831 149.357 313.339 149.852 313.339 150.463C313.339 151.074 313.831 151.57 314.438 151.57Z" fill="white" fill-opacity="0.5"/>
<path d="M333.975 151.57C334.582 151.57 335.074 151.074 335.074 150.463C335.074 149.852 334.582 149.357 333.975 149.357C333.368 149.357 332.876 149.852 332.876 150.463C332.876 151.074 333.368 151.57 333.975 151.57Z" fill="white" fill-opacity="0.5"/>
<path d="M353.513 151.57C354.12 151.57 354.612 151.074 354.612 150.463C354.612 149.852 354.12 149.357 353.513 149.357C352.906 149.357 352.414 149.852 352.414 150.463C352.414 151.074 352.906 151.57 353.513 151.57Z" fill="white" fill-opacity="0.5"/>
<path d="M1.84585 171.239C2.45278 171.239 2.9448 170.744 2.9448 170.133C2.9448 169.521 2.45278 169.026 1.84585 169.026C1.23891 169.026 0.746887 169.521 0.746887 170.133C0.746887 170.744 1.23891 171.239 1.84585 171.239Z" fill="white" fill-opacity="0.5"/>
<path d="M21.3831 171.239C21.99 171.239 22.482 170.744 22.482 170.133C22.482 169.521 21.99 169.026 21.3831 169.026C20.7761 169.026 20.2841 169.521 20.2841 170.133C20.2841 170.744 20.7761 171.239 21.3831 171.239Z" fill="white" fill-opacity="0.5"/>
<path d="M40.9198 171.239C41.5268 171.239 42.0188 170.744 42.0188 170.133C42.0188 169.521 41.5268 169.026 40.9198 169.026C40.3129 169.026 39.8209 169.521 39.8209 170.133C39.8209 170.744 40.3129 171.239 40.9198 171.239Z" fill="white" fill-opacity="0.5"/>
<path d="M60.4571 171.239C61.064 171.239 61.556 170.744 61.556 170.133C61.556 169.521 61.064 169.026 60.4571 169.026C59.8501 169.026 59.3581 169.521 59.3581 170.133C59.3581 170.744 59.8501 171.239 60.4571 171.239Z" fill="white" fill-opacity="0.5"/>
<path d="M79.994 171.239C80.601 171.239 81.093 170.744 81.093 170.133C81.093 169.521 80.601 169.026 79.994 169.026C79.3871 169.026 78.8951 169.521 78.8951 170.133C78.8951 170.744 79.3871 171.239 79.994 171.239Z" fill="white" fill-opacity="0.5" stroke="white" stroke-width="0.5"/>
<path d="M99.5313 171.239C100.138 171.239 100.63 170.744 100.63 170.133C100.63 169.521 100.138 169.026 99.5313 169.026C98.9244 169.026 98.4323 169.521 98.4323 170.133C98.4323 170.744 98.9244 171.239 99.5313 171.239Z" fill="white" fill-opacity="0.5" stroke="white" stroke-width="0.5"/>
<path d="M119.068 171.239C119.675 171.239 120.167 170.744 120.167 170.133C120.167 169.521 119.675 169.026 119.068 169.026C118.461 169.026 117.969 169.521 117.969 170.133C117.969 170.744 118.461 171.239 119.068 171.239Z" fill="white" fill-opacity="0.5"/>
<path d="M138.605 171.239C139.212 171.239 139.704 170.744 139.704 170.133C139.704 169.521 139.212 169.026 138.605 169.026C137.998 169.026 137.506 169.521 137.506 170.133C137.506 170.744 137.998 171.239 138.605 171.239Z" fill="white" fill-opacity="0.5" stroke="white" stroke-width="0.5"/>
<path d="M158.142 171.239C158.749 171.239 159.241 170.744 159.241 170.133C159.241 169.521 158.749 169.026 158.142 169.026C157.535 169.026 157.043 169.521 157.043 170.133C157.043 170.744 157.535 171.239 158.142 171.239Z" fill="white" fill-opacity="0.5" stroke="white" stroke-width="0.5"/>
<path d="M177.679 171.239C178.286 171.239 178.778 170.744 178.778 170.133C178.778 169.521 178.286 169.026 177.679 169.026C177.072 169.026 176.58 169.521 176.58 170.133C176.58 170.744 177.072 171.239 177.679 171.239Z" fill="white" fill-opacity="0.5"/>
<path d="M197.216 171.239C197.823 171.239 198.315 170.744 198.315 170.133C198.315 169.521 197.823 169.026 197.216 169.026C196.609 169.026 196.117 169.521 196.117 170.133C196.117 170.744 196.609 171.239 197.216 171.239Z" fill="white" fill-opacity="0.5"/>
<path d="M216.753 171.239C217.36 171.239 217.852 170.744 217.852 170.133C217.852 169.521 217.36 169.026 216.753 169.026C216.147 169.026 215.655 169.521 215.655 170.133C215.655 170.744 216.147 171.239 216.753 171.239Z" fill="white" fill-opacity="0.5"/>
<path d="M236.29 171.239C236.897 171.239 237.389 170.744 237.389 170.133C237.389 169.521 236.897 169.026 236.29 169.026C235.684 169.026 235.192 169.521 235.192 170.133C235.192 170.744 235.684 171.239 236.29 171.239Z" fill="white" fill-opacity="0.5"/>
<path d="M255.827 171.239C256.434 171.239 256.926 170.744 256.926 170.133C256.926 169.521 256.434 169.026 255.827 169.026C255.221 169.026 254.729 169.521 254.729 170.133C254.729 170.744 255.221 171.239 255.827 171.239Z" fill="white" fill-opacity="0.5"/>
<path d="M275.364 171.239C275.971 171.239 276.463 170.744 276.463 170.133C276.463 169.521 275.971 169.026 275.364 169.026C274.758 169.026 274.266 169.521 274.266 170.133C274.266 170.744 274.758 171.239 275.364 171.239Z" fill="white" fill-opacity="0.5"/>
<path d="M294.901 171.239C295.508 171.239 296 170.744 296 170.133C296 169.521 295.508 169.026 294.901 169.026C294.295 169.026 293.802 169.521 293.802 170.133C293.802 170.744 294.295 171.239 294.901 171.239Z" fill="white" fill-opacity="0.5"/>
<path d="M314.438 171.239C315.045 171.239 315.537 170.744 315.537 170.133C315.537 169.521 315.045 169.026 314.438 169.026C313.831 169.026 313.339 169.521 313.339 170.133C313.339 170.744 313.831 171.239 314.438 171.239Z" fill="white" fill-opacity="0.5"/>
<path d="M333.975 171.239C334.582 171.239 335.074 170.744 335.074 170.133C335.074 169.521 334.582 169.026 333.975 169.026C333.368 169.026 332.876 169.521 332.876 170.133C332.876 170.744 333.368 171.239 333.975 171.239Z" fill="white" fill-opacity="0.5"/>
<path d="M353.513 171.239C354.12 171.239 354.612 170.744 354.612 170.133C354.612 169.521 354.12 169.026 353.513 169.026C352.906 169.026 352.414 169.521 352.414 170.133C352.414 170.744 352.906 171.239 353.513 171.239Z" fill="white" fill-opacity="0.5"/>
<path d="M1.84585 190.909C2.45278 190.909 2.9448 190.413 2.9448 189.802C2.9448 189.191 2.45278 188.696 1.84585 188.696C1.23891 188.696 0.746887 189.191 0.746887 189.802C0.746887 190.413 1.23891 190.909 1.84585 190.909Z" fill="white" fill-opacity="0.5"/>
<path d="M21.3831 190.909C21.99 190.909 22.482 190.413 22.482 189.802C22.482 189.191 21.99 188.696 21.3831 188.696C20.7761 188.696 20.2841 189.191 20.2841 189.802C20.2841 190.413 20.7761 190.909 21.3831 190.909Z" fill="white" fill-opacity="0.5"/>
<path d="M40.9198 190.909C41.5268 190.909 42.0188 190.413 42.0188 189.802C42.0188 189.191 41.5268 188.696 40.9198 188.696C40.3129 188.696 39.8209 189.191 39.8209 189.802C39.8209 190.413 40.3129 190.909 40.9198 190.909Z" fill="white" fill-opacity="0.5"/>
<path d="M60.4571 190.909C61.064 190.909 61.556 190.413 61.556 189.802C61.556 189.191 61.064 188.696 60.4571 188.696C59.8501 188.696 59.3581 189.191 59.3581 189.802C59.3581 190.413 59.8501 190.909 60.4571 190.909Z" fill="white" fill-opacity="0.5"/>
<path d="M79.994 190.909C80.601 190.909 81.093 190.413 81.093 189.802C81.093 189.191 80.601 188.696 79.994 188.696C79.3871 188.696 78.8951 189.191 78.8951 189.802C78.8951 190.413 79.3871 190.909 79.994 190.909Z" fill="white" fill-opacity="0.5"/>
<path d="M99.5313 190.909C100.138 190.909 100.63 190.413 100.63 189.802C100.63 189.191 100.138 188.696 99.5313 188.696C98.9244 188.696 98.4323 189.191 98.4323 189.802C98.4323 190.413 98.9244 190.909 99.5313 190.909Z" fill="white" fill-opacity="0.5" stroke="white" stroke-width="0.5"/>
<path d="M119.068 190.909C119.675 190.909 120.167 190.413 120.167 189.802C120.167 189.191 119.675 188.696 119.068 188.696C118.461 188.696 117.969 189.191 117.969 189.802C117.969 190.413 118.461 190.909 119.068 190.909Z" fill="white" fill-opacity="0.5"/>
<path d="M138.605 190.909C139.212 190.909 139.704 190.413 139.704 189.802C139.704 189.191 139.212 188.696 138.605 188.696C137.998 188.696 137.506 189.191 137.506 189.802C137.506 190.413 137.998 190.909 138.605 190.909Z" fill="white" fill-opacity="0.5" stroke="white" stroke-width="0.5"/>
<path d="M158.142 190.909C158.749 190.909 159.241 190.413 159.241 189.802C159.241 189.191 158.749 188.696 158.142 188.696C157.535 188.696 157.043 189.191 157.043 189.802C157.043 190.413 157.535 190.909 158.142 190.909Z" fill="white" fill-opacity="0.5"/>
<path d="M177.679 190.909C178.286 190.909 178.778 190.413 178.778 189.802C178.778 189.191 178.286 188.696 177.679 188.696C177.072 188.696 176.58 189.191 176.58 189.802C176.58 190.413 177.072 190.909 177.679 190.909Z" fill="white" fill-opacity="0.5"/>
<path d="M197.216 190.909C197.823 190.909 198.315 190.413 198.315 189.802C198.315 189.191 197.823 188.696 197.216 188.696C196.609 188.696 196.117 189.191 196.117 189.802C196.117 190.413 196.609 190.909 197.216 190.909Z" fill="white" fill-opacity="0.5"/>
<path d="M216.753 190.909C217.36 190.909 217.852 190.413 217.852 189.802C217.852 189.191 217.36 188.696 216.753 188.696C216.147 188.696 215.655 189.191 215.655 189.802C215.655 190.413 216.147 190.909 216.753 190.909Z" fill="white" fill-opacity="0.5" stroke="white" stroke-width="0.5"/>
<path d="M236.29 190.909C236.897 190.909 237.389 190.413 237.389 189.802C237.389 189.191 236.897 188.696 236.29 188.696C235.684 188.696 235.192 189.191 235.192 189.802C235.192 190.413 235.684 190.909 236.29 190.909Z" fill="white" fill-opacity="0.5"/>
<path d="M255.827 190.909C256.434 190.909 256.926 190.413 256.926 189.802C256.926 189.191 256.434 188.696 255.827 188.696C255.221 188.696 254.729 189.191 254.729 189.802C254.729 190.413 255.221 190.909 255.827 190.909Z" fill="white" fill-opacity="0.5"/>
<path d="M275.364 190.909C275.971 190.909 276.463 190.413 276.463 189.802C276.463 189.191 275.971 188.696 275.364 188.696C274.758 188.696 274.266 189.191 274.266 189.802C274.266 190.413 274.758 190.909 275.364 190.909Z" fill="white" fill-opacity="0.5"/>
<path d="M294.901 190.909C295.508 190.909 296 190.413 296 189.802C296 189.191 295.508 188.696 294.901 188.696C294.295 188.696 293.802 189.191 293.802 189.802C293.802 190.413 294.295 190.909 294.901 190.909Z" fill="white" fill-opacity="0.5"/>
<path d="M314.438 190.909C315.045 190.909 315.537 190.413 315.537 189.802C315.537 189.191 315.045 188.696 314.438 188.696C313.831 188.696 313.339 189.191 313.339 189.802C313.339 190.413 313.831 190.909 314.438 190.909Z" fill="white" fill-opacity="0.5" stroke="white" stroke-width="0.5"/>
<path d="M333.975 190.909C334.582 190.909 335.074 190.413 335.074 189.802C335.074 189.191 334.582 188.696 333.975 188.696C333.368 188.696 332.876 189.191 332.876 189.802C332.876 190.413 333.368 190.909 333.975 190.909Z" fill="white" fill-opacity="0.5"/>
<path d="M353.513 190.909C354.12 190.909 354.612 190.413 354.612 189.802C354.612 189.191 354.12 188.696 353.513 188.696C352.906 188.696 352.414 189.191 352.414 189.802C352.414 190.413 352.906 190.909 353.513 190.909Z" fill="white" fill-opacity="0.5"/>
<path d="M1.84585 210.578C2.45278 210.578 2.9448 210.083 2.9448 209.472C2.9448 208.861 2.45278 208.365 1.84585 208.365C1.23891 208.365 0.746887 208.861 0.746887 209.472C0.746887 210.083 1.23891 210.578 1.84585 210.578Z" fill="white" fill-opacity="0.5"/>
<path d="M21.3831 210.578C21.99 210.578 22.482 210.083 22.482 209.472C22.482 208.861 21.99 208.365 21.3831 208.365C20.7761 208.365 20.2841 208.861 20.2841 209.472C20.2841 210.083 20.7761 210.578 21.3831 210.578Z" fill="white" fill-opacity="0.5" stroke="white" stroke-width="0.5"/>
<path d="M40.9198 210.578C41.5268 210.578 42.0188 210.083 42.0188 209.472C42.0188 208.861 41.5268 208.365 40.9198 208.365C40.3129 208.365 39.8209 208.861 39.8209 209.472C39.8209 210.083 40.3129 210.578 40.9198 210.578Z" fill="white" fill-opacity="0.5"/>
<path d="M60.4571 210.578C61.064 210.578 61.556 210.083 61.556 209.472C61.556 208.861 61.064 208.365 60.4571 208.365C59.8501 208.365 59.3581 208.861 59.3581 209.472C59.3581 210.083 59.8501 210.578 60.4571 210.578Z" fill="white" fill-opacity="0.5"/>
<path d="M79.994 210.578C80.601 210.578 81.093 210.083 81.093 209.472C81.093 208.861 80.601 208.365 79.994 208.365C79.3871 208.365 78.8951 208.861 78.8951 209.472C78.8951 210.083 79.3871 210.578 79.994 210.578Z" fill="white" fill-opacity="0.5"/>
<path d="M99.5313 210.578C100.138 210.578 100.63 210.083 100.63 209.472C100.63 208.861 100.138 208.365 99.5313 208.365C98.9244 208.365 98.4323 208.861 98.4323 209.472C98.4323 210.083 98.9244 210.578 99.5313 210.578Z" fill="white" fill-opacity="0.5"/>
<path d="M119.068 210.578C119.675 210.578 120.167 210.083 120.167 209.472C120.167 208.861 119.675 208.365 119.068 208.365C118.461 208.365 117.969 208.861 117.969 209.472C117.969 210.083 118.461 210.578 119.068 210.578Z" fill="white" fill-opacity="0.5"/>
<path d="M138.605 210.578C139.212 210.578 139.704 210.083 139.704 209.472C139.704 208.861 139.212 208.365 138.605 208.365C137.998 208.365 137.506 208.861 137.506 209.472C137.506 210.083 137.998 210.578 138.605 210.578Z" fill="white" fill-opacity="0.5"/>
<path d="M158.142 210.578C158.749 210.578 159.241 210.083 159.241 209.472C159.241 208.861 158.749 208.365 158.142 208.365C157.535 208.365 157.043 208.861 157.043 209.472C157.043 210.083 157.535 210.578 158.142 210.578Z" fill="white" fill-opacity="0.5"/>
<path d="M177.679 210.578C178.286 210.578 178.778 210.083 178.778 209.472C178.778 208.861 178.286 208.365 177.679 208.365C177.072 208.365 176.58 208.861 176.58 209.472C176.58 210.083 177.072 210.578 177.679 210.578Z" fill="white" fill-opacity="0.5"/>
<path d="M197.216 210.578C197.823 210.578 198.315 210.083 198.315 209.472C198.315 208.861 197.823 208.365 197.216 208.365C196.609 208.365 196.117 208.861 196.117 209.472C196.117 210.083 196.609 210.578 197.216 210.578Z" fill="white" fill-opacity="0.5"/>
<path d="M216.753 210.578C217.36 210.578 217.852 210.083 217.852 209.472C217.852 208.861 217.36 208.365 216.753 208.365C216.147 208.365 215.655 208.861 215.655 209.472C215.655 210.083 216.147 210.578 216.753 210.578Z" fill="white" fill-opacity="0.5"/>
<path d="M236.29 210.578C236.897 210.578 237.389 210.083 237.389 209.472C237.389 208.861 236.897 208.365 236.29 208.365C235.684 208.365 235.192 208.861 235.192 209.472C235.192 210.083 235.684 210.578 236.29 210.578Z" fill="white" fill-opacity="0.5"/>
<path d="M255.827 210.578C256.434 210.578 256.926 210.083 256.926 209.472C256.926 208.861 256.434 208.365 255.827 208.365C255.221 208.365 254.729 208.861 254.729 209.472C254.729 210.083 255.221 210.578 255.827 210.578Z" fill="white" fill-opacity="0.5"/>
<path d="M275.364 210.578C275.971 210.578 276.463 210.083 276.463 209.472C276.463 208.861 275.971 208.365 275.364 208.365C274.758 208.365 274.266 208.861 274.266 209.472C274.266 210.083 274.758 210.578 275.364 210.578Z" fill="white" fill-opacity="0.5"/>
<path d="M294.901 210.578C295.508 210.578 296 210.083 296 209.472C296 208.861 295.508 208.365 294.901 208.365C294.295 208.365 293.802 208.861 293.802 209.472C293.802 210.083 294.295 210.578 294.901 210.578Z" fill="white" fill-opacity="0.5"/>
<path d="M314.438 210.578C315.045 210.578 315.537 210.083 315.537 209.472C315.537 208.861 315.045 208.365 314.438 208.365C313.831 208.365 313.339 208.861 313.339 209.472C313.339 210.083 313.831 210.578 314.438 210.578Z" fill="white" fill-opacity="0.5"/>
<path d="M333.975 210.578C334.582 210.578 335.074 210.083 335.074 209.472C335.074 208.861 334.582 208.365 333.975 208.365C333.368 208.365 332.876 208.861 332.876 209.472C332.876 210.083 333.368 210.578 333.975 210.578Z" fill="white" fill-opacity="0.5" stroke="white" stroke-width="0.5"/>
<path d="M353.513 210.578C354.12 210.578 354.612 210.083 354.612 209.472C354.612 208.861 354.12 208.365 353.513 208.365C352.906 208.365 352.414 208.861 352.414 209.472C352.414 210.083 352.906 210.578 353.513 210.578Z" fill="white" fill-opacity="0.5"/>
<path d="M1.84585 230.248C2.45278 230.248 2.9448 229.752 2.9448 229.141C2.9448 228.53 2.45278 228.035 1.84585 228.035C1.23891 228.035 0.746887 228.53 0.746887 229.141C0.746887 229.752 1.23891 230.248 1.84585 230.248Z" fill="white" fill-opacity="0.5"/>
<path d="M21.3831 230.248C21.99 230.248 22.482 229.752 22.482 229.141C22.482 228.53 21.99 228.035 21.3831 228.035C20.7761 228.035 20.2841 228.53 20.2841 229.141C20.2841 229.752 20.7761 230.248 21.3831 230.248Z" fill="white" fill-opacity="0.5"/>
<path d="M40.9198 230.248C41.5268 230.248 42.0188 229.752 42.0188 229.141C42.0188 228.53 41.5268 228.035 40.9198 228.035C40.3129 228.035 39.8209 228.53 39.8209 229.141C39.8209 229.752 40.3129 230.248 40.9198 230.248Z" fill="white" fill-opacity="0.5" stroke="white" stroke-width="0.5"/>
<path d="M60.4571 230.248C61.064 230.248 61.556 229.752 61.556 229.141C61.556 228.53 61.064 228.035 60.4571 228.035C59.8501 228.035 59.3581 228.53 59.3581 229.141C59.3581 229.752 59.8501 230.248 60.4571 230.248Z" fill="white" fill-opacity="0.5"/>
<path d="M79.994 230.248C80.601 230.248 81.093 229.752 81.093 229.141C81.093 228.53 80.601 228.035 79.994 228.035C79.3871 228.035 78.8951 228.53 78.8951 229.141C78.8951 229.752 79.3871 230.248 79.994 230.248Z" fill="white" fill-opacity="0.5"/>
<path d="M99.5313 230.248C100.138 230.248 100.63 229.752 100.63 229.141C100.63 228.53 100.138 228.035 99.5313 228.035C98.9244 228.035 98.4323 228.53 98.4323 229.141C98.4323 229.752 98.9244 230.248 99.5313 230.248Z" fill="white" fill-opacity="0.5"/>
<path d="M119.068 230.248C119.675 230.248 120.167 229.752 120.167 229.141C120.167 228.53 119.675 228.035 119.068 228.035C118.461 228.035 117.969 228.53 117.969 229.141C117.969 229.752 118.461 230.248 119.068 230.248Z" fill="white" fill-opacity="0.5"/>
<path d="M138.605 230.248C139.212 230.248 139.704 229.752 139.704 229.141C139.704 228.53 139.212 228.035 138.605 228.035C137.998 228.035 137.506 228.53 137.506 229.141C137.506 229.752 137.998 230.248 138.605 230.248Z" fill="white" fill-opacity="0.5"/>
<path d="M158.142 230.248C158.749 230.248 159.241 229.752 159.241 229.141C159.241 228.53 158.749 228.035 158.142 228.035C157.535 228.035 157.043 228.53 157.043 229.141C157.043 229.752 157.535 230.248 158.142 230.248Z" fill="white" fill-opacity="0.5"/>
<path d="M177.679 230.248C178.286 230.248 178.778 229.752 178.778 229.141C178.778 228.53 178.286 228.035 177.679 228.035C177.072 228.035 176.58 228.53 176.58 229.141C176.58 229.752 177.072 230.248 177.679 230.248Z" fill="white" fill-opacity="0.5" stroke="white" stroke-width="0.5"/>
<path d="M197.216 230.248C197.823 230.248 198.315 229.752 198.315 229.141C198.315 228.53 197.823 228.035 197.216 228.035C196.609 228.035 196.117 228.53 196.117 229.141C196.117 229.752 196.609 230.248 197.216 230.248Z" fill="white" fill-opacity="0.5" stroke="white" stroke-width="0.5"/>
<path d="M216.753 230.248C217.36 230.248 217.852 229.752 217.852 229.141C217.852 228.53 217.36 228.035 216.753 228.035C216.147 228.035 215.655 228.53 215.655 229.141C215.655 229.752 216.147 230.248 216.753 230.248Z" fill="white" fill-opacity="0.5"/>
<path d="M236.29 230.248C236.897 230.248 237.389 229.752 237.389 229.141C237.389 228.53 236.897 228.035 236.29 228.035C235.684 228.035 235.192 228.53 235.192 229.141C235.192 229.752 235.684 230.248 236.29 230.248Z" fill="white" fill-opacity="0.5"/>
<path d="M255.827 230.248C256.434 230.248 256.926 229.752 256.926 229.141C256.926 228.53 256.434 228.035 255.827 228.035C255.221 228.035 254.729 228.53 254.729 229.141C254.729 229.752 255.221 230.248 255.827 230.248Z" fill="white" fill-opacity="0.5"/>
<path d="M275.364 230.248C275.971 230.248 276.463 229.752 276.463 229.141C276.463 228.53 275.971 228.035 275.364 228.035C274.758 228.035 274.266 228.53 274.266 229.141C274.266 229.752 274.758 230.248 275.364 230.248Z" fill="white" fill-opacity="0.5"/>
<path d="M294.901 230.248C295.508 230.248 296 229.752 296 229.141C296 228.53 295.508 228.035 294.901 228.035C294.295 228.035 293.802 228.53 293.802 229.141C293.802 229.752 294.295 230.248 294.901 230.248Z" fill="white" fill-opacity="0.5"/>
<path d="M314.438 230.248C315.045 230.248 315.537 229.752 315.537 229.141C315.537 228.53 315.045 228.035 314.438 228.035C313.831 228.035 313.339 228.53 313.339 229.141C313.339 229.752 313.831 230.248 314.438 230.248Z" fill="white" fill-opacity="0.5" stroke="white" stroke-width="0.5"/>
<path d="M333.975 230.248C334.582 230.248 335.074 229.752 335.074 229.141C335.074 228.53 334.582 228.035 333.975 228.035C333.368 228.035 332.876 228.53 332.876 229.141C332.876 229.752 333.368 230.248 333.975 230.248Z" fill="white" fill-opacity="0.5"/>
<path d="M353.513 230.248C354.12 230.248 354.612 229.752 354.612 229.141C354.612 228.53 354.12 228.035 353.513 228.035C352.906 228.035 352.414 228.53 352.414 229.141C352.414 229.752 352.906 230.248 353.513 230.248Z" fill="white" fill-opacity="0.5"/>
<path d="M1.84585 249.917C2.45278 249.917 2.9448 249.422 2.9448 248.811C2.9448 248.2 2.45278 247.704 1.84585 247.704C1.23891 247.704 0.746887 248.2 0.746887 248.811C0.746887 249.422 1.23891 249.917 1.84585 249.917Z" fill="white" fill-opacity="0.5"/>
<path d="M21.3831 249.917C21.99 249.917 22.482 249.422 22.482 248.811C22.482 248.2 21.99 247.704 21.3831 247.704C20.7761 247.704 20.2841 248.2 20.2841 248.811C20.2841 249.422 20.7761 249.917 21.3831 249.917Z" fill="white" fill-opacity="0.5"/>
<path d="M40.9198 249.917C41.5268 249.917 42.0188 249.422 42.0188 248.811C42.0188 248.2 41.5268 247.704 40.9198 247.704C40.3129 247.704 39.8209 248.2 39.8209 248.811C39.8209 249.422 40.3129 249.917 40.9198 249.917Z" fill="white" fill-opacity="0.5" stroke="white" stroke-width="0.5"/>
<path d="M60.4571 249.917C61.064 249.917 61.556 249.422 61.556 248.811C61.556 248.2 61.064 247.704 60.4571 247.704C59.8501 247.704 59.3581 248.2 59.3581 248.811C59.3581 249.422 59.8501 249.917 60.4571 249.917Z" fill="white" fill-opacity="0.5"/>
<path d="M79.994 249.917C80.601 249.917 81.093 249.422 81.093 248.811C81.093 248.2 80.601 247.704 79.994 247.704C79.3871 247.704 78.8951 248.2 78.8951 248.811C78.8951 249.422 79.3871 249.917 79.994 249.917Z" fill="white" fill-opacity="0.5"/>
<path d="M99.5313 249.917C100.138 249.917 100.63 249.422 100.63 248.811C100.63 248.2 100.138 247.704 99.5313 247.704C98.9244 247.704 98.4323 248.2 98.4323 248.811C98.4323 249.422 98.9244 249.917 99.5313 249.917Z" fill="white" fill-opacity="0.5"/>
<path d="M119.068 249.917C119.675 249.917 120.167 249.422 120.167 248.811C120.167 248.2 119.675 247.704 119.068 247.704C118.461 247.704 117.969 248.2 117.969 248.811C117.969 249.422 118.461 249.917 119.068 249.917Z" fill="white" fill-opacity="0.5"/>
<path d="M138.605 249.917C139.212 249.917 139.704 249.422 139.704 248.811C139.704 248.2 139.212 247.704 138.605 247.704C137.998 247.704 137.506 248.2 137.506 248.811C137.506 249.422 137.998 249.917 138.605 249.917Z" fill="white" fill-opacity="0.5"/>
<path d="M158.142 249.917C158.749 249.917 159.241 249.422 159.241 248.811C159.241 248.2 158.749 247.704 158.142 247.704C157.535 247.704 157.043 248.2 157.043 248.811C157.043 249.422 157.535 249.917 158.142 249.917Z" fill="white" fill-opacity="0.5" stroke="white" stroke-width="0.5"/>
<path d="M177.679 249.917C178.286 249.917 178.778 249.422 178.778 248.811C178.778 248.2 178.286 247.704 177.679 247.704C177.072 247.704 176.58 248.2 176.58 248.811C176.58 249.422 177.072 249.917 177.679 249.917Z" fill="white" fill-opacity="0.5"/>
<path d="M197.216 249.917C197.823 249.917 198.315 249.422 198.315 248.811C198.315 248.2 197.823 247.704 197.216 247.704C196.609 247.704 196.117 248.2 196.117 248.811C196.117 249.422 196.609 249.917 197.216 249.917Z" fill="white" fill-opacity="0.5"/>
<path d="M216.753 249.917C217.36 249.917 217.852 249.422 217.852 248.811C217.852 248.2 217.36 247.704 216.753 247.704C216.147 247.704 215.655 248.2 215.655 248.811C215.655 249.422 216.147 249.917 216.753 249.917Z" fill="white" fill-opacity="0.5" stroke="white" stroke-width="0.5"/>
<path d="M236.29 249.917C236.897 249.917 237.389 249.422 237.389 248.811C237.389 248.2 236.897 247.704 236.29 247.704C235.684 247.704 235.192 248.2 235.192 248.811C235.192 249.422 235.684 249.917 236.29 249.917Z" fill="white" fill-opacity="0.5" stroke="white" stroke-width="0.5"/>
<path d="M255.827 249.917C256.434 249.917 256.926 249.422 256.926 248.811C256.926 248.2 256.434 247.704 255.827 247.704C255.221 247.704 254.729 248.2 254.729 248.811C254.729 249.422 255.221 249.917 255.827 249.917Z" fill="white" fill-opacity="0.5" stroke="white" stroke-width="0.5"/>
<path d="M275.364 249.917C275.971 249.917 276.463 249.422 276.463 248.811C276.463 248.2 275.971 247.704 275.364 247.704C274.758 247.704 274.266 248.2 274.266 248.811C274.266 249.422 274.758 249.917 275.364 249.917Z" fill="white" fill-opacity="0.5"/>
<path d="M294.901 249.917C295.508 249.917 296 249.422 296 248.811C296 248.2 295.508 247.704 294.901 247.704C294.295 247.704 293.802 248.2 293.802 248.811C293.802 249.422 294.295 249.917 294.901 249.917Z" fill="white" fill-opacity="0.5"/>
<path d="M314.438 249.917C315.045 249.917 315.537 249.422 315.537 248.811C315.537 248.2 315.045 247.704 314.438 247.704C313.831 247.704 313.339 248.2 313.339 248.811C313.339 249.422 313.831 249.917 314.438 249.917Z" fill="white" fill-opacity="0.5"/>
<path d="M333.975 249.917C334.582 249.917 335.074 249.422 335.074 248.811C335.074 248.2 334.582 247.704 333.975 247.704C333.368 247.704 332.876 248.2 332.876 248.811C332.876 249.422 333.368 249.917 333.975 249.917Z" fill="white" fill-opacity="0.5"/>
<path d="M353.513 249.917C354.12 249.917 354.612 249.422 354.612 248.811C354.612 248.2 354.12 247.704 353.513 247.704C352.906 247.704 352.414 248.2 352.414 248.811C352.414 249.422 352.906 249.917 353.513 249.917Z" fill="white" fill-opacity="0.5"/>
<path d="M1.84585 269.587C2.45278 269.587 2.9448 269.091 2.9448 268.48C2.9448 267.869 2.45278 267.374 1.84585 267.374C1.23891 267.374 0.746887 267.869 0.746887 268.48C0.746887 269.091 1.23891 269.587 1.84585 269.587Z" fill="white" fill-opacity="0.5"/>
<path d="M21.3831 269.587C21.99 269.587 22.482 269.091 22.482 268.48C22.482 267.869 21.99 267.374 21.3831 267.374C20.7761 267.374 20.2841 267.869 20.2841 268.48C20.2841 269.091 20.7761 269.587 21.3831 269.587Z" fill="white" fill-opacity="0.5"/>
<path d="M40.9198 269.587C41.5268 269.587 42.0188 269.091 42.0188 268.48C42.0188 267.869 41.5268 267.374 40.9198 267.374C40.3129 267.374 39.8209 267.869 39.8209 268.48C39.8209 269.091 40.3129 269.587 40.9198 269.587Z" fill="white" fill-opacity="0.5"/>
<path d="M60.4571 269.587C61.064 269.587 61.556 269.091 61.556 268.48C61.556 267.869 61.064 267.374 60.4571 267.374C59.8501 267.374 59.3581 267.869 59.3581 268.48C59.3581 269.091 59.8501 269.587 60.4571 269.587Z" fill="white" fill-opacity="0.5" stroke="white" stroke-width="0.5"/>
<path d="M79.994 269.587C80.601 269.587 81.093 269.091 81.093 268.48C81.093 267.869 80.601 267.374 79.994 267.374C79.3871 267.374 78.8951 267.869 78.8951 268.48C78.8951 269.091 79.3871 269.587 79.994 269.587Z" fill="white" fill-opacity="0.5" stroke="white" stroke-width="0.5"/>
<path d="M99.5313 269.587C100.138 269.587 100.63 269.091 100.63 268.48C100.63 267.869 100.138 267.374 99.5313 267.374C98.9244 267.374 98.4323 267.869 98.4323 268.48C98.4323 269.091 98.9244 269.587 99.5313 269.587Z" fill="white" fill-opacity="0.5"/>
<path d="M119.068 269.587C119.675 269.587 120.167 269.091 120.167 268.48C120.167 267.869 119.675 267.374 119.068 267.374C118.461 267.374 117.969 267.869 117.969 268.48C117.969 269.091 118.461 269.587 119.068 269.587Z" fill="white" fill-opacity="0.5"/>
<path d="M138.605 269.587C139.212 269.587 139.704 269.091 139.704 268.48C139.704 267.869 139.212 267.374 138.605 267.374C137.998 267.374 137.506 267.869 137.506 268.48C137.506 269.091 137.998 269.587 138.605 269.587Z" fill="white" fill-opacity="0.5"/>
<path d="M158.142 269.587C158.749 269.587 159.241 269.091 159.241 268.48C159.241 267.869 158.749 267.374 158.142 267.374C157.535 267.374 157.043 267.869 157.043 268.48C157.043 269.091 157.535 269.587 158.142 269.587Z" fill="white" fill-opacity="0.5"/>
<path d="M177.679 269.587C178.286 269.587 178.778 269.091 178.778 268.48C178.778 267.869 178.286 267.374 177.679 267.374C177.072 267.374 176.58 267.869 176.58 268.48C176.58 269.091 177.072 269.587 177.679 269.587Z" fill="white" fill-opacity="0.5" stroke="white" stroke-width="0.5"/>
<path d="M197.216 269.587C197.823 269.587 198.315 269.091 198.315 268.48C198.315 267.869 197.823 267.374 197.216 267.374C196.609 267.374 196.117 267.869 196.117 268.48C196.117 269.091 196.609 269.587 197.216 269.587Z" fill="white" fill-opacity="0.5"/>
<path d="M216.753 269.587C217.36 269.587 217.852 269.091 217.852 268.48C217.852 267.869 217.36 267.374 216.753 267.374C216.147 267.374 215.655 267.869 215.655 268.48C215.655 269.091 216.147 269.587 216.753 269.587Z" fill="white" fill-opacity="0.5"/>
<path d="M236.29 269.587C236.897 269.587 237.389 269.091 237.389 268.48C237.389 267.869 236.897 267.374 236.29 267.374C235.684 267.374 235.192 267.869 235.192 268.48C235.192 269.091 235.684 269.587 236.29 269.587Z" fill="white" fill-opacity="0.5"/>
<path d="M255.827 269.587C256.434 269.587 256.926 269.091 256.926 268.48C256.926 267.869 256.434 267.374 255.827 267.374C255.221 267.374 254.729 267.869 254.729 268.48C254.729 269.091 255.221 269.587 255.827 269.587Z" fill="white" fill-opacity="0.5"/>
<path d="M275.364 269.587C275.971 269.587 276.463 269.091 276.463 268.48C276.463 267.869 275.971 267.374 275.364 267.374C274.758 267.374 274.266 267.869 274.266 268.48C274.266 269.091 274.758 269.587 275.364 269.587Z" fill="white" fill-opacity="0.5" stroke="white" stroke-width="0.5"/>
<path d="M294.901 269.587C295.508 269.587 296 269.091 296 268.48C296 267.869 295.508 267.374 294.901 267.374C294.295 267.374 293.802 267.869 293.802 268.48C293.802 269.091 294.295 269.587 294.901 269.587Z" fill="white" fill-opacity="0.5"/>
<path d="M314.438 269.587C315.045 269.587 315.537 269.091 315.537 268.48C315.537 267.869 315.045 267.374 314.438 267.374C313.831 267.374 313.339 267.869 313.339 268.48C313.339 269.091 313.831 269.587 314.438 269.587Z" fill="white" fill-opacity="0.5"/>
<path d="M333.975 269.587C334.582 269.587 335.074 269.091 335.074 268.48C335.074 267.869 334.582 267.374 333.975 267.374C333.368 267.374 332.876 267.869 332.876 268.48C332.876 269.091 333.368 269.587 333.975 269.587Z" fill="white" fill-opacity="0.5"/>
<path d="M353.513 269.587C354.12 269.587 354.612 269.091 354.612 268.48C354.612 267.869 354.12 267.374 353.513 267.374C352.906 267.374 352.414 267.869 352.414 268.48C352.414 269.091 352.906 269.587 353.513 269.587Z" fill="white" fill-opacity="0.5"/>
<path d="M1.84585 289.256C2.45278 289.256 2.9448 288.761 2.9448 288.15C2.9448 287.539 2.45278 287.044 1.84585 287.044C1.23891 287.044 0.746887 287.539 0.746887 288.15C0.746887 288.761 1.23891 289.256 1.84585 289.256Z" fill="white" fill-opacity="0.5"/>
<path d="M21.3831 289.256C21.99 289.256 22.482 288.761 22.482 288.15C22.482 287.539 21.99 287.044 21.3831 287.044C20.7761 287.044 20.2841 287.539 20.2841 288.15C20.2841 288.761 20.7761 289.256 21.3831 289.256Z" fill="white" fill-opacity="0.5"/>
<path d="M40.9198 289.256C41.5268 289.256 42.0188 288.761 42.0188 288.15C42.0188 287.539 41.5268 287.044 40.9198 287.044C40.3129 287.044 39.8209 287.539 39.8209 288.15C39.8209 288.761 40.3129 289.256 40.9198 289.256Z" fill="white" fill-opacity="0.5"/>
<path d="M60.4571 289.256C61.064 289.256 61.556 288.761 61.556 288.15C61.556 287.539 61.064 287.044 60.4571 287.044C59.8501 287.044 59.3581 287.539 59.3581 288.15C59.3581 288.761 59.8501 289.256 60.4571 289.256Z" fill="white" fill-opacity="0.5"/>
<path d="M79.994 289.256C80.601 289.256 81.093 288.761 81.093 288.15C81.093 287.539 80.601 287.044 79.994 287.044C79.3871 287.044 78.8951 287.539 78.8951 288.15C78.8951 288.761 79.3871 289.256 79.994 289.256Z" fill="white" fill-opacity="0.5"/>
<path d="M99.5313 289.256C100.138 289.256 100.63 288.761 100.63 288.15C100.63 287.539 100.138 287.044 99.5313 287.044C98.9244 287.044 98.4323 287.539 98.4323 288.15C98.4323 288.761 98.9244 289.256 99.5313 289.256Z" fill="white" fill-opacity="0.5" stroke="white" stroke-width="0.5"/>
<path d="M119.068 289.256C119.675 289.256 120.167 288.761 120.167 288.15C120.167 287.539 119.675 287.044 119.068 287.044C118.461 287.044 117.969 287.539 117.969 288.15C117.969 288.761 118.461 289.256 119.068 289.256Z" fill="white" fill-opacity="0.5"/>
<path d="M138.605 289.256C139.212 289.256 139.704 288.761 139.704 288.15C139.704 287.539 139.212 287.044 138.605 287.044C137.998 287.044 137.506 287.539 137.506 288.15C137.506 288.761 137.998 289.256 138.605 289.256Z" fill="white" fill-opacity="0.5"/>
<path d="M158.142 289.256C158.749 289.256 159.241 288.761 159.241 288.15C159.241 287.539 158.749 287.044 158.142 287.044C157.535 287.044 157.043 287.539 157.043 288.15C157.043 288.761 157.535 289.256 158.142 289.256Z" fill="white" fill-opacity="0.5"/>
<path d="M177.679 289.256C178.286 289.256 178.778 288.761 178.778 288.15C178.778 287.539 178.286 287.044 177.679 287.044C177.072 287.044 176.58 287.539 176.58 288.15C176.58 288.761 177.072 289.256 177.679 289.256Z" fill="white" fill-opacity="0.5"/>
<path d="M197.216 289.256C197.823 289.256 198.315 288.761 198.315 288.15C198.315 287.539 197.823 287.044 197.216 287.044C196.609 287.044 196.117 287.539 196.117 288.15C196.117 288.761 196.609 289.256 197.216 289.256Z" fill="white" fill-opacity="0.5"/>
<path d="M216.753 289.256C217.36 289.256 217.852 288.761 217.852 288.15C217.852 287.539 217.36 287.044 216.753 287.044C216.147 287.044 215.655 287.539 215.655 288.15C215.655 288.761 216.147 289.256 216.753 289.256Z" fill="white" fill-opacity="0.5"/>
<path d="M236.29 289.256C236.897 289.256 237.389 288.761 237.389 288.15C237.389 287.539 236.897 287.044 236.29 287.044C235.684 287.044 235.192 287.539 235.192 288.15C235.192 288.761 235.684 289.256 236.29 289.256Z" fill="white" fill-opacity="0.5"/>
<path d="M255.827 289.256C256.434 289.256 256.926 288.761 256.926 288.15C256.926 287.539 256.434 287.044 255.827 287.044C255.221 287.044 254.729 287.539 254.729 288.15C254.729 288.761 255.221 289.256 255.827 289.256Z" fill="white" fill-opacity="0.5"/>
<path d="M275.364 289.256C275.971 289.256 276.463 288.761 276.463 288.15C276.463 287.539 275.971 287.044 275.364 287.044C274.758 287.044 274.266 287.539 274.266 288.15C274.266 288.761 274.758 289.256 275.364 289.256Z" fill="white" fill-opacity="0.5"/>
<path d="M294.901 289.256C295.508 289.256 296 288.761 296 288.15C296 287.539 295.508 287.044 294.901 287.044C294.295 287.044 293.802 287.539 293.802 288.15C293.802 288.761 294.295 289.256 294.901 289.256Z" fill="white" fill-opacity="0.5"/>
<path d="M314.438 289.256C315.045 289.256 315.537 288.761 315.537 288.15C315.537 287.539 315.045 287.044 314.438 287.044C313.831 287.044 313.339 287.539 313.339 288.15C313.339 288.761 313.831 289.256 314.438 289.256Z" fill="white" fill-opacity="0.5"/>
<path d="M333.975 289.256C334.582 289.256 335.074 288.761 335.074 288.15C335.074 287.539 334.582 287.044 333.975 287.044C333.368 287.044 332.876 287.539 332.876 288.15C332.876 288.761 333.368 289.256 333.975 289.256Z" fill="white" fill-opacity="0.5"/>
<path d="M353.513 289.256C354.12 289.256 354.612 288.761 354.612 288.15C354.612 287.539 354.12 287.044 353.513 287.044C352.906 287.044 352.414 287.539 352.414 288.15C352.414 288.761 352.906 289.256 353.513 289.256Z" fill="white" fill-opacity="0.5"/>
<path d="M1.84585 308.926C2.45278 308.926 2.9448 308.431 2.9448 307.82C2.9448 307.208 2.45278 306.713 1.84585 306.713C1.23891 306.713 0.746887 307.208 0.746887 307.82C0.746887 308.431 1.23891 308.926 1.84585 308.926Z" fill="white" fill-opacity="0.5"/>
<path d="M21.3831 308.926C21.99 308.926 22.482 308.431 22.482 307.82C22.482 307.208 21.99 306.713 21.3831 306.713C20.7761 306.713 20.2841 307.208 20.2841 307.82C20.2841 308.431 20.7761 308.926 21.3831 308.926Z" fill="white" fill-opacity="0.5"/>
<path d="M40.9198 308.926C41.5268 308.926 42.0188 308.431 42.0188 307.82C42.0188 307.208 41.5268 306.713 40.9198 306.713C40.3129 306.713 39.8209 307.208 39.8209 307.82C39.8209 308.431 40.3129 308.926 40.9198 308.926Z" fill="white" fill-opacity="0.5"/>
<path d="M60.4571 308.926C61.064 308.926 61.556 308.431 61.556 307.82C61.556 307.208 61.064 306.713 60.4571 306.713C59.8501 306.713 59.3581 307.208 59.3581 307.82C59.3581 308.431 59.8501 308.926 60.4571 308.926Z" fill="white" fill-opacity="0.5" stroke="white" stroke-width="0.5"/>
<path d="M79.994 308.926C80.601 308.926 81.093 308.431 81.093 307.82C81.093 307.208 80.601 306.713 79.994 306.713C79.3871 306.713 78.8951 307.208 78.8951 307.82C78.8951 308.431 79.3871 308.926 79.994 308.926Z" fill="white" fill-opacity="0.5"/>
<path d="M99.5313 308.926C100.138 308.926 100.63 308.431 100.63 307.82C100.63 307.208 100.138 306.713 99.5313 306.713C98.9244 306.713 98.4323 307.208 98.4323 307.82C98.4323 308.431 98.9244 308.926 99.5313 308.926Z" fill="white" fill-opacity="0.5"/>
<path d="M119.068 308.926C119.675 308.926 120.167 308.431 120.167 307.82C120.167 307.208 119.675 306.713 119.068 306.713C118.461 306.713 117.969 307.208 117.969 307.82C117.969 308.431 118.461 308.926 119.068 308.926Z" fill="white" fill-opacity="0.5"/>
<path d="M138.605 308.926C139.212 308.926 139.704 308.431 139.704 307.82C139.704 307.208 139.212 306.713 138.605 306.713C137.998 306.713 137.506 307.208 137.506 307.82C137.506 308.431 137.998 308.926 138.605 308.926Z" fill="white" fill-opacity="0.5"/>
<path d="M158.142 308.926C158.749 308.926 159.241 308.431 159.241 307.82C159.241 307.208 158.749 306.713 158.142 306.713C157.535 306.713 157.043 307.208 157.043 307.82C157.043 308.431 157.535 308.926 158.142 308.926Z" fill="white" fill-opacity="0.5" stroke="white" stroke-width="0.5"/>
<path d="M177.679 308.926C178.286 308.926 178.778 308.431 178.778 307.82C178.778 307.208 178.286 306.713 177.679 306.713C177.072 306.713 176.58 307.208 176.58 307.82C176.58 308.431 177.072 308.926 177.679 308.926Z" fill="white" fill-opacity="0.5"/>
<path d="M197.216 308.926C197.823 308.926 198.315 308.431 198.315 307.82C198.315 307.208 197.823 306.713 197.216 306.713C196.609 306.713 196.117 307.208 196.117 307.82C196.117 308.431 196.609 308.926 197.216 308.926Z" fill="white" fill-opacity="0.5" stroke="white" stroke-width="0.5"/>
<path d="M216.753 308.926C217.36 308.926 217.852 308.431 217.852 307.82C217.852 307.208 217.36 306.713 216.753 306.713C216.147 306.713 215.655 307.208 215.655 307.82C215.655 308.431 216.147 308.926 216.753 308.926Z" fill="white" fill-opacity="0.5"/>
<path d="M236.29 308.926C236.897 308.926 237.389 308.431 237.389 307.82C237.389 307.208 236.897 306.713 236.29 306.713C235.684 306.713 235.192 307.208 235.192 307.82C235.192 308.431 235.684 308.926 236.29 308.926Z" fill="white" fill-opacity="0.5"/>
<path d="M255.827 308.926C256.434 308.926 256.926 308.431 256.926 307.82C256.926 307.208 256.434 306.713 255.827 306.713C255.221 306.713 254.729 307.208 254.729 307.82C254.729 308.431 255.221 308.926 255.827 308.926Z" fill="white" fill-opacity="0.5"/>
<path d="M275.364 308.926C275.971 308.926 276.463 308.431 276.463 307.82C276.463 307.208 275.971 306.713 275.364 306.713C274.758 306.713 274.266 307.208 274.266 307.82C274.266 308.431 274.758 308.926 275.364 308.926Z" fill="white" fill-opacity="0.5" stroke="white" stroke-width="0.5"/>
<path d="M294.901 308.926C295.508 308.926 296 308.431 296 307.82C296 307.208 295.508 306.713 294.901 306.713C294.295 306.713 293.802 307.208 293.802 307.82C293.802 308.431 294.295 308.926 294.901 308.926Z" fill="white" fill-opacity="0.5"/>
<path d="M314.438 308.926C315.045 308.926 315.537 308.431 315.537 307.82C315.537 307.208 315.045 306.713 314.438 306.713C313.831 306.713 313.339 307.208 313.339 307.82C313.339 308.431 313.831 308.926 314.438 308.926Z" fill="white" fill-opacity="0.5"/>
<path d="M333.975 308.926C334.582 308.926 335.074 308.431 335.074 307.82C335.074 307.208 334.582 306.713 333.975 306.713C333.368 306.713 332.876 307.208 332.876 307.82C332.876 308.431 333.368 308.926 333.975 308.926Z" fill="white" fill-opacity="0.5" stroke="white" stroke-width="0.5"/>
<path d="M353.513 308.926C354.12 308.926 354.612 308.431 354.612 307.82C354.612 307.208 354.12 306.713 353.513 306.713C352.906 306.713 352.414 307.208 352.414 307.82C352.414 308.431 352.906 308.926 353.513 308.926Z" fill="white" fill-opacity="0.5"/>
<path d="M1.84585 328.595C2.45278 328.595 2.9448 328.1 2.9448 327.489C2.9448 326.878 2.45278 326.383 1.84585 326.383C1.23891 326.383 0.746887 326.878 0.746887 327.489C0.746887 328.1 1.23891 328.595 1.84585 328.595Z" fill="white" fill-opacity="0.5"/>
<path d="M21.3831 328.595C21.99 328.595 22.482 328.1 22.482 327.489C22.482 326.878 21.99 326.383 21.3831 326.383C20.7761 326.383 20.2841 326.878 20.2841 327.489C20.2841 328.1 20.7761 328.595 21.3831 328.595Z" fill="white" fill-opacity="0.5"/>
<path d="M40.9198 328.595C41.5268 328.595 42.0188 328.1 42.0188 327.489C42.0188 326.878 41.5268 326.383 40.9198 326.383C40.3129 326.383 39.8209 326.878 39.8209 327.489C39.8209 328.1 40.3129 328.595 40.9198 328.595Z" fill="white" fill-opacity="0.5" stroke="white" stroke-width="0.5"/>
<path d="M60.4571 328.595C61.064 328.595 61.556 328.1 61.556 327.489C61.556 326.878 61.064 326.383 60.4571 326.383C59.8501 326.383 59.3581 326.878 59.3581 327.489C59.3581 328.1 59.8501 328.595 60.4571 328.595Z" fill="white" fill-opacity="0.5"/>
<path d="M79.994 328.595C80.601 328.595 81.093 328.1 81.093 327.489C81.093 326.878 80.601 326.383 79.994 326.383C79.3871 326.383 78.8951 326.878 78.8951 327.489C78.8951 328.1 79.3871 328.595 79.994 328.595Z" fill="white" fill-opacity="0.5"/>
<path d="M99.5313 328.595C100.138 328.595 100.63 328.1 100.63 327.489C100.63 326.878 100.138 326.383 99.5313 326.383C98.9244 326.383 98.4323 326.878 98.4323 327.489C98.4323 328.1 98.9244 328.595 99.5313 328.595Z" fill="white" fill-opacity="0.5"/>
<path d="M119.068 328.595C119.675 328.595 120.167 328.1 120.167 327.489C120.167 326.878 119.675 326.383 119.068 326.383C118.461 326.383 117.969 326.878 117.969 327.489C117.969 328.1 118.461 328.595 119.068 328.595Z" fill="white" fill-opacity="0.5"/>
<path d="M138.605 328.595C139.212 328.595 139.704 328.1 139.704 327.489C139.704 326.878 139.212 326.383 138.605 326.383C137.998 326.383 137.506 326.878 137.506 327.489C137.506 328.1 137.998 328.595 138.605 328.595Z" fill="white" fill-opacity="0.5"/>
<path d="M158.142 328.595C158.749 328.595 159.241 328.1 159.241 327.489C159.241 326.878 158.749 326.383 158.142 326.383C157.535 326.383 157.043 326.878 157.043 327.489C157.043 328.1 157.535 328.595 158.142 328.595Z" fill="white" fill-opacity="0.5"/>
<path d="M177.679 328.595C178.286 328.595 178.778 328.1 178.778 327.489C178.778 326.878 178.286 326.383 177.679 326.383C177.072 326.383 176.58 326.878 176.58 327.489C176.58 328.1 177.072 328.595 177.679 328.595Z" fill="white" fill-opacity="0.5" stroke="white" stroke-width="0.5"/>
<path d="M197.216 328.595C197.823 328.595 198.315 328.1 198.315 327.489C198.315 326.878 197.823 326.383 197.216 326.383C196.609 326.383 196.117 326.878 196.117 327.489C196.117 328.1 196.609 328.595 197.216 328.595Z" fill="white" fill-opacity="0.5"/>
<path d="M216.753 328.595C217.36 328.595 217.852 328.1 217.852 327.489C217.852 326.878 217.36 326.383 216.753 326.383C216.147 326.383 215.655 326.878 215.655 327.489C215.655 328.1 216.147 328.595 216.753 328.595Z" fill="white" fill-opacity="0.5"/>
<path d="M236.29 328.595C236.897 328.595 237.389 328.1 237.389 327.489C237.389 326.878 236.897 326.383 236.29 326.383C235.684 326.383 235.192 326.878 235.192 327.489C235.192 328.1 235.684 328.595 236.29 328.595Z" fill="white" fill-opacity="0.5"/>
<path d="M255.827 328.595C256.434 328.595 256.926 328.1 256.926 327.489C256.926 326.878 256.434 326.383 255.827 326.383C255.221 326.383 254.729 326.878 254.729 327.489C254.729 328.1 255.221 328.595 255.827 328.595Z" fill="white" fill-opacity="0.5"/>
<path d="M275.364 328.595C275.971 328.595 276.463 328.1 276.463 327.489C276.463 326.878 275.971 326.383 275.364 326.383C274.758 326.383 274.266 326.878 274.266 327.489C274.266 328.1 274.758 328.595 275.364 328.595Z" fill="white" fill-opacity="0.5"/>
<path d="M294.901 328.595C295.508 328.595 296 328.1 296 327.489C296 326.878 295.508 326.383 294.901 326.383C294.295 326.383 293.802 326.878 293.802 327.489C293.802 328.1 294.295 328.595 294.901 328.595Z" fill="white" fill-opacity="0.5"/>
<path d="M314.438 328.595C315.045 328.595 315.537 328.1 315.537 327.489C315.537 326.878 315.045 326.383 314.438 326.383C313.831 326.383 313.339 326.878 313.339 327.489C313.339 328.1 313.831 328.595 314.438 328.595Z" fill="white" fill-opacity="0.5"/>
<path d="M333.975 328.595C334.582 328.595 335.074 328.1 335.074 327.489C335.074 326.878 334.582 326.383 333.975 326.383C333.368 326.383 332.876 326.878 332.876 327.489C332.876 328.1 333.368 328.595 333.975 328.595Z" fill="white" fill-opacity="0.5"/>
<path d="M353.513 328.595C354.12 328.595 354.612 328.1 354.612 327.489C354.612 326.878 354.12 326.383 353.513 326.383C352.906 326.383 352.414 326.878 352.414 327.489C352.414 328.1 352.906 328.595 353.513 328.595Z" fill="white" fill-opacity="0.5"/>
<path d="M1.84585 348.265C2.45278 348.265 2.9448 347.77 2.9448 347.159C2.9448 346.548 2.45278 346.052 1.84585 346.052C1.23891 346.052 0.746887 346.548 0.746887 347.159C0.746887 347.77 1.23891 348.265 1.84585 348.265Z" fill="white" fill-opacity="0.5"/>
<path d="M21.3831 348.265C21.99 348.265 22.482 347.77 22.482 347.159C22.482 346.548 21.99 346.052 21.3831 346.052C20.7761 346.052 20.2841 346.548 20.2841 347.159C20.2841 347.77 20.7761 348.265 21.3831 348.265Z" fill="white" fill-opacity="0.5"/>
<path d="M40.9198 348.265C41.5268 348.265 42.0188 347.77 42.0188 347.159C42.0188 346.548 41.5268 346.052 40.9198 346.052C40.3129 346.052 39.8209 346.548 39.8209 347.159C39.8209 347.77 40.3129 348.265 40.9198 348.265Z" fill="white" fill-opacity="0.5"/>
<path d="M60.4571 348.265C61.064 348.265 61.556 347.77 61.556 347.159C61.556 346.548 61.064 346.052 60.4571 346.052C59.8501 346.052 59.3581 346.548 59.3581 347.159C59.3581 347.77 59.8501 348.265 60.4571 348.265Z" fill="white" fill-opacity="0.5"/>
<path d="M79.994 348.265C80.601 348.265 81.093 347.77 81.093 347.159C81.093 346.548 80.601 346.052 79.994 346.052C79.3871 346.052 78.8951 346.548 78.8951 347.159C78.8951 347.77 79.3871 348.265 79.994 348.265Z" fill="white" fill-opacity="0.5"/>
<path d="M99.5313 348.265C100.138 348.265 100.63 347.77 100.63 347.159C100.63 346.548 100.138 346.052 99.5313 346.052C98.9244 346.052 98.4323 346.548 98.4323 347.159C98.4323 347.77 98.9244 348.265 99.5313 348.265Z" fill="white" fill-opacity="0.5"/>
<path d="M119.068 348.265C119.675 348.265 120.167 347.77 120.167 347.159C120.167 346.548 119.675 346.052 119.068 346.052C118.461 346.052 117.969 346.548 117.969 347.159C117.969 347.77 118.461 348.265 119.068 348.265Z" fill="white" fill-opacity="0.5"/>
<path d="M138.605 348.265C139.212 348.265 139.704 347.77 139.704 347.159C139.704 346.548 139.212 346.052 138.605 346.052C137.998 346.052 137.506 346.548 137.506 347.159C137.506 347.77 137.998 348.265 138.605 348.265Z" fill="white" fill-opacity="0.5"/>
<path d="M158.142 348.265C158.749 348.265 159.241 347.77 159.241 347.159C159.241 346.548 158.749 346.052 158.142 346.052C157.535 346.052 157.043 346.548 157.043 347.159C157.043 347.77 157.535 348.265 158.142 348.265Z" fill="white" fill-opacity="0.5"/>
<path d="M177.679 348.265C178.286 348.265 178.778 347.77 178.778 347.159C178.778 346.548 178.286 346.052 177.679 346.052C177.072 346.052 176.58 346.548 176.58 347.159C176.58 347.77 177.072 348.265 177.679 348.265Z" fill="white" fill-opacity="0.5"/>
<path d="M197.216 348.265C197.823 348.265 198.315 347.77 198.315 347.159C198.315 346.548 197.823 346.052 197.216 346.052C196.609 346.052 196.117 346.548 196.117 347.159C196.117 347.77 196.609 348.265 197.216 348.265Z" fill="white" fill-opacity="0.5"/>
<path d="M216.753 348.265C217.36 348.265 217.852 347.77 217.852 347.159C217.852 346.548 217.36 346.052 216.753 346.052C216.147 346.052 215.655 346.548 215.655 347.159C215.655 347.77 216.147 348.265 216.753 348.265Z" fill="white" fill-opacity="0.5"/>
<path d="M236.29 348.265C236.897 348.265 237.389 347.77 237.389 347.159C237.389 346.548 236.897 346.052 236.29 346.052C235.684 346.052 235.192 346.548 235.192 347.159C235.192 347.77 235.684 348.265 236.29 348.265Z" fill="white" fill-opacity="0.5"/>
<path d="M255.827 348.265C256.434 348.265 256.926 347.77 256.926 347.159C256.926 346.548 256.434 346.052 255.827 346.052C255.221 346.052 254.729 346.548 254.729 347.159C254.729 347.77 255.221 348.265 255.827 348.265Z" fill="white" fill-opacity="0.5"/>
<path d="M275.364 348.265C275.971 348.265 276.463 347.77 276.463 347.159C276.463 346.548 275.971 346.052 275.364 346.052C274.758 346.052 274.266 346.548 274.266 347.159C274.266 347.77 274.758 348.265 275.364 348.265Z" fill="white" fill-opacity="0.5"/>
<path d="M294.901 348.265C295.508 348.265 296 347.77 296 347.159C296 346.548 295.508 346.052 294.901 346.052C294.295 346.052 293.802 346.548 293.802 347.159C293.802 347.77 294.295 348.265 294.901 348.265Z" fill="white" fill-opacity="0.5"/>
<path d="M314.438 348.265C315.045 348.265 315.537 347.77 315.537 347.159C315.537 346.548 315.045 346.052 314.438 346.052C313.831 346.052 313.339 346.548 313.339 347.159C313.339 347.77 313.831 348.265 314.438 348.265Z" fill="white" fill-opacity="0.5"/>
<path d="M333.975 348.265C334.582 348.265 335.074 347.77 335.074 347.159C335.074 346.548 334.582 346.052 333.975 346.052C333.368 346.052 332.876 346.548 332.876 347.159C332.876 347.77 333.368 348.265 333.975 348.265Z" fill="white" fill-opacity="0.5"/>
<path d="M353.513 348.265C354.12 348.265 354.612 347.77 354.612 347.159C354.612 346.548 354.12 346.052 353.513 346.052C352.906 346.052 352.414 346.548 352.414 347.159C352.414 347.77 352.906 348.265 353.513 348.265Z" fill="white" fill-opacity="0.5"/>
</svg>
