<svg width="179" height="84" viewBox="0 0 179 84" fill="none" xmlns="http://www.w3.org/2000/svg">
<path d="M14.093 76.6067C15.3638 77.8267 17.2708 78.7922 19.5581 78.7922C20.5235 78.7922 21.4396 78.4613 21.4396 77.8012C21.4396 77.1411 20.7271 76.8103 19.0506 76.5049C16.2545 75.996 11.9839 75.3359 11.9839 71.0907C11.9839 68.2183 14.3729 65.6002 19.0252 65.6002C21.7959 65.6002 24.2867 66.3876 26.2191 67.9638L23.4739 71.5982C21.9995 70.48 20.0939 69.9202 18.7468 69.9202C17.4759 69.9202 17.196 70.3782 17.196 70.8093C17.196 71.4695 17.8831 71.6985 19.6868 72.0038C22.483 72.4873 26.6263 73.3001 26.6263 77.2144C26.6263 81.1288 23.8556 83.1106 19.3066 83.1106C15.6976 83.1106 13.2323 82.0434 11.4271 80.4163L14.096 76.6037L14.093 76.6067Z" fill="white"/>
<path d="M27.7909 82.8098V65.8562H40.652V70.1268H32.9251V72.1086H40.4739V76.3792H32.9251V78.5392H40.652V82.8098H27.7909Z" fill="white"/>
<path d="M46.852 82.8098L40.5996 65.8562H46.4194L50.0793 77.2683L53.7391 65.8562H59.5604L53.308 82.8098H46.852Z" fill="white"/>
<path d="M59.9661 82.8098V65.8562H67.5403C72.8781 65.8562 76.8434 68.9068 76.8434 74.321C76.8434 79.7352 72.8781 82.8098 67.5658 82.8098H59.9661ZM65.1004 78.3356H67.5403C70.1074 78.3356 71.6327 76.4555 71.6327 74.3195C71.6327 72.0323 70.311 70.3289 67.5658 70.3289H65.1004V78.3356Z" fill="white"/>
<path d="M88.965 82.8098L88.3049 80.6243H81.798L81.1378 82.8098H75.571L81.8234 65.8562H88.2794L94.5318 82.8098H88.965ZM85.0507 70.3797L83.1182 76.3523H86.9816L85.0492 70.3797H85.0507Z" fill="white"/>
<path d="M94.936 82.8098V65.8562H100.07V78.3356H106.501V82.8098H94.936Z" fill="white"/>
<path d="M108.05 82.8098V65.8562H113.184V82.8098H108.05Z" fill="white"/>
<path d="M115.419 82.8098V65.8562H120.553V78.3356H126.984V82.8098H115.419Z" fill="white"/>
<path d="M140.1 82.8098L139.439 80.6243H132.933L132.272 82.8098H126.706L132.958 65.8562H139.414L145.666 82.8098H140.1ZM136.185 70.3797L134.253 76.3523H138.116L136.184 70.3797H136.185Z" fill="white"/>
<path d="M155.398 82.8098L153.059 77.3701H151.203V82.8098H146.069V65.8562H155.118C159.083 65.8562 161.219 68.4997 161.219 71.6775C161.219 74.6009 159.516 76.1502 158.168 76.8118L161.244 82.8098H155.398ZM154.33 70.1268H151.203V73.0996H154.33C155.194 73.0996 156.008 72.5412 156.008 71.5997C156.008 70.6582 155.196 70.1253 154.33 70.1253V70.1268Z" fill="white"/>
<path d="M162.792 82.8098V65.8562H167.926V82.8098H162.792Z" fill="white"/>
<path d="M16.2979 29.6064V0.362061H34.0553C40.1056 0.362061 42.7371 4.39613 42.7371 7.81498C42.7371 11.4539 40.5891 13.9087 37.7391 14.5225C40.896 15.0045 43.3074 17.8994 43.3074 21.6685C43.3074 25.746 40.5457 29.6049 34.6705 29.6049H16.2994L16.2979 29.6064ZM33.7484 9.39418C33.7484 8.38529 32.9147 7.72816 31.9941 7.72816H25.1549V11.1485H31.9941C32.9147 11.1485 33.7484 10.4465 33.7484 9.39418ZM34.3187 20.3992C34.3187 19.3469 33.5299 18.5146 32.2575 18.5146H25.1549V22.2418H32.2575C33.5284 22.2418 34.3187 21.4964 34.3187 20.4007V20.3992Z" fill="white"/>
<path d="M84.4339 29.6064V17.9877L73.4739 0.362061H83.4266L88.8632 10.2264L94.213 0.362061H104.166L93.2924 17.9877V29.6064H84.4354H84.4339Z" fill="white"/>
<path d="M152.271 29.6064L145.693 19.3035L144.071 21.4964V29.6079H135.214V0.362061H144.071V11.3236L151.744 0.362061H162.574L151.525 13.9536L163.056 29.6064H152.271Z" fill="white"/>
<path d="M43.9212 17.5925V10.9H52.9099V17.2857C52.9099 20.0923 54.751 22.3271 58.3899 22.3271C62.0288 22.3271 63.8266 20.0908 63.8266 17.2857V10.9075L72.8153 10.9V17.5476C72.8153 24.8254 68.2558 30.1303 58.3899 30.1303C48.5241 30.1303 43.9212 24.8254 43.9212 17.591V17.5925Z" fill="white"/>
<path d="M52.8994 0.362061H43.9212V8.40325H52.8994V0.362061Z" fill="white"/>
<path d="M72.7838 0.362061H63.8056V8.40325H72.7838V0.362061Z" fill="white"/>
<path d="M104.468 17.5925V10.9H113.457V17.2857C113.457 20.0923 115.298 22.3271 118.937 22.3271C122.576 22.3271 124.373 20.0908 124.373 17.2857V10.9075L133.362 10.9V17.5476C133.362 24.8254 128.803 30.1303 118.937 30.1303C109.071 30.1303 104.468 24.8254 104.468 17.591V17.5925Z" fill="white"/>
<path d="M113.446 0.362061H104.468V8.40325H113.446V0.362061Z" fill="white"/>
<path d="M133.332 0.362061H124.354V8.40325H133.332V0.362061Z" fill="white"/>
<path d="M8.73268 61.9344V40.4064H0.884583V32.6901H25.3944V40.4064H17.5897V61.9344H8.73268Z" fill="white"/>
<path d="M102.39 61.9344L95.8132 51.6314L94.1906 53.8244V61.9359H85.3336V32.6915H94.1906V43.6531L101.864 32.6915H112.693L101.645 46.2831L113.175 61.9359H102.39V61.9344Z" fill="white"/>
<path d="M114.211 61.9344V43.3387H123.189L123.068 61.9344H114.211Z" fill="white"/>
<path d="M135.248 61.9344V50.3157L124.287 32.6901H134.239L139.676 42.5559L145.026 32.6901H154.979L144.105 50.3157V61.9344H135.248Z" fill="white"/>
<path d="M156.282 61.9344V32.6901H178.469V40.4064H165.139V43.2999H178.162V51.0163H165.139V54.2166H178.469V61.9329H156.282V61.9344Z" fill="white"/>
<path d="M57.7986 43.4511V61.9345H66.6556V52.7272H69.8559L73.89 61.9345H83.9744L78.6695 51.5866C80.9941 50.446 83.931 47.7726 83.931 42.7296C83.931 37.2481 80.2472 32.6886 73.408 32.6886H57.7986V43.4496V43.4511ZM72.0488 45.0108H66.6556V40.4065H72.0488C73.5397 40.4065 74.9423 41.107 74.9423 42.6862C74.9423 44.2654 73.5397 45.0108 72.0488 45.0108Z" fill="white"/>
<path d="M123.189 32.6901H114.211V40.6594H123.189V32.6901Z" fill="white"/>
<path d="M27.3552 49.9207V43.2281H36.344V49.6138C36.344 52.4204 38.1851 54.6553 41.824 54.6553C45.4629 54.6553 47.2606 52.4189 47.2606 49.6138V43.2356L56.2493 43.2281V49.8758C56.2493 57.1535 51.6899 62.4585 41.824 62.4585C31.9581 62.4585 27.3552 57.1535 27.3552 49.9192V49.9207Z" fill="white"/>
<path d="M36.3335 32.6901H27.3552V40.7313H36.3335V32.6901Z" fill="white"/>
<path d="M56.2194 32.6901H47.2412V40.7313H56.2194V32.6901Z" fill="white"/>
</svg>
