<svg width="844" height="323" viewBox="0 0 844 323" fill="none" xmlns="http://www.w3.org/2000/svg">
<g clip-path="url(#clip0_476_737)">
<path d="M66.47 256.358L64.059 279.916L51.4911 280.055L53.9021 256.496L30.4569 256.773L23.7227 323L47.1679 322.723L49.565 298.971L62.1329 298.832L59.7357 322.571L83.1671 322.293L89.9013 256.08L66.47 256.358Z" fill="url(#paint0_linear_476_737)"/>
<path d="M143.831 255.443L115.328 255.789L87.7674 322.238L111.808 321.961L114.94 313.799L132.399 313.591L133.716 321.711L157.771 321.42L143.831 255.443ZM121.148 294.827L127.66 274.539L129.877 294.73L121.148 294.827Z" fill="url(#paint1_linear_476_737)"/>
<path d="M199.285 254.805L187.59 276.853L180.44 255.027L156.842 255.304L173.803 296.296L171.184 321.836L194.781 321.559L197.386 296.019L222.716 254.528L199.285 254.805Z" fill="url(#paint2_linear_476_737)"/>
<path d="M285.458 266.876C283.421 262.843 280.318 259.683 276.147 257.397C271.99 255.124 266.794 254.016 260.558 254.085L228.854 254.459L222.12 320.672L253.976 320.298C260.461 320.229 266.198 318.677 271.158 315.656C276.133 312.648 280.082 308.533 283.006 303.336C285.929 298.139 287.717 292.319 288.354 285.889C288.548 284.378 288.631 282.674 288.604 280.775C288.548 275.551 287.495 270.922 285.458 266.876ZM264.244 287.302C263.787 291.709 262.623 295.381 260.766 298.305C258.909 301.216 256.429 302.698 253.311 302.74L247.339 302.809L250.498 271.587L256.47 271.518C259.075 271.49 261.043 272.516 262.373 274.608C263.704 276.715 264.383 279.486 264.424 282.951C264.438 284.157 264.369 285.404 264.23 286.734V287.302H264.244Z" fill="url(#paint3_linear_476_737)"/>
<path d="M295.712 281.565L291.818 319.854L314.793 319.591L318.7 281.177L295.712 281.565ZM298.553 253.641L296.848 270.451C301.269 275.953 309.97 276.632 319.143 276.784L321.527 253.378L298.553 253.641Z" fill="url(#paint4_linear_476_737)"/>
<path d="M349.877 253.046L348.09 270.562C352.579 275.98 361.253 276.646 370.413 276.784L372.851 252.768L349.877 253.046ZM343.143 319.259L366.117 318.995L369.969 281.177L346.981 281.565L343.143 319.259Z" fill="url(#paint5_linear_476_737)"/>
<path d="M425.769 255.083C421.266 252.048 415.294 250.579 407.839 250.662C401.964 250.731 396.865 251.66 392.541 253.434C388.232 255.221 384.851 257.702 382.412 260.875C379.96 264.063 378.519 267.763 378.061 271.989C377.923 273.306 377.854 274.608 377.867 275.87C377.923 280.207 379.419 283.935 382.371 287.053C385.308 290.171 390.782 292.554 398.763 294.231C402.199 294.952 404.5 295.728 405.65 296.559C406.814 297.405 407.396 298.389 407.409 299.511C407.423 300.966 406.994 302.13 406.107 303.031C405.22 303.918 403.918 304.375 402.186 304.403C400.19 304.417 398.763 303.821 397.904 302.601C397.059 301.382 396.685 299.996 396.823 298.416L396.962 297.086L373.683 297.363L373.544 298.68C373.447 299.816 373.406 300.634 373.419 301.146C373.461 304.985 374.514 308.325 376.593 311.166C378.671 314.006 381.65 316.196 385.516 317.72C389.396 319.259 394.01 319.993 399.373 319.924C408.92 319.813 416.541 317.762 422.208 313.757C427.889 309.752 431.104 303.932 431.88 296.296C431.977 295.603 432.019 294.605 432.005 293.275C431.949 288.619 430.19 284.822 426.739 281.912C423.289 278.988 417.483 276.562 409.336 274.65C404.319 273.5 401.798 271.837 401.77 269.633C401.77 268.566 402.13 267.721 402.892 267.111C403.654 266.502 404.721 266.197 406.107 266.183C409.363 266.141 410.915 267.763 410.749 271.033L410.693 271.989L432.448 271.726L432.504 270.784C432.601 269.523 432.642 268.636 432.628 268.137C432.559 262.469 430.273 258.118 425.769 255.083Z" fill="url(#paint6_linear_476_737)"/>
<path d="M439.64 251.992L437.727 271.102L453.953 270.908L449.145 318.025L472.438 317.748L477.246 270.631L493.334 270.451L495.26 251.341L439.64 251.992Z" fill="url(#paint7_linear_476_737)"/>
<path d="M541.818 250.801L513.329 251.133L485.768 317.596L509.809 317.318L512.941 309.142L530.4 308.948L531.716 317.055L555.771 316.778L541.818 250.801ZM519.148 290.185L525.647 269.883L527.878 290.074L519.148 290.185Z" fill="url(#paint8_linear_476_737)"/>
<path d="M608.232 250.025L607.622 256.455C606.888 263.397 606.112 272.183 605.322 282.84L594.14 250.191L566.718 250.51L559.983 316.723L582.348 316.459L583.318 307.008C584.232 297.917 584.967 288.688 585.521 279.292L598.435 316.279L623.862 315.974L630.596 249.761L608.232 250.025Z" fill="url(#paint9_linear_476_737)"/>
<path d="M685.274 280.484C688.627 279.445 691.288 277.311 693.242 274.11C695.195 270.908 696.151 267.222 696.096 263.079C696.054 258.852 694.586 255.471 691.69 252.921C688.807 250.371 684.318 249.138 678.249 249.207L639.021 249.664L632.287 315.877L672.124 315.42C679.579 315.323 685.122 313.688 688.766 310.5C692.41 307.299 694.516 302.74 695.112 296.809C695.209 296.116 695.251 295.118 695.237 293.788C695.195 290.143 694.308 287.247 692.563 285.127C690.831 283.006 688.406 281.468 685.274 280.484ZM671.154 298.416C670.101 299.691 668.882 300.329 667.496 300.356L656.314 300.481L657.492 289.132L668.674 288.993C669.852 288.979 670.808 289.464 671.556 290.434C672.318 291.39 672.692 292.568 672.72 293.954C672.734 295.659 672.207 297.141 671.154 298.416ZM672.928 272.46C672.013 273.638 670.946 274.234 669.727 274.248L659.002 274.373L660.041 264.534L670.752 264.409C671.778 264.395 672.609 264.769 673.26 265.518C673.912 266.266 674.244 267.236 674.258 268.428C674.272 269.938 673.829 271.283 672.928 272.46Z" fill="url(#paint10_linear_476_737)"/>
<path d="M740.672 248.472L736.474 289.714C736.294 291.792 735.504 293.594 734.091 295.09C732.677 296.587 731.125 297.335 729.449 297.363C727.855 297.363 726.539 296.767 725.472 295.52C724.419 294.273 723.878 292.735 723.851 290.905L723.92 289.866L728.104 248.625L704.826 248.888L700.904 287.108C700.669 289.506 700.572 291.557 700.585 293.261C700.682 300.814 702.83 306.537 707.029 310.417C711.241 314.311 717.92 316.196 727.051 316.099C737.776 315.974 745.702 313.48 750.829 308.63C755.956 303.793 759.005 296.573 759.961 286.984L763.951 248.195L740.672 248.472Z" fill="url(#paint11_linear_476_737)"/>
<path d="M790.861 295.132L795.669 247.835L772.833 248.098L766.099 314.311L814.666 313.743L816.592 294.827L790.861 295.132Z" fill="url(#paint12_linear_476_737)"/>
<path d="M838.956 229.321L0 233.561L4.6835 125.941L844 119.982L838.956 229.321Z" fill="url(#paint13_linear_476_737)"/>
<path d="M31.0111 211.929C28.6555 208.728 27.45 204.972 27.3945 200.649C27.3945 200.08 27.4361 199.166 27.5331 197.877L27.6855 196.38L54.1653 196.076L54.0129 197.558C53.8605 199.332 54.2762 200.898 55.2461 202.27C56.2161 203.642 57.8373 204.307 60.1098 204.279C62.0912 204.252 63.5739 203.739 64.5854 202.741C65.5831 201.743 66.0819 200.427 66.0681 198.792C66.0542 197.517 65.3891 196.408 64.0727 195.466C62.7563 194.523 60.1513 193.65 56.2438 192.847C47.1678 190.962 40.9462 188.274 37.5929 184.768C34.2396 181.261 32.5353 177.063 32.4799 172.185C32.466 170.771 32.5353 169.316 32.6877 167.819C33.2143 163.066 34.8632 158.909 37.6345 155.333C40.4058 151.758 44.2579 148.973 49.1631 146.963C54.0822 144.954 59.8742 143.914 66.553 143.831C75.0332 143.734 81.8368 145.383 86.9498 148.806C92.0767 152.215 94.6679 157.107 94.7372 163.482C94.7372 164.05 94.6956 165.048 94.5986 166.461L94.5293 167.528L69.7954 167.819L69.8647 166.752C70.0587 163.066 68.2851 161.251 64.5715 161.292C63.0058 161.306 61.7864 161.653 60.9273 162.345C60.0682 163.024 59.6386 163.967 59.6525 165.172C59.6802 167.653 62.5485 169.538 68.2574 170.813C77.5135 172.974 84.1092 175.691 88.0445 178.975C91.9797 182.259 93.9751 186.527 94.0305 191.766C94.0443 193.249 94.0028 194.385 93.8919 195.175C93.0051 203.753 89.3331 210.308 82.876 214.811C76.4189 219.315 67.7724 221.63 56.9089 221.754C50.812 221.824 45.5604 221.006 41.154 219.288C36.7477 217.569 33.3667 215.116 31.0111 211.915V211.929Z" fill="white"/>
<path d="M155.152 144.746L171.003 218.955L143.651 219.274L142.154 210.155L122.298 210.391L118.751 219.579L91.3978 219.897L122.755 145.134L155.152 144.76V144.746ZM136.764 166.212L129.365 189.05L139.3 188.939L136.764 166.226V166.212Z" fill="white"/>
<path d="M213.335 144.053L226.041 180.79C226.942 168.803 227.815 158.909 228.66 151.107L229.353 143.873L254.794 143.582L247.131 218.068L218.213 218.401L203.525 176.799C202.887 187.359 202.056 197.752 201.017 207.966L199.922 218.609L174.495 218.9L182.158 144.413L213.335 144.053Z" fill="white"/>
<path d="M316.123 142.861L331.974 217.07L304.622 217.389L303.125 208.271L283.269 208.506L279.722 217.694L252.369 218.013L283.726 143.249L316.136 142.875L316.123 142.861ZM297.735 164.327L290.336 187.165L300.271 187.054L297.735 164.341V164.327Z" fill="white"/>
<path d="M422.901 141.614L420.712 162.9L389.534 163.26L388.911 169.011L419.742 168.651L417.719 188.869L386.888 189.23L386.264 195.189L417.441 194.828L415.252 216.114L358.108 216.779L365.771 142.293L422.915 141.628L422.901 141.614Z" fill="white"/>
<path d="M464.886 141.115L471.759 177.173L486.142 140.866L518.719 140.478L511.056 214.964L485.615 215.255L491.117 172.032L475.334 215.366L460.355 215.546L452.789 172.06L449.381 215.671L423.954 215.962L431.617 141.475L464.886 141.087V141.115Z" fill="white"/>
<path d="M580.034 139.771L595.886 213.98L568.533 214.299L567.036 205.18L547.18 205.416L543.633 214.604L516.28 214.922L547.637 140.159L580.034 139.785V139.771ZM561.646 161.237L554.247 184.075L564.182 183.964L561.646 161.251V161.237Z" fill="white"/>
<path d="M638.217 139.092L650.924 175.829C651.824 163.842 652.697 153.948 653.543 146.146L654.235 138.912L679.676 138.621L672.013 213.107L643.095 213.44L628.407 171.838C627.769 182.398 626.938 192.791 625.899 203.005L624.804 213.647L599.377 213.938L607.04 139.452L638.217 139.092Z" fill="white"/>
<path d="M746.409 137.831L744.22 159.117L713.042 159.477L712.419 165.228L743.25 164.868L741.227 185.086L710.396 185.447L709.772 191.405L740.949 191.045L738.76 212.331L681.616 212.996L689.279 138.51L746.423 137.845L746.409 137.831Z" fill="white"/>
<path d="M751.189 159.241L753.379 137.748L816.62 137.013L814.43 158.507L796.14 158.715L790.667 211.707L764.187 212.012L769.66 159.02L751.189 159.241Z" fill="white"/>
<path d="M747.739 109.339L91.2178 114.688L95.9013 7.06753L752.783 0L747.739 109.339Z" fill="url(#paint14_linear_476_737)"/>
<path d="M159.904 18.514L157.479 43.5691L178.056 43.3196L171.973 105.084L201.488 104.738L207.557 42.987L227.94 42.7376L230.365 17.6964L159.904 18.514Z" fill="white"/>
<path d="M281.093 47.283L278.752 71.1324C278.53 73.8625 277.518 76.2044 275.731 78.1584C273.943 80.1262 271.976 81.124 269.842 81.1517C267.833 81.1656 266.17 80.3618 264.812 78.7266C263.468 77.0913 262.789 75.0819 262.761 72.6845L262.844 71.3126L265.172 47.4631L235.644 47.8373L233.676 67.6957C233.385 70.8414 233.261 73.5299 233.275 75.7471C233.399 85.6555 236.129 93.1665 241.45 98.2524C246.785 103.352 255.251 105.833 266.835 105.708C280.414 105.542 290.46 102.285 296.959 95.9381C303.444 89.5912 307.31 80.1262 308.515 67.571L310.566 46.9227L281.093 47.283ZM284.045 17.0728L282.244 35.4345C284.738 40.3818 294.825 42.4189 311.037 42.1417L313.559 16.7263L284.045 17.0728ZM238.623 17.5994L236.794 36.1828C239.441 41.0054 249.542 42.987 265.643 42.6822L268.124 17.2529L238.623 17.5994Z" fill="white"/>
<path d="M385.96 61.3349C388.786 56.9281 390.518 51.4958 391.156 45.0519C391.336 43.5552 391.419 42.114 391.391 40.7143C391.308 32.8708 388.842 26.7871 384.006 22.4635C379.156 18.1398 372.602 16.0334 364.316 16.1304L321.804 16.6293L313.31 103.421L342.422 103.089L345.111 75.3037H347.05L358.149 102.909L389.202 102.534L374.763 71.4927C379.405 69.1369 383.133 65.7417 385.96 61.3349ZM360.117 50.8583C358.607 52.5351 356.528 53.3805 353.882 53.4082L347.286 53.4913L348.852 37.8596L355.447 37.7903C357.775 37.7626 359.494 38.3585 360.616 39.578C361.724 40.8113 362.293 42.3773 362.32 44.2758C362.348 46.992 361.614 49.1954 360.117 50.8583Z" fill="white"/>
<path d="M486.322 14.7031L451.778 15.1049L434.152 44.5391L431.825 44.5668L434.693 15.3128L404.984 15.6593L396.393 102.701L426.088 102.354L428.79 75.567L431.118 75.5392L443.173 102.16L477.731 101.758L455.09 58.1753L486.322 14.7031Z" fill="white"/>
<path d="M494.581 14.6061L492.821 32.5243C495.066 37.5963 505.042 39.7166 521.227 39.4671L523.693 14.2735L494.581 14.6061ZM486.073 101.412L515.199 101.066L520.756 44.2481L491.643 44.6084L486.073 101.412Z" fill="white"/>
<path d="M582.805 13.5806L568.006 42.4882L558.93 13.8577L529.028 14.2042L550.533 67.959L547.235 101.44L577.138 101.093L580.436 67.6125L612.513 13.2341L582.805 13.5806Z" fill="white"/>
<path d="M680.064 37.2083L682.489 12.4165L618.818 13.151L610.324 99.9569L673.995 99.2085L676.42 74.4168L641.668 74.8186L642.36 67.8758L676.724 67.474L678.983 43.9155L644.619 44.3174L645.312 37.624L680.064 37.2083Z" fill="white"/>
</g>
<defs>
<linearGradient id="paint0_linear_476_737" x1="-410.563" y1="286.297" x2="9649.19" y2="-930.166" gradientUnits="userSpaceOnUse">
<stop stop-color="#253E66"/>
<stop offset="1" stop-color="#1E2345"/>
</linearGradient>
<linearGradient id="paint1_linear_476_737" x1="-1112.22" y1="287.055" x2="8412.99" y2="-799.814" gradientUnits="userSpaceOnUse">
<stop stop-color="#253E66"/>
<stop offset="1" stop-color="#1E2345"/>
</linearGradient>
<linearGradient id="paint2_linear_476_737" x1="-2014.82" y1="288.072" x2="8088.42" y2="-946.421" gradientUnits="userSpaceOnUse">
<stop stop-color="#253E66"/>
<stop offset="1" stop-color="#1E2345"/>
</linearGradient>
<linearGradient id="paint3_linear_476_737" x1="-2774.4" y1="288.665" x2="7241.19" y2="-910.874" gradientUnits="userSpaceOnUse">
<stop stop-color="#253E66"/>
<stop offset="1" stop-color="#1E2345"/>
</linearGradient>
<linearGradient id="paint4_linear_476_737" x1="-8098.75" y1="289.515" x2="13118.9" y2="-5388.04" gradientUnits="userSpaceOnUse">
<stop stop-color="#253E66"/>
<stop offset="1" stop-color="#1E2345"/>
</linearGradient>
<linearGradient id="paint5_linear_476_737" x1="-9468.52" y1="290.164" x2="11748.6" y2="-5388.42" gradientUnits="userSpaceOnUse">
<stop stop-color="#253E66"/>
<stop offset="1" stop-color="#1E2345"/>
</linearGradient>
<linearGradient id="paint6_linear_476_737" x1="-5144.01" y1="290.545" x2="6043.78" y2="-1276.78" gradientUnits="userSpaceOnUse">
<stop stop-color="#253E66"/>
<stop offset="1" stop-color="#1E2345"/>
</linearGradient>
<linearGradient id="paint7_linear_476_737" x1="-6181.36" y1="291.619" x2="5338.15" y2="-1305.07" gradientUnits="userSpaceOnUse">
<stop stop-color="#253E66"/>
<stop offset="1" stop-color="#1E2345"/>
</linearGradient>
<linearGradient id="paint8_linear_476_737" x1="-5620.06" y1="292.139" x2="3905.16" y2="-794.73" gradientUnits="userSpaceOnUse">
<stop stop-color="#253E66"/>
<stop offset="1" stop-color="#1E2345"/>
</linearGradient>
<linearGradient id="paint9_linear_476_737" x1="-6404.65" y1="293.164" x2="3039.47" y2="-779.344" gradientUnits="userSpaceOnUse">
<stop stop-color="#253E66"/>
<stop offset="1" stop-color="#1E2345"/>
</linearGradient>
<linearGradient id="paint10_linear_476_737" x1="-7988.19" y1="293.957" x2="2434.58" y2="-1008.34" gradientUnits="userSpaceOnUse">
<stop stop-color="#253E66"/>
<stop offset="1" stop-color="#1E2345"/>
</linearGradient>
<linearGradient id="paint11_linear_476_737" x1="-8898.94" y1="294.926" x2="1588.55" y2="-1049.07" gradientUnits="userSpaceOnUse">
<stop stop-color="#253E66"/>
<stop offset="1" stop-color="#1E2345"/>
</linearGradient>
<linearGradient id="paint12_linear_476_737" x1="-12.526" y1="290.074" x2="839.303" y2="280.417" gradientUnits="userSpaceOnUse">
<stop stop-color="#253E66"/>
<stop offset="1" stop-color="#1E2345"/>
</linearGradient>
<linearGradient id="paint13_linear_476_737" x1="0" y1="176.772" x2="844" y2="176.772" gradientUnits="userSpaceOnUse">
<stop stop-color="#253E66"/>
<stop offset="1" stop-color="#1E2345"/>
</linearGradient>
<linearGradient id="paint14_linear_476_737" x1="91.2178" y1="57.344" x2="752.783" y2="57.344" gradientUnits="userSpaceOnUse">
<stop stop-color="#BD1822"/>
<stop offset="1" stop-color="#BD1822"/>
</linearGradient>
<clipPath id="clip0_476_737">
<rect width="844" height="323" fill="white"/>
</clipPath>
</defs>
</svg>
