<svg width="179" height="86" viewBox="0 0 179 86" fill="none" xmlns="http://www.w3.org/2000/svg">
<path fill-rule="evenodd" clip-rule="evenodd" d="M55.9559 58.6551L54.8152 59.4299L53.7201 58.6551L54.1308 59.8856L53.0357 60.6604H54.4045L54.8152 61.8909L55.2715 60.6604H56.6403L55.5452 59.8856L56.0015 58.6551H55.9559ZM63.5756 24.7929L62.4349 24.0181L61.3399 24.7929L61.7505 23.5624L60.6099 22.7876H61.9787L62.3893 21.5571L62.8456 22.7876H64.2144L63.1194 23.5624L63.5756 24.7929ZM51.53 55.4648L50.2068 55.7383L49.4768 54.5989L49.3855 55.9206L48.0623 56.194L49.3399 56.7409L49.2486 58.0626L50.1156 57.1055L51.3931 57.6524L50.6631 56.5131L51.53 55.556V55.4648ZM69.0053 24.9296L68.2752 23.7903L66.952 24.0637L67.819 23.0611L67.0889 21.9217L68.3665 22.4686L69.2334 21.4659V22.7876L70.4197 23.3345L69.0965 23.608V24.9296H69.0053ZM48.6099 50.7706L47.2867 50.4972L47.0585 49.1755L46.4654 50.3604L45.1422 50.087L46.1004 51.0441L45.5072 52.229L46.6935 51.6821L47.6517 52.6392L47.4236 51.3175L48.6099 50.7706ZM73.8874 26.2969L73.6593 24.9752L72.3361 24.7473L73.5224 24.1549L73.2943 22.8332L74.2524 23.7903L75.4387 23.1978L74.8912 24.3827L75.8494 25.3398L74.5262 25.1119L73.9787 26.2969H73.8874ZM46.9217 45.3928L45.781 44.6636L46.0547 43.3419L45.0509 44.2078L43.9103 43.4786L44.4122 44.7547L43.4083 45.6207H44.7315L45.2334 46.8056L45.5072 45.4839H46.8304L46.9217 45.3928ZM78.0395 28.3022L78.3133 26.9805L77.1726 26.2513L78.4958 26.1602L78.7695 24.8385L79.2714 26.1146L80.5946 26.0234L79.6364 26.8894L80.1383 28.1655L78.9977 27.4363L78.0395 28.3022ZM47.2867 39.8326L46.511 38.6933L47.2867 37.5995L46.0547 38.0096L45.2791 36.8703V38.2375L44.0471 38.6477L45.2791 39.1034V40.4707L46.0547 39.3769L47.2867 39.8326ZM76.3056 60.4781L77.0813 59.3387L76.3056 58.2449L77.5376 58.6551L78.3133 57.5157V58.883L79.5452 59.2931L78.3133 59.7489V61.1161L77.5376 60.0223L76.3056 60.4781ZM48.9749 34.2725L48.7011 32.9508L49.8418 32.2216L48.5642 32.1305L48.2905 30.8088L47.7429 32.0849L46.4654 31.9937L47.4236 32.9052L46.876 34.1813L48.0167 33.4521L48.9749 34.3636V34.2725ZM70.7847 61.982L71.9254 61.2528L71.6517 59.9312L72.6555 60.7971L73.7962 60.0679L73.2486 61.344L74.2524 62.2099L72.9292 62.1188L72.3817 63.3949L72.1079 62.0732L70.7847 61.982ZM52.0775 29.9885L52.3513 28.6668L53.6745 28.4389L52.5338 27.8464L52.8076 26.5248L51.8494 27.4818L50.7087 26.8894L51.2562 28.0743L50.2981 29.0314L51.6213 28.8035L52.1688 29.9885H52.0775ZM64.8532 62.4378L66.1764 62.2099L66.4045 60.8883L66.9977 62.0732L68.3209 61.8453L67.3627 62.8024L67.9558 63.9873L66.7695 63.3949L65.8114 64.3519L66.0395 63.0303L64.8532 62.4378ZM56.5034 26.8438L57.2334 25.7044L58.5566 26.0234L57.7353 25.0208L58.4654 23.8814L57.1878 24.3827L56.3665 23.3801V24.7018L55.1802 25.2031L56.5034 25.5221V26.8438ZM58.9673 61.7086L60.2905 61.982L61.0205 60.8427L61.1118 62.1643L62.4349 62.4378L61.1574 62.9391L61.2486 64.2608L60.3817 63.2581L59.1042 63.7595L59.8342 62.6201L58.9673 61.6175V61.7086ZM79.4996 63.805L80.1383 64.1696L79.8646 64.671L78.9977 64.1696C78.4958 64.4887 77.9939 64.8077 77.492 65.1267L78.9977 66.1294L78.6783 66.5851L76.9444 65.4457C76.4425 65.7192 75.895 65.9926 75.3931 66.2661L77.7201 67.9979L77.4007 68.4537L74.7999 66.5395C74.298 66.7674 73.7505 66.9953 73.203 67.1776L76.3513 69.7754L75.9863 70.2311L72.5642 67.4055C72.0623 67.5878 71.5148 67.7701 70.9673 67.9068L74.8456 71.4616L74.4806 71.8718L70.3285 68.0435C69.8266 68.1802 69.279 68.317 68.7315 68.4081L73.2943 73.1023L72.8836 73.5125L68.0471 68.5448C67.5452 68.636 66.9977 68.7271 66.4958 68.7727L71.6517 74.6519L71.241 75.0165L65.8114 68.8639C65.3095 68.9094 64.8076 68.955 64.3057 68.955L69.9635 76.1103L69.5072 76.4749L63.5756 69.0006C63.5756 69.0006 63.2106 69.0006 62.9825 69.0006C62.7087 69.0006 62.3893 69.0006 62.1156 69.0006L68.1384 77.5231L67.6821 77.8421L61.3855 68.955C60.9292 68.955 60.473 68.9094 60.0167 68.8639L66.3133 78.7992L65.8114 79.1182L59.2867 68.8183C58.8304 68.7727 58.4197 68.6816 58.0091 68.636L64.3969 80.0297L63.895 80.3032L57.2791 68.4993C56.8684 68.4081 56.4578 68.317 56.0471 68.2258L62.3893 81.0779L61.8874 81.3514L55.3171 68.0435C54.9521 67.9524 54.587 67.8156 54.1764 67.7245L60.3361 82.0806L59.8342 82.3085L53.492 67.4966C53.127 67.3599 52.8076 67.2687 52.4882 67.132L58.3285 82.9465L57.781 83.1288L51.7581 66.813C51.4388 66.6763 51.1194 66.5395 50.8456 66.4028L56.184 83.6757L55.6365 83.858L50.1612 66.0838C49.8874 65.9471 49.6137 65.8103 49.3399 65.628L54.0395 84.3138L53.492 84.4505L48.6555 65.2634C48.4274 65.1267 48.1536 64.99 47.9255 64.8077L51.8494 84.8151L51.3019 84.9062L47.241 64.3519C47.241 64.3519 46.8304 64.0785 46.6023 63.8962L49.6137 85.1797L49.0661 85.2708L45.9635 63.4404C45.9635 63.4404 45.5985 63.167 45.416 63.0303L47.4236 85.4987H46.876L44.8228 62.5289C44.6403 62.3922 44.5034 62.2555 44.3665 62.1188L45.2334 85.681H44.6859L43.819 61.6175C43.6821 61.4807 43.5452 61.344 43.4083 61.2528L42.9977 85.7722H42.4045L42.8152 60.706C42.7239 60.5692 42.5871 60.4781 42.4958 60.3413L40.7163 85.681H40.1688L41.9939 59.7489C41.9026 59.6577 41.8114 59.521 41.7201 59.4299L38.5262 85.4987L37.9787 85.4076L41.2639 58.7918C41.2639 58.7918 41.127 58.6095 41.0357 58.5184L36.3361 85.1341L35.7886 85.043L40.5795 57.8803C40.5795 57.8803 40.4426 57.698 40.3969 57.6524L34.1004 84.7239L33.5528 84.5872L39.9407 57.0144C39.9407 57.0144 39.8494 56.8777 39.8038 56.8321L31.9103 84.177L31.3627 84.0403L39.3931 56.194C39.3931 56.194 39.3475 56.1029 39.3019 56.0117L29.7658 83.539L29.2183 83.3567L38.8912 55.3737L38.8 55.237L27.6213 82.7642L27.0738 82.5363L38.435 54.5989V54.5078L25.5224 81.8983L25.0205 81.6704L38.07 53.8697L23.5605 80.8956L23.0586 80.6222L37.7962 53.1405L21.6441 79.8018L21.1422 79.4828L37.5224 52.4113L19.7278 78.5713L19.2715 78.2523L37.2943 51.7733L17.9483 77.2496L17.492 76.885L37.1118 51.1808V51.0896L16.1688 75.8368L15.7126 75.4722L36.8836 50.5427L14.4806 74.3329L14.07 73.9227L36.7468 49.9503L12.8837 72.7377L12.473 72.3276L36.6099 49.4034L11.378 71.0515L11.0129 70.5957L36.473 48.8565L9.68976 69.1373L9.32474 68.6816L36.108 48.1728L8.36656 67.3143L8.04717 66.8586L36.0167 47.7171L7.13462 65.4457L6.81523 64.9444L35.9255 47.2158V47.1246L5.94831 63.486L5.67455 62.9847L35.8342 46.76V46.6689L4.94451 61.4807L4.71638 60.9794L35.8342 46.3043V46.2131L4.03197 59.4299L3.80383 58.883L35.743 45.8485L3.21068 57.3334L3.02817 56.7865L35.6973 45.4384L2.48064 55.1914L2.34376 54.6445L35.6517 45.0282V44.937L1.88748 53.0038L1.7506 52.4569L35.6061 44.618L1.43121 50.7706L1.33995 50.2237L35.6061 44.1623L1.06619 48.5374L0.974936 47.9905L35.5604 43.7521L0.838054 46.3043V45.7118L35.6061 43.2963L0.701172 44.0711V43.4786L35.5604 42.9317V42.8406L0.701172 41.7924V41.1999L35.5604 42.5216C35.5604 42.5216 35.5604 42.476 35.5604 42.4304L0.838054 39.5592V38.9667L35.6061 42.1114V42.0202L1.06619 37.2804L1.15745 36.7335L35.6517 41.7468C35.6517 41.7468 35.6517 41.7012 35.6517 41.6556L1.43121 35.0473L1.52246 34.5004L35.6517 41.291V41.1999L1.88748 32.8597L2.02436 32.3128L35.6973 40.8809V40.7897L2.48064 30.6721L2.66315 30.1252L35.743 40.4707C35.743 40.4707 35.743 40.4251 35.743 40.3795L3.16505 28.5301L3.34756 27.9832L35.743 40.0149V39.9238L3.98634 26.4336L4.21448 25.8867L35.8342 39.5592V39.468L4.89889 24.3827L5.17265 23.8814L35.9255 39.1946C35.9255 39.1946 35.9255 39.1034 35.9255 39.0579L5.94831 22.3774L6.22208 21.8761L35.9711 38.6933V38.6021L7.089 20.4177L7.40839 19.9164L36.108 38.1919L8.32094 18.5036L8.64033 18.0478L36.1536 37.7362L9.64413 16.7261L10.0091 16.2704L36.2905 37.2349L11.1042 14.9487L11.4692 14.5386L36.4274 36.7335V36.6424L12.6099 13.308L13.0206 12.8979L36.6099 36.1866V36.0955L14.2069 11.7129L14.6175 11.3027L36.7468 35.5486L15.8951 10.2089L16.3513 9.84434L36.9749 35.0017V34.9105L17.6745 8.79611L18.1308 8.47709L37.203 34.3636L19.4996 7.47444L19.9559 7.15542L37.4312 33.7256L21.3704 6.28949L21.8723 6.01604L37.7049 33.0875L23.3323 5.19569L23.8342 4.92224L38.0243 32.3583L25.3856 4.19305L25.8875 3.96517L38.3893 31.6747V31.5836L27.4388 3.28155L27.9863 3.05367L38.8456 30.9C38.8456 30.9 38.8912 30.8088 38.8912 30.7632L29.5376 2.50677L30.0852 2.32447L39.2563 30.1708C39.2563 30.1708 39.3019 30.0796 39.3475 30.034L31.6821 1.82315L32.2297 1.68642L39.7582 29.3504C39.7582 29.3504 39.8494 29.2137 39.895 29.1681L33.8722 1.27625L34.4198 1.13953L40.3513 28.4845C40.3513 28.4845 40.4426 28.3478 40.5338 28.2566L36.108 0.820501L36.6555 0.729351L40.9901 27.6641C40.9901 27.6641 41.127 27.4818 41.2182 27.3907L38.2981 0.501477H38.8456L41.6745 26.7526C41.7658 26.6615 41.857 26.5703 41.9483 26.4336L40.5795 0.319177H41.127L42.5414 25.8867C42.6327 25.75 42.7696 25.6588 42.8608 25.5677V0.228027H43.3627V24.9752C43.3627 24.9752 43.6821 24.7473 43.819 24.6106L45.0509 0.228027H45.6441L44.4578 24.0181C44.5947 23.8814 44.7772 23.7447 44.9141 23.608L47.2867 0.410327H47.8342L45.4616 23.1522C45.6441 23.0155 45.8266 22.8788 46.0091 22.742L49.5224 0.683777L50.0699 0.774926L46.6935 22.2863C46.6935 22.2863 47.1042 22.0128 47.3323 21.8761L51.7581 1.09395L52.3057 1.23068L48.0167 21.4204C48.2448 21.2836 48.5186 21.1469 48.7467 20.9646L53.9483 1.59528L54.4958 1.732L49.4312 20.6C49.7049 20.4633 49.9787 20.3266 50.2524 20.1898L56.0927 2.23332L56.6403 2.41562L50.9825 19.8252C51.3019 19.6885 51.5756 19.5518 51.895 19.4151L58.2372 2.96252L58.7848 3.1904L52.6251 19.1416C52.9445 19.0049 53.3095 18.8682 53.6289 18.777L60.2905 3.82845L60.7924 4.05632L54.3133 18.5491C54.6783 18.4124 55.0433 18.3213 55.4083 18.2301L62.2981 4.83109L62.8 5.10454L56.1384 18.0934C56.549 18.0022 56.9597 17.9111 57.3247 17.8199L64.2144 5.92489L64.7163 6.19834L58.0547 17.6832C58.4654 17.5921 58.9216 17.5465 59.3323 17.5009L66.1308 7.10984L66.587 7.42887L60.0623 17.4553C60.5186 17.4553 60.9749 17.3642 61.4311 17.3642L68.0015 8.38594L68.4578 8.70496L62.1612 17.3186C62.3893 17.3186 62.6175 17.3186 62.8456 17.3186C63.0737 17.3186 63.3475 17.3186 63.5756 17.3186L69.7353 9.75319L70.1916 10.1178L64.3057 17.3642C64.8076 17.3642 65.3095 17.4098 65.8114 17.4553L71.4692 11.2116L71.8798 11.5762L66.4958 17.5009C66.9977 17.5465 67.5452 17.6376 68.0471 17.7288L73.1117 12.7156L73.5224 13.1257L68.7315 17.8655C69.279 17.9567 69.7809 18.0934 70.3285 18.2301L74.6631 14.3563L75.0281 14.7664L70.9673 18.4124C71.5148 18.5491 72.0167 18.7314 72.5642 18.9137L76.1231 16.0425L76.4882 16.4983L73.203 19.1416C73.7505 19.3695 74.2524 19.5518 74.7999 19.8252L77.5376 17.8655L77.857 18.3213L75.3931 20.0987C75.9406 20.3721 76.4425 20.6456 76.9444 20.919L78.8152 19.7341L79.1346 20.2354L77.492 21.2836C77.9939 21.6027 78.4958 21.9217 78.9977 22.2407L80.0015 21.6938L80.2752 22.1951L79.5452 22.6053C79.5452 22.6053 79.2714 22.423 79.1346 22.3319C79.2714 22.423 79.4083 22.5142 79.5452 22.6509C75.5756 20.1443 70.7847 18.6859 65.6745 18.6859C51.6213 18.6859 40.2144 29.6694 40.2144 43.2052C40.2144 56.7409 51.6213 67.7245 65.6745 67.7245C70.6935 67.7245 75.3931 66.3117 79.3627 63.8962C79.3627 63.8962 79.2258 64.0329 79.1346 64.0785C79.2258 64.0329 79.3171 63.9873 79.3627 63.9418M62.7087 36.5968L62.8 41.7012L58.1916 43.5242L62.8456 44.8459L62.9368 49.9047L65.7657 45.6207L70.4197 46.9423L67.4996 42.9773L70.3285 38.6933L65.7201 40.5163L62.8 36.5512L62.7087 36.5968Z" fill="#E1B488"/>
<path fill-rule="evenodd" clip-rule="evenodd" d="M119.743 33.4525V29.8065H122.481C123.895 29.8065 124.762 30.3989 124.762 31.5839C124.762 32.7233 123.941 33.4069 122.527 33.4069H119.743V33.4525ZM115.546 41.3369H119.743V36.7339H121.568L124.625 41.3369H129.508L125.903 36.0502C127.774 35.2299 129.051 33.7259 129.051 31.4016C129.051 29.8521 128.595 28.7127 127.728 27.8468C126.724 26.7985 125.082 26.2061 122.8 26.2061H115.637V41.3369H115.546ZM130.283 41.3369H134.481V37.4175L136.032 35.7312L139.865 41.3369H144.93L138.998 32.7233L144.747 26.2061H139.774L134.527 32.3587V26.2061H130.329V41.3369H130.283ZM149.584 29.214V26.2061H145.34V29.214H149.584ZM145.34 41.3369H149.584V32.3131C148.854 29.214 145.34 29.1684 145.34 29.1684V41.2914V41.3369ZM155.88 41.3369H160.124V35.5945L165.918 26.2061H161.219L158.07 31.7206L154.968 26.2061H150.177L155.971 35.6856V41.3369H155.88ZM166.329 41.3369H178.648V37.7821H170.481V35.3666H177.781V32.0396H170.481V29.7609H178.511V26.2061H166.283V41.3369H166.329ZM113.949 29.214V26.2061H109.66V29.214H113.949ZM104.093 29.214V26.2061H99.8042V29.214H104.093ZM104.093 33.3613V32.3587C103.363 29.2596 99.8042 29.214 99.8042 29.214V34.6374C99.8042 39.4228 102.496 41.6104 106.831 41.6104C111.165 41.6104 113.949 39.4684 113.949 34.6374V32.3587C113.219 29.2596 109.66 29.214 109.66 29.214V34.7286C109.66 36.825 108.565 37.8277 106.876 37.8277C105.188 37.8277 104.093 36.7794 104.093 34.5918V33.3157V33.3613ZM91.5 60.6151H95.7434V54.8727L101.538 45.4842H96.8384L93.6901 50.9988L90.5875 45.4842H85.7966L91.5913 54.9638V60.6151H91.5ZM136.169 60.6151H140.413V54.8727L146.207 45.4842H141.508L138.359 50.9988L135.257 45.4842H117.371V49.0391H124.717L117.097 57.5616V60.6151H130.511V57.0603H122.892L130.511 48.5378V45.5754L136.215 54.9638V60.6151H136.169ZM146.709 60.6151H150.952V45.4842H146.709V60.6151ZM152.869 60.6151H164.413V56.9236H157.066V45.4387H152.869V60.5695V60.6151ZM165.462 60.6151H169.705V45.4842H165.462V60.6151ZM115.911 48.4922V45.4842H111.622V48.4922H115.911ZM106.055 48.4922V45.4842H101.766V48.4922H106.055ZM106.055 52.6395V51.6369C105.325 48.5378 101.766 48.4922 101.766 48.4922V53.9156C101.766 58.701 104.458 60.8886 108.793 60.8886C113.127 60.8886 115.911 58.7465 115.911 53.9156V51.6369C115.181 48.5378 111.622 48.4922 111.622 48.4922V54.0068C111.622 56.1032 110.527 57.1059 108.838 57.1059C107.15 57.1059 106.055 56.0576 106.055 53.9156V52.6395ZM90.3137 41.3825H94.5114V29.8976H99.0742V26.2061H85.751V29.8976H90.3137V41.3825Z" fill="#E1B488"/>
</svg>
