<svg width="844" height="234" viewBox="0 0 844 234" fill="none" xmlns="http://www.w3.org/2000/svg">
<path d="M747.739 109.339L91.2173 114.688L95.9008 7.06753L752.783 0L747.739 109.339Z" fill="url(#paint0_linear_786_296)"/>
<path d="M838.956 229.321L0 233.561L4.6835 125.941L844 119.982L838.956 229.321Z" fill="url(#paint1_linear_786_296)"/>
<path d="M31.0111 211.929C28.6555 208.728 27.45 204.972 27.3945 200.649C27.3945 200.08 27.4361 199.166 27.5331 197.877L27.6855 196.38L54.1653 196.075L54.0129 197.558C53.8605 199.332 54.2762 200.898 55.2461 202.27C56.2161 203.642 57.8373 204.307 60.1098 204.279C62.0912 204.252 63.5739 203.739 64.5854 202.741C65.5831 201.743 66.0819 200.427 66.0681 198.792C66.0542 197.517 65.3891 196.408 64.0727 195.466C62.7563 194.523 60.1513 193.65 56.2438 192.847C47.1678 190.962 40.9462 188.273 37.5929 184.767C34.2396 181.261 32.5353 177.062 32.4799 172.184C32.466 170.771 32.5353 169.316 32.6877 167.819C33.2143 163.066 34.8632 158.909 37.6345 155.333C40.4058 151.758 44.2579 148.972 49.1631 146.963C54.0822 144.954 59.8742 143.914 66.553 143.831C75.0332 143.734 81.8368 145.383 86.9498 148.806C92.0767 152.215 94.6679 157.107 94.7372 163.482C94.7372 164.05 94.6956 165.048 94.5986 166.461L94.5293 167.528L69.7954 167.819L69.8647 166.752C70.0587 163.066 68.2851 161.251 64.5715 161.292C63.0058 161.306 61.7864 161.652 60.9273 162.345C60.0682 163.024 59.6386 163.967 59.6525 165.172C59.6802 167.653 62.5485 169.538 68.2574 170.813C77.5135 172.974 84.1092 175.691 88.0445 178.975C91.9797 182.259 93.9751 186.527 94.0305 191.766C94.0443 193.248 94.0028 194.385 93.8919 195.175C93.0051 203.753 89.3331 210.308 82.876 214.811C76.4189 219.315 67.7724 221.629 56.9089 221.754C50.812 221.823 45.5604 221.006 41.154 219.287C36.7477 217.569 33.3667 215.116 31.0111 211.915V211.929Z" fill="white"/>
<path d="M155.152 144.746L171.004 218.955L143.651 219.274L142.154 210.155L122.298 210.391L118.751 219.579L91.3979 219.897L122.755 145.134L155.152 144.76V144.746ZM136.764 166.212L129.365 189.05L139.3 188.939L136.764 166.226V166.212Z" fill="white"/>
<path d="M213.335 144.053L226.041 180.791C226.942 168.803 227.815 158.909 228.66 151.107L229.353 143.873L254.794 143.582L247.131 218.068L218.212 218.401L203.525 176.799C202.887 187.359 202.056 197.753 201.016 207.966L199.922 218.609L174.495 218.9L182.158 144.414L213.335 144.053Z" fill="white"/>
<path d="M316.122 142.861L331.974 217.07L304.622 217.389L303.125 208.271L283.269 208.506L279.721 217.694L252.369 218.013L283.726 143.249L316.136 142.875L316.122 142.861ZM297.735 164.327L290.335 187.165L300.271 187.054L297.735 164.341V164.327Z" fill="white"/>
<path d="M422.901 141.614L420.712 162.9L389.534 163.26L388.911 169.011L419.742 168.651L417.719 188.869L386.888 189.23L386.264 195.188L417.442 194.828L415.252 216.114L358.108 216.779L365.771 142.293L422.915 141.628L422.901 141.614Z" fill="white"/>
<path d="M464.886 141.115L471.759 177.173L486.142 140.866L518.719 140.478L511.056 214.964L485.616 215.255L491.117 172.032L475.334 215.366L460.355 215.546L452.789 172.06L449.381 215.671L423.954 215.962L431.617 141.475L464.886 141.087V141.115Z" fill="white"/>
<path d="M580.034 139.771L595.885 213.98L568.533 214.299L567.036 205.18L547.18 205.416L543.633 214.604L516.28 214.922L547.637 140.159L580.034 139.785V139.771ZM561.646 161.237L554.247 184.075L564.182 183.964L561.646 161.251V161.237Z" fill="white"/>
<path d="M638.217 139.092L650.924 175.829C651.824 163.842 652.697 153.947 653.543 146.145L654.235 138.912L679.676 138.621L672.013 213.107L643.095 213.439L628.407 171.838C627.769 182.398 626.938 192.791 625.899 203.004L624.804 213.647L599.377 213.938L607.04 139.452L638.217 139.092Z" fill="white"/>
<path d="M746.409 137.831L744.219 159.116L713.042 159.477L712.419 165.228L743.25 164.867L741.226 185.086L710.396 185.446L709.772 191.405L740.949 191.045L738.76 212.331L681.616 212.996L689.278 138.51L746.423 137.844L746.409 137.831Z" fill="white"/>
<path d="M751.189 159.241L753.379 137.748L816.62 137.013L814.431 158.507L796.14 158.715L790.667 211.707L764.187 212.012L769.66 159.02L751.189 159.241Z" fill="white"/>
<path d="M159.904 18.5139L157.479 43.569L178.056 43.3196L171.973 105.084L201.488 104.738L207.557 42.987L227.94 42.7375L230.365 17.6963L159.904 18.5139Z" fill="white"/>
<path d="M281.093 47.2828L278.752 71.1322C278.53 73.8622 277.518 76.2042 275.731 78.1582C273.943 80.126 271.976 81.1238 269.842 81.1515C267.833 81.1653 266.17 80.3616 264.812 78.7263C263.468 77.0911 262.789 75.0817 262.761 72.6843L262.844 71.3124L265.172 47.4629L235.644 47.8371L233.676 67.6954C233.385 70.8412 233.261 73.5296 233.274 75.7469C233.399 85.6553 236.129 93.1663 241.45 98.2521C246.785 103.352 255.251 105.832 266.835 105.708C280.414 105.541 290.46 102.285 296.959 95.9379C303.444 89.5909 307.31 80.126 308.515 67.5707L310.566 46.9224L281.093 47.2828ZM284.045 17.0725L282.243 35.4342C284.738 40.3815 294.825 42.4186 311.037 42.1415L313.559 16.7261L284.045 17.0725ZM238.623 17.5991L236.794 36.1826C239.441 41.0051 249.542 42.9868 265.643 42.6819L268.124 17.2527L238.623 17.5991Z" fill="white"/>
<path d="M385.959 61.3351C388.786 56.9283 390.518 51.496 391.155 45.0521C391.336 43.5554 391.419 42.1142 391.391 40.7146C391.308 32.871 388.841 26.7874 384.005 22.4637C379.156 18.14 372.602 16.0336 364.315 16.1306L321.804 16.6295L313.31 103.422L342.422 103.089L345.11 75.3039H347.05L358.149 102.909L389.202 102.535L374.763 71.493C379.405 69.1371 383.133 65.7419 385.959 61.3351ZM360.117 50.8585C358.607 52.5354 356.528 53.3807 353.881 53.4084L347.286 53.4915L348.852 37.8598L355.447 37.7905C357.775 37.7628 359.493 38.3587 360.616 39.5782C361.724 40.8116 362.292 42.3775 362.32 44.276C362.348 46.9922 361.613 49.1956 360.117 50.8585Z" fill="white"/>
<path d="M486.322 14.7031L451.778 15.105L434.153 44.5392L431.825 44.5669L434.693 15.3129L404.985 15.6593L396.394 102.701L426.088 102.354L428.79 75.567L431.118 75.5393L443.173 102.16L477.731 101.758L455.09 58.1754L486.322 14.7031Z" fill="white"/>
<path d="M494.581 14.606L492.821 32.5243C495.066 37.5963 505.042 39.7165 521.227 39.4671L523.693 14.2734L494.581 14.606ZM486.073 101.412L515.199 101.065L520.756 44.2481L491.643 44.6084L486.073 101.412Z" fill="white"/>
<path d="M582.805 13.5803L568.006 42.4879L558.93 13.8575L529.028 14.2039L550.533 67.9588L547.235 101.439L577.138 101.093L580.435 67.6123L612.513 13.2339L582.805 13.5803Z" fill="white"/>
<path d="M680.064 37.2083L682.489 12.4165L618.818 13.151L610.324 99.9569L673.995 99.2085L676.42 74.4168L641.668 74.8186L642.36 67.8758L676.725 67.4739L678.983 43.9155L644.619 44.3174L645.312 37.624L680.064 37.2083Z" fill="white"/>
<defs>
<linearGradient id="paint0_linear_786_296" x1="91.2173" y1="57.344" x2="752.783" y2="57.344" gradientUnits="userSpaceOnUse">
<stop stop-color="#BD1822"/>
<stop offset="1" stop-color="#BD1822"/>
</linearGradient>
<linearGradient id="paint1_linear_786_296" x1="0" y1="176.772" x2="844" y2="176.772" gradientUnits="userSpaceOnUse">
<stop stop-color="#253E66"/>
<stop offset="1" stop-color="#1E2345"/>
</linearGradient>
</defs>
</svg>
