<svg width="50" height="63" viewBox="0 0 50 63" fill="none" xmlns="http://www.w3.org/2000/svg">
<path d="M2.42263 51.684H4.66113V45.6096H7.08376V43.6617H0V45.6096H2.42263V51.684ZM9.77534 46.9213C9.38019 45.2781 7.50167 45.2596 7.50167 45.2596V48.167C7.50167 50.6771 8.94366 51.8343 11.2422 51.8343C13.5407 51.8343 15.0199 50.7059 15.0282 48.132V46.9213C14.633 45.2781 12.7545 45.2596 12.7545 45.2596V48.1794C12.7545 49.3016 12.1649 49.8308 11.2649 49.8308C10.365 49.8308 9.77534 49.281 9.77534 48.1238V46.9213ZM9.77534 45.2596V43.6638H7.50167V45.2596H9.77534ZM15.0261 45.2596V43.6638H12.7524V45.2596H15.0261ZM42.8915 51.6861H49.4477V49.7958H45.1073V48.5233H48.9864V46.7689H45.1073V45.554H49.3898V43.6638H42.8915V51.6861ZM37.3387 51.6861H39.5896V48.6489L42.6598 43.6638H40.1544L38.4807 46.5856L36.8194 43.6638H34.2685L37.3387 48.6839V51.6861ZM31.7404 51.6861H33.9913V46.9151C33.6003 45.276 31.7404 45.2575 31.7404 45.2575V51.6881V51.6861ZM33.9913 45.2555V43.6617H31.7404V45.2555H33.9913ZM25.9683 51.6861V49.6125L26.7875 48.7065L28.8192 51.6861H31.5087L28.3454 47.1128L31.4032 43.6638H28.7488L25.9662 46.9192V43.6638H23.7277V51.6861H25.9683ZM18.1315 51.6861V49.2563H19.1121L20.7403 51.6861H23.3264L21.3982 48.8898C22.4016 48.4656 23.0595 47.6523 23.0595 46.425V46.4024C23.0595 45.6117 22.8174 44.9919 22.3436 44.5348C21.8016 43.985 20.9472 43.6638 19.7121 43.6638H15.8909V51.6861H18.1315ZM18.1315 47.5143V45.589H19.5983C20.3493 45.589 20.8106 45.9103 20.8106 46.5403V46.563C20.8106 47.1478 20.372 47.5143 19.6107 47.5143H18.1315Z" fill="#A96515"/>
<path d="M5.46897 61.893H7.71988V58.8559L10.7901 53.8707H8.28675L6.61304 56.7926L4.95175 53.8707H2.40085L5.47103 58.8909V61.893H5.46897ZM29.236 61.893H31.4869V58.8559L34.5571 53.8707H32.0517L30.378 56.7926L28.7167 53.8707H19.1938V55.7507H23.106L19.0551 60.2767V61.893H26.1989V60.0131H22.1481L26.1989 55.4851V53.9243L29.236 58.8888V61.893ZM34.8343 61.893H37.0852V53.8707H34.8343V61.893ZM38.101 61.893H44.2517V59.9451H40.3395V53.8707H38.101V61.893ZM44.7958 61.893H47.0468V53.8707H44.7958V61.893ZM18.4407 55.4604V53.8646H16.167V55.4604H18.4407ZM13.1899 55.4604V53.8646H10.9163V55.4604H13.1899ZM13.1899 57.1221C12.7948 55.4789 10.9163 55.4604 10.9163 55.4604V58.3678C10.9163 60.8779 12.3583 62.0351 14.6568 62.0351C16.9553 62.0351 18.4345 60.9067 18.4428 58.3308V57.12C18.0476 55.4768 16.1691 55.4583 16.1691 55.4583V58.3781C16.1691 59.5004 15.5795 60.0275 14.6795 60.0275C13.7796 60.0275 13.1941 59.4798 13.1899 58.3308V57.1221Z" fill="#A96515"/>
<path d="M41.0087 11.9802L40.5598 11.5374L40.8246 10.9918L40.2846 11.2636L39.8357 10.8188L39.9515 11.4304L39.4095 11.7001L40.0219 11.8072L40.1357 12.4187L40.3984 11.8731L41.0087 11.9802Z" fill="#A96515"/>
<path d="M36.962 28.7228L36.6889 28.1894L36.5793 28.7907L35.9586 28.9019L36.5089 29.1634L36.3993 29.7647L36.8503 29.324L37.4006 29.5855L37.1296 29.0522L37.5806 28.6116L36.962 28.7228Z" fill="#A96515"/>
<path d="M37.2143 19.9695L38.5177 18.0216L36.3744 18.8555L35.0151 17.0518L35.0503 19.3724L32.907 20.2084L35.0731 20.8055L35.1062 23.1241L36.4095 21.1741L38.5736 21.7733L37.2143 19.9695Z" fill="#A96515"/>
<path d="M39.3226 28.7167L39.455 29.3139L39.6992 28.7373L40.3095 28.7702L39.8523 28.379L40.0964 27.8025L39.5688 28.1381L39.1095 27.7489L39.2419 28.3461L38.7123 28.6838L39.3226 28.7167Z" fill="#A96515"/>
<path d="M34.8394 28.9226L34.2249 28.7929L34.1815 28.1957L33.8442 28.7105L33.2298 28.5787L33.6373 29.0276L33.3001 29.5424L33.8877 29.3056L34.2952 29.7565L34.2518 29.1594L34.8394 28.9226Z" fill="#A96515"/>
<path d="M41.8485 27.1702L41.2734 26.9828L41.6272 27.4852L41.2693 27.998L41.8465 27.7962L42.2002 28.2986L42.2023 27.6726L42.7774 27.4729L42.2044 27.2855L42.2064 26.6595L41.8485 27.1702Z" fill="#A96515"/>
<path d="M42.73 29.5177C40.8949 30.6275 38.7164 31.272 36.3766 31.272C29.8514 31.272 24.5634 26.2643 24.5634 20.0869C24.5634 13.9096 29.8514 8.90181 36.3766 8.90181C38.7537 8.90181 40.9653 9.56691 42.819 10.7097L43.1624 10.5059L43.0321 10.2773L42.5748 10.5326C42.3473 10.3782 42.1156 10.232 41.8756 10.092L42.6286 9.61838L42.4859 9.39806L41.617 9.94372C41.3811 9.81194 41.1411 9.68839 40.897 9.57308L42.0494 8.76179L41.8942 8.54764L40.6218 9.44542C40.3819 9.33834 40.1377 9.23539 39.8895 9.14273L41.4246 7.93609L41.2591 7.73223L39.5998 9.03771C39.3578 8.95329 39.1116 8.87504 38.8633 8.80297L40.7563 7.14538L40.5805 6.94977L38.5592 8.72061C38.3192 8.65678 38.0751 8.60118 37.8289 8.5497L40.0488 6.38763L39.8626 6.20231L37.5144 8.48999C37.2765 8.44675 37.0386 8.41174 36.7965 8.38085L39.2998 5.67106L39.1054 5.49397L36.4738 8.34379C36.2441 8.32114 36.0104 8.30261 35.7766 8.29231L38.5158 4.99155L38.3109 4.82476L35.4456 8.27996C35.3297 8.2779 35.2159 8.27584 35.1001 8.27584C34.9925 8.27584 34.8849 8.27584 34.7753 8.27996L37.6944 4.35528L37.4813 4.20085L34.438 8.29231C34.2249 8.30261 34.0119 8.31702 33.8008 8.33761L36.8379 3.76432L36.6165 3.62224L33.4595 8.37468C33.2588 8.39939 33.0581 8.42616 32.8595 8.4591L35.9524 3.21659L35.7228 3.08481L32.5161 8.51882C32.3278 8.55382 32.1416 8.595 31.9554 8.63824L35.038 2.71417L34.8022 2.59474L31.6141 8.72267C31.4403 8.76797 31.2686 8.81739 31.0968 8.87092L34.0987 2.26322L33.8567 2.15615L30.7575 8.98006C30.5982 9.03359 30.441 9.09125 30.2858 9.1489L33.1388 1.85963L32.8905 1.76491L29.9486 9.28069C29.8059 9.3404 29.6631 9.40218 29.5224 9.46601L32.154 1.50958L31.9016 1.42928L29.1914 9.6225C29.0631 9.68427 28.9349 9.75017 28.8108 9.81606L31.1548 1.21101L30.8982 1.14306L28.488 9.99314C28.3742 10.057 28.2625 10.1249 28.1508 10.1908L30.141 0.963918L29.8803 0.910381L27.8363 10.3885C27.737 10.4523 27.6398 10.5182 27.5425 10.5841L29.1149 0.770361L28.8521 0.731238L27.2405 10.7983C27.1557 10.86 27.0688 10.9239 26.986 10.9898L28.0742 0.630341L27.8115 0.603573L26.6902 11.2183C26.6178 11.278 26.5454 11.3377 26.4729 11.3995L27.0336 0.545917L26.7688 0.533563L26.1957 11.6487C26.1336 11.7043 26.0737 11.7619 26.0137 11.8175L25.9909 0.51709H25.7261L25.7488 12.077C25.6971 12.1284 25.6475 12.1799 25.5978 12.2314L24.9441 0.53974L24.6792 0.554154L25.3454 12.4991C25.304 12.5444 25.2627 12.5917 25.2213 12.6391L23.9034 0.617987L23.6386 0.646814L24.9854 12.9171C24.9523 12.9583 24.9192 12.9974 24.8861 13.0386L22.8649 0.74977L22.6042 0.790952L24.6648 13.3207C24.6379 13.3557 24.613 13.3907 24.5861 13.4257L21.8387 0.93715L21.5801 0.992746L24.3793 13.7181C24.3586 13.7469 24.34 13.7778 24.3193 13.8066L20.8229 1.17601L20.5664 1.24396L24.1248 14.099C24.1103 14.1217 24.0938 14.1464 24.0793 14.169L19.8195 1.4684L19.5671 1.55077L23.8993 14.4676C23.8889 14.4861 23.8786 14.5047 23.8683 14.5232L18.8347 1.81227L18.5885 1.90699L23.7027 14.8218L23.6821 14.8609L17.8706 2.20762L17.6286 2.3147L23.5269 15.1595L23.5145 15.1842L16.9272 2.65033L16.6914 2.76976L23.3717 15.4827L23.3655 15.4951L16.0107 3.14658L15.7811 3.27836L23.2352 15.7957L23.2269 15.8163L15.1211 3.68813L14.8998 3.83227L23.1235 16.0778L23.1152 16.0984L14.2605 4.27704L14.0474 4.43147L23.018 16.3599L23.0055 16.397L13.435 4.90713L13.2302 5.07391L22.9311 16.6173L22.9207 16.6482L12.6426 5.5784L12.4482 5.75548L22.8442 16.8871L22.8338 16.9221L11.8896 6.29085L11.7034 6.47823L22.7738 17.128L22.7635 17.1671L11.1738 7.04243L10.9979 7.23805L22.7097 17.3648L22.7014 17.3936L10.4972 7.82901L10.3338 8.03492L22.6497 17.6098L22.6435 17.6386L9.86831 8.6506L9.71521 8.86475L22.6042 17.8198L22.598 17.8487L9.28282 9.50719L9.14214 9.72958L22.5628 18.034L22.5566 18.0711L8.74492 10.3906L8.61665 10.6191L22.5297 18.2317C22.5256 18.2502 22.5235 18.2708 22.5194 18.2893L8.2546 11.3007L8.13667 11.5354L22.4945 18.4499L22.4883 18.487L7.81186 12.2355L7.70842 12.4764L22.4656 18.6538L22.4614 18.6888L7.42292 13.191L7.33189 13.436L22.4428 18.8453C22.4428 18.8576 22.4387 18.8721 22.4387 18.8844L7.08363 14.167L7.00708 14.4161L22.4242 19.0327L22.4201 19.0759L6.79812 15.1574L6.73399 15.4107L22.4076 19.2221V19.2674L6.56641 16.1623L6.51676 16.4196L22.3952 19.4177C22.3952 19.4321 22.3952 19.4465 22.3932 19.461L6.38849 17.1795L6.35125 17.4389L22.3849 19.601V19.6483L6.26229 18.2049L6.23953 18.4664L22.3766 19.8007C22.3766 19.8131 22.3766 19.8254 22.3766 19.8378L6.19402 19.2345L6.18574 19.496L22.3745 19.9778V20.0149L6.1816 20.264L6.18781 20.5255L22.3766 20.1693V20.2002L6.22505 21.2956L6.24367 21.5571L22.3787 20.3567V20.3834L6.32229 22.3231L6.35539 22.5826L22.387 20.5482V20.5729L6.47538 23.3424L6.52297 23.5998L22.3973 20.7417V20.7706L6.68434 24.3555L6.74433 24.6108L22.4097 20.9209V20.9559L6.94294 25.3541L7.01742 25.6054L22.4283 21.1309V21.1597L7.25741 26.3384L7.3443 26.5855L22.447 21.3265L22.4511 21.3553L7.6236 27.3041L7.7229 27.5471L22.4697 21.5201L22.4738 21.5551L8.03944 28.2493L8.15322 28.4861L22.5007 21.7322L22.5049 21.763L8.507 29.1697L8.6332 29.4003L22.5338 21.9381L22.54 21.971L9.02421 30.0675L9.16283 30.2919L22.5732 22.1625L22.5794 22.1934L9.58694 30.9385L9.73797 31.1547L22.6207 22.3911L22.6269 22.4178L10.1973 31.7765L10.3586 31.9845L22.6725 22.6258L22.6766 22.6464L10.8489 32.5796L11.0207 32.7793L22.7304 22.8647L22.7366 22.8935L11.542 33.3497L11.7241 33.5391L22.7966 23.1179L22.8049 23.1447L12.2765 34.0827L12.4689 34.2619L22.869 23.365L22.8793 23.3959L13.0502 34.7746L13.2509 34.9435L22.9621 23.6513L22.9724 23.6821L13.8591 35.4253L14.0702 35.5838L23.0593 23.9251L23.0697 23.9539L14.7032 36.0348L14.9225 36.181L23.1814 24.2443V24.2505L15.5783 36.599L15.8039 36.7349L23.3097 24.549L23.3179 24.5655L16.4824 37.1138L16.7162 37.2373L23.4545 24.8661L23.469 24.897L17.4134 37.5832L17.6534 37.6944L23.62 25.1977L23.6427 25.243L18.3672 38.0033L18.6134 38.1021L23.8062 25.5415L23.8414 25.6012L19.3457 38.3719L19.5961 38.4584L24.0172 25.9019C24.0338 25.9266 24.0482 25.9534 24.0648 25.9801L20.3388 38.6931L20.5933 38.7652L24.2531 26.2766C24.2737 26.3075 24.2944 26.3384 24.3151 26.3693L21.3484 38.9587L21.607 39.0164L24.5199 26.6617C24.5468 26.6988 24.5737 26.7358 24.6006 26.7729L22.3704 39.1729L22.6311 39.2182L24.8179 27.0591C24.851 27.1023 24.8861 27.1456 24.9192 27.1888L23.4028 39.3314L23.6655 39.3644L25.1509 27.4668C25.1923 27.5162 25.2358 27.5656 25.2771 27.613L24.4393 39.4364L24.7041 39.4529L25.5233 27.8807C25.5751 27.9342 25.6268 27.9898 25.6785 28.0434L25.484 39.4859L25.7488 39.49L25.9392 28.3007C26.0012 28.3605 26.0633 28.4181 26.1254 28.4778L26.5288 39.4817L26.7936 39.4735L26.4005 28.7229C26.4729 28.7867 26.5474 28.8485 26.6219 28.9102L27.5736 39.4241L27.8384 39.4014L26.9095 29.1429C26.9943 29.2088 27.0812 29.2747 27.1681 29.3406L28.6121 39.3129L28.8749 39.2758L27.4681 29.5568C27.5674 29.6248 27.6667 29.6927 27.766 29.7586L29.6445 39.1461L29.9052 39.0967L28.0763 29.9563C28.188 30.0263 28.3018 30.0922 28.4177 30.1581L30.6665 38.9258L30.923 38.862L28.7363 30.3372C28.8625 30.4052 28.9907 30.4711 29.1211 30.5349L31.672 38.6519L31.9264 38.5737L29.448 30.6893C29.5907 30.7552 29.7335 30.819 29.8783 30.8788L32.665 38.3245L32.9133 38.2339L30.2114 31.0126C30.3686 31.0744 30.5258 31.132 30.6872 31.1856L33.6374 37.9456L33.8815 37.8427L31.0244 31.2968C31.1961 31.3503 31.3679 31.3997 31.5437 31.4471L34.5891 37.5194L34.827 37.4041L31.883 31.5356C32.0692 31.5809 32.2554 31.6221 32.4437 31.6592L35.5138 37.0438L35.7456 36.9161L32.785 31.723C32.9836 31.758 33.1843 31.7868 33.3871 31.8115L36.4159 36.5207L36.6393 36.3807L33.7264 31.8507C33.9374 31.8713 34.1505 31.8877 34.3656 31.9001L37.2869 35.9504L37.502 35.8L34.7008 31.9145C34.8353 31.9186 34.9677 31.9207 35.1021 31.9207C35.1932 31.9207 35.2821 31.9207 35.3732 31.9186L38.1247 35.3367L38.3337 35.1741L35.7042 31.9063C35.94 31.896 36.1717 31.8795 36.4035 31.8589L38.9295 34.6778L39.1281 34.5049L36.7262 31.826C36.9682 31.7971 37.2082 31.7621 37.4462 31.7209L39.6971 33.9798L39.8853 33.7965L37.7586 31.6633C38.0068 31.6139 38.2509 31.5583 38.493 31.4965L40.4274 33.2406L40.6053 33.047L38.795 31.4141C39.0454 31.3441 39.2916 31.2659 39.5336 31.1835L41.1142 32.4643L41.2818 32.2625L39.8212 31.0785C40.0695 30.9858 40.3157 30.887 40.5556 30.7799L41.7577 31.653L41.9149 31.443L40.8308 30.6543C41.077 30.539 41.317 30.4155 41.5528 30.2878L42.3597 30.8108L42.5066 30.5925L41.8135 30.1416C42.0535 30.0036 42.2873 29.8574 42.5149 29.7051L42.9162 29.9377L43.0486 29.7112" fill="#A96515"/>
<path d="M29.1479 25.8647L28.8148 25.3479L28.7672 25.943L28.1528 26.0706L28.7383 26.3115L28.6907 26.9066L29.1003 26.4598L29.6879 26.6987L29.3548 26.1839L29.7644 25.7371L29.1479 25.8647Z" fill="#A96515"/>
<path d="M35.0337 10.8105L34.8289 10.2422L34.6427 10.8105H34.0076L34.5269 11.1605L34.3386 11.7289L34.8475 11.3788L35.3668 11.7289L35.162 11.1626L35.6689 10.8105H35.0337Z" fill="#A96515"/>
<path d="M27.7803 23.4741L27.6748 22.8708L27.3996 23.4041L26.7811 23.2888L27.2279 23.7315L26.9528 24.2628L27.5052 24.0054L27.9541 24.4481L27.8465 23.8468L28.3989 23.5894L27.7803 23.4741Z" fill="#A96515"/>
<path d="M33.027 12.2766L32.636 11.8195L32.9815 11.3026L32.394 11.5394L32.005 11.0823L32.0319 11.6856L31.4444 11.9204L32.0485 12.0563L32.0754 12.6596L32.4229 12.1407L33.027 12.2766Z" fill="#A96515"/>
<path d="M43.2658 12.2664L42.6617 12.3117L42.4218 11.7331L42.2893 12.3385L41.6852 12.3838L42.2087 12.7153L42.0763 13.3227L42.5314 12.9192L43.0528 13.2486L42.8107 12.67L43.2658 12.2664Z" fill="#A96515"/>
<path d="M37.531 11.2698L37.8723 11.7907L37.9054 11.1895L38.5095 11.0577L37.9241 10.8168L37.9551 10.2135L37.562 10.6685L36.9744 10.4276L37.3179 10.9486L36.9248 11.4016L37.531 11.2698Z" fill="#A96515"/>
<path d="M31.2871 28.6692L31.492 28.1009H32.1271L31.6202 27.7509L31.825 27.1826L31.3058 27.5347L30.7968 27.1826L30.9851 27.7509L30.4658 28.1009H31.1009L31.2871 28.6692Z" fill="#A96515"/>
<path d="M26.8659 17.8589L26.2907 18.0422L26.8659 18.246L26.8638 18.872L27.2217 18.3716L27.7948 18.5775L27.441 18.0628L27.7989 17.5624L27.2217 17.7457L26.868 17.2329L26.8659 17.8589Z" fill="#A96515"/>
<path d="M26.6343 21.1721L26.8764 21.7527L27.0108 21.1556L27.6212 21.1268L27.0957 20.7849L27.2301 20.1878L26.7688 20.5749L26.2433 20.2352L26.4854 20.8138L26.024 21.2009L26.6343 21.1721Z" fill="#A96515"/>
<path d="M28.3865 15.0401L28.2582 14.4326L28.0141 15.0113L27.41 14.9618L27.8631 15.3675L27.6169 15.9461L28.1424 15.6187L28.5934 16.0243L28.4651 15.4169L28.9906 15.0895L28.3865 15.0401Z" fill="#A96515"/>
<path d="M30.0251 14.0886L30.1431 13.4791L30.7555 13.3741L30.2176 13.1023L30.3355 12.4928L29.8845 12.9314L29.3466 12.6596L29.6052 13.2053L29.1542 13.6459L29.7665 13.543L30.0251 14.0886Z" fill="#A96515"/>
</svg>
