<svg width="26" height="32" viewBox="0 0 26 32" fill="none" xmlns="http://www.w3.org/2000/svg">
<path fill-rule="evenodd" clip-rule="evenodd" d="M6.58445 15.5175C6.16065 15.9413 6.16065 16.6284 6.58444 17.0522L12.3721 22.8398C12.5756 23.0433 12.8516 23.1577 13.1394 23.1577C13.4272 23.1577 13.7032 23.0434 13.9067 22.8398L19.6945 17.0522C20.1183 16.6284 20.1183 15.9413 19.6945 15.5175C19.2707 15.0937 18.5836 15.0937 18.1598 15.5175L14.2246 19.4526L14.2246 1.81566C14.2246 1.21632 13.7387 0.730469 13.1394 0.730469C12.5401 0.730469 12.0542 1.21632 12.0542 1.81566L12.0542 19.4526L8.11914 15.5175C7.69535 15.0937 7.00824 15.0937 6.58445 15.5175Z" fill="white"/>
<path fill-rule="evenodd" clip-rule="evenodd" d="M4.78125 11.0969C5.24888 11.4718 5.32408 12.1547 4.94921 12.6224C3.5094 14.4185 2.64889 16.6964 2.64889 19.1782C2.64889 24.9717 7.34549 29.6683 13.139 29.6683C18.9326 29.6683 23.6292 24.9717 23.6292 19.1782C23.6292 16.6964 22.7687 14.4185 21.3289 12.6224C20.954 12.1547 21.0292 11.4718 21.4968 11.0969C21.9645 10.722 22.6474 10.7972 23.0223 11.2649C24.7596 13.4321 25.7996 16.1852 25.7996 19.1782C25.7996 26.1704 20.1313 31.8387 13.139 31.8387C6.14682 31.8387 0.478516 26.1704 0.478516 19.1782C0.478516 16.1852 1.51843 13.4321 3.25578 11.2649C3.63065 10.7972 4.31362 10.722 4.78125 11.0969Z" fill="white"/>
</svg>
