<svg width="58" height="46" viewBox="0 0 58 46" fill="none" xmlns="http://www.w3.org/2000/svg">
<path d="M0.0239723 0.952393C3.8327 0.956927 7.64143 0.95995 11.4486 0.964484C12.2023 0.964484 12.5792 1.3509 12.5792 2.12373C12.5792 2.17965 12.5882 2.23859 12.5792 2.293C12.4809 2.82653 12.7076 2.955 13.214 2.87943C16.0055 2.4653 18.7956 2.02549 21.5977 1.68391C26.9163 1.03552 31.5412 2.56959 35.2305 6.47051C38.0145 9.41321 40.6202 12.5237 43.2893 15.5737C43.5735 15.8971 43.7911 15.9697 44.1871 15.7702C44.7146 15.5057 45.3342 14.9449 45.7922 15.146C46.1972 15.3243 46.3393 16.1163 46.5796 16.6437C50.2584 24.7252 53.9311 32.8082 57.6189 40.8851C57.8517 41.3959 57.9741 41.8977 57.9529 42.4585C57.9257 43.1734 57.9242 43.8928 57.9544 44.6077C57.9711 44.9946 57.8275 45.1155 57.4708 45.0671C57.3967 45.0566 57.3196 45.0671 57.2441 45.0671C41.8021 45.0671 26.3616 45.0626 10.9197 45.0823C10.3151 45.0823 10.1488 44.9145 10.1957 44.3386C10.2456 43.7205 10.2063 43.0948 10.2063 42.4736C10.2063 41.9264 10.4708 41.6529 10.9998 41.6529C15.0911 41.6529 19.1825 41.6529 23.2738 41.6529C23.4053 41.6529 23.5383 41.6529 23.6698 41.6529C24.288 41.6499 24.291 41.6483 24.0401 41.0997C22.0965 36.8391 20.1619 32.5739 18.197 28.3238C17.9749 27.8447 18.0399 27.6528 18.5144 27.4654C19.1931 27.1994 19.8475 26.8699 20.4989 26.5721C20.5201 26.3666 20.3629 26.3726 20.2813 26.3318C18.1547 25.2769 16.4438 23.7549 15.1486 21.7689C14.9838 21.5165 14.8191 21.4077 14.5153 21.4243C14.0074 21.45 13.4966 21.4485 12.9888 21.4243C12.6714 21.4092 12.5625 21.5074 12.5716 21.8339C12.5943 22.5881 12.5671 23.3423 12.5837 24.0965C12.5913 24.4033 12.5142 24.5272 12.1802 24.5257C8.16437 24.5136 4.14858 24.5151 0.132793 24.5121C0.0965195 24.5121 0.0602459 24.4955 0.0224609 24.4879C0.0224609 16.6437 0.0224609 8.79958 0.0224609 0.955415L0.0239723 0.952393ZM41.0781 41.6483C42.5669 41.6483 44.0556 41.6483 45.5458 41.6483C48.2784 41.6483 51.0126 41.6423 53.7452 41.6544C54.1397 41.6559 54.253 41.5864 54.0535 41.1934C53.7467 40.5904 53.4837 39.9662 53.2026 39.3495C50.2644 32.9185 47.3202 26.492 44.4032 20.0535C44.1871 19.5774 44.0087 19.5592 43.584 19.7633C42.2102 20.4207 40.8227 21.048 39.4292 21.6631C39.0755 21.8188 38.9259 22.0002 38.9335 22.4097C38.9622 23.974 38.9274 25.5383 38.9561 27.1026C38.9637 27.5485 38.8413 27.6634 38.3969 27.6603C34.5338 27.6422 30.6691 27.6513 26.8045 27.6483C26.5385 27.6483 26.2876 27.6694 26.0382 27.7873C25.018 28.2679 23.9993 28.7546 22.9595 29.1914C22.5378 29.3682 22.506 29.536 22.6889 29.9335C24.4089 33.6546 26.1153 37.3817 27.802 41.1194C27.9864 41.5289 28.1965 41.662 28.6408 41.6604C32.7881 41.6423 36.9339 41.6499 41.0812 41.6499L41.0781 41.6483ZM12.5792 12.1987C12.5792 13.9897 12.5882 15.7792 12.5716 17.5702C12.5686 17.933 12.6608 18.0554 13.0386 18.0463C14.1117 18.0221 15.1894 18.0811 16.2609 18.0206C16.8534 17.9874 17.1043 18.2201 17.3537 18.7174C19.2036 22.4037 22.2279 24.2264 26.3344 24.2582C28.7663 24.2763 31.1966 24.2673 33.6284 24.2582C34.2466 24.2552 35.0688 24.5197 35.4285 24.163C35.8185 23.776 35.5011 22.9493 35.5525 22.3175C35.6628 20.9422 34.7091 19.6363 32.9468 19.6892C30.5558 19.7618 28.1602 19.6907 25.7661 19.7194C25.2538 19.7255 25.1208 19.5698 25.148 19.0816C25.1888 18.3305 25.1873 17.5733 25.148 16.8206C25.1238 16.3596 25.2885 16.2523 25.7238 16.2553C28.1557 16.2735 30.586 16.2674 33.0178 16.2629C34.8753 16.2599 36.4366 16.9113 37.6397 18.3501C37.809 18.5526 37.9374 18.6282 38.1989 18.4967C38.8035 18.1914 39.4171 17.9058 40.0428 17.6488C40.3844 17.5083 40.3678 17.3949 40.1441 17.144C37.7077 14.3933 35.3182 11.6002 32.838 8.88875C30.7084 6.55969 28.0151 5.29464 24.8578 4.99992C23.4885 4.87145 22.1539 5.05584 20.8118 5.24628C18.2046 5.61657 15.599 5.9914 12.9888 6.34053C12.6457 6.38588 12.5686 6.50528 12.5701 6.83023C12.5852 8.62124 12.5777 10.4107 12.5777 12.2017L12.5792 12.1987ZM9.1891 12.7821C9.1891 10.1629 9.18154 7.54512 9.19666 4.92586C9.19968 4.5329 9.13771 4.35909 8.68278 4.36816C7.08221 4.39687 5.48013 4.38932 3.87955 4.37269C3.50775 4.36816 3.40649 4.48453 3.40649 4.85483C3.41858 10.1115 3.41858 15.3666 3.40497 20.6233C3.40497 21.0374 3.54251 21.116 3.92036 21.1114C5.5028 21.0918 7.08523 21.0873 8.66767 21.113C9.09086 21.1205 9.2027 21.0072 9.19968 20.5825C9.17852 17.9828 9.1891 15.3832 9.1891 12.7836V12.7821Z" fill="white"/>
</svg>
