<svg width="33" height="33" viewBox="0 0 33 33" fill="none" xmlns="http://www.w3.org/2000/svg">
<path fill-rule="evenodd" clip-rule="evenodd" d="M0.378906 16.5796C0.378906 7.74303 7.54235 0.57959 16.3789 0.57959C25.2155 0.57959 32.3789 7.74303 32.3789 16.5796C32.3789 25.4161 25.2155 32.5796 16.3789 32.5796C7.54235 32.5796 0.378906 25.4161 0.378906 16.5796ZM16.3797 8.04626C14.0622 8.04626 13.7713 8.05639 12.8611 8.09781C11.9526 8.13941 11.3325 8.28324 10.79 8.49426C10.2287 8.71222 9.75261 9.00378 9.2783 9.47827C8.80363 9.95259 8.51207 10.4287 8.2934 10.9898C8.08184 11.5325 7.93784 12.1528 7.89695 13.0609C7.85624 13.9711 7.84557 14.2621 7.84557 16.5797C7.84557 18.8972 7.85588 19.1872 7.89713 20.0974C7.93891 21.0059 8.08273 21.626 8.29358 22.1685C8.51171 22.7298 8.80327 23.2059 9.27777 23.6802C9.7519 24.1549 10.228 24.4471 10.7889 24.6651C11.3318 24.8761 11.9521 25.0199 12.8604 25.0615C13.7706 25.103 14.0613 25.1131 16.3786 25.1131C18.6964 25.1131 18.9863 25.103 19.8965 25.0615C20.805 25.0199 21.4258 24.8761 21.9687 24.6651C22.5298 24.4471 23.0052 24.1549 23.4793 23.6802C23.954 23.2059 24.2456 22.7298 24.4642 22.1687C24.674 21.626 24.818 21.0057 24.8607 20.0976C24.9016 19.1874 24.9122 18.8972 24.9122 16.5797C24.9122 14.2621 24.9016 13.9713 24.8607 13.0611C24.818 12.1526 24.674 11.5325 24.4642 10.9899C24.2456 10.4287 23.954 9.95259 23.4793 9.47827C23.0047 9.0036 22.53 8.71204 21.9682 8.49426C21.4242 8.28324 20.8038 8.13941 19.8953 8.09781C18.9851 8.05639 18.6953 8.04626 16.377 8.04626H16.3797Z" fill="white"/>
<path fill-rule="evenodd" clip-rule="evenodd" d="M15.6142 9.58405C15.8414 9.5837 16.0949 9.58405 16.3797 9.58405C18.6581 9.58405 18.9282 9.59223 19.8279 9.63312C20.6599 9.67116 21.1115 9.81019 21.4123 9.92699C21.8105 10.0817 22.0944 10.2665 22.3929 10.5652C22.6916 10.8639 22.8765 11.1483 23.0315 11.5466C23.1483 11.847 23.2875 12.2986 23.3254 13.1306C23.3663 14.0301 23.3752 14.3004 23.3752 16.5777C23.3752 18.8551 23.3663 19.1253 23.3254 20.0249C23.2873 20.8569 23.1483 21.3084 23.0315 21.6089C22.8768 22.0071 22.6916 22.2907 22.3929 22.5892C22.0943 22.8878 21.8107 23.0727 21.4123 23.2274C21.1118 23.3447 20.6599 23.4834 19.8279 23.5214C18.9284 23.5623 18.6581 23.5712 16.3797 23.5712C14.1011 23.5712 13.8311 23.5623 12.9315 23.5214C12.0995 23.483 11.6479 23.344 11.3469 23.2272C10.9487 23.0725 10.6643 22.8877 10.3656 22.589C10.0669 22.2903 9.88204 22.0066 9.72701 21.6082C9.61021 21.3077 9.47101 20.8562 9.43315 20.0242C9.39226 19.1246 9.38408 18.8544 9.38408 16.5756C9.38408 14.2968 9.39226 14.028 9.43315 13.1284C9.47119 12.2964 9.61021 11.8449 9.72701 11.5441C9.88168 11.1458 10.0669 10.8614 10.3656 10.5627C10.6643 10.2641 10.9487 10.0792 11.3469 9.92414C11.6477 9.80681 12.0995 9.66814 12.9315 9.62992C13.7187 9.59436 14.0238 9.58369 15.6142 9.58192V9.58405ZM20.9348 11.001C20.3694 11.001 19.9108 11.4591 19.9108 12.0246C19.9108 12.5899 20.3694 13.0486 20.9348 13.0486C21.5001 13.0486 21.9588 12.5899 21.9588 12.0246C21.9588 11.4593 21.5001 11.001 20.9348 11.001ZM16.3797 12.1974C13.9596 12.1974 11.9974 14.1596 11.9974 16.5797C11.9974 18.9998 13.9596 20.9611 16.3797 20.9611C18.7998 20.9611 20.7613 18.9998 20.7613 16.5797C20.7613 14.1596 18.7998 12.1974 16.3797 12.1974Z" fill="white"/>
<path fill-rule="evenodd" clip-rule="evenodd" d="M16.3797 13.7352C17.9506 13.7352 19.2242 15.0086 19.2242 16.5797C19.2242 18.1505 17.9506 19.4242 16.3797 19.4242C14.8087 19.4242 13.5352 18.1505 13.5352 16.5797C13.5352 15.0086 14.8087 13.7352 16.3797 13.7352Z" fill="white"/>
</svg>
