<svg width="34" height="34" viewBox="0 0 34 34" fill="none" xmlns="http://www.w3.org/2000/svg">
<path fill-rule="evenodd" clip-rule="evenodd" d="M16.915 2.36024C8.87664 2.36024 2.36024 8.87664 2.36024 16.915C2.36024 24.9534 8.87664 31.4698 16.915 31.4698C24.9534 31.4698 31.4698 24.9534 31.4698 16.915C31.4698 8.87664 24.9534 2.36024 16.915 2.36024ZM0 16.915C0 7.57312 7.57312 0 16.915 0C26.257 0 33.8301 7.57312 33.8301 16.915C33.8301 26.257 26.257 33.8301 16.915 33.8301C7.57312 33.8301 0 26.257 0 16.915ZM16.915 8.65421C14.9598 8.65421 13.3747 10.2393 13.3747 12.1946C13.3747 12.8463 12.8463 13.3747 12.1946 13.3747C11.5428 13.3747 11.0144 12.8463 11.0144 12.1946C11.0144 8.93575 13.6562 6.29397 16.915 6.29397C20.1738 6.29397 22.8156 8.93575 22.8156 12.1946C22.8156 14.7788 21.155 16.9722 18.8461 17.7716C18.5983 17.8574 18.3888 17.9966 18.2552 18.1444C18.1279 18.2853 18.0952 18.4006 18.0952 18.4885V20.062C18.0952 20.7138 17.5668 21.2421 16.915 21.2421C16.2633 21.2421 15.7349 20.7138 15.7349 20.062V18.4885C15.7349 16.9112 17.0061 15.9109 18.0739 15.5412C19.4617 15.0608 20.4554 13.7422 20.4554 12.1946C20.4554 10.2393 18.8703 8.65421 16.915 8.65421Z" fill="white"/>
<path d="M18.4885 24.7825C18.4885 25.6515 17.7841 26.356 16.915 26.356C16.046 26.356 15.3415 25.6515 15.3415 24.7825C15.3415 23.9135 16.046 23.209 16.915 23.209C17.7841 23.209 18.4885 23.9135 18.4885 24.7825Z" fill="white"/>
</svg>
