<svg width="33" height="35" viewBox="0 0 33 35" fill="none" xmlns="http://www.w3.org/2000/svg">
<path fill-rule="evenodd" clip-rule="evenodd" d="M20.0574 10.9593L17.9824 17.4609L32.468 6.9278L20.0574 10.9593Z" fill="#D9D9D9"/>
<path fill-rule="evenodd" clip-rule="evenodd" d="M12.3896 21.5118L17.9823 17.4606L12.3896 34.5547L12.3896 21.5118Z" fill="white"/>
<path fill-rule="evenodd" clip-rule="evenodd" d="M20.0573 24.0018L17.9823 17.4606L12.3896 34.5547L20.0573 24.0018Z" fill="#D9D9D9"/>
<path fill-rule="evenodd" clip-rule="evenodd" d="M32.468 28.0332L17.9824 17.4605L20.0772 24.0017L32.468 28.0332Z" fill="white"/>
<path fill-rule="evenodd" clip-rule="evenodd" d="M24.8003 17.4803L17.9824 17.4605L32.468 28.0332L24.8003 17.4803Z" fill="#D9D9D9"/>
<path fill-rule="evenodd" clip-rule="evenodd" d="M32.468 6.92658L17.9824 17.4597L24.8003 17.4795L32.468 6.92658Z" fill="white"/>
<path fill-rule="evenodd" clip-rule="evenodd" d="M20.0573 10.9593L17.9823 17.4609L12.3896 0.406372L20.0573 10.9593Z" fill="white"/>
<path fill-rule="evenodd" clip-rule="evenodd" d="M12.3896 0.406372L17.9823 17.4609L12.3896 13.4493L12.3896 0.406372Z" fill="#D9D9D9"/>
<path fill-rule="evenodd" clip-rule="evenodd" d="M12.3908 13.449L17.9834 17.4607L0 17.4805L12.3908 13.449Z" fill="white"/>
<path fill-rule="evenodd" clip-rule="evenodd" d="M-1.76219e-07 17.4803L17.9834 17.4605L12.3908 21.5117L-1.76219e-07 17.4803Z" fill="#D9D9D9"/>
</svg>
