<svg width="33" height="33" viewBox="0 0 33 33" fill="none" xmlns="http://www.w3.org/2000/svg">
<path fill-rule="evenodd" clip-rule="evenodd" d="M32.3789 16.5796C32.3789 25.4161 25.2154 32.5796 16.3789 32.5796C7.54237 32.5796 0.378906 25.4161 0.378906 16.5796C0.378906 7.74306 7.54237 0.57959 16.3789 0.57959C25.2154 0.57959 32.3789 7.74306 32.3789 16.5796ZM11.0932 15.1139C9.49044 15.8137 7.84364 16.5328 6.33774 17.3623C5.55142 17.938 6.59649 18.3453 7.57697 18.7273C7.73284 18.788 7.88704 18.8481 8.03204 18.9081C8.15271 18.9452 8.27537 18.9843 8.39971 19.0239C9.49017 19.3713 10.706 19.7587 11.7647 19.1759C13.5038 18.1769 15.1449 17.022 16.7848 15.8679C17.3221 15.4898 17.8592 15.1118 18.3996 14.7394C18.425 14.7232 18.4535 14.7047 18.4848 14.6845C18.9451 14.386 19.9805 13.7149 19.5975 14.6397C18.6919 15.6301 17.7218 16.5067 16.7466 17.3883C16.0892 17.9823 15.4295 18.5786 14.7855 19.2133C14.2246 19.669 13.6422 20.5855 14.2702 21.2237C15.7168 22.2363 17.186 23.2245 18.6544 24.2121C19.1322 24.5334 19.61 24.8547 20.0868 25.1769C20.8949 25.8221 22.1579 25.3001 22.3356 24.2919C22.4146 23.8281 22.4939 23.3644 22.5732 22.9006C23.0116 20.3375 23.4502 17.7734 23.8376 15.2019C23.8902 14.7985 23.9499 14.3952 24.0096 13.9917C24.1544 13.0136 24.2993 12.0343 24.3446 11.051C24.2279 10.0697 23.038 10.2855 22.3759 10.5061C18.9724 11.8012 15.603 13.1923 12.2468 14.6079C11.8666 14.7763 11.4812 14.9445 11.0932 15.1139Z" fill="white"/>
</svg>
