<svg width="33" height="33" viewBox="0 0 33 33" fill="none" xmlns="http://www.w3.org/2000/svg">
<path fill-rule="evenodd" clip-rule="evenodd" d="M0.378906 16.5796C0.378906 7.74303 7.54235 0.57959 16.3789 0.57959C25.2155 0.57959 32.3789 7.74303 32.3789 16.5796C32.3789 25.4161 25.2155 32.5796 16.3789 32.5796C7.54235 32.5796 0.378906 25.4161 0.378906 16.5796ZM15.8997 13.5846L15.9333 14.1382L15.3737 14.0704C13.3368 13.8106 11.5573 12.9293 10.0465 11.4491L9.30782 10.7147L9.11756 11.2571C8.71466 12.466 8.97206 13.7428 9.81144 14.6015C10.2591 15.076 10.1584 15.1438 9.38616 14.8613C9.11756 14.771 8.88253 14.7032 8.86015 14.7371C8.78181 14.8161 9.05041 15.8443 9.26305 16.2511C9.55403 16.816 10.1472 17.3697 10.7963 17.6973L11.3447 17.9572L10.6956 17.9685C10.0688 17.9685 10.0465 17.9798 10.1136 18.2171C10.3374 18.9515 11.2216 19.7311 12.2065 20.07L12.9003 20.3073L12.296 20.6689C11.4007 21.1886 10.3486 21.4824 9.29662 21.505C8.793 21.5163 8.37891 21.5615 8.37891 21.5954C8.37891 21.7084 9.74429 22.3411 10.5389 22.5897C12.9227 23.3241 15.7542 23.0077 17.8806 21.7535C19.3915 20.861 20.9024 19.0871 21.6075 17.3697C21.988 16.4545 22.3685 14.7823 22.3685 13.98C22.3685 13.4603 22.4021 13.3925 23.0288 12.7711C23.3981 12.4095 23.7451 12.0141 23.8122 11.9011C23.9241 11.6864 23.9129 11.6864 23.3422 11.8785C22.3909 12.2174 22.2566 12.1723 22.7266 11.6638C23.0736 11.3023 23.4877 10.6469 23.4877 10.4549C23.4877 10.421 23.3198 10.4774 23.1295 10.5791C22.9281 10.6921 22.4804 10.8616 22.1447 10.9633L21.5403 11.1554L20.9919 10.7825C20.6897 10.5791 20.2645 10.3532 20.0406 10.2854C19.4699 10.1272 18.5969 10.1498 18.0821 10.3306C16.6831 10.839 15.799 12.1497 15.8997 13.5846Z" fill="white"/>
</svg>
