<?xml version="1.0" standalone="no"?>
<!DOCTYPE svg PUBLIC "-//W3C//DTD SVG 1.1//EN" "http://www.w3.org/Graphics/SVG/1.1/DTD/svg11.dtd" >
<svg xmlns="http://www.w3.org/2000/svg" xmlns:xlink="http://www.w3.org/1999/xlink" version="1.1">
<metadata></metadata>
<defs>
<font id="mark_promedium_italic" horiz-adv-x="1228" >
<font-face units-per-em="2048" ascent="1618" descent="-430" />
<missing-glyph horiz-adv-x="552" />
<glyph horiz-adv-x="0" />
<glyph horiz-adv-x="0" />
<glyph horiz-adv-x="682" />
<glyph unicode="&#xd;" horiz-adv-x="552" />
<glyph unicode=" "  horiz-adv-x="552" />
<glyph unicode="&#x09;" horiz-adv-x="552" />
<glyph unicode="&#xa0;" horiz-adv-x="552" />
<glyph unicode="!" horiz-adv-x="522" d="M19 155q0 72 54 125t126 53q71 0 124.5 -53t53.5 -125t-53.5 -126.5t-124.5 -54.5t-125.5 54.5t-54.5 126.5zM168 473l160 961h264l-240 -961h-184z" />
<glyph unicode="&#x22;" horiz-adv-x="1111" d="M350 916l119 559h215l-119 -559h-215zM729 916l119 559h215l-119 -559h-215z" />
<glyph unicode="#" horiz-adv-x="1440" d="M86 372l64 190h228l106 317h-229l64 190h229l123 365h200l-122 -365h275l123 365h201l-123 -365h228l-64 -190h-228l-106 -317h226l-62 -190h-228l-125 -372h-200l125 372h-276l-125 -372h-201l125 372h-228zM579 562h275l107 317h-276z" />
<glyph unicode="$" horiz-adv-x="1433" d="M141 207l131 178q102 -107 306 -147l81 385q-164 32 -260.5 120.5t-96.5 230.5q0 86 32.5 164t95.5 141t166 101t232 40l40 189h199l-43 -205q190 -37 340 -140l-123 -179q-129 84 -261 111l-83 -391q361 -81 361 -352q0 -189 -146 -308.5t-383 -128.5l-42 -201h-199 l46 216q-249 45 -393 176zM537 1002q0 -119 169 -160l77 367q-124 -9 -185 -68.5t-61 -138.5zM774 228q113 12 183 64.5t70 134.5q0 58 -43 96t-134 62z" />
<glyph unicode="%" horiz-adv-x="2054" d="M208 1043q0 170 120 293t293 123q158 0 260 -100t102 -257q0 -170 -120 -293t-292 -123q-159 0 -261 100t-102 257zM410 1055q0 -79 48.5 -129t123.5 -50q87 0 143 62.5t56 152.5q0 79 -48.5 129t-123.5 50q-87 0 -143 -62.5t-56 -152.5zM417 0l1080 1434h238 l-1081 -1434h-237zM1167 331q0 170 120 292.5t293 122.5q159 0 261 -100.5t102 -256.5q0 -170 -120 -293t-292 -123q-159 0 -261.5 100.5t-102.5 257.5zM1369 342q0 -79 48.5 -129t123.5 -50q87 0 143.5 63t56.5 152q0 79 -48.5 129t-123.5 50q-87 0 -143.5 -63t-56.5 -152z " />
<glyph unicode="&#x26;" horiz-adv-x="1454" d="M69 324q0 65 20 124t51.5 104t79.5 88t94.5 74t107.5 65q-62 89 -90 157.5t-28 141.5q0 75 24 141.5t71.5 121t128 86.5t183.5 32q163 0 268 -85.5t105 -220.5q0 -59 -20 -112.5t-51 -94.5t-81 -82.5t-95 -71t-108 -64.5l197 -248l241 308l155 -111l-272 -351l261 -326 h-280l-127 161q-198 -187 -422 -187q-186 0 -299.5 92.5t-113.5 257.5zM297 344q0 -81 57.5 -128t151.5 -47q79 0 143.5 34.5t135.5 108.5l-245 312q-117 -68 -180 -133t-63 -147zM527 1073q0 -67 88 -193q57 31 96.5 56t76 56.5t54.5 66.5t18 73q0 62 -41.5 96t-119.5 34 q-88 0 -130 -53t-42 -136z" />
<glyph unicode="'" horiz-adv-x="732" d="M350 916l119 559h215l-119 -559h-215z" />
<glyph unicode="(" horiz-adv-x="803" d="M133 425q0 164 49 327t136 303.5t217.5 250.5t284.5 165l74 -192q-159 -60 -281.5 -196.5t-185 -307t-62.5 -346.5q0 -339 238 -538l-111 -185q-359 271 -359 719z" />
<glyph unicode=")" horiz-adv-x="803" d="M-51 -114q159 60 281.5 196.5t185 307t62.5 346.5q0 339 -238 538l111 185q359 -271 359 -719q0 -164 -49 -327t-136 -303.5t-217.5 -250.5t-284.5 -165z" />
<glyph unicode="*" horiz-adv-x="966" d="M237 1172l80 151l237 -111l55 263h165l-59 -280l270 56l16 -160l-271 -57l105 -219l-147 -82l-105 219l-193 -193l-114 109l194 196z" />
<glyph unicode="+" d="M133 449l41 194h362l77 364h199l-78 -364h362l-41 -194h-363l-77 -364h-198l77 364h-361z" />
<glyph unicode="," horiz-adv-x="506" d="M-63 -281l175 559h250l-228 -559h-197z" />
<glyph unicode="-" horiz-adv-x="840" d="M121 449l41 194h581l-41 -194h-581z" />
<glyph unicode="." horiz-adv-x="522" d="M14 155q0 72 54 125t126 53q71 0 124.5 -53t53.5 -125t-53.5 -126.5t-124.5 -54.5t-125.5 54.5t-54.5 126.5z" />
<glyph unicode="/" horiz-adv-x="1031" d="M-140 -205l1088 1782h245l-1089 -1782h-244z" />
<glyph unicode="0" horiz-adv-x="1446" d="M153 542q0 127 31.5 256.5t94 248t148 210.5t203 147t248.5 55q161 0 278 -74.5t175.5 -201.5t58.5 -291q0 -128 -31.5 -258.5t-94 -248.5t-148 -210t-203 -146.5t-248.5 -54.5q-160 0 -277.5 75.5t-176 203t-58.5 289.5zM388 558q0 -169 77 -270t211 -101q90 0 169 43 t134.5 113.5t95.5 160.5t59.5 185.5t19.5 186.5q0 171 -76.5 270.5t-211.5 99.5q-75 0 -143 -30.5t-119.5 -82.5t-93 -120t-68 -145t-40.5 -156t-14 -154z" />
<glyph unicode="1" horiz-adv-x="821" d="M166 990l51 242l619 224l-311 -1456h-225l239 1124z" />
<glyph unicode="2" horiz-adv-x="1119" d="M32 0l37 173l601 539q120 107 167 182.5t47 157.5q0 79 -56.5 136.5t-163.5 57.5q-80 0 -155.5 -43t-130.5 -114l-145 138q69 95 188.5 163t256.5 68q108 0 193 -32.5t137.5 -87.5t79.5 -123.5t27 -144.5q0 -133 -69.5 -246.5t-215.5 -243.5l-416 -369h563l-45 -211h-900 z" />
<glyph unicode="3" horiz-adv-x="1139" d="M9 167l153 146q53 -64 137 -97.5t180 -33.5q144 0 229 74.5t85 188.5q0 88 -68 132t-186 44h-161l44 203h140q143 0 239.5 74t96.5 178q0 80 -63.5 127.5t-164.5 47.5q-180 0 -312 -162l-139 152q176 217 472 217q202 0 320 -96t118 -253q0 -131 -75 -233t-212 -159 q84 -39 130.5 -108.5t46.5 -164.5q0 -201 -153.5 -335t-389.5 -134q-159 0 -279.5 51t-187.5 141z" />
<glyph unicode="4" horiz-adv-x="1167" d="M3 279l37 179l694 974h262l-673 -943h355l82 385h222l-82 -385h219l-45 -210h-219l-59 -279h-223l60 279h-630z" />
<glyph unicode="5" horiz-adv-x="1156" d="M22 204l165 130q114 -148 316 -148q124 0 203.5 64t94.5 167q8 50 -1 92.5t-36.5 79.5t-86 58t-143.5 21h-338l175 766h777l-44 -210h-573l-80 -346h138q85 0 157 -18.5t122.5 -51t88.5 -78t55.5 -98.5t23.5 -112t-7 -120q-20 -110 -71 -193.5t-123.5 -133.5 t-157.5 -74.5t-182 -24.5q-310 0 -473 230z" />
<glyph unicode="6" horiz-adv-x="1189" d="M68 421q0 98 40 196.5t137 216.5l493 600h280l-433 -513q31 7 65 7q121 0 225.5 -56.5t168 -158.5t63.5 -226q0 -139 -70 -256t-195.5 -186.5t-280.5 -69.5q-208 0 -350.5 124t-142.5 322zM299 431q0 -110 77 -180t198 -70q131 0 216.5 84.5t85.5 208.5q0 114 -78.5 181 t-195.5 67q-134 0 -218.5 -84t-84.5 -207z" />
<glyph unicode="7" horiz-adv-x="1100" d="M170 0l754 1224h-708l44 210h965l-34 -183l-757 -1251h-264z" />
<glyph unicode="8" horiz-adv-x="1260" d="M72 339q0 135 81.5 239.5t231.5 155.5q-154 90 -154 254q0 93 38 177t107.5 149.5t177.5 104.5t237 39q87 0 169.5 -25.5t148.5 -71.5t105.5 -116.5t39.5 -154.5q0 -124 -79.5 -225t-221.5 -155q87 -44 136.5 -114t49.5 -159q0 -198 -161 -330t-418 -132 q-130 0 -240.5 43.5t-179 128t-68.5 192.5zM309 371q0 -86 75.5 -138t187.5 -52q151 0 243 71.5t92 180.5q0 89 -77.5 140t-194.5 51q-147 0 -236.5 -73t-89.5 -180zM465 1000q0 -86 66.5 -134t174.5 -48q141 0 227.5 71t86.5 174q0 86 -72.5 137t-171.5 51q-145 0 -228 -72 t-83 -179z" />
<glyph unicode="9" horiz-adv-x="1189" d="M179 946q0 139 70 256t195.5 186.5t280.5 69.5q136 0 248 -54t179 -156.5t67 -234.5q0 -98 -40.5 -196.5t-137.5 -216.5l-493 -600h-280l433 512q-27 -6 -65 -6q-121 0 -225.5 56t-168 158t-63.5 226zM411 959q0 -114 78 -180.5t195 -66.5q134 0 218.5 83.5t84.5 206.5 q0 110 -77 180t-198 70q-131 0 -216 -84.5t-85 -208.5z" />
<glyph unicode=":" horiz-adv-x="522" d="M10 155q0 72 53.5 125t125.5 53t125.5 -53t53.5 -125t-54 -126.5t-125 -54.5t-125 54.5t-54 126.5zM155 828q0 72 54 125.5t125 53.5t124.5 -53.5t53.5 -125.5t-53.5 -126t-124.5 -54t-125 54t-54 126z" />
<glyph unicode=";" horiz-adv-x="506" d="M-63 -281l175 559h250l-228 -559h-197zM143 828q0 72 54 125.5t126 53.5q71 0 124.5 -53.5t53.5 -125.5t-53.5 -126t-124.5 -54t-125.5 54t-54.5 126z" />
<glyph unicode="&#x3c;" d="M181 441l45 210l918 389l-52 -245l-669 -265l556 -265l-46 -213z" />
<glyph unicode="=" d="M100 244l42 194h922l-42 -194h-922zM187 653l42 195h922l-42 -195h-922z" />
<glyph unicode="&#x3e;" d="M115 52l52 246l669 264l-556 265l46 213l751 -389l-45 -210z" />
<glyph unicode="?" horiz-adv-x="887" d="M55 155q0 72 53.5 125t125.5 53t125.5 -53t53.5 -125t-54 -126.5t-125 -54.5t-125 54.5t-54 126.5zM189 473l70 330h119q160 0 240 62t80 168q0 98 -93.5 150t-253.5 52q-13 0 -85 -3l10 220q53 5 116 5q247 0 398.5 -107t151.5 -288q0 -195 -134 -318.5t-388 -142.5 l-36 -128h-195z" />
<glyph unicode="@" horiz-adv-x="1949" d="M147 414q0 187 68.5 356.5t188 295.5t293.5 200t374 74q212 0 382 -86t269 -246t99 -365q0 -245 -112.5 -401.5t-289.5 -156.5q-169 0 -237 137q-102 -122 -264 -122q-158 0 -259 104t-101 267q0 122 54 226t149 165.5t210 61.5q177 0 259 -126l23 106h183l-93 -424 q-12 -56 -12 -97q0 -65 27.5 -97.5t76.5 -32.5q85 0 138 108t53 278q0 239 -158.5 384.5t-410.5 145.5q-157 0 -291.5 -59.5t-226 -161t-143.5 -238t-52 -287.5q0 -133 43 -241.5t119.5 -181t183 -112t233.5 -39.5q106 0 193.5 24t176.5 79l88 -139q-112 -72 -226 -104 t-248 -32q-165 0 -306 54t-241 150.5t-156.5 234t-56.5 298.5zM749 485q0 -97 56 -155t147 -58q102 0 169.5 78t67.5 187q0 95 -57.5 153.5t-148.5 58.5q-101 0 -167.5 -77.5t-66.5 -186.5z" />
<glyph unicode="A" horiz-adv-x="1482" d="M-66 0l862 1434h288l255 -1434h-238l-63 366h-637l-216 -366h-251zM531 585h470l-104 617z" />
<glyph unicode="B" horiz-adv-x="1410" d="M81 0l305 1434h530q209 0 336.5 -91.5t127.5 -260.5q0 -124 -72 -220t-190 -134q94 -42 143 -140q32 -64 32 -134q0 -38 -9 -78q-21 -93 -62 -160.5t-94 -108.5t-130 -65.5t-157 -33t-187 -8.5h-573zM364 217h326q76 0 131 7.5t103 26t77.5 53.5t41.5 87q6 33 6 60 q1 27 -5 47q-10 42 -50.5 68t-93 37t-125.5 11h-328zM494 830h298q352 0 352 231q0 156 -273 156h-294z" />
<glyph unicode="C" horiz-adv-x="1492" d="M156 652q0 170 62.5 320.5t169.5 257t254 168t312 61.5q67 0 132.5 -10t147.5 -36.5t159 -85t133 -142.5l-177 -143q-66 94 -170.5 144.5t-237.5 50.5q-109 0 -209 -44t-173.5 -119t-117 -180.5t-43.5 -222.5q0 -208 131 -341.5t327 -133.5q203 0 361 151l152 -148 q-224 -226 -527 -226q-195 0 -351.5 86t-245.5 241.5t-89 351.5z" />
<glyph unicode="D" horiz-adv-x="1579" d="M81 0l305 1434h482q304 0 482 -166t178 -447q0 -168 -60.5 -317t-170.5 -261t-277.5 -177.5t-368.5 -65.5h-570zM364 219h314q185 0 324 78t210 209t71 294q0 192 -111.5 303t-329.5 111h-267z" />
<glyph unicode="E" horiz-adv-x="1352" d="M81 0l305 1434h1013l-46 -217h-776l-83 -387h756l-46 -217h-757l-83 -396h792l-46 -217h-1029z" />
<glyph unicode="F" horiz-adv-x="1300" d="M81 0l305 1434h1005l-48 -220h-768l-80 -383h744l-47 -219h-745l-130 -612h-236z" />
<glyph unicode="G" horiz-adv-x="1647" d="M153 635q0 232 107.5 421t293 296t410.5 107q58 0 118 -9.5t134 -32.5t145.5 -72t124.5 -119l-174 -158q-63 80 -157 124.5t-211 44.5q-150 0 -275.5 -73.5t-199.5 -207t-74 -300.5q0 -210 127.5 -335t331.5 -125q182 0 301 93.5t166 268.5h-385l46 214h611q0 -22 -6 -70 q-19 -159 -81.5 -293t-158.5 -230.5t-228.5 -151t-285.5 -54.5q-144 0 -269.5 49t-216 135.5t-142.5 210.5t-52 267z" />
<glyph unicode="H" horiz-adv-x="1600" d="M81 0l305 1434h237l-128 -603h756l129 603h237l-306 -1434h-237l130 612h-757l-130 -612h-236z" />
<glyph unicode="I" horiz-adv-x="606" d="M81 0l305 1434h237l-306 -1434h-236z" />
<glyph unicode="J" horiz-adv-x="1122" d="M-20 200l168 150q42 -67 114 -110t160 -43q121 0 191 80t106 251l189 906h236l-200 -960q-53 -253 -183.5 -376.5t-347.5 -123.5q-136 0 -250.5 60t-182.5 166z" />
<glyph unicode="K" horiz-adv-x="1413" d="M81 0l305 1434h237l-129 -604h109l620 604h310l-751 -710l542 -724h-281l-454 611h-142l-130 -611h-236z" />
<glyph unicode="L" d="M81 0l305 1434h237l-259 -1215h771l-48 -219h-1006z" />
<glyph unicode="M" horiz-adv-x="1886" d="M81 0l305 1434h343l190 -1030l618 1030h366l-306 -1434h-235l248 1159l-606 -1019h-244l-197 1024l-247 -1164h-235z" />
<glyph unicode="N" horiz-adv-x="1599" d="M81 0l305 1434h217l550 -1070l227 1070h236l-305 -1434h-216l-551 1071l-228 -1071h-235z" />
<glyph unicode="O" horiz-adv-x="1705" d="M153 639q0 165 60.5 315.5t166 261.5t257.5 177t325 66q195 0 351 -81.5t246.5 -234t90.5 -348.5q0 -166 -60.5 -316.5t-166 -262t-257.5 -177.5t-325 -66q-195 0 -351 82t-246.5 234.5t-90.5 349.5zM395 656q0 -208 129.5 -334t335.5 -126q118 0 221.5 48t174 128 t111 185.5t40.5 219.5q0 207 -129.5 333.5t-334.5 126.5q-158 0 -285 -82t-195 -214t-68 -285z" />
<glyph unicode="P" horiz-adv-x="1312" d="M81 0l305 1434h478q226 0 347 -104t121 -278q0 -226 -154 -357.5t-430 -131.5h-311l-120 -563h-236zM483 781h275q333 0 333 249q0 185 -249 185h-267z" />
<glyph unicode="Q" horiz-adv-x="1731" d="M153 639q0 165 60.5 315.5t166 261.5t257.5 177t325 66q195 0 351 -81.5t246.5 -234t90.5 -348.5q0 -302 -185 -530l177 -265h-260l-78 116q-203 -143 -463 -143q-195 0 -351 82t-246.5 234.5t-90.5 349.5zM395 656q0 -208 129.5 -334t335.5 -126q181 0 319 105l-249 370 h265l132 -199q80 141 80 305q0 207 -129.5 333.5t-334.5 126.5q-158 0 -285 -82t-195 -214t-68 -285z" />
<glyph unicode="R" horiz-adv-x="1373" d="M81 0l305 1434h522q223 0 346.5 -102.5t123.5 -265.5q0 -62 -16 -122.5t-56.5 -123.5t-101 -110t-157.5 -77t-219 -30h-21l426 -603h-276l-407 603h-105l-128 -603h-236zM490 813h346q88 0 150.5 20.5t93 55.5t43 71.5t12.5 79.5q0 81 -64 127.5t-185 46.5h-311z" />
<glyph unicode="S" horiz-adv-x="1364" d="M67 175l138 187q57 -60 150 -100.5t168 -54.5t135 -14q147 0 244 58t97 158q0 73 -64.5 117t-202.5 69l-110 20q-175 32 -280 126t-105 246q0 92 35.5 175.5t103 150.5t178.5 106.5t250 39.5q311 0 550 -165l-129 -187q-202 133 -435 133q-156 0 -232 -65t-76 -158 q0 -74 57 -116.5t168 -63.5l106 -20q429 -76 429 -382q0 -208 -165 -335t-430 -127q-80 0 -172.5 16t-209.5 64t-198 122z" />
<glyph unicode="T" horiz-adv-x="1212" d="M190 1214l48 220h1138l-47 -220h-444l-258 -1214h-237l258 1214h-458z" />
<glyph unicode="U" horiz-adv-x="1513" d="M168 423q0 69 17 154l184 857h236l-182 -851q-13 -65 -13 -121q0 -136 80.5 -200.5t223.5 -64.5q336 0 415 375l183 862h236l-186 -879q-122 -581 -676 -581q-110 0 -203 28t-164 82t-111 141t-40 198z" />
<glyph unicode="V" horiz-adv-x="1447" d="M240 1434h235l187 -1203l700 1203h248l-846 -1434h-288z" />
<glyph unicode="W" horiz-adv-x="2228" d="M263 1434h236l88 -1175l600 1175h254l99 -1164l582 1164h244l-734 -1434h-280l-99 1113l-573 -1113h-291z" />
<glyph unicode="X" horiz-adv-x="1372" d="M-61 0l659 731l-334 703h258l236 -524l462 524h289l-648 -717l342 -717h-258l-243 537l-474 -537h-289z" />
<glyph unicode="Y" horiz-adv-x="1347" d="M212 1434h250l266 -633l516 633h292l-727 -853l-123 -581h-236l127 599z" />
<glyph unicode="Z" horiz-adv-x="1329" d="M43 0l42 195l958 1019h-778l47 220h1088l-39 -186l-962 -1029h781l-47 -219h-1090z" />
<glyph unicode="[" horiz-adv-x="780" d="M24 -269l362 1703h521l-42 -199h-301l-277 -1306h300l-42 -198h-521z" />
<glyph unicode="\" horiz-adv-x="1788" d="M300 1577h245l1088 -1782h-244z" />
<glyph unicode="]" horiz-adv-x="780" d="M-88 -269l42 198h300l277 1306h-299l42 199h522l-363 -1703h-521z" />
<glyph unicode="^" d="M216 650l366 784h209l365 -784h-233l-240 555l-239 -555h-228z" />
<glyph unicode="_" horiz-adv-x="962" d="M-175 -310l41 194h973l-41 -194h-973z" />
<glyph unicode="`" horiz-adv-x="1024" d="M381 1444h272l196 -307h-211z" />
<glyph unicode="a" horiz-adv-x="1240" d="M76 419q0 155 72 289.5t201 216.5t284 82q220 0 315 -143l26 117h214l-209 -981h-213l18 87q-119 -114 -285 -114q-181 0 -302 127t-121 319zM297 442q0 -116 68 -191t188 -75q129 0 221 89t109 225q3 27 3 51q0 103 -56 175q-70 90 -199 89q-141 0 -237.5 -107 t-96.5 -256z" />
<glyph unicode="b" horiz-adv-x="1242" d="M52 0l314 1475h216l-116 -539q109 72 247 72q194 0 323.5 -127t129.5 -319q0 -155 -72 -289.5t-201 -216.5t-284 -82q-223 0 -315 143l-26 -117h-216zM359 490q-3 -27 -3 -51q0 -102 56 -174q70 -89 199 -89q141 0 237.5 107t96.5 256q0 116 -68 191t-188 75 q-129 0 -221 -89.5t-109 -225.5z" />
<glyph unicode="c" horiz-adv-x="1039" d="M80 439q0 153 71.5 282t200.5 206.5t288 77.5q272 0 399 -194l-168 -121q-94 114 -241 114q-138 0 -233.5 -103t-95.5 -246q0 -121 74 -199t183 -78q144 0 242 98l123 -141q-71 -77 -169 -118t-205 -41q-210 0 -339.5 132t-129.5 331z" />
<glyph unicode="d" horiz-adv-x="1242" d="M76 419q0 155 72 289.5t201 216.5t284 82q220 0 315 -143l130 611h216l-313 -1475h-215l18 87q-119 -114 -285 -114q-181 0 -302 127t-121 319zM297 442q0 -116 68 -191t188 -75q129 0 221 89t109 225q3 27 3 51q0 103 -56 175q-70 90 -199 89q-141 0 -237.5 -107 t-96.5 -256z" />
<glyph unicode="e" horiz-adv-x="1104" d="M73 403q0 79 20 160.5t64.5 161.5t107.5 142.5t158 101t207 38.5q187 0 299 -106.5t112 -288.5q0 -112 -36 -200h-714q1 -119 70 -185t197 -66q140 0 272 92l92 -159q-89 -64 -180 -92.5t-207 -28.5q-217 0 -339.5 120t-122.5 310zM314 573h512q2 13 2 33 q0 101 -57 155.5t-153 54.5q-65 0 -118 -20t-88.5 -56t-59 -77t-38.5 -90z" />
<glyph unicode="f" horiz-adv-x="832" d="M111 786l41 195h193l40 185q34 158 127.5 246t240.5 88q152 0 256 -84l-105 -167q-71 49 -153 49q-55 0 -96.5 -40t-58.5 -120l-34 -157h317l-41 -195h-317l-167 -786h-217l167 786h-193z" />
<glyph unicode="g" horiz-adv-x="1238" d="M4 -278l109 175q147 -123 351 -123q122 0 204 79t108 204l2 13q-103 -71 -251 -71q-194 0 -321 123.5t-127 308.5q0 158 72 290t199 209t281 77q222 0 315 -143l26 117h214l-196 -919q-50 -231 -187 -356.5t-343 -125.5q-267 0 -456 142zM301 454q0 -112 70 -183t180 -71 q146 0 238 96t92 249q0 115 -70.5 187.5t-181.5 72.5q-145 0 -236.5 -97.5t-91.5 -253.5z" />
<glyph unicode="h" horiz-adv-x="1211" d="M52 0l315 1475h215l-120 -568q113 100 275 100q161 0 257.5 -94t96.5 -245q0 -48 -13 -110l-120 -558h-216l119 555q9 41 9 77q0 78 -44.5 124.5t-138.5 46.5q-110 0 -193 -68t-111 -200l-114 -535h-217z" />
<glyph unicode="i" horiz-adv-x="530" d="M52 0l209 981h217l-209 -981h-217zM291 1320q0 64 42.5 107.5t106.5 43.5t108 -43.5t44 -107.5t-44 -107t-108 -43t-106.5 43t-42.5 107z" />
<glyph unicode="j" horiz-adv-x="541" d="M-253 -390l78 177q36 -14 81 -14q47 0 85 33t51 93l229 1082h217l-235 -1111q-31 -147 -120.5 -223t-213.5 -76q-98 0 -172 39zM301 1320q0 64 43 107.5t107 43.5t107.5 -43.5t43.5 -107.5t-43.5 -107t-107.5 -43t-107 43t-43 107z" />
<glyph unicode="k" horiz-adv-x="1078" d="M52 0l314 1475h217l-185 -867h98l367 373h280l-492 -482l313 -499h-242l-252 414h-113l-88 -414h-217z" />
<glyph unicode="l" horiz-adv-x="530" d="M52 0l314 1475h217l-314 -1475h-217z" />
<glyph unicode="m" horiz-adv-x="1903" d="M52 0l209 981h214l-21 -99q116 125 296 125q108 0 188 -47t120 -129q143 176 383 176q156 0 249.5 -92.5t93.5 -241.5q0 -54 -11 -104l-123 -569h-216l118 555q10 45 10 77q0 77 -44.5 124t-142.5 47q-109 0 -190.5 -68t-110.5 -200l-117 -535h-215l119 555q10 36 10 69 q1 12 -1 24q-4 44 -21 78.5t-59 55.5t-104 21q-110 0 -193 -68t-111 -200l-114 -535h-216z" />
<glyph unicode="n" horiz-adv-x="1211" d="M52 0l209 981h214l-21 -99q116 125 296 125q155 0 248.5 -93t93.5 -241q0 -50 -12 -104l-122 -569h-216l119 555q9 41 9 77q0 77 -44 124t-140 47q-110 0 -193 -68t-111 -200l-114 -535h-216z" />
<glyph unicode="o" horiz-adv-x="1212" d="M80 441q0 114 43.5 218t118 180.5t181 122t226.5 45.5q214 0 349 -132t135 -335q0 -153 -73.5 -283t-205 -207t-291.5 -77q-213 0 -348 132t-135 336zM300 455q0 -124 78 -202t200 -78q143 0 238.5 102.5t95.5 247.5q0 124 -78 202t-202 78q-141 0 -236.5 -103 t-95.5 -247z" />
<glyph unicode="p" horiz-adv-x="1241" d="M-35 -410l296 1391h214l-19 -88q120 115 286 115q181 0 302 -127t121 -319q0 -155 -72 -289.5t-201 -216.5t-284 -82q-221 0 -315 142l-111 -526h-217zM358 490q-3 -27 -3 -51q0 -102 56 -174q70 -89 199 -89q141 0 237.5 107t96.5 256q0 116 -68 191t-188 75 q-129 0 -221 -89.5t-109 -225.5z" />
<glyph unicode="q" horiz-adv-x="1240" d="M76 419q0 155 72 289.5t201 216.5t284 82q220 0 315 -143l26 117h214l-296 -1391h-217l96 452q-103 -69 -242 -69q-194 0 -323.5 127t-129.5 319zM297 442q0 -116 68 -191t188 -75q129 0 221 89t109 225q3 27 3 51q0 102 -56 175q-70 89 -199 89q-141 0 -237.5 -107 t-96.5 -256z" />
<glyph unicode="r" horiz-adv-x="854" d="M52 0l209 981h214l-21 -99q116 125 296 125q89 0 159 -35l-83 -204q-53 35 -140 35q-110 0 -193 -68t-111 -200l-114 -535h-216z" />
<glyph unicode="s" horiz-adv-x="982" d="M-3 109l119 158q149 -105 318 -105q100 0 156.5 32t62.5 88q1 5 1 11q0 37 -32 60q-36 27 -113 39l-74 11q-163 23 -239 101q-64 66 -64 163q0 17 2 34q17 145 128 225t289 80q255 0 419 -107l-113 -164q-57 36 -145.5 60t-162.5 24q-86 0 -136.5 -28t-55.5 -78 q-1 -8 -1 -16q0 -46 32 -66q36 -24 111 -36l70 -11q168 -28 243 -105q64 -66 64 -160q0 -16 -2 -33q-15 -137 -132 -224t-305 -87q-113 0 -232 34.5t-208 99.5z" />
<glyph unicode="t" horiz-adv-x="915" d="M110 786l42 195h188l63 297h218l-64 -297h366l-42 -195h-366l-88 -414q-8 -36 -8 -66q1 -50 23 -80q36 -50 110 -50q88 0 178 56l88 -165q-139 -93 -292 -93q-186 0 -270 106q-57 72 -58 183q0 52 13 113l87 410h-188z" />
<glyph unicode="u" horiz-adv-x="1197" d="M123 323q0 52 12 112l116 546h217l-118 -555q-9 -43 -9 -79q0 -88 51.5 -129.5t141.5 -41.5q105 0 182.5 66.5t106.5 201.5l114 537h217l-122 -574q-24 -114 -75 -199t-121 -135t-152 -74.5t-176 -24.5q-170 0 -277.5 93t-107.5 256z" />
<glyph unicode="v" horiz-adv-x="1069" d="M123 981h220l134 -769l444 769h234l-587 -981h-254z" />
<glyph unicode="w" horiz-adv-x="1674" d="M132 981h216l78 -740l377 740h238l92 -742l384 742h234l-529 -981h-255l-83 733l-376 -733h-252z" />
<glyph unicode="x" horiz-adv-x="1054" d="M-51 0l459 502l-273 479h239l177 -338l296 338h258l-454 -497l269 -484h-237l-180 336l-297 -336h-257z" />
<glyph unicode="y" horiz-adv-x="1108" d="M-22 -416l457 637l-317 760h227l227 -566l389 566h243l-980 -1397h-246z" />
<glyph unicode="z" horiz-adv-x="1034" d="M22 0l34 168l639 618h-523l42 195h805l-36 -163l-630 -623h524l-41 -195h-814z" />
<glyph unicode="{" horiz-adv-x="891" d="M110 483l43 199q127 0 188.5 55t80.5 174l21 131q62 392 506 392h49l-43 -199h-28q-119 0 -181 -47.5t-81 -161.5l-19 -111q-24 -140 -88 -221.5t-176 -121.5q87 -46 118.5 -132t4.5 -190l-29 -111q-27 -103 21 -156t153 -53h49l-43 -198h-49q-87 0 -155 24t-110.5 67 t-67.5 101t-24.5 125.5t17.5 141.5l22 83q26 99 -22.5 154t-156.5 55z" />
<glyph unicode="|" horiz-adv-x="732" d="M97 -271l363 1705h215l-363 -1705h-215z" />
<glyph unicode="}" horiz-adv-x="891" d="M-68 -268l43 198h29q119 0 181 47.5t81 161.5l19 111q24 140 88 221.5t176 121.5q-88 46 -119.5 132t-3.5 190l29 111q27 103 -21 156t-153 53h-50l43 199h50q87 0 155.5 -24.5t110.5 -67t67 -100.5t24.5 -126t-17.5 -142l-22 -83q-26 -99 22.5 -154t156.5 -55l-43 -199 q-127 0 -188.5 -55t-80.5 -174l-22 -131q-62 -391 -505 -391h-50z" />
<glyph unicode="~" d="M153 559q75 60 148 88t161 28q76 0 137 -20t114.5 -40t109.5 -20q48 0 88.5 18t94.5 59l94 -146q-75 -60 -148 -87.5t-161 -27.5q-60 0 -112 12.5t-84 27t-76 27t-90 12.5q-49 0 -88.5 -17.5t-93.5 -58.5z" />
<glyph unicode="&#xa2;" horiz-adv-x="1433" d="M311 668q0 145 67 269t187.5 202t271.5 89l44 206h198l-47 -221q166 -40 259 -174l-162 -120q-64 72 -139 96l-130 -609q115 16 196 94l118 -141q-67 -72 -160.5 -111.5t-196.5 -44.5l-43 -203h-199l49 228q-146 46 -229.5 164.5t-83.5 275.5zM529 682q0 -83 37.5 -147.5 t101.5 -99.5l125 587q-116 -28 -190 -123t-74 -217z" />
<glyph unicode="&#xa3;" horiz-adv-x="1433" d="M97 0l45 211h163l86 409h-163l42 194h162l32 151q52 246 197 369.5t347 123.5q263 0 380 -164l-166 -141q-82 93 -230 93q-117 0 -198 -76.5t-118 -259.5l-21 -96h502l-42 -194h-501l-85 -409h671l-45 -211h-1058z" />
<glyph unicode="&#xa5;" horiz-adv-x="1433" d="M189 287l38 177h375l34 160h-376l40 177h287l-291 633h249l238 -561l472 561h274l-552 -633h295l-40 -177h-374l-34 -160h375l-38 -177h-375l-61 -287h-222l61 287h-375z" />
<glyph unicode="&#xa8;" horiz-adv-x="1044" d="M338 1281q0 64 43 108t106 44q64 0 108 -44t44 -108q0 -63 -44 -106t-108 -43t-106.5 42.5t-42.5 106.5zM748 1281q0 64 43 108t106 44q64 0 108 -44t44 -108q0 -63 -44 -106t-108 -43t-106.5 42.5t-42.5 106.5z" />
<glyph unicode="&#xa9;" horiz-adv-x="1945" d="M178 671q0 136 44.5 267.5t127 242t192.5 194.5t249.5 131.5t289.5 47.5q212 0 392 -99t287.5 -277t107.5 -395q0 -136 -44.5 -267.5t-127 -242t-192.5 -194.5t-249.5 -131.5t-289.5 -47.5q-212 0 -392 99t-287.5 277t-107.5 395zM375 682q0 -168 82.5 -305.5t220.5 -213 t301 -75.5q116 0 223.5 37t191.5 103t147 151.5t96.5 187t33.5 205.5q0 168 -82.5 305.5t-220.5 213t-301 75.5q-116 0 -223.5 -37t-191.5 -103t-147 -151.5t-96.5 -187t-33.5 -205.5zM595 689q0 130 59.5 239.5t168.5 175.5t245 66q125 0 224 -54t149 -150l-173 -100 q-68 117 -210 117q-111 0 -185 -82.5t-74 -199.5q0 -106 63.5 -167.5t158.5 -61.5q126 0 211 106l130 -121q-139 -172 -351 -172q-173 0 -294.5 109.5t-121.5 294.5z" />
<glyph unicode="&#xab;" horiz-adv-x="1087" d="M108 546l276 388h241l-293 -411l104 -365h-218zM543 546l276 388h241l-293 -411l104 -365h-218z" />
<glyph unicode="&#xad;" horiz-adv-x="840" d="M121 449l41 194h581l-41 -194h-581z" />
<glyph unicode="&#xae;" horiz-adv-x="1092" d="M186 985q0 128 66 241t182.5 182t254.5 69q119 0 219 -54t160.5 -153.5t60.5 -222.5q0 -128 -65.5 -241t-181.5 -182.5t-253 -69.5q-183 0 -313 122.5t-130 308.5zM328 992q0 -134 90.5 -221.5t217.5 -87.5q146 0 248.5 107.5t102.5 248.5q0 133 -89.5 221t-215.5 88 q-148 0 -251 -107.5t-103 -248.5zM447 816l87 408h187q81 0 122 -44.5t28 -103.5q-21 -101 -152 -115l111 -145h-131l-98 142h-9l-30 -142h-115zM611 1050h81q56 0 63 34q4 19 -8 29.5t-38 10.5h-82z" />
<glyph unicode="&#xb4;" horiz-adv-x="1024" d="M416 1137l225 307h280l-287 -307h-218z" />
<glyph unicode="&#xb8;" horiz-adv-x="1024" d="M177 -329l185 336h222l-166 -336h-241z" />
<glyph unicode="&#xbb;" horiz-adv-x="1087" d="M51 158l293 410l-104 366h218l110 -388l-276 -388h-241zM486 158l293 410l-104 366h218l111 -388l-277 -388h-241z" />
<glyph unicode="&#xc2;" horiz-adv-x="1482" d="M-66 0l862 1434h288l255 -1434h-238l-63 366h-637l-216 -366h-251zM531 585h470l-104 617zM574 1551l270 308h293l154 -308h-224l-93 170l-160 -170h-240z" />
<glyph unicode="&#xc7;" horiz-adv-x="1492" d="M156 652q0 170 62.5 320.5t169.5 257t254 168t312 61.5q67 0 132.5 -10t147.5 -36.5t159 -85t133 -142.5l-177 -143q-66 94 -170.5 144.5t-237.5 50.5q-109 0 -209 -44t-173.5 -119t-117 -180.5t-43.5 -222.5q0 -208 131 -341.5t327 -133.5q108 0 206.5 46.5t174.5 125.5 l132 -169q-194 -195 -451 -222l-151 -306h-251l174 317q-238 46 -386 226.5t-148 437.5z" />
<glyph unicode="&#xce;" horiz-adv-x="606" d="M81 0l305 1434h237l-306 -1434h-236zM138 1551l270 308h292l155 -308h-224l-93 170l-160 -170h-240z" />
<glyph unicode="&#xd6;" horiz-adv-x="1705" d="M153 639q0 165 60.5 315.5t166 261.5t257.5 177t325 66q195 0 351 -81.5t246.5 -234t90.5 -348.5q0 -166 -60.5 -316.5t-166 -262t-257.5 -177.5t-325 -66q-195 0 -351 82t-246.5 234.5t-90.5 349.5zM395 656q0 -208 129.5 -334t335.5 -126q118 0 221.5 48t174 128 t111 185.5t40.5 219.5q0 207 -129.5 333.5t-334.5 126.5q-158 0 -285 -82t-195 -214t-68 -285zM672 1706q0 64 43 108t106 44q64 0 108 -44t44 -108t-44 -107t-108 -43t-106.5 43t-42.5 107zM1081 1706q0 64 43 108t107 44t107.5 -44t43.5 -108t-43.5 -107t-107.5 -43 t-107 43t-43 107z" />
<glyph unicode="&#xdb;" horiz-adv-x="1513" d="M168 423q0 69 17 154l184 857h236l-182 -851q-13 -65 -13 -121q0 -136 80.5 -200.5t223.5 -64.5q336 0 415 375l183 862h236l-186 -879q-122 -581 -676 -581q-110 0 -203 28t-164 82t-111 141t-40 198zM593 1551l269 308h293l155 -308h-225l-93 170l-159 -170h-240z" />
<glyph unicode="&#xdc;" horiz-adv-x="1513" d="M168 423q0 69 17 154l184 857h236l-182 -851q-13 -65 -13 -121q0 -136 80.5 -200.5t223.5 -64.5q336 0 415 375l183 862h236l-186 -879q-122 -581 -676 -581q-110 0 -203 28t-164 82t-111 141t-40 198zM649 1706q0 64 43 108t107 44t107.5 -44t43.5 -108t-43.5 -107 t-107.5 -43t-107 43t-43 107zM1059 1706q0 64 43 108t106 44q64 0 108 -44t44 -108t-44 -107t-108 -43t-106.5 43t-42.5 107z" />
<glyph unicode="&#xe2;" horiz-adv-x="1240" d="M76 419q0 155 72 289.5t201 216.5t284 82q220 0 315 -143l26 117h214l-209 -981h-213l18 87q-119 -114 -285 -114q-181 0 -302 127t-121 319zM297 442q0 -116 68 -191t188 -75q129 0 221 89t109 225t-53 225.5t-199 89.5q-141 0 -237.5 -107t-96.5 -256zM334 1126 l269 308h293l155 -308h-225l-93 170l-160 -170h-239z" />
<glyph unicode="&#xe7;" horiz-adv-x="1039" d="M80 439q0 153 71.5 282t200.5 206.5t288 77.5q272 0 399 -194l-168 -121q-94 114 -241 114q-138 0 -233.5 -103t-95.5 -246q0 -121 74 -199t183 -78q144 0 242 98l123 -141q-115 -125 -293 -152l-154 -312h-240l177 323q-153 39 -243 160t-90 285z" />
<glyph unicode="&#xee;" horiz-adv-x="530" d="M35 1126l269 308h293l155 -308h-225l-93 170l-160 -170h-239zM52 0l209 981h217l-209 -981h-217z" />
<glyph unicode="&#xf6;" horiz-adv-x="1212" d="M80 441q0 114 43.5 218t118 180.5t181 122t226.5 45.5q214 0 349 -132t135 -335q0 -153 -73.5 -283t-205 -207t-291.5 -77q-213 0 -348 132t-135 336zM300 455q0 -124 78 -202t200 -78q143 0 238.5 102.5t95.5 247.5q0 124 -78 202t-202 78q-141 0 -236.5 -103 t-95.5 -247zM371 1281q0 64 43 108t106 44q64 0 108 -44t44 -108q0 -63 -44 -106t-108 -43t-106.5 42.5t-42.5 106.5zM780 1281q0 64 43 108t107 44t107.5 -44t43.5 -108t-43.5 -106.5t-107.5 -42.5t-107 42.5t-43 106.5z" />
<glyph unicode="&#xfb;" horiz-adv-x="1197" d="M123 323q0 52 12 112l116 546h217l-118 -555q-9 -43 -9 -79q0 -88 51.5 -129.5t141.5 -41.5q105 0 182.5 66.5t106.5 201.5l114 537h217l-122 -574q-24 -114 -75 -199t-121 -135t-152 -74.5t-176 -24.5q-170 0 -277.5 93t-107.5 256zM368 1126l269 308h293l154 -308h-224 l-93 170l-160 -170h-239z" />
<glyph unicode="&#xfc;" horiz-adv-x="1197" d="M123 323q0 52 12 112l116 546h217l-118 -555q-9 -43 -9 -79q0 -88 51.5 -129.5t141.5 -41.5q105 0 182.5 66.5t106.5 201.5l114 537h217l-122 -574q-24 -114 -75 -199t-121 -135t-152 -74.5t-176 -24.5q-170 0 -277.5 93t-107.5 256zM411 1281q0 64 43 108t106 44 q64 0 108 -44t44 -108q0 -63 -44 -106t-108 -43t-106.5 42.5t-42.5 106.5zM820 1281q0 64 43 108t107 44t107.5 -44t43.5 -108t-43.5 -106.5t-107.5 -42.5t-107 42.5t-43 106.5z" />
<glyph unicode="&#x11e;" horiz-adv-x="1647" d="M153 635q0 232 107.5 421t293 296t410.5 107q58 0 118 -9.5t134 -32.5t145.5 -72t124.5 -119l-174 -158q-63 80 -157 124.5t-211 44.5q-150 0 -275.5 -73.5t-199.5 -207t-74 -300.5q0 -210 127.5 -335t331.5 -125q182 0 301 93.5t166 268.5h-385l46 214h611q0 -22 -6 -70 q-19 -159 -81.5 -293t-158.5 -230.5t-228.5 -151t-285.5 -54.5q-144 0 -269.5 49t-216 135.5t-142.5 210.5t-52 267zM663 1842l174 52q19 -177 168 -177q138 0 228 177l170 -52q-75 -154 -177.5 -230t-240.5 -76q-140 0 -225 78.5t-97 227.5z" />
<glyph unicode="&#x11f;" horiz-adv-x="1238" d="M4 -278l109 175q147 -123 351 -123q122 0 204 79t108 204l2 13q-103 -71 -251 -71q-194 0 -321 123.5t-127 308.5q0 158 72 290t199 209t281 77q222 0 315 -143l26 117h214l-196 -919q-50 -231 -187 -356.5t-343 -125.5q-267 0 -456 142zM301 454q0 -112 70 -183t180 -71 q146 0 238 96t92 249q0 115 -70.5 187.5t-181.5 72.5q-145 0 -236.5 -97.5t-91.5 -253.5zM361 1417l175 52q19 -177 167 -177q139 0 229 177l170 -52q-75 -154 -177.5 -230t-240.5 -76q-140 0 -225.5 78.5t-97.5 227.5z" />
<glyph unicode="&#x130;" horiz-adv-x="606" d="M81 0l305 1434h237l-306 -1434h-236zM383 1711q0 68 45.5 114t112.5 46t112.5 -46t45.5 -114q0 -67 -45.5 -112t-112.5 -45t-112.5 45t-45.5 112z" />
<glyph unicode="&#x131;" horiz-adv-x="530" d="M52 0l209 981h217l-209 -981h-217z" />
<glyph unicode="&#x15e;" horiz-adv-x="1364" d="M67 175l138 187q57 -60 150 -100.5t168 -54.5t135 -14q147 0 244 58t97 158q0 73 -64.5 117t-202.5 69l-110 20q-175 32 -280 126t-105 246q0 92 35.5 175.5t103 150.5t178.5 106.5t250 39.5q311 0 550 -165l-129 -187q-202 133 -435 133q-156 0 -232 -65t-76 -158 q0 -74 57 -116.5t168 -63.5l106 -20q429 -76 429 -382q0 -176 -120.5 -295.5t-324.5 -153.5l-155 -315h-251l169 307q-128 12 -262 60t-231 137z" />
<glyph unicode="&#x15f;" horiz-adv-x="982" d="M-3 109l119 158q149 -105 318 -105q100 0 156.5 32t62.5 88q5 44 -30.5 71t-113.5 39l-74 11q-163 24 -238.5 101.5t-62.5 196.5q17 145 128 225t289 80q255 0 419 -107l-113 -164q-57 36 -145.5 60t-162.5 24q-86 0 -136.5 -28t-55.5 -78q-6 -58 30.5 -82t111.5 -36 l70 -11q168 -28 243 -105t62 -193q-13 -115 -98.5 -196t-226.5 -105l-155 -314h-240l172 313q-198 27 -329 125z" />
<glyph unicode="&#x2c6;" horiz-adv-x="1024" d="M281 1126l269 308h293l154 -308h-224l-93 170l-160 -170h-239z" />
<glyph unicode="&#x2da;" horiz-adv-x="1024" d="M442 1360q0 103 75 176.5t179 73.5q105 0 180 -73.5t75 -176.5q0 -104 -75 -177.5t-180 -73.5t-179.5 73.5t-74.5 177.5zM585 1360q0 -49 32.5 -82.5t78.5 -33.5t79.5 33.5t33.5 82.5q0 47 -33.5 80.5t-79.5 33.5q-45 0 -78 -33.5t-33 -80.5z" />
<glyph unicode="&#x2dc;" horiz-adv-x="1024" d="M309 1298q59 59 118.5 85t133.5 26q63 0 115.5 -17.5t88.5 -35t59 -17.5q60 0 149 71l101 -144q-58 -58 -118 -84.5t-134 -26.5q-61 0 -113 17.5t-88.5 35t-61.5 17.5q-60 0 -147 -71z" />
<glyph unicode="&#x2000;" horiz-adv-x="947" />
<glyph unicode="&#x2001;" horiz-adv-x="1894" />
<glyph unicode="&#x2002;" horiz-adv-x="947" />
<glyph unicode="&#x2003;" horiz-adv-x="1894" />
<glyph unicode="&#x2004;" horiz-adv-x="631" />
<glyph unicode="&#x2005;" horiz-adv-x="473" />
<glyph unicode="&#x2006;" horiz-adv-x="315" />
<glyph unicode="&#x2007;" horiz-adv-x="315" />
<glyph unicode="&#x2008;" horiz-adv-x="236" />
<glyph unicode="&#x2009;" horiz-adv-x="378" />
<glyph unicode="&#x200a;" horiz-adv-x="105" />
<glyph unicode="&#x2010;" horiz-adv-x="840" d="M121 449l41 194h581l-41 -194h-581z" />
<glyph unicode="&#x2011;" horiz-adv-x="840" d="M121 449l41 194h581l-41 -194h-581z" />
<glyph unicode="&#x2012;" horiz-adv-x="840" d="M121 449l41 194h581l-41 -194h-581z" />
<glyph unicode="&#x2013;" horiz-adv-x="1176" d="M103 449l40 194h954l-40 -194h-954z" />
<glyph unicode="&#x2014;" horiz-adv-x="1618" d="M49 449l39 194h1505l-39 -194h-1505z" />
<glyph unicode="&#x2018;" horiz-adv-x="506" d="M190 916l229 559h197l-175 -559h-251z" />
<glyph unicode="&#x2019;" horiz-adv-x="506" d="M190 916l176 559h250l-228 -559h-198z" />
<glyph unicode="&#x201a;" horiz-adv-x="506" d="M-63 -281l175 559h250l-228 -559h-197z" />
<glyph unicode="&#x201c;" horiz-adv-x="906" d="M190 916l229 559h197l-175 -559h-251zM590 916l228 559h198l-175 -559h-251z" />
<glyph unicode="&#x201d;" horiz-adv-x="906" d="M190 916l176 559h250l-228 -559h-198zM590 916l175 559h251l-229 -559h-197z" />
<glyph unicode="&#x201e;" horiz-adv-x="906" d="M-63 -281l175 559h250l-228 -559h-197zM336 -281l175 559h251l-228 -559h-198z" />
<glyph unicode="&#x2026;" horiz-adv-x="1648" d="M14 155q0 72 54 125t126 53q71 0 124.5 -53t53.5 -125t-53.5 -126.5t-124.5 -54.5t-125.5 54.5t-54.5 126.5zM578 155q0 72 53.5 125t125.5 53q71 0 124.5 -53t53.5 -125t-53.5 -126.5t-124.5 -54.5t-125 54.5t-54 126.5zM1141 155q0 72 53.5 125t125.5 53 q71 0 124.5 -53t53.5 -125t-53.5 -126.5t-124.5 -54.5t-125 54.5t-54 126.5z" />
<glyph unicode="&#x202f;" horiz-adv-x="378" />
<glyph unicode="&#x2039;" horiz-adv-x="652" d="M108 546l276 388h241l-293 -411l104 -365h-218z" />
<glyph unicode="&#x203a;" horiz-adv-x="652" d="M51 158l293 410l-104 366h218l110 -388l-276 -388h-241z" />
<glyph unicode="&#x205f;" horiz-adv-x="473" />
<glyph unicode="&#x20ac;" horiz-adv-x="1433" d="M97 466l37 177h158q4 96 16 160h-146l37 177h157q85 224 262.5 350.5t409.5 126.5q307 0 488 -238l-165 -143q-130 176 -336 176q-138 0 -246.5 -71t-172.5 -201h582l-38 -177h-602q-16 -83 -19 -160h587l-37 -177h-530q35 -132 124.5 -206t217.5 -74q98 0 183.5 49 t145.5 129l132 -143q-89 -114 -210 -176.5t-264 -62.5q-226 0 -376.5 129.5t-188.5 354.5h-206z" />
<glyph unicode="&#x2122;" horiz-adv-x="1608" d="M244 1292l29 142h570l-30 -142h-209l-108 -514h-154l109 514h-207zM831 778l140 656h214l73 -420l251 420h227l-140 -656h-153l96 455l-230 -392h-163l-65 391l-96 -454h-154z" />
<glyph unicode="&#x25fc;" horiz-adv-x="983" d="M0 0v983h983v-983h-983z" />
</font>
</defs>
</svg>
