<?xml version="1.0" standalone="no"?>
<!DOCTYPE svg PUBLIC "-//W3C//DTD SVG 1.1//EN" "http://www.w3.org/Graphics/SVG/1.1/DTD/svg11.dtd" >
<svg xmlns="http://www.w3.org/2000/svg" xmlns:xlink="http://www.w3.org/1999/xlink" version="1.1">
<metadata></metadata>
<defs>
<font id="mark_problack" horiz-adv-x="1228" >
<font-face units-per-em="2048" ascent="1618" descent="-430" />
<missing-glyph horiz-adv-x="419" />
<glyph horiz-adv-x="0" />
<glyph horiz-adv-x="0" />
<glyph horiz-adv-x="682" />
<glyph unicode="&#xd;" horiz-adv-x="419" />
<glyph unicode=" "  horiz-adv-x="419" />
<glyph unicode="&#x09;" horiz-adv-x="419" />
<glyph unicode="&#xa0;" horiz-adv-x="419" />
<glyph unicode="!" horiz-adv-x="615" d="M83 200q0 90 67.5 156.5t158.5 66.5q90 0 156.5 -66.5t66.5 -156.5q0 -92 -66.5 -159.5t-156.5 -67.5q-91 0 -158.5 67.5t-67.5 159.5zM96 1434h426l-41 -904h-344z" />
<glyph unicode="&#x22;" horiz-adv-x="1166" d="M143 764v711h365v-711h-365zM658 764v711h365v-711h-365z" />
<glyph unicode="#" horiz-adv-x="1487" d="M61 296l64 301h169l52 247h-169l65 301h169l61 289h330l-62 -289h188l61 289h330l-62 -289h169l-64 -301h-169l-52 -247h169l-64 -301h-170l-62 -296h-330l62 296h-187l-62 -296h-330l62 296h-168zM624 597h187l52 247h-187z" />
<glyph unicode="$" horiz-adv-x="1433" d="M98 189l178 292q112 -67 219.5 -103t237.5 -36q88 0 140.5 23t53.5 71q1 21 -10 37t-30 27t-52 20t-70.5 16t-91.5 16q-9 1 -13 2l-60 10q-232 39 -340.5 139t-104.5 273q4 170 123.5 285t317.5 144v183h282v-184q121 -13 216.5 -45t203.5 -88l-157 -294 q-202 114 -405 114q-87 0 -140 -23t-54 -67q0 -17 6.5 -30t23.5 -23t33 -17t47 -13.5t52 -10.5t61.5 -10.5t62.5 -10.5l53 -9q211 -37 323.5 -139t112.5 -255q0 -190 -117 -303t-322 -147v-194h-282v189q-307 27 -498 161z" />
<glyph unicode="%" horiz-adv-x="2017" d="M41 1062q0 172 115.5 285t289.5 113t290 -113.5t116 -284.5t-116 -284.5t-290 -113.5t-289.5 113t-115.5 285zM295 0l1068 1434h349l-1068 -1434h-349zM316 1062q0 -58 37 -98t93 -40t93.5 40t37.5 98q0 59 -37 98.5t-94 39.5q-56 0 -93 -40t-37 -98zM1165 372 q0 169 116.5 283.5t289.5 114.5q174 0 289.5 -113t115.5 -285t-115.5 -285.5t-289.5 -113.5t-290 113.5t-116 285.5zM1441 372q0 -59 37 -99t93 -40t93 40t37 99t-36.5 98.5t-93.5 39.5q-56 0 -93 -40t-37 -98z" />
<glyph unicode="&#x26;" horiz-adv-x="1544" d="M59 360q0 204 235 384q-79 86 -115.5 160t-36.5 165q0 175 128 283t338 108q209 0 336.5 -107.5t127.5 -283.5q0 -97 -70.5 -181t-193.5 -169l148 -147l219 256l256 -195l-244 -287l352 -346h-478l-114 110q-187 -137 -403 -137q-227 0 -356 107t-129 280zM449 403 q0 -52 35.5 -81t98.5 -29t131 42l-192 186q-73 -65 -73 -118zM500 1059q0 -24 17.5 -49t69.5 -75q65 41 98 72t33 60q0 34 -30.5 58t-79.5 24q-51 0 -79.5 -23.5t-28.5 -66.5z" />
<glyph unicode="'" horiz-adv-x="651" d="M143 764v711h365v-711h-365z" />
<glyph unicode="(" horiz-adv-x="852" d="M61 582q0 327 179.5 573t468.5 343l103 -315q-372 -178 -372 -601t372 -601l-103 -316q-289 97 -468.5 343.5t-179.5 573.5z" />
<glyph unicode=")" horiz-adv-x="852" d="M41 -19q372 178 372 601t-372 601l103 315q289 -97 468.5 -343t179.5 -573t-179.5 -573.5t-468.5 -343.5z" />
<glyph unicode="*" horiz-adv-x="968" d="M51 1056l89 272l212 -81l-11 228h287l-12 -228l212 81l90 -272l-221 -60l144 -177l-233 -168l-124 190l-124 -190l-232 168l142 177z" />
<glyph unicode="+" d="M123 397v293h342v345h299v-345h342v-293h-342v-345h-299v345h-342z" />
<glyph unicode="," horiz-adv-x="604" d="M56 -299l90 711h393l-182 -711h-301z" />
<glyph unicode="-" horiz-adv-x="768" d="M72 390v307h624v-307h-624z" />
<glyph unicode="." horiz-adv-x="615" d="M72 211q0 95 70.5 164.5t166.5 69.5q95 0 165 -70t70 -164q0 -96 -70 -167t-165 -71q-96 0 -166.5 71t-70.5 167z" />
<glyph unicode="/" horiz-adv-x="1118" d="M-61 -205l869 1782h372l-870 -1782h-371z" />
<glyph unicode="0" horiz-adv-x="1425" d="M70 717q0 170 50 311.5t137 235t204 145t252 51.5t252.5 -51.5t204 -145t136.5 -234.5t50 -312t-50 -312t-136.5 -235t-204 -145.5t-252.5 -51.5t-252 51.5t-204 145.5t-137 235.5t-50 311.5zM463 717q0 -182 69.5 -281.5t180.5 -99.5t180.5 99.5t69.5 281.5t-69.5 281.5 t-180.5 99.5t-180.5 -99.5t-69.5 -281.5z" />
<glyph unicode="1" horiz-adv-x="826" d="M35 835v366l680 255v-1456h-378v942z" />
<glyph unicode="2" horiz-adv-x="1180" d="M45 1202q216 258 550 258q230 0 369 -126.5t139 -338.5q0 -125 -53 -225t-186 -226l-205 -195h473v-349h-1006v296l487 460q98 92 98 191q0 68 -47 109.5t-116 41.5q-82 0 -149 -41t-140 -116z" />
<glyph unicode="3" horiz-adv-x="1178" d="M35 185l209 246q121 -123 285 -123q86 0 142 32.5t56 94.5q0 60 -63.5 92.5t-159.5 32.5h-157v328h161q86 0 140 32.5t54 89.5q0 56 -46.5 85.5t-126.5 29.5q-169 0 -289 -129l-203 250q97 102 219 158t288 56q241 0 394 -114.5t153 -301.5q0 -110 -52.5 -192 t-151.5 -130q111 -45 171.5 -128.5t60.5 -193.5q0 -85 -31 -155.5t-84.5 -120t-126 -84t-155 -51t-171.5 -16.5q-164 0 -296 55t-220 157z" />
<glyph unicode="4" horiz-adv-x="1224" d="M28 230v259l439 945h412l-401 -854h178v127l113 246h265v-373h163v-350h-163v-230h-378v230h-628z" />
<glyph unicode="5" horiz-adv-x="1195" d="M45 160l172 285q56 -48 155 -89.5t196 -41.5q84 0 128.5 36.5t44.5 106.5q0 130 -221 130h-363l19 847h865v-345h-544l-5 -176h120q246 0 383.5 -115t137.5 -317q0 -228 -156.5 -368t-406.5 -140q-159 0 -296.5 52.5t-228.5 134.5z" />
<glyph unicode="6" horiz-adv-x="1233" d="M42 470q0 196 149 416l368 548h453l-339 -473q124 -1 223 -39.5t162.5 -104t97 -151t33.5 -183.5q0 -109 -44 -204t-120.5 -162t-183 -105.5t-227.5 -38.5q-161 0 -291.5 63.5t-205.5 177.5t-75 256zM440 479q0 -75 49 -123.5t125 -48.5q77 0 127.5 48.5t50.5 123.5 q0 73 -50.5 121.5t-127.5 48.5q-76 0 -125 -48.5t-49 -121.5z" />
<glyph unicode="7" horiz-adv-x="1135" d="M42 1084v350h1059v-297l-542 -1137h-453l546 1084h-610z" />
<glyph unicode="8" horiz-adv-x="1291" d="M59 391q0 123 68 205.5t182 127.5q-213 101 -213 320q0 126 74.5 222t198.5 145t276 49q153 0 277 -49t198.5 -145t74.5 -222q0 -220 -214 -320q115 -46 183 -128t68 -205q0 -127 -80 -223.5t-212 -145.5t-295 -49q-162 0 -294 49t-212 145.5t-80 223.5zM474 438 q0 -66 49.5 -103.5t121.5 -37.5q73 0 122.5 37.5t49.5 103.5q0 67 -50 106.5t-122 39.5t-121.5 -39.5t-49.5 -106.5zM501 1004q0 -60 40.5 -94t103.5 -34t104 34t41 94q0 59 -40.5 91.5t-104.5 32.5q-63 0 -103.5 -32.5t-40.5 -91.5z" />
<glyph unicode="9" horiz-adv-x="1233" d="M45 950q0 221 163.5 365.5t409.5 144.5q161 0 292 -63.5t206.5 -177t75.5 -255.5q0 -192 -150 -416l-367 -548h-453l339 473q-124 1 -223 39t-162.5 103.5t-97 151t-33.5 183.5zM442 954q0 -73 50 -121.5t126 -48.5t126 48.5t50 121.5q0 75 -49.5 123.5t-126.5 48.5 t-126.5 -48.5t-49.5 -123.5z" />
<glyph unicode=":" horiz-adv-x="615" d="M72 211q0 95 70.5 164.5t166.5 69.5q95 0 165 -70t70 -164q0 -96 -70 -167t-165 -71q-96 0 -166.5 71t-70.5 167zM72 808q0 95 70.5 164.5t166.5 69.5q95 0 165 -70t70 -164q0 -96 -70 -167t-165 -71q-96 0 -166.5 71t-70.5 167z" />
<glyph unicode=";" horiz-adv-x="604" d="M56 -299l90 711h393l-182 -711h-301zM84 808q0 94 71 164t167 70q94 0 164 -70t70 -164q0 -96 -70 -167t-164 -71q-96 0 -167 71t-71 167z" />
<glyph unicode="&#x3c;" d="M193 381v325l844 390v-336l-528 -216l528 -217v-336z" />
<glyph unicode="=" d="M123 157v293h983v-293h-983zM123 638v293h983v-293h-983z" />
<glyph unicode="&#x3e;" d="M193 -9v336l528 216l-528 217v336l844 -390v-325z" />
<glyph unicode="?" horiz-adv-x="913" d="M84 200q0 91 67 157.5t159 66.5q90 0 157 -66.5t67 -156.5q0 -92 -67 -160t-157 -68q-91 0 -158.5 67.5t-67.5 159.5zM88 1448q100 12 234 12q263 0 412 -113t149 -309q0 -163 -102 -271.5t-292 -151.5l-7 -95h-344v382h111q119 0 176 22.5t57 71.5q0 51 -56.5 74 t-176.5 24q-75 0 -141 -8z" />
<glyph unicode="@" horiz-adv-x="1908" d="M72 512q0 184 66 343.5t182 273t281.5 178.5t357.5 65q191 0 356 -62.5t279 -170t178.5 -256.5t64.5 -319q0 -215 -122.5 -349t-320.5 -134q-208 0 -294 141q-77 -110 -222 -110q-155 0 -246.5 115t-91.5 285q0 167 91.5 283t234.5 116q121 0 192 -85v64h274v-458 q0 -91 76 -91q65 0 100.5 55.5t35.5 166.5q0 154 -73.5 277.5t-207.5 194t-304 70.5q-259 0 -421.5 -165t-162.5 -428t157 -428t407 -165q100 0 177 19.5t142 71.5l166 -216q-192 -142 -485 -142q-188 0 -349.5 65t-275 178.5t-178 273t-64.5 343.5zM836 511 q0 -58 31.5 -95.5t77.5 -37.5q47 0 78 37.5t31 95.5t-31 95.5t-78 37.5q-46 0 -77.5 -37.5t-31.5 -95.5z" />
<glyph unicode="A" horiz-adv-x="1554" d="M5 0l543 1434h459l542 -1434h-412l-96 273h-535l-94 -273h-407zM627 621h294l-147 423z" />
<glyph unicode="B" horiz-adv-x="1381" d="M102 0v1434h643q281 0 419 -108t138 -304q0 -101 -52 -179.5t-139 -122.5q96 -36 157.5 -120.5t61.5 -187.5q0 -196 -135.5 -304t-412.5 -108h-680zM492 316l269 -1q169 0 169 124q0 123 -169 123h-269v-246zM492 878h244q162 0 162 119t-161 119h-245v-238z" />
<glyph unicode="C" horiz-adv-x="1504" d="M51 717q0 215 96.5 385t269 264t391.5 94q212 0 386.5 -96t267.5 -267l-345 -191q-106 181 -315 181q-150 0 -248 -103.5t-98 -266.5q0 -174 102.5 -272.5t244.5 -98.5q205 0 323 180l320 -223q-104 -156 -267 -243t-371 -87q-219 0 -391.5 94.5t-269 264.5t-96.5 385z " />
<glyph unicode="D" horiz-adv-x="1529" d="M102 0v1434h633q337 0 540.5 -196.5t203.5 -520.5t-203.5 -520.5t-540.5 -196.5h-633zM492 357h233q171 0 260 99t89 261q0 164 -89 261.5t-260 97.5h-233v-719z" />
<glyph unicode="E" horiz-adv-x="1304" d="M102 0v1434h1121v-347h-731v-189h679v-346h-679v-206h731v-346h-1121z" />
<glyph unicode="F" horiz-adv-x="1273" d="M102 0v1434h1110v-347h-720v-220h669v-346h-669v-521h-390z" />
<glyph unicode="G" horiz-adv-x="1562" d="M51 717q0 215 97.5 384.5t272.5 264t398 94.5q329 0 524 -198l-274 -271q-109 106 -273 106q-152 0 -249 -106t-97 -274q0 -95 29 -171t78.5 -123t112 -72t132.5 -25q262 0 324 211h-335v284h712q8 -60 8 -129q0 -139 -39.5 -257.5t-107 -202t-156.5 -143t-187.5 -87.5 t-201.5 -28q-223 0 -398 94.5t-272.5 264t-97.5 384.5z" />
<glyph unicode="H" horiz-adv-x="1513" d="M102 0v1434h390v-531h530v531h389v-1434h-389v546h-530v-546h-390z" />
<glyph unicode="I" horiz-adv-x="593" d="M102 0v1434h390v-1434h-390z" />
<glyph unicode="J" horiz-adv-x="1117" d="M23 133l188 301q104 -88 230 -88q94 0 142 56t48 183v849h389v-882q0 -285 -145 -432t-397 -147q-149 0 -267.5 45.5t-187.5 114.5z" />
<glyph unicode="K" horiz-adv-x="1457" d="M102 0v1434h390v-539h112l362 539h473l-519 -700l565 -734h-478l-405 549h-110v-549h-390z" />
<glyph unicode="L" horiz-adv-x="1202" d="M102 0v1434h390v-1076h690v-358h-1080z" />
<glyph unicode="M" horiz-adv-x="1858" d="M102 0v1434h540l288 -863l287 863h539v-1434h-389v897l-230 -764h-415l-230 764v-897h-390z" />
<glyph unicode="N" horiz-adv-x="1563" d="M102 0v1434h379l591 -806v806h389v-1434h-379l-590 806v-806h-390z" />
<glyph unicode="O" horiz-adv-x="1617" d="M51 717q0 212 96.5 381.5t270 265.5t391.5 96t391.5 -96t270 -265.5t96.5 -381.5t-96.5 -381.5t-270 -266t-391.5 -96.5t-391.5 96.5t-270 266t-96.5 381.5zM456 717q0 -164 98 -267.5t255 -103.5t255 103.5t98 267.5t-98 267t-255 103t-255 -103t-98 -267z" />
<glyph unicode="P" horiz-adv-x="1345" d="M102 0v1434h639q268 0 412 -134.5t144 -361.5q0 -222 -143.5 -354t-407.5 -132h-254v-452h-390zM492 793h245q74 0 120.5 38.5t46.5 106.5t-46.5 107t-120.5 39h-245v-291z" />
<glyph unicode="Q" horiz-adv-x="1649" d="M51 717q0 212 96.5 381.5t270 265.5t391.5 96t391.5 -96t270 -265.5t96.5 -381.5q0 -211 -113 -380l248 -337h-459l-59 80q-172 -107 -375 -107q-218 0 -391.5 96.5t-270 266t-96.5 381.5zM456 717q0 -164 98 -267.5t255 -103.5q76 0 147 29l-195 263l394 -1q7 36 7 80 q0 164 -98 267t-255 103t-255 -103t-98 -267z" />
<glyph unicode="R" horiz-adv-x="1368" d="M102 0v1434h639q269 0 412.5 -128.5t143.5 -349.5q0 -168 -95 -280.5t-275 -149.5l390 -526h-459l-345 509h-21v-509h-390zM492 829h245q75 0 121 32t46 95t-46 95.5t-121 32.5h-245v-255z" />
<glyph unicode="S" horiz-adv-x="1388" d="M61 152l191 317q55 -33 93.5 -53.5t99 -45t129.5 -36.5t147 -12q83 0 132 24t49 75q0 50 -52 70.5t-198 45.5q-11 2 -17 3l-54 9q-245 42 -355 151q-105 104 -105 284v17q5 206 164.5 332t416.5 126q161 0 297.5 -29.5t308.5 -120.5l-168 -319q-213 120 -414 120 q-83 0 -133.5 -23t-50.5 -70q0 -17 8 -30.5t25 -23.5t35.5 -17t48.5 -14t53.5 -11t61 -10.5t61.5 -11.5l46 -9q222 -43 334 -149t112 -271q0 -105 -34.5 -190t-92.5 -141.5t-137.5 -94.5t-165.5 -54.5t-181 -16.5q-194 0 -363.5 46t-291.5 133z" />
<glyph unicode="T" horiz-adv-x="1245" d="M20 1075v359h1205v-359h-408v-1075h-389v1075h-408z" />
<glyph unicode="U" horiz-adv-x="1454" d="M92 585v849h390v-838q0 -122 65 -186t180 -64t180 64t65 186v838h390v-849q0 -294 -163.5 -453t-471.5 -159t-471.5 159t-163.5 453z" />
<glyph unicode="V" horiz-adv-x="1513" d="M5 1434h413l342 -1027l342 1027h406l-522 -1434h-459z" />
<glyph unicode="W" horiz-adv-x="2232" d="M8 1434h401l244 -962l258 962h415l258 -963l245 963h395l-409 -1434h-459l-240 839l-239 -839h-459z" />
<glyph unicode="X" horiz-adv-x="1388" d="M5 0l454 721l-454 713h440l251 -424l250 424h437l-453 -712l453 -722h-440l-251 425l-250 -425h-437z" />
<glyph unicode="Y" horiz-adv-x="1462" d="M2 1434h447l289 -542l289 542h433l-528 -891v-543h-389v538z" />
<glyph unicode="Z" horiz-adv-x="1310" d="M61 0v305l671 782h-671v347h1188v-306l-670 -782h670v-346h-1188z" />
<glyph unicode="[" horiz-adv-x="765" d="M102 -269v1703h623v-324h-256v-1056h256v-323h-623z" />
<glyph unicode="\" horiz-adv-x="1118" d="M-61 1577h371l870 -1782h-372z" />
<glyph unicode="]" horiz-adv-x="765" d="M41 54h256v1056h-256v324h623v-1703h-623v323z" />
<glyph unicode="^" d="M86 650l366 784h325l366 -784h-348l-185 446l-183 -446h-341z" />
<glyph unicode="_" horiz-adv-x="962" d="M-5 -85h973v-262h-973v262z" />
<glyph unicode="`" horiz-adv-x="1024" d="M196 1484h407l226 -355h-336z" />
<glyph unicode="a" horiz-adv-x="1220" d="M43 509q0 146 58.5 267.5t165 193.5t239.5 72q174 0 275 -118v91h351v-1015h-351v89q-102 -116 -276 -116q-132 0 -238.5 72.5t-165 194.5t-58.5 269zM419 508q0 -85 51 -140.5t129 -55.5t129 55.5t51 140.5t-51 140t-129 55t-129 -55t-51 -140z" />
<glyph unicode="b" horiz-adv-x="1219" d="M89 0v1475h365v-534q99 101 260 101q133 0 239.5 -72t165 -193.5t58.5 -267.5q0 -147 -58.5 -269t-165 -194.5t-238.5 -72.5q-175 0 -277 116v-89h-349zM440 508q0 -85 51.5 -140.5t129.5 -55.5t129 55.5t51 140.5t-51 140t-129 55t-129.5 -55t-51.5 -140z" />
<glyph unicode="c" horiz-adv-x="1068" d="M43 508q0 235 154.5 384.5t398.5 149.5q295 0 456 -245l-299 -189q-63 95 -165 95q-71 0 -121.5 -52t-50.5 -143q0 -92 49 -144t120 -52q103 0 168 97l300 -192q-76 -116 -192.5 -180t-264.5 -64q-243 0 -398 150t-155 385z" />
<glyph unicode="d" horiz-adv-x="1219" d="M43 509q0 146 58.5 267.5t165 193.5t239.5 72q159 0 260 -101v534h364v-1475h-349v89q-102 -116 -276 -116q-132 0 -238.5 72.5t-165 194.5t-58.5 269zM419 508q0 -85 51 -140.5t129 -55.5t129 55.5t51 140.5t-51 140t-129 55t-129 -55t-51 -140z" />
<glyph unicode="e" horiz-adv-x="1132" d="M43 499q0 241 146.5 392t380.5 151q230 0 374.5 -148t145.5 -386q0 -69 -8 -109h-662q38 -123 182 -123q108 0 192 82l249 -208q-76 -82 -194 -129.5t-264 -47.5q-243 0 -392.5 145t-149.5 381zM421 620h305q-40 116 -154 116q-116 0 -151 -116z" />
<glyph unicode="f" horiz-adv-x="879" d="M27 693v322h163v40q0 219 110.5 332.5t294.5 113.5q220 0 367 -120l-166 -260q-82 41 -146 41q-49 0 -72 -27t-23 -89v-31h258v-322h-258v-693h-365v693h-163z" />
<glyph unicode="g" horiz-adv-x="1214" d="M43 535q0 214 130 360.5t332 146.5q172 0 270 -116v89h350v-906q0 -252 -151 -395.5t-401 -143.5q-136 0 -261 34t-218 99l129 287q136 -104 318 -104q40 0 78.5 11.5t73.5 34.5t56 64t21 95v46q-97 -110 -265 -110q-202 0 -332 147t-130 361zM421 535q0 -77 50 -127.5 t125 -50.5t123 50.5t48 127.5t-48 127t-123 50t-125 -50t-50 -127z" />
<glyph unicode="h" horiz-adv-x="1157" d="M89 0v1477h365v-542q85 107 257 107q159 0 260.5 -104.5t101.5 -277.5v-660h-364v546q0 75 -33.5 115t-94.5 40q-57 0 -92 -38.5t-35 -118.5v-544h-365z" />
<glyph unicode="i" horiz-adv-x="542" d="M61 1312q0 88 60.5 148.5t148.5 60.5t148.5 -60.5t60.5 -148.5t-60.5 -148.5t-148.5 -60.5t-148.5 60.5t-60.5 148.5zM89 0v1015h365v-1015h-365z" />
<glyph unicode="j" horiz-adv-x="542" d="M-48 -414l21 325q27 -8 60 -8q56 0 56 79v1033h365v-1058q0 -184 -94 -288.5t-254 -104.5q-88 0 -154 22zM59 1312q0 88 60.5 148.5t148.5 60.5t148.5 -60.5t60.5 -148.5t-60.5 -148.5t-148.5 -60.5t-148.5 60.5t-60.5 148.5z" />
<glyph unicode="k" horiz-adv-x="1139" d="M89 0v1475h365v-777h60l205 317h438l-355 -479l355 -536h-436l-217 378h-50v-378h-365z" />
<glyph unicode="l" horiz-adv-x="542" d="M89 0v1475h365v-1475h-365z" />
<glyph unicode="m" horiz-adv-x="1776" d="M89 0v1015h347v-105q86 132 275 132q97 0 175.5 -40.5t125.5 -115.5q92 156 302 156q175 0 277 -103.5t102 -278.5v-660h-365v546q0 75 -33.5 115t-94.5 40q-57 0 -92 -38.5t-35 -118.5v-544h-364v546q0 75 -33.5 115t-94.5 40q-57 0 -92 -38.5t-35 -118.5v-544h-365z " />
<glyph unicode="n" horiz-adv-x="1157" d="M89 0v1015h347v-105q86 132 275 132q159 0 260.5 -104.5t101.5 -277.5v-660h-364v546q0 75 -33.5 115t-94.5 40q-58 0 -92.5 -39t-34.5 -118v-544h-365z" />
<glyph unicode="o" horiz-adv-x="1191" d="M43 508q0 152 71.5 274t198 191t283.5 69t283.5 -69t198 -191t71.5 -274t-71.5 -274.5t-198 -191.5t-283.5 -69t-283.5 69t-198 191.5t-71.5 274.5zM416 508q0 -85 51 -140.5t129 -55.5t129 55.5t51 140.5t-51 140t-129 55t-129 -55t-51 -140z" />
<glyph unicode="p" horiz-adv-x="1219" d="M89 -410v1425h349v-91q101 118 276 118q133 0 239.5 -72t165 -193.5t58.5 -267.5q0 -147 -58.5 -269t-165 -194.5t-238.5 -72.5q-161 0 -261 100v-483h-365zM440 508q0 -85 51.5 -140.5t129.5 -55.5t129 55.5t51 140.5t-51 140t-129 55t-129.5 -55t-51.5 -140z" />
<glyph unicode="q" horiz-adv-x="1219" d="M43 509q0 146 58.5 267.5t165 193.5t239.5 72q174 0 275 -118v91h349v-1425h-364v483q-102 -100 -261 -100q-132 0 -238.5 72.5t-165 194.5t-58.5 269zM419 508q0 -85 51 -140.5t129 -55.5t129 55.5t51 140.5t-51 140t-129 55t-129 -55t-51 -140z" />
<glyph unicode="r" horiz-adv-x="824" d="M89 0v1015h348v-103q81 130 270 130q44 0 91 -10l-21 -364q-88 23 -160 23q-80 0 -121 -33.5t-41 -113.5v-544h-366z" />
<glyph unicode="s" horiz-adv-x="1044" d="M45 71l117 284q170 -92 367 -92q59 0 82.5 10t23.5 33t-29.5 32.5t-125.5 23.5l-40 7q-188 29 -275.5 107.5t-87.5 219.5q0 167 116 256.5t330 89.5q125 0 214.5 -15.5t232.5 -62.5l-87 -285q-202 75 -342 75q-50 0 -69 -9.5t-19 -28.5q0 -8 3.5 -14t12.5 -10.5t18 -7.5 t25.5 -6t29 -5t35 -5.5t37.5 -5.5l62 -11q323 -54 323 -311q0 -175 -124.5 -271t-347.5 -96q-151 0 -278 26t-204 72z" />
<glyph unicode="t" horiz-adv-x="1003" d="M27 693v322h184v291h364v-291h330v-322h-330v-237q0 -144 137 -144q57 0 165 62l121 -283q-84 -59 -170 -88.5t-211 -29.5q-208 0 -307 114.5t-99 311.5v294h-184z" />
<glyph unicode="u" horiz-adv-x="1163" d="M84 437v578h365v-547q0 -74 36 -115t97 -41t97 41t36 115v547h364v-579q0 -227 -137 -345t-360 -118q-145 0 -255.5 49t-176.5 155.5t-66 259.5z" />
<glyph unicode="v" horiz-adv-x="1198" d="M9 1015h399l196 -607l199 607h386l-380 -1015h-413z" />
<glyph unicode="w" horiz-adv-x="1888" d="M14 1015h389l179 -593l186 593h353l189 -594l179 594h385l-355 -1015h-400l-177 543l-172 -543h-399z" />
<glyph unicode="x" horiz-adv-x="1216" d="M17 0l355 511l-341 504h422l163 -267l162 267h417l-344 -507l348 -508h-419l-176 265l-169 -265h-418z" />
<glyph unicode="y" horiz-adv-x="1213" d="M6 1015h421l191 -400l191 400h399l-728 -1425h-398l342 639z" />
<glyph unicode="z" horiz-adv-x="1063" d="M62 0v261l416 432h-398v322h910v-272l-404 -421h415v-322h-939z" />
<glyph unicode="{" horiz-adv-x="902" d="M61 431v302q104 0 160 41t53 117l-3 80q-8 217 101.5 340t327.5 123h161v-312h-99q-62 0 -95.5 -37.5t-30.5 -109.5l3 -70q6 -127 -40.5 -205t-182.5 -117q135 -39 182 -118t41 -206l-3 -70q-3 -72 30.5 -109.5t95.5 -37.5h99v-311h-161q-218 0 -327.5 123t-101.5 340 l3 79q3 76 -53 117t-160 41z" />
<glyph unicode="|" horiz-adv-x="651" d="M143 -271v1705h365v-1705h-365z" />
<glyph unicode="}" horiz-adv-x="902" d="M41 42h99q62 0 95.5 37.5t30.5 109.5l-3 70q-6 128 41 206t182 117q-71 20 -117 51.5t-69.5 74t-31.5 89t-5 108.5l3 70q3 72 -30.5 109.5t-95.5 37.5h-99v312h161q218 0 327.5 -123t101.5 -340l-3 -80q-3 -76 53 -117t160 -41v-302q-104 0 -160 -41t-53 -117l3 -79 q8 -217 -101.5 -340t-327.5 -123h-161v311z" />
<glyph unicode="~" d="M92 563q56 86 148 136.5t187 50.5q60 0 121 -17.5t102 -39t84.5 -39t71.5 -17.5q85 0 179 112l152 -214q-56 -86 -148 -136.5t-187 -50.5q-60 0 -121 17.5t-102 39t-84.5 39t-71.5 17.5q-85 0 -179 -112z" />
<glyph unicode="&#xa2;" horiz-adv-x="1433" d="M215 717q0 195 109 333.5t292 182.5v201h282v-198q201 -47 321 -225l-288 -187q-67 97 -171 97q-75 0 -128.5 -55t-53.5 -149q0 -95 52 -149.5t127 -54.5q107 0 175 97l288 -189q-122 -177 -322 -223v-198h-282v201q-183 43 -292 182t-109 334z" />
<glyph unicode="&#xa3;" horiz-adv-x="1433" d="M135 0v349h152v229h-152v278h152v33q0 140 47.5 251t129.5 179.5t187.5 104.5t227.5 36q125 0 234 -39t185 -114l-249 -269q-68 60 -170 60q-93 0 -153 -52.5t-60 -158.5v-31h462v-278h-462v-229h579v-349h-1110z" />
<glyph unicode="&#xa5;" horiz-adv-x="1433" d="M13 1434h432l279 -447l276 447h420l-429 -658h276v-213h-354v-96h354v-213h-354v-254h-378v254h-355v213h355v96h-355v213h272z" />
<glyph unicode="&#xa8;" horiz-adv-x="1191" d="M132 1296q0 88 60 148.5t149 60.5t149 -60.5t60 -148.5t-60 -148.5t-149 -60.5t-149 60.5t-60 148.5zM634 1296q0 88 60 148.5t149 60.5t149 -60.5t60 -148.5t-60 -148.5t-149 -60.5t-149 60.5t-60 148.5z" />
<glyph unicode="&#xa9;" horiz-adv-x="1820" d="M61 728q0 222 113.5 411t309 299t426.5 110t426.5 -110t309 -299t113.5 -411q0 -167 -67 -319t-180.5 -262.5t-271 -175.5t-330.5 -65t-330.5 65t-271 175.5t-180.5 262.5t-67 319zM373 728q0 -144 72 -265.5t195.5 -192t269.5 -70.5t270 70.5t196 192t72 265.5 q0 143 -72 264t-196 191.5t-270 70.5t-269.5 -70.5t-195.5 -191.5t-72 -264zM505 727q0 179 114.5 288t298.5 109q134 0 241.5 -64.5t152.5 -179.5l-257 -111q-41 100 -143 100q-54 0 -87 -38.5t-33 -103.5q0 -76 36.5 -108t83.5 -32q100 0 151 100l236 -144 q-56 -100 -154 -156t-227 -56q-184 0 -298.5 109.5t-114.5 286.5z" />
<glyph unicode="&#xab;" horiz-adv-x="1160" d="M56 544l205 421h344l-205 -421l205 -421h-344zM561 544l205 421h344l-205 -421l205 -421h-344z" />
<glyph unicode="&#xad;" horiz-adv-x="768" d="M72 390v307h624v-307h-624z" />
<glyph unicode="&#xae;" horiz-adv-x="1014" d="M20 1007q0 197 141.5 335.5t346.5 138.5q204 0 345 -138.5t141 -335.5q0 -128 -64.5 -237t-176.5 -172.5t-245 -63.5q-205 0 -346.5 138.5t-141.5 334.5zM185 1007q0 -131 95.5 -226.5t227.5 -95.5q130 0 224.5 95.5t94.5 226.5q0 132 -94.5 227t-224.5 95 q-133 0 -228 -95t-95 -227zM321 791v433h207q88 0 135.5 -40.5t47.5 -108.5q0 -51 -31.5 -85.5t-90.5 -46.5l128 -152h-151l-111 147h-8v-147h-126zM447 1043h79q55 0 55 32q0 36 -55 36h-79v-68z" />
<glyph unicode="&#xb4;" horiz-adv-x="1024" d="M196 1129l226 355h407l-297 -355h-336z" />
<glyph unicode="&#xb8;" horiz-adv-x="614" d="M93 -329l114 336h315l-105 -336h-324z" />
<glyph unicode="&#xbb;" horiz-adv-x="1160" d="M50 123l205 421l-205 421h344l205 -421l-205 -421h-344zM555 123l205 421l-205 421h344l205 -421l-205 -421h-344z" />
<glyph unicode="&#xc2;" horiz-adv-x="1554" d="M5 0l543 1434h459l542 -1434h-412l-96 273h-535l-94 -273h-407zM351 1529l237 354h378l236 -354h-316l-109 139l-109 -139h-317zM627 621h294l-147 423z" />
<glyph unicode="&#xc7;" horiz-adv-x="1504" d="M51 717q0 215 96.5 385t269 264t391.5 94q212 0 386.5 -96t267.5 -267l-345 -191q-106 181 -315 181q-150 0 -248 -103.5t-98 -266.5q0 -174 102.5 -272.5t244.5 -98.5q205 0 323 180l320 -223q-175 -261 -482 -315l-100 -317h-348l109 321q-260 55 -417 251t-157 474z " />
<glyph unicode="&#xce;" horiz-adv-x="593" d="M-129 1529l237 354h377l237 -354h-316l-109 139l-110 -139h-316zM102 0v1434h390v-1434h-390z" />
<glyph unicode="&#xd6;" horiz-adv-x="1617" d="M51 717q0 212 96.5 381.5t270 265.5t391.5 96t391.5 -96t270 -265.5t96.5 -381.5t-96.5 -381.5t-270 -266t-391.5 -96.5t-391.5 96.5t-270 266t-96.5 381.5zM349 1706q0 88 60.5 148.5t148.5 60.5t148.5 -60.5t60.5 -148.5t-60.5 -148.5t-148.5 -60.5t-148.5 60.5 t-60.5 148.5zM456 717q0 -164 98 -267.5t255 -103.5t255 103.5t98 267.5t-98 267t-255 103t-255 -103t-98 -267zM851 1706q0 88 60.5 148.5t148.5 60.5t148.5 -60.5t60.5 -148.5t-60.5 -148.5t-148.5 -60.5t-148.5 60.5t-60.5 148.5z" />
<glyph unicode="&#xdb;" horiz-adv-x="1454" d="M92 585v849h390v-838q0 -122 65 -186t180 -64t180 64t65 186v838h390v-849q0 -294 -163.5 -453t-471.5 -159t-471.5 159t-163.5 453zM301 1529l237 354h377l237 -354h-316l-109 139l-110 -139h-316z" />
<glyph unicode="&#xdc;" horiz-adv-x="1454" d="M92 585v849h390v-838q0 -122 65 -186t180 -64t180 64t65 186v838h390v-849q0 -294 -163.5 -453t-471.5 -159t-471.5 159t-163.5 453zM267 1706q0 88 60.5 148.5t148.5 60.5t148.5 -60.5t60.5 -148.5t-60.5 -148.5t-148.5 -60.5t-148.5 60.5t-60.5 148.5zM769 1706 q0 88 60.5 148.5t148.5 60.5t148.5 -60.5t60.5 -148.5t-60.5 -148.5t-148.5 -60.5t-148.5 60.5t-60.5 148.5z" />
<glyph unicode="&#xe2;" horiz-adv-x="1220" d="M43 509q0 146 58.5 267.5t165 193.5t239.5 72q174 0 275 -118v91h351v-1015h-351v89q-102 -116 -276 -116q-132 0 -238.5 72.5t-165 194.5t-58.5 269zM199 1119l236 355h378l237 -355h-317l-108 139l-110 -139h-316zM419 508q0 -85 51 -140.5t129 -55.5t129 55.5 t51 140.5t-51 140t-129 55t-129 -55t-51 -140z" />
<glyph unicode="&#xe7;" horiz-adv-x="1068" d="M43 508q0 235 154.5 384.5t398.5 149.5q295 0 456 -245l-299 -189q-63 95 -165 95q-71 0 -121.5 -52t-50.5 -143q0 -92 49 -144t120 -52q103 0 168 97l300 -192q-118 -177 -315 -226l-100 -320h-324l110 325q-174 48 -277.5 185t-103.5 327z" />
<glyph unicode="&#xee;" horiz-adv-x="542" d="M-156 1119l237 355h378l236 -355h-316l-109 139l-109 -139h-317zM89 0v1015h365v-1015h-365z" />
<glyph unicode="&#xf6;" horiz-adv-x="1191" d="M43 508q0 152 71.5 274t198 191t283.5 69t283.5 -69t198 -191t71.5 -274t-71.5 -274.5t-198 -191.5t-283.5 -69t-283.5 69t-198 191.5t-71.5 274.5zM132 1296q0 88 60 148.5t149 60.5t149 -60.5t60 -148.5t-60 -148.5t-149 -60.5t-149 60.5t-60 148.5zM416 508 q0 -85 51 -140.5t129 -55.5t129 55.5t51 140.5t-51 140t-129 55t-129 -55t-51 -140zM634 1296q0 88 60 148.5t149 60.5t149 -60.5t60 -148.5t-60 -148.5t-149 -60.5t-149 60.5t-60 148.5z" />
<glyph unicode="&#xfb;" horiz-adv-x="1163" d="M84 437v578h365v-547q0 -74 36 -115t97 -41t97 41t36 115v547h364v-579q0 -227 -137 -345t-360 -118q-145 0 -255.5 49t-176.5 155.5t-66 259.5zM156 1119l236 355h378l237 -355h-317l-108 139l-110 -139h-316z" />
<glyph unicode="&#xfc;" horiz-adv-x="1163" d="M84 437v578h365v-547q0 -74 36 -115t97 -41t97 41t36 115v547h364v-579q0 -227 -137 -345t-360 -118q-145 0 -255.5 49t-176.5 155.5t-66 259.5zM118 1296q0 88 60 148.5t149 60.5t149 -60.5t60 -148.5t-60 -148.5t-149 -60.5t-149 60.5t-60 148.5zM620 1296q0 89 60 149 t148 60t148.5 -60.5t60.5 -148.5t-60.5 -148.5t-148.5 -60.5t-148 60t-60 149z" />
<glyph unicode="&#x11e;" horiz-adv-x="1562" d="M51 717q0 215 97.5 384.5t272.5 264t398 94.5q329 0 524 -198l-274 -271q-109 106 -273 106q-152 0 -249 -106t-97 -274q0 -95 29 -171t78.5 -123t112 -72t132.5 -25q262 0 324 211h-335v284h712q8 -60 8 -129q0 -139 -39.5 -257.5t-107 -202t-156.5 -143t-187.5 -87.5 t-201.5 -28q-223 0 -398 94.5t-272.5 264t-97.5 384.5zM375 1870l264 74q40 -150 155 -150q114 0 154 150l264 -74q-38 -166 -146.5 -259t-271.5 -93t-272 93t-147 259z" />
<glyph unicode="&#x11f;" horiz-adv-x="1214" d="M43 535q0 214 130 360.5t332 146.5q172 0 270 -116v89h350v-906q0 -252 -151 -395.5t-401 -143.5q-136 0 -261 34t-218 99l129 287q136 -104 318 -104q40 0 78.5 11.5t73.5 34.5t56 64t21 95v46q-97 -110 -265 -110q-202 0 -332 147t-130 361zM186 1460l265 74 q40 -150 154 -150q115 0 155 150l264 -74q-38 -166 -147 -259t-272 -93t-272 93t-147 259zM421 535q0 -77 50 -127.5t125 -50.5t123 50.5t48 127.5t-48 127t-123 50t-125 -50t-50 -127z" />
<glyph unicode="&#x130;" horiz-adv-x="593" d="M52 1716q0 93 63 156t156 63t156 -63t63 -156t-63 -156t-156 -63t-156 63t-63 156zM102 0v1434h390v-1434h-390z" />
<glyph unicode="&#x131;" horiz-adv-x="542" d="M89 0v1015h365v-1015h-365z" />
<glyph unicode="&#x15e;" horiz-adv-x="1388" d="M61 152l191 317q55 -33 93.5 -53.5t99 -45t129.5 -36.5t147 -12q83 0 132 24t49 75q0 50 -52 70.5t-198 45.5q-11 2 -17 3l-54 9q-246 42 -355.5 151t-104.5 301q5 206 164.5 332t416.5 126q161 0 297.5 -29.5t308.5 -120.5l-168 -319q-213 120 -414 120 q-83 0 -133.5 -23t-50.5 -70q0 -17 8 -30.5t25 -23.5t35.5 -17t48.5 -14t53.5 -11t61 -10.5t61.5 -11.5l46 -9q222 -43 334 -149t112 -271q0 -105 -33.5 -189.5t-93.5 -141.5t-135 -93.5t-166 -54.5l-100 -320h-348l104 311q-299 31 -494 170z" />
<glyph unicode="&#x15f;" horiz-adv-x="1044" d="M45 71l117 284q170 -92 367 -92q59 0 82.5 10t23.5 33t-29.5 32.5t-125.5 23.5l-40 7q-188 29 -275.5 107.5t-87.5 219.5q0 167 116 256.5t330 89.5q125 0 214.5 -15.5t232.5 -62.5l-87 -285q-202 75 -342 75q-50 0 -69 -9.5t-19 -28.5q0 -8 3.5 -14t12.5 -10.5t18 -7.5 t25.5 -6t29 -5t35 -5.5t37.5 -5.5l62 -11q323 -54 323 -311q0 -139 -79 -228.5t-226 -121.5l-99 -319h-324l105 310q-216 20 -331 90z" />
<glyph unicode="&#x2c6;" d="M193 1119l236 355h378l236 -355h-316l-110 139l-108 -139h-316z" />
<glyph unicode="&#x2da;" horiz-adv-x="1024" d="M218 1377q0 120 86 205t208 85t208.5 -85t86.5 -205q0 -121 -86.5 -205.5t-208.5 -84.5t-208 84.5t-86 205.5zM411 1377q0 -44 30 -74t71 -30q42 0 72 30t30 74q0 43 -30.5 74t-71.5 31t-71 -31t-30 -74z" />
<glyph unicode="&#x2dc;" d="M174 1311q113 173 313 173q64 0 116 -19t86 -38t54 -19q47 0 111 72l202 -184q-113 -173 -314 -173q-64 0 -116 19t-86 38t-54 19q-46 0 -110 -72z" />
<glyph unicode="&#x2000;" horiz-adv-x="972" />
<glyph unicode="&#x2001;" horiz-adv-x="1944" />
<glyph unicode="&#x2002;" horiz-adv-x="972" />
<glyph unicode="&#x2003;" horiz-adv-x="1944" />
<glyph unicode="&#x2004;" horiz-adv-x="648" />
<glyph unicode="&#x2005;" horiz-adv-x="486" />
<glyph unicode="&#x2006;" horiz-adv-x="324" />
<glyph unicode="&#x2007;" horiz-adv-x="324" />
<glyph unicode="&#x2008;" horiz-adv-x="243" />
<glyph unicode="&#x2009;" horiz-adv-x="388" />
<glyph unicode="&#x200a;" horiz-adv-x="108" />
<glyph unicode="&#x2010;" horiz-adv-x="768" d="M72 390v307h624v-307h-624z" />
<glyph unicode="&#x2011;" horiz-adv-x="768" d="M72 390v307h624v-307h-624z" />
<glyph unicode="&#x2012;" horiz-adv-x="768" d="M72 390v307h624v-307h-624z" />
<glyph unicode="&#x2013;" horiz-adv-x="1146" d="M61 397v293h1024v-293h-1024z" />
<glyph unicode="&#x2014;" horiz-adv-x="1597" d="M31 397v293h1536v-293h-1536z" />
<glyph unicode="&#x2018;" horiz-adv-x="604" d="M66 764l181 711h301l-90 -711h-392z" />
<glyph unicode="&#x2019;" horiz-adv-x="604" d="M56 764l90 711h393l-182 -711h-301z" />
<glyph unicode="&#x201a;" horiz-adv-x="604" d="M56 -299l90 711h393l-182 -711h-301z" />
<glyph unicode="&#x201c;" horiz-adv-x="1131" d="M66 764l181 711h301l-90 -711h-392zM593 764l181 711h301l-90 -711h-392z" />
<glyph unicode="&#x201d;" horiz-adv-x="1131" d="M56 764l90 711h393l-182 -711h-301zM584 764l90 711h392l-181 -711h-301z" />
<glyph unicode="&#x201e;" horiz-adv-x="1131" d="M56 -299l90 711h393l-182 -711h-301zM584 -299l90 711h392l-181 -711h-301z" />
<glyph unicode="&#x2026;" horiz-adv-x="1762" d="M72 211q0 95 70.5 164.5t166.5 69.5q95 0 165 -70t70 -164q0 -96 -70 -167t-165 -71q-96 0 -166.5 71t-70.5 167zM645 211q0 94 71 164t167 70q95 0 164.5 -69.5t69.5 -164.5q0 -96 -70 -167t-164 -71q-96 0 -167 71t-71 167zM1219 211q0 95 70.5 164.5t166.5 69.5 q95 0 165 -70t70 -164q0 -96 -70 -167t-165 -71q-96 0 -166.5 71t-70.5 167z" />
<glyph unicode="&#x202f;" horiz-adv-x="388" />
<glyph unicode="&#x2039;" horiz-adv-x="655" d="M56 544l205 421h344l-205 -421l205 -421h-344z" />
<glyph unicode="&#x203a;" horiz-adv-x="655" d="M50 123l205 421l-205 421h344l205 -421l-205 -421h-344z" />
<glyph unicode="&#x205f;" horiz-adv-x="486" />
<glyph unicode="&#x20ac;" horiz-adv-x="1433" d="M80 456v213h129q-1 15 -1 48q0 32 1 48h-129v213h164q68 228 249 355t433 127q249 0 429 -139l-176 -289q-108 92 -259 92q-83 0 -153 -38.5t-116 -107.5h420v-213h-489q-1 -16 -1 -48q0 -18 2 -48h488v-213h-418q46 -71 117.5 -109t150.5 -38q150 0 260 90l172 -290 q-186 -136 -427 -136q-252 0 -433 127t-249 356h-164z" />
<glyph unicode="&#x2122;" horiz-adv-x="1735" d="M41 1222v212h655v-212h-211v-464h-233v464h-211zM781 758v676h320l137 -355l135 355h322v-676h-237v381l-110 -323h-220l-115 328v-386h-232z" />
<glyph unicode="&#x25fc;" horiz-adv-x="1013" d="M0 0v1014h1014v-1014h-1014z" />
</font>
</defs>
</svg>
