<?xml version="1.0" standalone="no"?>
<!DOCTYPE svg PUBLIC "-//W3C//DTD SVG 1.1//EN" "http://www.w3.org/Graphics/SVG/1.1/DTD/svg11.dtd" >
<svg xmlns="http://www.w3.org/2000/svg" xmlns:xlink="http://www.w3.org/1999/xlink" version="1.1">
<metadata></metadata>
<defs>
<font id="mark_proregular" horiz-adv-x="1228" >
<font-face units-per-em="2048" ascent="1618" descent="-430" />
<missing-glyph horiz-adv-x="546" />
<glyph horiz-adv-x="0" />
<glyph horiz-adv-x="0" />
<glyph horiz-adv-x="682" />
<glyph unicode="&#xd;" horiz-adv-x="546" />
<glyph unicode=" "  horiz-adv-x="546" />
<glyph unicode="&#x09;" horiz-adv-x="546" />
<glyph unicode="&#xa0;" horiz-adv-x="546" />
<glyph unicode="!" horiz-adv-x="536" d="M140 111q0 52 38 90t90 38t90 -38t38 -90t-38 -90.5t-90 -38.5t-90 38.5t-38 90.5zM174 1434h187l-24 -978h-138z" />
<glyph unicode="&#x22;" horiz-adv-x="1074" d="M290 955v520h152v-520h-152zM632 955v520h152v-520h-152z" />
<glyph unicode="#" horiz-adv-x="1500" d="M124 384l30 136h235l85 401h-235l28 136h237l80 377h142l-80 -377h354l80 377h143l-80 -377h233l-29 -136h-234l-85 -401h233l-29 -136h-233l-81 -384h-143l82 384h-354l-82 -384h-142l81 384h-236zM531 520h355l85 401h-355z" />
<glyph unicode="$" horiz-adv-x="1433" d="M170 181l85 126q68 -55 179 -97t225 -51v490l-37 5q-193 25 -303 116.5t-109 252.5q2 170 127 275t322 124v196h142v-195q247 -16 445 -150l-81 -128q-161 111 -364 128v-486l33 -4q95 -12 171 -38.5t136 -70t92 -109t31 -148.5q-1 -90 -37 -163.5t-99.5 -123t-146 -80 t-180.5 -39.5v-202h-142v200q-135 9 -268 55.5t-221 116.5zM371 1027q-1 -90 69 -145t219 -78v468q-130 -14 -208.5 -79.5t-79.5 -165.5zM801 161q137 15 220 78.5t84 170.5q1 89 -76.5 144t-227.5 79v-472z" />
<glyph unicode="%" horiz-adv-x="1984" d="M99 1082q0 158 107.5 264.5t267.5 106.5q162 0 270.5 -106.5t108.5 -264.5q0 -160 -108.5 -266t-270.5 -106q-160 0 -267.5 106.5t-107.5 265.5zM243 1082q0 -103 66 -170t165 -67q102 0 168.5 66.5t66.5 170.5q0 102 -66.5 169t-168.5 67q-99 0 -165 -67t-66 -169z M460 0l904 1434h160l-904 -1434h-160zM1132 352q0 158 107 265t267 107q162 0 270.5 -107t108.5 -265q0 -159 -108.5 -265t-270.5 -106q-160 0 -267 106t-107 265zM1275 352q0 -103 66 -169.5t165 -66.5q102 0 169 66.5t67 169.5t-67 170t-169 67q-99 0 -165 -67t-66 -170z " />
<glyph unicode="&#x26;" horiz-adv-x="1439" d="M114 339q0 67 22 127.5t65.5 113.5t87 93.5t106.5 87.5q-114 112 -162 191t-48 178q0 136 102 229.5t260 93.5t258 -88.5t100 -225.5q0 -59 -21.5 -113t-65 -103t-85.5 -85t-106 -83l321 -313l222 332l123 -78l-237 -358l347 -338h-221l-218 212q-88 -108 -194 -169.5 t-248 -61.5q-188 0 -298 96t-110 262zM278 344q0 -97 70 -158t183 -61q101 0 176.5 46.5t149.5 142.5l-358 346q-106 -80 -163.5 -153.5t-57.5 -162.5zM350 1121q0 -62 35 -114t138 -153q108 79 163.5 142.5t55.5 135.5q0 79 -53.5 128t-141.5 49q-89 0 -143 -52.5 t-54 -135.5z" />
<glyph unicode="'" horiz-adv-x="732" d="M290 955v520h152v-520h-152z" />
<glyph unicode="(" horiz-adv-x="836" d="M148 582q0 307 151.5 547t400.5 335l54 -140q-201 -83 -321.5 -286.5t-120.5 -455.5t120.5 -455.5t321.5 -286.5l-54 -141q-248 95 -400 336t-152 547z" />
<glyph unicode=")" horiz-adv-x="836" d="M83 -159q201 83 321 287t120 456t-120 455t-321 286l53 141q248 -95 400 -335.5t152 -546.5q0 -307 -152 -547.5t-400 -335.5z" />
<glyph unicode="*" horiz-adv-x="918" d="M103 1172l36 113l262 -86v276h117v-276l261 86l36 -113l-261 -85l162 -222l-95 -68l-162 222l-161 -222l-95 68l162 222z" />
<glyph unicode="+" d="M169 472v139h373v377h142v-377h376v-139h-376v-374h-142v374h-373z" />
<glyph unicode="," horiz-adv-x="505" d="M130 -265l61 519h179l-108 -519h-132z" />
<glyph unicode="-" horiz-adv-x="858" d="M144 472v139h570v-139h-570z" />
<glyph unicode="." horiz-adv-x="535" d="M140 110q0 52 38 90t90 38t90 -38t38 -90t-38 -90.5t-90 -38.5t-90 38.5t-38 90.5z" />
<glyph unicode="/" horiz-adv-x="1015" d="M-9 -205l869 1782h169l-869 -1782h-169z" />
<glyph unicode="0" horiz-adv-x="1453" d="M134 717q0 168 46.5 308t127 232.5t188.5 143.5t230 51q123 0 231 -51t188.5 -143.5t127 -232.5t46.5 -308t-46.5 -308t-127 -232.5t-188.5 -143.5t-231 -51q-122 0 -230 51t-188.5 143.5t-127 232.5t-46.5 308zM300 717q0 -272 121.5 -428t304.5 -156q185 0 306.5 155.5 t121.5 428.5t-121.5 428t-306.5 155q-183 0 -304.5 -155.5t-121.5 -427.5z" />
<glyph unicode="1" horiz-adv-x="864" d="M68 1038v165l581 248v-1451h-157v1222z" />
<glyph unicode="2" horiz-adv-x="1125" d="M87 1214q162 238 439 238q213 0 335.5 -124t122.5 -319q0 -120 -52.5 -217t-139.5 -189l-428 -452h667v-151h-902v124l542 571q147 154 147 314q0 128 -79 210.5t-218 82.5q-77 0 -140.5 -27t-101.5 -63t-77 -90z" />
<glyph unicode="3" horiz-adv-x="1139" d="M68 170l101 105q67 -69 161 -107.5t199 -38.5q142 0 236.5 67.5t94.5 194.5q0 120 -99 190t-247 70h-188v145h187q138 0 226.5 66.5t88.5 189.5q0 114 -90 183.5t-228 69.5q-101 0 -183 -45.5t-133 -117.5l-114 97q66 97 178 155t261 58q212 0 343 -109t131 -283 q0 -123 -59.5 -207t-164.5 -129q118 -43 187 -130t69 -210q0 -99 -41 -177t-111 -126.5t-157 -73.5t-184 -25q-148 0 -266.5 49t-197.5 139z" />
<glyph unicode="4" horiz-adv-x="1179" d="M53 301v122l536 1010h179l-525 -982h480v399h158v-399h244v-150h-244v-301h-158v301h-670z" />
<glyph unicode="5" horiz-adv-x="1183" d="M87 204l106 102q69 -83 169 -129t210 -46q153 0 240 83.5t87 210.5q0 128 -93 207t-292 79h-312l18 723h777v-150h-632l-14 -424h211q123 0 220 -33.5t157.5 -92t92 -134t31.5 -162.5q0 -107 -38.5 -194.5t-105.5 -144.5t-156 -87.5t-191 -30.5q-301 0 -485 223z" />
<glyph unicode="6" horiz-adv-x="1184" d="M81 447q0 152 106 318l427 669h193l-372 -561q77 41 181 41q132 0 242.5 -60.5t175 -168t64.5 -238.5q0 -200 -144.5 -332.5t-363.5 -132.5t-364 132.5t-145 332.5zM244 447q0 -139 98 -229t248 -90t247.5 90t97.5 229q0 140 -97.5 230.5t-247.5 90.5t-247.5 -90.5 t-98.5 -230.5z" />
<glyph unicode="7" horiz-adv-x="1121" d="M81 1284v150h973v-124l-648 -1310h-185l642 1284h-782z" />
<glyph unicode="8" horiz-adv-x="1291" d="M114 382q0 129 77.5 214.5t205.5 127.5q-113 43 -181.5 127t-68.5 209q0 121 68 211.5t180 135.5t250 45t250 -45t180 -135.5t68 -211.5q0 -125 -68.5 -209t-181.5 -127q128 -42 206 -127.5t78 -214.5q0 -124 -72.5 -216.5t-192 -138.5t-267.5 -46t-267.5 46 t-191.5 138.5t-72 216.5zM281 391q0 -125 103.5 -194t260.5 -69t260.5 69t103.5 194q0 124 -103.5 193t-260.5 69q-158 0 -261 -69t-103 -193zM314 1052q0 -124 94 -192t237 -68t237 68t94 192q0 119 -94.5 186t-236.5 67t-236.5 -67t-94.5 -186z" />
<glyph unicode="9" horiz-adv-x="1184" d="M87 986q0 200 144.5 333t363.5 133t364 -133t145 -333q0 -150 -107 -317l-427 -669h-192l350 542q-71 -23 -147 -23q-213 0 -353.5 133t-140.5 334zM250 986q0 -139 97.5 -229.5t247.5 -90.5t247.5 90t97.5 230q0 139 -97.5 229.5t-247.5 90.5q-149 0 -247 -90.5 t-98 -229.5z" />
<glyph unicode=":" horiz-adv-x="535" d="M140 111q0 52 38 90t90 38t90 -38t38 -90t-38 -90.5t-90 -38.5t-90 38.5t-38 90.5zM140 861q0 52 38 90t90 38t90 -38t38 -90t-38 -90.5t-90 -38.5t-90 38.5t-38 90.5z" />
<glyph unicode=";" horiz-adv-x="505" d="M130 -265l61 519h179l-108 -519h-132zM135 861q0 52 38 90t90 38t90 -38t38 -90t-38 -90.5t-90 -38.5t-90 38.5t-38 90.5z" />
<glyph unicode="&#x3c;" d="M212 467v150l806 381v-162l-651 -293l651 -294v-163z" />
<glyph unicode="=" d="M169 283v139h891v-139h-891zM169 662v139h891v-139h-891z" />
<glyph unicode="&#x3e;" d="M212 86v163l651 293l-651 294v162l806 -381v-150z" />
<glyph unicode="?" horiz-adv-x="884" d="M133 1447q83 11 162 11q243 0 385.5 -110.5t142.5 -295.5q0 -177 -120.5 -285.5t-341.5 -131.5l-8 -179h-138v321h66q175 0 273.5 70.5t98.5 196.5q0 118 -98.5 185.5t-267.5 67.5q-50 0 -141 -7zM156 110q0 52 38.5 90t90.5 38q51 0 89 -38t38 -90t-38 -90.5t-89 -38.5 q-52 0 -90.5 38.5t-38.5 90.5z" />
<glyph unicode="@" horiz-adv-x="2023" d="M173 512q0 173 63.5 326t174 262.5t266.5 173t334 63.5t334 -60t266.5 -164t174 -251t63.5 -315q0 -196 -91 -322t-246 -126q-92 0 -149.5 41t-80.5 112q-105 -149 -302 -149q-167 0 -280 116.5t-113 292.5t113 292.5t280 116.5q185 0 288 -138v122h130v-473 q0 -110 30 -161t92 -51q86 0 138 84.5t52 242.5q0 194 -91.5 347t-250.5 236.5t-357 83.5q-197 0 -356.5 -90t-251 -251t-91.5 -361q0 -203 91.5 -365.5t251 -253.5t356.5 -91q238 0 442 140l72 -99q-223 -164 -514 -164q-178 0 -334 64t-266.5 174.5t-174 265t-63.5 329.5z M722 512q0 -122 77 -203.5t198 -81.5t199 81t78 204t-78 204t-199 81t-198 -81.5t-77 -203.5z" />
<glyph unicode="A" horiz-adv-x="1455" d="M37 0l589 1434h203l589 -1434h-176l-163 399h-709l-162 -399h-171zM433 555h584l-292 716z" />
<glyph unicode="B" horiz-adv-x="1435" d="M207 0v1434h555q116 0 208.5 -21t163 -65.5t108.5 -118t38 -173.5q0 -118 -58 -200.5t-158 -117.5q112 -37 179.5 -124t67.5 -216q0 -202 -138 -300t-385 -98h-581zM372 155h409q174 0 265.5 55.5t91.5 192.5q0 135 -92 191t-265 56h-409v-495zM372 804h385 q80 0 139.5 10.5t109 36t75.5 74t26 118.5q0 55 -18 96.5t-48.5 67.5t-76 42.5t-95.5 23t-113 6.5h-384v-475z" />
<glyph unicode="C" horiz-adv-x="1566" d="M124 717q0 159 56 296.5t154 234t235 151.5t295 55q187 0 343.5 -79.5t241.5 -217.5l-137 -92q-71 107 -189 168.5t-259 61.5q-160 0 -289 -72t-203.5 -204.5t-74.5 -301.5t74.5 -302t203.5 -205t289 -72q141 0 258 61t190 169l133 -99q-90 -135 -243.5 -212t-337.5 -77 q-158 0 -295 55t-235 151.5t-154 234t-56 296.5z" />
<glyph unicode="D" horiz-adv-x="1636" d="M207 0v1434h539q351 0 558 -194.5t207 -522.5t-207 -522.5t-558 -194.5h-539zM372 156h374q285 0 438.5 151.5t153.5 409.5q0 259 -153.5 410t-438.5 151h-374v-1122z" />
<glyph unicode="E" horiz-adv-x="1380" d="M207 0v1434h999v-155h-834v-480h809v-154h-809v-490h843v-155h-1008z" />
<glyph unicode="F" horiz-adv-x="1323" d="M207 0v1434h992v-156h-827v-478h788v-156h-788v-644h-165z" />
<glyph unicode="G" horiz-adv-x="1678" d="M124 717q0 212 96.5 381t265.5 262.5t378 93.5q168 0 312.5 -63.5t243.5 -177.5l-122 -116q-77 94 -189.5 146t-244.5 52q-160 0 -289 -72t-203.5 -204.5t-74.5 -301.5t74.5 -302t202 -205t283.5 -72q226 0 361 126t155 348h-446v154h624q2 -28 2 -42q0 -156 -48.5 -292 t-137 -236t-220 -157.5t-290.5 -57.5q-142 0 -273.5 50.5t-234 142.5t-164 233t-61.5 310z" />
<glyph unicode="H" horiz-adv-x="1610" d="M207 0v1434h165v-634h867v634h165v-1434h-165v644h-867v-644h-165z" />
<glyph unicode="I" horiz-adv-x="578" d="M207 0v1434h165v-1434h-165z" />
<glyph unicode="J" horiz-adv-x="1177" d="M41 182l111 113q126 -157 330 -157q155 0 245 100t90 289v907h164v-923q0 -125 -38 -226.5t-105 -167.5t-157.5 -101t-197.5 -35q-275 0 -442 201z" />
<glyph unicode="K" horiz-adv-x="1421" d="M207 0v1434h165v-635h173l595 635h213l-674 -704l718 -730h-225l-630 643h-170v-643h-165z" />
<glyph unicode="L" horiz-adv-x="1242" d="M207 0v1434h165v-1278h829v-156h-994z" />
<glyph unicode="M" horiz-adv-x="1914" d="M207 0v1434h250l500 -1084l500 1084h251v-1434h-165v1249l-500 -1090h-173l-498 1082v-1241h-165z" />
<glyph unicode="N" horiz-adv-x="1614" d="M207 0v1434h148l888 -1151v1151h165v-1434h-148l-888 1151v-1151h-165z" />
<glyph unicode="O" horiz-adv-x="1729" d="M124 717q0 159 56 296.5t154 234t235 151.5t295 55t295.5 -55t235.5 -151.5t154 -234t56 -296.5t-56 -296.5t-154 -234t-235.5 -151.5t-295.5 -55t-295 55t-235 151.5t-154 234t-56 296.5zM297 717q0 -169 74.5 -302t203.5 -205t289 -72q120 0 225 42.5t181 117.5 t119.5 183.5t43.5 235.5q0 169 -74.5 301.5t-204 204.5t-290.5 72q-160 0 -289 -72t-203.5 -204.5t-74.5 -301.5z" />
<glyph unicode="P" horiz-adv-x="1359" d="M207 0v1434h542q240 0 373 -113.5t133 -315.5t-132.5 -315t-373.5 -113h-377v-577h-165zM372 731h371q167 0 254 69t87 205t-87 204.5t-254 68.5h-371v-547z" />
<glyph unicode="Q" horiz-adv-x="1729" d="M124 717q0 159 56 296.5t154 234t235 151.5t295 55t295.5 -55t235.5 -151.5t154 -234t56 -296.5q0 -274 -160 -472l189 -245h-193l-108 134q-196 -154 -469 -154q-158 0 -295 55t-235 151.5t-154 234t-56 296.5zM297 717q0 -169 74.5 -302t203.5 -205t289 -72 q217 0 368 126l-332 425h197l240 -307q96 146 96 335q0 169 -74.5 301.5t-204 204.5t-290.5 72q-160 0 -289 -72t-203.5 -204.5t-74.5 -301.5z" />
<glyph unicode="R" horiz-adv-x="1385" d="M207 0v1434h562q242 0 371.5 -105t129.5 -300q0 -186 -135 -295.5t-364 -109.5h-23l515 -624h-205l-505 624h-181v-624h-165zM372 773h395q163 0 247.5 65.5t84.5 190.5q0 124 -85 187t-247 63h-395v-506z" />
<glyph unicode="S" horiz-adv-x="1378" d="M124 165l90 131q79 -67 209 -113.5t263 -46.5q174 0 285.5 68.5t111.5 192.5q0 102 -86.5 158.5t-260.5 76.5l-144 16q-195 22 -309 115.5t-114 263.5q0 132 73.5 230t195.5 146.5t274 48.5q290 0 515 -157l-84 -133q-197 134 -432 134q-165 0 -268 -69.5t-103 -189.5 q0 -99 81.5 -155.5t249.5 -76.5l136 -17q74 -9 137.5 -26t122 -47.5t99 -71.5t64.5 -100t24 -131q0 -137 -78 -236.5t-204.5 -147t-284.5 -47.5q-155 0 -308 50t-255 134z" />
<glyph unicode="T" horiz-adv-x="1241" d="M41 1278v156h1159v-156h-498v-1278h-163v1278h-498z" />
<glyph unicode="U" horiz-adv-x="1553" d="M186 561v873h164v-861q0 -216 116.5 -325.5t309.5 -109.5t309.5 109.5t116.5 325.5v861h165v-873q0 -142 -46 -254t-127 -182.5t-187 -107t-231 -36.5t-231 36.5t-186.5 107t-126.5 182.5t-46 254z" />
<glyph unicode="V" horiz-adv-x="1427" d="M37 1434h175l504 -1270l505 1270h170l-575 -1434h-204z" />
<glyph unicode="W" horiz-adv-x="2249" d="M59 1434h172l397 -1248l405 1248h187l404 -1249l397 1249h169l-466 -1434h-202l-398 1214l-397 -1214h-202z" />
<glyph unicode="X" horiz-adv-x="1399" d="M61 0l538 733l-513 701h199l416 -575l418 575h196l-514 -701l537 -733h-198l-442 607l-442 -607h-195z" />
<glyph unicode="Y" horiz-adv-x="1317" d="M11 1434h197l454 -680l453 680h192l-565 -833v-601h-163v603z" />
<glyph unicode="Z" horiz-adv-x="1345" d="M124 0v127l876 1151h-866v156h1085v-127l-876 -1151h879v-156h-1098z" />
<glyph unicode="[" horiz-adv-x="770" d="M207 -269v1703h480v-142h-322v-1420h322v-141h-480z" />
<glyph unicode="\" horiz-adv-x="1015" d="M-13 1577h169l869 -1782h-169z" />
<glyph unicode="]" horiz-adv-x="770" d="M83 -128h323v1420h-323v142h480v-1703h-480v141z" />
<glyph unicode="^" d="M175 664l365 770h149l365 -770h-166l-276 610l-275 -610h-162z" />
<glyph unicode="_" horiz-adv-x="959" d="M-5 -139h970v-140h-970v140z" />
<glyph unicode="`" horiz-adv-x="961" d="M278 1425h193l214 -307h-150z" />
<glyph unicode="a" horiz-adv-x="1275" d="M105 485q0 217 140 360.5t345 143.5q225 0 354 -164v145h153v-970h-153v144q-127 -163 -354 -163q-206 0 -345.5 143.5t-139.5 360.5zM261 485q0 -153 97.5 -257t249.5 -104q151 0 248 103t97 258t-97.5 258t-247.5 103q-153 0 -250 -104t-97 -257z" />
<glyph unicode="b" horiz-adv-x="1275" d="M179 0v1475h154v-649q128 163 353 163q205 0 344.5 -143.5t139.5 -360.5t-139.5 -360.5t-344.5 -143.5q-226 0 -353 162v-143h-154zM323 485q0 -156 97 -258.5t248 -102.5q153 0 249.5 103.5t96.5 257.5q0 153 -97 257t-249 104q-151 0 -248 -103t-97 -258z" />
<glyph unicode="c" horiz-adv-x="1048" d="M105 485q0 217 140.5 360.5t361.5 143.5q108 0 201.5 -39t158.5 -113l-99 -104q-116 113 -265 113q-147 0 -244.5 -102.5t-97.5 -258.5q0 -157 97.5 -259t244.5 -102q151 0 268 114l96 -105q-66 -74 -159 -113t-201 -39q-222 0 -362 143t-140 361z" />
<glyph unicode="d" horiz-adv-x="1275" d="M105 485q0 217 140 360.5t345 143.5q225 0 354 -164v650h153v-1475h-153v144q-127 -163 -354 -163q-206 0 -345.5 143.5t-139.5 360.5zM261 485q0 -153 97.5 -257t249.5 -104q151 0 248 103t97 258t-97.5 258t-247.5 103q-153 0 -250 -104t-97 -257z" />
<glyph unicode="e" horiz-adv-x="1147" d="M105 484q0 221 137 363t345 142q130 0 233.5 -63.5t162 -177.5t59.5 -260q0 -32 -3 -57h-777q16 -151 111 -233.5t232 -82.5q174 0 307 122l82 -105q-158 -151 -398 -151q-216 0 -353.5 139.5t-137.5 363.5zM264 555h623q-14 136 -96.5 217t-206.5 81q-131 0 -216 -82 t-104 -216z" />
<glyph unicode="f" horiz-adv-x="883" d="M54 831v139h221v166q0 164 79.5 261t243.5 97q145 0 265 -73l-55 -128q-97 58 -200 58q-179 0 -179 -215v-166h386v-139h-386v-831h-154v831h-221z" />
<glyph unicode="g" horiz-adv-x="1264" d="M105 493q0 218 137.5 357t343.5 139q224 0 346 -165v146h153v-903q0 -232 -141.5 -362t-371.5 -130q-117 0 -226 34.5t-182 95.5l67 123q150 -114 341 -114q162 0 261 90.5t99 255.5v100q-121 -165 -346 -165q-206 0 -343.5 140t-137.5 358zM261 493q0 -151 95 -253 t247 -102q149 0 245.5 101.5t96.5 253.5q0 151 -96.5 252t-245.5 101q-152 0 -247 -101.5t-95 -251.5z" />
<glyph unicode="h" horiz-adv-x="1229" d="M179 0v1475h154v-640q57 80 142.5 117t181.5 37q181 0 293 -106.5t112 -281.5v-601h-153v551q0 138 -73.5 215.5t-205.5 77.5q-126 0 -211.5 -81.5t-85.5 -215.5v-547h-154z" />
<glyph unicode="i" horiz-adv-x="512" d="M148 1314q0 46 31 77t77 31q45 0 77 -31.5t32 -76.5t-32 -76.5t-77 -31.5q-46 0 -77 31t-31 77zM179 0v970h154v-970h-154z" />
<glyph unicode="j" horiz-adv-x="516" d="M-44 -392l37 132q44 -21 89 -21q101 0 101 128v1123h154v-1130q0 -127 -65 -196t-177 -69q-78 0 -139 33zM152 1314q0 46 30.5 77t76.5 31q45 0 77 -31.5t32 -76.5t-32 -76.5t-77 -31.5q-46 0 -76.5 31t-30.5 77z" />
<glyph unicode="k" horiz-adv-x="1083" d="M179 0v1475h154v-898h140l374 393h191l-440 -457l448 -513h-194l-380 437h-139v-437h-154z" />
<glyph unicode="l" horiz-adv-x="512" d="M179 0v1475h154v-1475h-154z" />
<glyph unicode="m" horiz-adv-x="1959" d="M179 0v970h152v-139q56 82 142.5 120t183.5 38q126 0 221.5 -54t142.5 -150q55 106 153.5 155t211.5 49q181 0 293.5 -106.5t112.5 -281.5v-601h-153v551q0 138 -73.5 215.5t-206.5 77.5q-126 0 -211.5 -81.5t-85.5 -215.5v-547h-153v551q0 138 -73.5 215.5t-205.5 77.5 q-126 0 -211.5 -81.5t-85.5 -215.5v-547h-154z" />
<glyph unicode="n" horiz-adv-x="1229" d="M179 0v970h152v-139q56 82 142.5 120t183.5 38q181 0 293 -106.5t112 -281.5v-601h-153v551q0 138 -73.5 215.5t-205.5 77.5q-126 0 -211.5 -81.5t-85.5 -215.5v-547h-154z" />
<glyph unicode="o" horiz-adv-x="1231" d="M105 485q0 106 39 199.5t106.5 160.5t162 105.5t202.5 38.5q219 0 365 -144.5t146 -359.5q0 -216 -146 -360t-365 -144t-364.5 144t-145.5 360zM261 485q0 -157 101 -259t253 -102t253.5 102t101.5 259q0 156 -101.5 258.5t-253.5 102.5t-253 -102.5t-101 -258.5z" />
<glyph unicode="p" horiz-adv-x="1275" d="M179 -410v1380h154v-144q128 163 353 163q205 0 344.5 -143.5t139.5 -360.5t-139.5 -360.5t-344.5 -143.5q-226 0 -353 162v-553h-154zM323 485q0 -156 97 -258.5t248 -102.5q153 0 249.5 103.5t96.5 257.5q0 153 -97 257t-249 104q-151 0 -248 -103t-97 -258z" />
<glyph unicode="q" horiz-adv-x="1275" d="M105 485q0 217 140 360.5t345 143.5q225 0 354 -164v145h153v-1380h-153v554q-127 -163 -354 -163q-206 0 -345.5 143.5t-139.5 360.5zM261 485q0 -153 97.5 -257t249.5 -104q151 0 248 103t97 258t-97.5 258t-247.5 103q-153 0 -250 -104t-97 -257z" />
<glyph unicode="r" horiz-adv-x="849" d="M179 0v970h152v-136q51 75 124.5 115t162.5 40q109 0 179 -33l-37 -150q-71 39 -168 39q-115 0 -187.5 -83t-72.5 -219v-543h-153z" />
<glyph unicode="s" horiz-adv-x="1010" d="M90 105l71 115q136 -105 336 -105q125 0 196 40.5t71 115.5q0 118 -203 142l-116 13q-161 20 -240.5 89t-79.5 179q0 136 105.5 215t281.5 79q111 0 212 -28.5t173 -76.5l-67 -119q-52 36 -139 63.5t-178 27.5q-104 0 -166.5 -41.5t-62.5 -111.5q0 -113 197 -136l115 -14 q326 -43 326 -270q0 -138 -115.5 -219t-311.5 -81q-242 0 -405 123z" />
<glyph unicode="t" horiz-adv-x="927" d="M54 831v139h212v308h153v-308h419v-139h-419v-489q0 -110 51.5 -164t140.5 -54q110 0 204 69l72 -116q-127 -96 -288 -96q-160 0 -246.5 89.5t-86.5 268.5v492h-212z" />
<glyph unicode="u" horiz-adv-x="1216" d="M168 404v566h153v-551q0 -145 78.5 -220t208.5 -75t208.5 75t78.5 220v551h154v-566q0 -105 -36 -187t-97.5 -133t-140 -77t-167.5 -26q-90 0 -168 26t-139.5 77t-97 133t-35.5 187z" />
<glyph unicode="v" horiz-adv-x="1067" d="M31 970h166l339 -816l338 816h162l-412 -972h-180z" />
<glyph unicode="w" horiz-adv-x="1746" d="M46 970h163l290 -810l288 810h172l291 -811l292 811h159l-359 -970h-181l-290 806l-288 -806h-179z" />
<glyph unicode="x" horiz-adv-x="1047" d="M36 0l389 496l-379 474h187l293 -368l294 368h180l-378 -473l390 -497h-188l-306 383l-303 -383h-179z" />
<glyph unicode="y" horiz-adv-x="1079" d="M22 970h171l361 -609l342 609h168l-790 -1384h-169l362 624z" />
<glyph unicode="z" horiz-adv-x="1080" d="M125 0v111l625 720h-607v139h803v-112l-618 -720h627v-138h-830z" />
<glyph unicode="{" horiz-adv-x="874" d="M124 512v141q114 0 177 61.5t56 181.5l-7 137q-10 191 90.5 296t290.5 105h61v-142h-61q-108 0 -169.5 -62t-54.5 -180l8 -138q7 -127 -47.5 -210.5t-161.5 -118.5q107 -35 161.5 -119t47.5 -211l-8 -137q-7 -118 55 -180.5t169 -62.5h61v-141h-61q-190 0 -290.5 104.5 t-90.5 295.5l7 137q7 120 -56 181.5t-177 61.5z" />
<glyph unicode="|" horiz-adv-x="732" d="M290 -271v1705h152v-1705h-152z" />
<glyph unicode="}" horiz-adv-x="874" d="M83 -127h60q108 0 170 62.5t55 180.5l-9 137q-7 127 47.5 211t161.5 119q-107 35 -161.5 118.5t-47.5 210.5l9 138q7 118 -55 180t-170 62h-60v142h60q190 0 290.5 -105t90.5 -296l-7 -137q-7 -120 56.5 -181.5t177.5 -61.5v-141q-114 0 -177.5 -61.5t-56.5 -181.5 l7 -137q10 -191 -90.5 -295.5t-290.5 -104.5h-60v141z" />
<glyph unicode="~" d="M156 530q57 62 120 91.5t149 29.5q81 0 145 -22t121.5 -44t121.5 -22q48 0 89 20.5t87 64.5l84 -96q-58 -62 -121 -91.5t-149 -29.5q-80 0 -144.5 22t-122 44t-121.5 22q-48 0 -89 -20.5t-87 -64.5z" />
<glyph unicode="&#xa2;" horiz-adv-x="1433" d="M271 717q0 192 116 327.5t308 166.5v223h142v-216q202 -14 327 -150l-90 -99q-107 96 -237 109v-724q137 16 241 112l86 -100q-128 -137 -327 -151v-215h-142v221q-191 31 -307.5 167.5t-116.5 328.5zM422 717q0 -132 75.5 -227.5t197.5 -125.5v706 q-122 -30 -197.5 -125.5t-75.5 -227.5z" />
<glyph unicode="&#xa3;" horiz-adv-x="1433" d="M188 0v151h184v496h-184v139h184v141q0 128 38 229.5t104 165t152.5 97t186.5 33.5q240 0 376 -166l-116 -102q-93 118 -260 118q-145 0 -234.5 -98t-89.5 -289v-129h541v-139h-541v-496h716v-151h-1057z" />
<glyph unicode="&#xa5;" horiz-adv-x="1433" d="M110 1434h188l424 -608l418 608h185l-459 -656h341v-126h-406v-201h406v-126h-406v-325h-158v325h-406v126h406v201h-406v126h337z" />
<glyph unicode="&#xa8;" horiz-adv-x="975" d="M171 1266q0 46 31.5 77.5t77.5 31.5q45 0 76.5 -31.5t31.5 -77.5t-31.5 -77t-76.5 -31q-46 0 -77.5 31t-31.5 77zM588 1266q0 46 30.5 77.5t76.5 31.5q45 0 77 -31.5t32 -77.5q0 -45 -32 -76.5t-77 -31.5q-46 0 -76.5 31t-30.5 77z" />
<glyph unicode="&#xa9;" horiz-adv-x="1948" d="M148 725q0 167 65.5 318.5t176 261t263.5 174.5t321 65t321 -65t263 -174.5t175.5 -261t65.5 -318.5t-65.5 -319t-175.5 -262t-263 -175t-321 -65t-321 65t-263.5 175t-176 262t-65.5 319zM288 725q0 -140 54 -267t146 -219t219 -146t267 -54q187 0 344.5 91.5 t249.5 249.5t92 345q0 186 -92 343.5t-249.5 249t-344.5 91.5t-345 -91.5t-249.5 -249t-91.5 -343.5zM559 725q0 192 124 315.5t312 123.5q110 0 203 -48t148 -134l-114 -77q-39 59 -101.5 92t-136.5 33q-124 0 -207.5 -86t-83.5 -219q0 -139 84 -222.5t207 -83.5 q74 0 137 33t103 92l107 -84q-57 -82 -146.5 -128t-199.5 -46q-188 0 -312 123.5t-124 315.5z" />
<glyph unicode="&#xab;" horiz-adv-x="1045" d="M129 542l197 379h163l-195 -379l195 -379h-163zM535 542l196 379h164l-196 -379l196 -379h-164z" />
<glyph unicode="&#xad;" horiz-adv-x="858" d="M144 472v139h570v-139h-570z" />
<glyph unicode="&#xae;" horiz-adv-x="952" d="M49 1052q0 173 124 295t304 122q177 0 301 -122t124 -295q0 -171 -125 -294.5t-300 -123.5q-179 0 -303.5 123t-124.5 295zM151 1052q0 -136 94.5 -231t231.5 -95q134 0 228.5 95.5t94.5 230.5q0 136 -94 230t-229 94q-137 0 -231.5 -94t-94.5 -230zM323 859v388h179 q74 0 114.5 -33t40.5 -91q0 -48 -32 -79t-91 -38l126 -147h-99l-118 146h-37v-146h-83zM406 1071h95q71 0 71 52t-71 52h-95v-104z" />
<glyph unicode="&#xb4;" horiz-adv-x="961" d="M278 1118l214 307h193l-257 -307h-150z" />
<glyph unicode="&#xb8;" horiz-adv-x="1011" d="M373 -331l111 337l154 -1l-106 -336h-159z" />
<glyph unicode="&#xbb;" horiz-adv-x="1045" d="M151 163l195 379l-195 379h163l197 -379l-197 -379h-163zM556 163l196 379l-196 379h164l196 -379l-196 -379h-164z" />
<glyph unicode="&#xc2;" horiz-adv-x="1455" d="M37 0l589 1434h203l589 -1434h-176l-163 399h-709l-162 -399h-171zM385 1544l241 295h204l240 -295h-164l-178 194l-179 -194h-164zM433 555h584l-292 716z" />
<glyph unicode="&#xc7;" horiz-adv-x="1566" d="M124 717q0 159 56 296.5t154 234t235 151.5t295 55q187 0 343.5 -79.5t241.5 -217.5l-137 -92q-71 107 -189 168.5t-259 61.5q-160 0 -289 -72t-203.5 -204.5t-74.5 -301.5t74.5 -302t203.5 -205t289 -72q141 0 258 61t190 169l133 -99q-79 -119 -209 -194t-289 -91 l-98 -315h-167l105 315q-291 26 -477 229t-186 504z" />
<glyph unicode="&#xce;" horiz-adv-x="578" d="M-54 1544l240 295h205l240 -295h-164l-178 194l-179 -194h-164zM207 0v1434h165v-1434h-165z" />
<glyph unicode="&#xd6;" horiz-adv-x="1729" d="M124 717q0 159 56 296.5t154 234t235 151.5t295 55t295.5 -55t235.5 -151.5t154 -234t56 -296.5t-56 -296.5t-154 -234t-235.5 -151.5t-295.5 -55t-295 55t-235 151.5t-154 234t-56 296.5zM297 717q0 -169 74.5 -302t203.5 -205t289 -72q120 0 225 42.5t181 117.5 t119.5 183.5t43.5 235.5q0 169 -74.5 301.5t-204 204.5t-290.5 72q-160 0 -289 -72t-203.5 -204.5t-74.5 -301.5zM548 1691q0 46 31 77.5t77 31.5q45 0 77 -31.5t32 -77.5q0 -45 -32 -76.5t-77 -31.5q-46 0 -77 31t-31 77zM965 1691q0 46 30.5 77.5t76.5 31.5q45 0 77 -31.5 t32 -77.5q0 -45 -32 -76.5t-77 -31.5q-46 0 -76.5 31t-30.5 77z" />
<glyph unicode="&#xdb;" horiz-adv-x="1553" d="M186 561v873h164v-861q0 -216 116.5 -325.5t309.5 -109.5t309.5 109.5t116.5 325.5v861h165v-873q0 -142 -46 -254t-127 -182.5t-187 -107t-231 -36.5t-231 36.5t-186.5 107t-126.5 182.5t-46 254zM433 1544l241 295h205l239 -295h-164l-178 194l-179 -194h-164z" />
<glyph unicode="&#xdc;" horiz-adv-x="1553" d="M186 561v873h164v-861q0 -216 116.5 -325.5t309.5 -109.5t309.5 109.5t116.5 325.5v861h165v-873q0 -142 -46 -254t-127 -182.5t-187 -107t-231 -36.5t-231 36.5t-186.5 107t-126.5 182.5t-46 254zM460 1691q0 46 31 77.5t77 31.5q45 0 77 -31.5t32 -77.5 q0 -45 -32 -76.5t-77 -31.5q-46 0 -77 31t-31 77zM877 1691q0 46 30.5 77.5t76.5 31.5q45 0 77 -31.5t32 -77.5q0 -45 -32 -76.5t-77 -31.5q-46 0 -76.5 31t-30.5 77z" />
<glyph unicode="&#xe2;" horiz-adv-x="1275" d="M105 485q0 217 140 360.5t345 143.5q225 0 354 -164v145h153v-970h-153v144q-127 -163 -354 -163q-206 0 -345.5 143.5t-139.5 360.5zM261 485q0 -153 97.5 -257t249.5 -104q151 0 248 103t97 258t-97.5 258t-247.5 103q-153 0 -250 -104t-97 -257zM283 1119l240 295h205 l240 -295h-164l-178 194l-180 -194h-163z" />
<glyph unicode="&#xe7;" horiz-adv-x="1048" d="M105 485q0 217 140.5 360.5t361.5 143.5q108 0 201.5 -39t158.5 -113l-99 -104q-116 113 -265 113q-147 0 -244.5 -102.5t-97.5 -258.5q0 -157 97.5 -259t244.5 -102q151 0 268 114l96 -105q-113 -128 -297 -148l-99 -316h-159l105 319q-186 28 -299 165.5t-113 331.5z " />
<glyph unicode="&#xee;" horiz-adv-x="512" d="M-87 1119l241 295h204l240 -295h-164l-178 194l-179 -194h-164zM179 0v970h154v-970h-154z" />
<glyph unicode="&#xf6;" horiz-adv-x="1231" d="M105 485q0 106 39 199.5t106.5 160.5t162 105.5t202.5 38.5q219 0 365 -144.5t146 -359.5q0 -216 -146 -360t-365 -144t-364.5 144t-145.5 360zM261 485q0 -157 101 -259t253 -102t253.5 102t101.5 259q0 156 -101.5 258.5t-253.5 102.5t-253 -102.5t-101 -258.5z M299 1266q0 46 31.5 77.5t77.5 31.5q45 0 76.5 -31.5t31.5 -77.5t-31.5 -77t-76.5 -31q-46 0 -77.5 31t-31.5 77zM716 1266q0 46 30.5 77.5t76.5 31.5q45 0 77 -31.5t32 -77.5q0 -45 -32 -76.5t-77 -31.5q-46 0 -76.5 31t-30.5 77z" />
<glyph unicode="&#xfb;" horiz-adv-x="1216" d="M168 404v566h153v-551q0 -145 78.5 -220t208.5 -75t208.5 75t78.5 220v551h154v-566q0 -105 -36 -187t-97.5 -133t-140 -77t-167.5 -26q-90 0 -168 26t-139.5 77t-97 133t-35.5 187zM265 1119l241 295h205l239 -295h-164l-178 194l-179 -194h-164z" />
<glyph unicode="&#xfc;" horiz-adv-x="1216" d="M168 404v566h153v-551q0 -145 78.5 -220t208.5 -75t208.5 75t78.5 220v551h154v-566q0 -105 -36 -187t-97.5 -133t-140 -77t-167.5 -26q-90 0 -168 26t-139.5 77t-97 133t-35.5 187zM292 1266q0 46 31 77.5t77 31.5q45 0 77 -31.5t32 -77.5q0 -45 -32 -76.5t-77 -31.5 q-46 0 -77 31t-31 77zM709 1266q0 46 30.5 77.5t76.5 31.5q45 0 77 -31.5t32 -77.5q0 -45 -32 -76.5t-77 -31.5q-46 0 -76.5 31t-30.5 77z" />
<glyph unicode="&#x11e;" horiz-adv-x="1678" d="M124 717q0 212 96.5 381t265.5 262.5t378 93.5q168 0 312.5 -63.5t243.5 -177.5l-122 -116q-77 94 -189.5 146t-244.5 52q-160 0 -289 -72t-203.5 -204.5t-74.5 -301.5t74.5 -302t202 -205t283.5 -72q226 0 361 126t155 348h-446v154h624q2 -28 2 -42q0 -156 -48.5 -292 t-137 -236t-220 -157.5t-290.5 -57.5q-142 0 -273.5 50.5t-234 142.5t-164 233t-61.5 310zM493 1824l122 38q58 -196 227 -196t227 196l123 -38q-39 -140 -130 -213.5t-220 -73.5t-219.5 73.5t-129.5 213.5z" />
<glyph unicode="&#x11f;" horiz-adv-x="1264" d="M105 493q0 218 137.5 357t343.5 139q224 0 346 -165v146h153v-903q0 -232 -141.5 -362t-371.5 -130q-117 0 -226 34.5t-182 95.5l67 123q150 -114 341 -114q162 0 261 90.5t99 255.5v100q-121 -165 -346 -165q-206 0 -343.5 140t-137.5 358zM261 493q0 -151 95 -253 t247 -102q149 0 245.5 101.5t96.5 253.5q0 151 -96.5 252t-245.5 101q-152 0 -247 -101.5t-95 -251.5zM269 1399l123 38q58 -196 226 -196q170 0 228 196l123 -38q-39 -140 -130 -213.5t-221 -73.5q-129 0 -219.5 73.5t-129.5 213.5z" />
<glyph unicode="&#x130;" horiz-adv-x="578" d="M163 1695q0 47 32 79t79 32t80 -32t33 -79t-33 -79.5t-80 -32.5t-79 32.5t-32 79.5zM207 0v1434h165v-1434h-165z" />
<glyph unicode="&#x131;" horiz-adv-x="512" d="M179 0v970h154v-970h-154z" />
<glyph unicode="&#x15e;" horiz-adv-x="1378" d="M124 165l90 131q79 -67 209 -113.5t263 -46.5q174 0 285.5 68.5t111.5 192.5q0 102 -86.5 158.5t-260.5 76.5l-144 16q-195 22 -309 115.5t-114 263.5q0 132 73.5 230t195.5 146.5t274 48.5q290 0 515 -157l-84 -133q-197 134 -432 134q-165 0 -268 -69.5t-103 -189.5 q0 -99 81.5 -155.5t249.5 -76.5l136 -17q74 -9 137.5 -26t122 -47.5t99 -71.5t64.5 -100t24 -131q0 -182 -130 -292t-336 -133l-99 -318h-167l106 314q-142 9 -277 58t-227 124z" />
<glyph unicode="&#x15f;" horiz-adv-x="1010" d="M90 105l71 115q136 -105 336 -105q125 0 196 40.5t71 115.5q0 118 -203 142l-116 13q-161 20 -240.5 89t-79.5 179q0 136 105.5 215t281.5 79q111 0 212 -28.5t173 -76.5l-67 -119q-52 36 -139 63.5t-178 27.5q-104 0 -166.5 -41.5t-62.5 -111.5q0 -113 197 -136l115 -14 q326 -43 326 -270q0 -117 -84.5 -194t-232.5 -98l-100 -321h-160l104 315q-215 11 -359 121z" />
<glyph unicode="&#x2c6;" horiz-adv-x="961" d="M138 1119l240 295h205l240 -295h-164l-179 194l-178 -194h-164z" />
<glyph unicode="&#x2da;" horiz-adv-x="961" d="M249 1328q0 95 68 162.5t164 67.5t165 -68t69 -162q0 -95 -69 -162.5t-165 -67.5t-164 67.5t-68 162.5zM351 1328q0 -56 38 -94.5t92 -38.5t92.5 38.5t38.5 94.5q0 55 -38.5 93.5t-92.5 38.5t-92 -38.5t-38 -93.5z" />
<glyph unicode="&#x2dc;" horiz-adv-x="961" d="M121 1264q47 58 100 85.5t124 27.5q59 0 108.5 -20.5t89 -40.5t74.5 -20q68 0 134 69l91 -87q-92 -114 -225 -114q-58 0 -107.5 20.5t-89.5 41t-75 20.5q-68 0 -134 -69z" />
<glyph unicode="&#x2000;" horiz-adv-x="931" />
<glyph unicode="&#x2001;" horiz-adv-x="1862" />
<glyph unicode="&#x2002;" horiz-adv-x="931" />
<glyph unicode="&#x2003;" horiz-adv-x="1862" />
<glyph unicode="&#x2004;" horiz-adv-x="620" />
<glyph unicode="&#x2005;" horiz-adv-x="465" />
<glyph unicode="&#x2006;" horiz-adv-x="310" />
<glyph unicode="&#x2007;" horiz-adv-x="310" />
<glyph unicode="&#x2008;" horiz-adv-x="232" />
<glyph unicode="&#x2009;" horiz-adv-x="372" />
<glyph unicode="&#x200a;" horiz-adv-x="103" />
<glyph unicode="&#x2010;" horiz-adv-x="858" d="M144 472v139h570v-139h-570z" />
<glyph unicode="&#x2011;" horiz-adv-x="858" d="M144 472v139h570v-139h-570z" />
<glyph unicode="&#x2012;" horiz-adv-x="858" d="M144 472v139h570v-139h-570z" />
<glyph unicode="&#x2013;" horiz-adv-x="1220" d="M124 472v139h973v-139h-973z" />
<glyph unicode="&#x2014;" horiz-adv-x="1660" d="M62 472v139h1536v-139h-1536z" />
<glyph unicode="&#x2018;" horiz-adv-x="505" d="M136 955l108 520h132l-62 -520h-178z" />
<glyph unicode="&#x2019;" horiz-adv-x="505" d="M130 955l61 520h179l-108 -520h-132z" />
<glyph unicode="&#x201a;" horiz-adv-x="505" d="M130 -265l61 519h179l-108 -519h-132z" />
<glyph unicode="&#x201c;" horiz-adv-x="869" d="M136 955l108 520h132l-62 -520h-178zM500 955l107 520h132l-61 -520h-178z" />
<glyph unicode="&#x201d;" horiz-adv-x="868" d="M130 955l61 520h179l-108 -520h-132zM493 955l61 520h178l-107 -520h-132z" />
<glyph unicode="&#x201e;" horiz-adv-x="868" d="M130 -265l61 519h179l-108 -519h-132zM493 -265l61 519h178l-107 -519h-132z" />
<glyph unicode="&#x2026;" horiz-adv-x="1525" d="M140 111q0 52 38.5 90t90.5 38q51 0 89 -38t38 -90t-38 -90.5t-89 -38.5q-52 0 -90.5 38.5t-38.5 90.5zM636 111q0 52 38 90t90 38t90 -38t38 -90t-38 -90.5t-90 -38.5t-90 38.5t-38 90.5zM1130 111q0 52 38.5 90t89.5 38q52 0 90 -38t38 -90t-38 -90.5t-90 -38.5 q-51 0 -89.5 38.5t-38.5 90.5z" />
<glyph unicode="&#x202f;" horiz-adv-x="372" />
<glyph unicode="&#x2039;" horiz-adv-x="640" d="M129 542l197 379h163l-195 -379l195 -379h-163z" />
<glyph unicode="&#x203a;" horiz-adv-x="640" d="M151 163l195 379l-195 379h163l197 -379l-197 -379h-163z" />
<glyph unicode="&#x205f;" horiz-adv-x="465" />
<glyph unicode="&#x20ac;" horiz-adv-x="1433" d="M79 489v127h160q-5 53 -5 101q0 45 5 100h-160v127h179q54 236 213.5 372t394.5 136q158 0 282.5 -63.5t207.5 -179.5l-107 -110q-138 207 -383 207q-168 0 -282.5 -96t-159.5 -266h645v-127h-668q-5 -55 -5 -100q0 -48 5 -101h668v-127h-645q45 -171 160 -266t282 -95 q245 0 385 207l102 -106q-175 -247 -487 -247q-235 0 -394.5 135t-213.5 372h-179z" />
<glyph unicode="&#x2122;" horiz-adv-x="1468" d="M83 1332v102h511v-102h-201v-497h-109v497h-201zM712 835v600h156l181 -413l180 413h156v-600h-110v453l-169 -391h-115l-169 390v-452h-110z" />
<glyph unicode="&#x25fc;" horiz-adv-x="967" d="M0 0v968h968v-968h-968z" />
</font>
</defs>
</svg>
