<svg width="131" height="165" viewBox="0 0 131 165" fill="none" xmlns="http://www.w3.org/2000/svg">
<path d="M0.133789 0.164062H8.68049C11.1039 0.164062 12.8083 0.696312 13.9551 1.81333C14.646 2.50316 15.0984 3.48712 15.0984 4.84575V4.97882C15.0984 7.05179 13.8744 8.40692 12.142 9.12476C14.1375 9.79007 15.6034 11.0402 15.6034 13.4843V13.5893C15.6034 16.5657 13.2853 18.7753 8.54722 18.7753H0.133789V0.164062ZM9.4801 6.12035C9.4801 5.21693 8.81376 4.7372 7.61785 4.7372H5.72755V7.5035H7.61785C8.84182 7.5035 9.4801 7.02377 9.4801 6.14836V6.12035ZM7.90894 11.3063H5.72404V14.2056H7.90894C9.18551 14.2056 9.85185 13.6209 9.85185 12.77V12.742C9.85185 11.8911 9.18551 11.3063 7.90894 11.3063Z" fill="#4056A0"/>
<path d="M28.2246 0.164062V3.96684H34.0288V0.164062H28.2246ZM28.2246 5.33598V11.4113C28.2246 11.5759 28.2176 11.7335 28.2001 11.8805C28.0528 13.3792 27.176 14.0165 25.9871 14.0165C24.6825 14.0165 23.7531 13.1937 23.7531 11.3308V5.33598H17.9209V11.2783C17.9209 15.9424 20.19 18.3236 23.7531 18.9679C24.4335 19.0904 25.163 19.15 25.9345 19.15C26.7061 19.15 27.4952 19.0869 28.2001 18.9539C31.7527 18.2956 34.0288 15.9179 34.0288 11.1732V5.33598H28.2246ZM23.7531 0.164062H17.9209V3.96684H23.7531V0.164062Z" fill="#4056A0"/>
<path d="M65.0518 0.164062V3.96684H70.856V0.164062H65.0518ZM65.0518 5.33598V11.4113C65.0518 11.5759 65.0448 11.7335 65.0272 11.8805C64.8799 13.3792 64.0032 14.0165 62.8143 14.0165C61.5097 14.0165 60.5803 13.1937 60.5803 11.3308V5.33598H54.748V11.2783C54.748 15.9424 57.0171 18.3236 60.5803 18.9679C61.2607 19.0904 61.9901 19.15 62.7617 19.15C63.5332 19.15 64.3223 19.0869 65.0272 18.9539C68.5799 18.2956 70.856 15.9179 70.856 11.1732V5.33598H65.0518ZM60.5803 0.164062H54.748V3.96684H60.5803V0.164062Z" fill="#4056A0"/>
<path d="M41.5135 12.2097L35.6006 0.164062H41.8852L44.4419 6.27793L47.0266 0.164062H53.206L47.2686 12.1537V18.7753H41.517V12.2097H41.5135Z" fill="#4056A0"/>
<path d="M73.8652 0.164062H79.6168V6.89071L83.7692 0.164062H90.2116L84.9651 8.1408L90.3449 18.7753H83.6885L80.8408 12.8715L79.6168 14.6013V18.7753H73.8652V0.164062Z" fill="#4056A0"/>
<path d="M0 22.0107H5.75158V25.8135H0V22.0107ZM0.0806624 26.7695H5.64637V41.2873H0.0806624V26.7695Z" fill="#4056A0"/>
<path d="M7.375 38.8672L10.1456 34.7457C11.9307 36.1009 13.9262 36.8187 15.6832 36.8187C16.7213 36.8187 17.1211 36.4475 17.1211 35.9398V35.8873C17.1211 35.3305 16.5635 35.0084 14.8591 34.5041C11.1311 33.3871 8.25527 32.0845 8.25527 28.5233V28.4183C8.25527 24.9096 10.9171 22.3569 15.4167 22.3569C18.2399 22.3569 20.5826 22.9942 22.7114 24.6435L20.0215 28.8175C18.6642 27.8335 16.9072 27.1437 15.336 27.1437C14.4838 27.1437 14.0595 27.5148 14.0595 27.9666V28.0191C14.0595 28.5758 14.6171 28.898 16.4548 29.4828C20.2634 30.5193 22.9534 31.9829 22.9534 35.411V35.4916C22.9534 39.2418 20.025 41.6054 15.6306 41.6054C12.4883 41.6054 9.64056 40.7265 7.375 38.8672Z" fill="#4056A0"/>
<path d="M28.8393 27.7011H24.2871V22.6763H39.1465V27.7011H34.5944V41.2875H28.8428V27.7011H28.8393Z" fill="#4056A0"/>
<path d="M44.894 22.5674H50.9402L57.3862 41.2836H51.2874L50.4878 38.6259H45.2167L44.4451 41.2836H38.4551L44.8975 22.5674H44.894ZM49.2603 34.3714L47.8505 29.5321L46.4652 34.3714H49.2603Z" fill="#4056A0"/>
<path d="M59.3258 22.6763H64.7828L70.0819 30.5445V22.6763H75.7002V41.2875H70.5343L64.9686 33.0201V41.2875H59.3223V22.6763H59.3258Z" fill="#4056A0"/>
<path d="M78.818 22.6763H87.3647C89.788 22.6763 91.4925 23.2085 92.6358 24.3255C93.3267 25.0154 93.7791 25.9993 93.7791 27.358V27.491C93.7791 29.564 92.5551 30.9191 90.8226 31.637C92.8181 32.3023 94.2841 33.5524 94.2841 35.9965V36.1016C94.2841 39.0779 91.9659 41.2875 87.2279 41.2875H78.8145V22.6763H78.818ZM88.1643 28.6326C88.1643 27.7291 87.4979 27.2494 86.302 27.2494H84.4117V30.0157H86.302C87.526 30.0157 88.1643 29.536 88.1643 28.6606V28.6326ZM86.5931 33.8185H84.4082V36.7178H86.5931C87.8697 36.7178 88.536 36.1331 88.536 35.2822V35.2542C88.536 34.4033 87.8697 33.8185 86.5931 33.8185Z" fill="#4056A0"/>
<path d="M96.6055 33.7866V22.6724H102.438V33.8391C102.438 35.702 103.371 36.5248 104.675 36.5248C105.98 36.5248 106.913 35.7545 106.913 33.9196V22.6724H112.717V33.678C112.717 39.3682 109.441 41.6548 104.623 41.6548C99.8039 41.6548 96.609 39.3402 96.609 33.7866H96.6055Z" fill="#4056A0"/>
<path d="M115.698 22.6763H121.45V36.2346H128.559V41.2875H115.698V22.6763Z" fill="#4056A0"/>
<path d="M0.133789 45.1846H5.99058L9.37138 51.3545L12.7802 45.1846H18.6125V63.7958H12.9416V54.7545L9.37489 60.8684H9.29423L5.7521 54.7545V63.7958H0.133789V45.1846Z" fill="#4056A0"/>
<path d="M21.5684 44.519H27.3199V48.3218H21.5684V44.519ZM21.649 49.2778H27.2147V63.7956H21.649V49.2778Z" fill="#4056A0"/>
<path d="M34.2192 50.2094H29.667V45.1846H44.5264V50.2094H39.9742V63.7958H34.2227V50.2094H34.2192Z" fill="#4056A0"/>
<path d="M46.8926 44.519H52.6442V48.3218H46.8926V44.519ZM46.9732 49.2778H52.5389V63.7956H46.9732V49.2778Z" fill="#4056A0"/>
<path d="M55.5732 45.1846H61.0337L66.3329 53.0527V45.1846H71.9512V63.7958H66.7853L61.2196 55.5284V63.7958H55.5732V45.1846Z" fill="#4056A0"/>
<path d="M74.7174 54.7541V54.2499C74.7174 48.6123 78.7119 44.813 83.9585 44.813C86.6484 44.813 88.7526 45.6359 90.6675 47.1801L87.6304 51.4066C86.6729 50.5557 85.5787 49.9429 84.197 49.9429C82.0927 49.9429 80.5216 51.6447 80.5216 54.411V54.7296C80.5216 57.706 82.0927 59.3028 84.1443 59.3028C84.9159 59.3028 85.3438 59.1697 85.6875 58.9841V56.7501H83.1308V52.7092H91.0112V61.8275C89.2261 63.1826 86.8027 64.1665 83.955 64.1665C78.7891 64.1665 74.7139 60.6054 74.7139 54.7541H74.7174Z" fill="#4056A0"/>
<path d="M93.7539 44.519H99.5055V48.3218H93.7539V44.519ZM93.8346 49.2778H99.4003V63.7956H93.8346V49.2778Z" fill="#4056A0"/>
<path d="M3.22203 84.7466H5.60662L8.84285 93.9549H6.366L5.83018 92.3074H2.9488L2.42362 93.9549H0L3.22203 84.7466ZM5.23758 90.4225L4.38594 87.7404L3.5343 90.4225H5.23758Z" fill="#BD1421"/>
<path d="M10.3085 86.9146H8.04102V84.7959H14.9322V86.9146H12.6647V93.951H10.3085V86.9146Z" fill="#BD1421"/>
<path d="M17.3666 84.7466H19.7512L22.9874 93.9549H20.5105L19.9747 92.3074H17.0933L16.5682 93.9549H14.1445L17.3666 84.7466ZM19.3821 90.4225L18.5305 87.7404L17.6788 90.4225H19.3821Z" fill="#BD1421"/>
<path d="M24.453 86.9146H22.1855V84.7959H29.0767V86.9146H26.8092V93.951H24.453V86.9146Z" fill="#BD1421"/>
<path d="M34.8641 90.3973C34.8641 91.4814 34.3389 91.9775 33.5157 91.9775C32.6924 91.9775 32.1637 91.4531 32.1637 90.3583V87.903H29.7969V90.33C29.7969 92.9341 31.2624 94.1103 33.5015 94.1103C35.7406 94.1103 37.2452 92.9447 37.2452 90.291V87.903H34.8641V90.4008V90.3973ZM34.8641 84.7993V87.042H37.2452V84.7993H34.8641ZM32.1637 84.7993H29.7969V87.042H32.1637V84.7993Z" fill="#BD1421"/>
<path d="M38.3877 84.796H41.9894C43.2207 84.796 44.1505 85.122 44.7395 85.7243C45.2505 86.2345 45.5379 86.9395 45.5379 87.8678V87.9316C45.5379 89.2921 44.8708 90.1424 43.9021 90.6243L45.7899 93.9476H43.132L41.5742 91.1097H40.7368V93.9476H38.3912V84.7925L38.3877 84.796ZM41.8972 89.2425C42.6956 89.2425 43.1675 88.7855 43.1675 88.052V88.0273C43.1675 87.2407 42.6707 86.851 41.883 86.851H40.7297V89.246H41.8972V89.2425Z" fill="#BD1421"/>
<path d="M46.4678 84.7959H48.824V88.4204L51.3505 84.7959H54.0616L51.2192 88.6932L54.1538 93.951H51.4037L49.5585 90.6171L48.824 91.5701V93.951H46.4678V84.7959Z" fill="#BD1421"/>
<path d="M57.6523 84.7959H60.0085V88.2751H62.6167V84.7959H64.9871V93.951H62.6167V90.4187H60.0085V93.951H57.6523V84.7959Z" fill="#BD1421"/>
<path d="M68.7982 84.7466H71.1828L74.419 93.9549H71.9422L71.4063 92.3074H68.525L67.9998 93.9549H65.5762L68.7982 84.7466ZM70.8137 90.4225L69.9621 87.7404L69.1105 90.4225H70.8137Z" fill="#BD1421"/>
<path d="M73.3398 84.7959H75.909L77.598 90.4966L79.2729 84.7959H81.7888L78.6981 94.0042H76.4306L73.3398 84.7959Z" fill="#BD1421"/>
<path d="M83.9252 84.7466H86.3097L89.546 93.9549H87.0691L86.5333 92.3074H83.6519L83.1267 93.9549H80.7031L83.9252 84.7466ZM85.9407 90.4225L85.0891 87.7404L84.2374 90.4225H85.9407Z" fill="#BD1421"/>
<path d="M90.1315 84.7959H92.4877V91.8323H96.0894V93.951H90.1279V84.7959H90.1315Z" fill="#BD1421"/>
<path d="M96.7852 84.4844H99.1555V86.2771H96.7852V84.4844ZM96.8242 86.8759H99.1165V93.9513H96.8242V86.8759Z" fill="#BD1421"/>
<path d="M100.28 84.7959H102.704L104.563 88.1688L106.409 84.7959H108.846V93.951H106.515V88.7995L104.563 92.2008H104.524L102.573 88.8278V93.9546H100.28V84.7994V84.7959Z" fill="#BD1421"/>
<path d="M112.671 84.7466H115.056L118.292 93.9549H115.815L115.279 92.3074H112.398L111.873 93.9549H109.449L112.671 84.7466ZM114.687 90.4225L113.835 87.7404L112.984 90.4225H114.687Z" fill="#BD1421"/>
<path d="M118.878 84.7959H121.092L124.144 89.3983V84.7959H126.461V93.951H124.364L121.195 89.1503V93.951H118.878V84.7959Z" fill="#BD1421"/>
<path d="M127.721 84.7959H130.077V93.951H127.721V84.7959Z" fill="#BD1421"/>
<path d="M0.869141 98.7095H4.1515L6.67093 103.28L9.17262 98.7095H12.4727V111.114H9.31456V104.134L6.67093 108.74H6.6177L3.97407 104.169V111.114H0.869141V98.7095Z" fill="#BD1421"/>
<path d="M13.999 98.2842H17.2104V100.711H13.999V98.2842ZM14.0523 101.526H17.1572V111.11H14.0523V101.526Z" fill="#BD1421"/>
<path d="M18.7363 98.7096H21.93V108.24H26.8092V111.11H18.7363V98.7061V98.7096Z" fill="#BD1421"/>
<path d="M27.8945 98.7096H31.0882V108.24H35.9674V111.11H27.8945V98.7061V98.7096Z" fill="#BD1421"/>
<path d="M37.0498 98.7096H45.6017V101.509H40.208V103.546H45.0694V106.185H40.208V108.311H45.6726V111.11H37.0498V98.7061V98.7096Z" fill="#BD1421"/>
<path d="M49.4874 101.579H46.418V98.7095H55.7505V101.579H52.6811V111.11H49.4874V101.579Z" fill="#BD1421"/>
<path d="M60.8955 98.7096H66.0408C67.5312 98.7096 68.6845 99.0639 69.4119 99.8079C69.9264 100.304 70.228 100.977 70.228 101.863V101.934C70.228 103.351 69.4119 104.201 68.3828 104.662C69.7135 105.158 70.6539 105.973 70.6539 107.603V107.673C70.6539 109.799 68.9861 111.11 66.0586 111.11H60.8955V98.7061V98.7096ZM67.0699 102.518C67.0699 101.774 66.5376 101.367 65.5795 101.367H64.0004V103.688H65.5263C66.5021 103.688 67.0699 103.298 67.0699 102.536V102.518ZM65.8634 106.026H64.0004V108.453H65.8811C66.8747 108.453 67.4602 108.01 67.4602 107.248V107.231C67.4602 106.504 66.9102 106.026 65.8634 106.026Z" fill="#BD1421"/>
<path d="M75.2855 98.6387H78.5147L82.8971 111.114H79.5437L78.8163 108.882H74.913L74.2033 111.114H70.9209L75.2855 98.6387ZM78.0179 106.327L76.8646 102.695L75.7114 106.327H78.0179Z" fill="#BD1421"/>
<path d="M83.6953 98.7095H86.889V103.422H90.4197V98.7095H93.6311V111.114H90.4197V106.33H86.889V111.114H83.6953V98.7095Z" fill="#BD1421"/>
<path d="M97.6965 112.97L99.045 111.11C96.632 110.472 94.9287 108.258 94.9287 105.033V104.821C94.9287 100.994 97.4304 98.4966 100.695 98.4966C102.647 98.4966 103.977 99.2583 104.989 100.445L102.931 102.624C102.398 101.986 101.724 101.455 100.748 101.455C99.2934 101.455 98.2111 102.748 98.2111 104.856V104.927C98.2111 107.142 99.3111 108.364 100.748 108.364C101.813 108.364 102.452 107.797 103.019 107.142L105.042 109.196C104.119 110.33 102.895 111.145 101.121 111.287L100.251 113.926L97.6965 112.97Z" fill="#BD1421"/>
<path d="M106.054 98.7096H114.606V101.509H109.212V103.546H114.073V106.185H109.212V108.311H114.677V111.11H106.054V98.7061V98.7096Z" fill="#BD1421"/>
<path d="M115.085 109.462L116.788 107.142C117.8 107.974 118.953 108.541 120.159 108.541C121.011 108.541 121.455 108.169 121.455 107.638V107.62C121.455 107.124 121.082 106.823 119.627 106.309C117.285 105.512 115.635 104.662 115.635 102.412V102.359C115.635 100.109 117.356 98.5322 120.071 98.5322C121.738 98.5322 123.211 98.9928 124.506 100.038L122.892 102.412C122.04 101.756 121.011 101.278 120 101.278C119.272 101.278 118.864 101.632 118.864 102.093V102.111C118.864 102.66 119.254 102.943 120.834 103.528C123.193 104.29 124.666 105.246 124.666 107.354V107.39C124.666 109.799 122.803 111.287 120.142 111.287C118.296 111.287 116.54 110.72 115.085 109.462Z" fill="#BD1421"/>
<path d="M125.713 98.2842H128.924V100.711H125.713V98.2842ZM125.766 101.526H128.871V111.11H125.766V101.526Z" fill="#BD1421"/>
<path d="M130.077 118.929H0V139.837H130.077V118.929Z" fill="#4056A0"/>
<path d="M9.44911 126.242H4.4209V123.394H12.9479V125.743L8.27811 135.943H4.81123L9.44202 126.246L9.44911 126.242Z" fill="white"/>
<path d="M18.2461 123.394H21.5675L24.1189 128.017L26.6489 123.394H29.9881V135.943H26.7909V128.878L24.1153 133.541H24.0621L21.3865 128.917V135.943H18.2461V123.394Z" fill="white"/>
<path d="M35.2321 123.319H38.5002L42.9358 135.94H39.5435L38.8089 133.679H34.8595L34.1427 135.94H30.8213L35.2392 123.319H35.2321ZM37.9963 131.1L36.8289 127.426L35.6614 131.1H37.9963Z" fill="white"/>
<path d="M45.1427 131.245L41.1045 123.394H44.6778L46.7785 127.929L48.897 123.394H52.4171L48.3789 131.209V135.943H45.1462V131.245H45.1427Z" fill="white"/>
<path d="M53.1875 123.394H56.4202V135.943H53.1875V123.394Z" fill="white"/>
<path d="M57.2607 134.274L58.9853 131.925C60.0073 132.768 61.1747 133.342 62.3954 133.342C63.2577 133.342 63.7048 132.967 63.7048 132.428V132.41C63.7048 131.907 63.3287 131.603 61.856 131.085C59.4857 130.278 57.8143 129.417 57.8143 127.142V127.089C57.8143 124.811 59.5566 123.216 62.3032 123.216C63.9922 123.216 65.4826 123.684 66.792 124.74L65.1597 127.142C64.2974 126.479 63.2577 125.994 62.2322 125.994C61.4976 125.994 61.0825 126.352 61.0825 126.82V126.837C61.0825 127.394 61.4764 127.68 63.0767 128.272C65.4649 129.045 66.9552 130.012 66.9552 132.145V132.18C66.9552 134.618 65.071 136.123 62.3777 136.123C60.5112 136.123 58.7334 135.55 57.2607 134.278V134.274Z" fill="white"/>
<path d="M72.2539 123.394H76.7428C79.7057 123.394 81.6432 124.935 81.6432 127.751V127.822C81.6432 130.834 79.4538 132.269 76.7073 132.304H75.4688V135.943H72.2539V123.394ZM76.6008 129.668C77.7328 129.668 78.4141 129.006 78.4141 127.946V127.893C78.4141 126.745 77.7505 126.154 76.5831 126.154H75.4688V129.668H76.6008Z" fill="white"/>
<path d="M85.1452 123.319H88.4133L92.8489 135.94H89.4566L88.722 133.679H84.7726L84.0558 135.94H80.7344L85.1522 123.319H85.1452ZM87.9094 131.1L86.742 127.426L85.5745 131.1H87.9094Z" fill="white"/>
<path d="M93.3356 133.519L98.559 126.207H93.4953V123.394H102.796V125.813L97.5547 133.126H102.796V135.939H93.332V133.519H93.3356Z" fill="white"/>
<path d="M107.682 123.319H110.95L115.386 135.94H111.994L111.259 133.679H107.31L106.593 135.94H103.271L107.689 123.319H107.682ZM110.447 131.1L109.279 127.426L108.112 131.1H110.447Z" fill="white"/>
<path d="M116.191 123.394H121.131C122.82 123.394 124.094 123.844 124.899 124.666C125.598 125.364 125.996 126.334 125.996 127.606V127.695C125.996 129.559 125.08 130.724 123.75 131.387L126.337 135.939H122.692L120.556 132.049H119.406V135.939H116.191V123.39V123.394ZM121.003 129.488C122.1 129.488 122.745 128.861 122.745 127.858V127.822C122.745 126.745 122.064 126.21 120.985 126.21H119.406V129.491H121.003V129.488Z" fill="white"/>
<path d="M51.297 143.139H0V164.046H51.297V143.139Z" fill="#4056A0"/>
<path d="M6.27029 150.646L4.40378 151.114L3.95312 148.442L7.13258 147.528H9.46748V160.149H6.27029V150.646Z" fill="white"/>
<path d="M12.4485 159.146C11.5153 158.214 10.9404 156.761 10.9404 154.27V154.2C10.9404 149.898 12.8602 147.369 16.2738 147.369C17.6755 147.369 18.7329 147.744 19.8117 148.481L18.4668 150.901C17.8919 150.472 17.2284 150.111 16.3483 150.111C14.7693 150.111 14.2299 151.528 14.1412 152.765C14.8402 152.244 15.5961 151.957 16.5116 151.957C18.449 151.957 20.2446 153.229 20.2446 155.847V155.9C20.2446 158.678 18.2148 160.382 15.738 160.382C14.2654 160.382 13.2434 159.932 12.4521 159.146H12.4485ZM17.1361 156.099V156.063C17.1361 155.043 16.5612 154.341 15.6102 154.341C14.6593 154.341 14.1376 155.039 14.1376 156.045V156.081C14.1376 157.101 14.6947 157.821 15.6457 157.821C16.5967 157.821 17.1361 157.123 17.1361 156.099Z" fill="white"/>
<path d="M21.373 156.85H24.6944V160.149H21.373V156.85Z" fill="white"/>
<path d="M25.5381 154.015V153.746C25.5381 150.019 27.5146 147.365 30.6905 147.365C33.8664 147.365 35.8074 149.984 35.8074 153.728V153.998C35.8074 157.725 33.8309 160.379 30.655 160.379C27.4791 160.379 25.5381 157.76 25.5381 154.015ZM32.557 154.015V153.764C32.557 151.468 31.7834 150.249 30.655 150.249C29.5266 150.249 28.7885 151.433 28.7885 153.728V153.98C28.7885 156.276 29.5443 157.495 30.6905 157.495C31.8367 157.495 32.557 156.294 32.557 154.015Z" fill="white"/>
<path d="M36.8477 154.015V153.746C36.8477 150.019 38.8242 147.365 42.0001 147.365C45.176 147.365 47.117 149.984 47.117 153.728V153.998C47.117 157.725 45.1405 160.379 41.9646 160.379C38.7887 160.379 36.8477 157.76 36.8477 154.015ZM43.8666 154.015V153.764C43.8666 151.468 43.093 150.249 41.9646 150.249C40.8362 150.249 40.0981 151.433 40.0981 153.728V153.98C40.0981 156.276 40.8539 157.495 42.0001 157.495C43.1462 157.495 43.8666 156.294 43.8666 154.015Z" fill="white"/>
<rect x="99.5059" y="73.6738" width="0.748409" height="99.5058" transform="rotate(90 99.5059 73.6738)" fill="#BD1421"/>
</svg>
