<svg width="614" height="154" viewBox="0 0 614 154" fill="none" xmlns="http://www.w3.org/2000/svg">
<path d="M0.999023 2.67236H20.9228C26.5721 2.67236 30.5454 3.91312 33.2188 6.51708C34.8293 8.12517 35.884 10.4189 35.884 13.5861V13.8963C35.884 18.7288 33.0307 21.8878 28.992 23.5612C33.6439 25.1121 37.0613 28.0263 37.0613 33.724V33.9689C37.0613 40.9073 31.6572 46.0581 20.6121 46.0581H0.999023V2.67236ZM22.7868 16.5574C22.7868 14.4514 21.2334 13.3331 18.4456 13.3331H14.039V19.7818H18.4456C21.2988 19.7818 22.7868 18.6635 22.7868 16.6227V16.5574ZM19.1242 28.6467H14.0308V35.4055H19.1242C22.1 35.4055 23.6534 34.0423 23.6534 32.0588V31.9935C23.6534 30.0099 22.1 28.6467 19.1242 28.6467Z" fill="#4056A0"/>
<path d="M66.4845 2.67236V11.5373H80.015V2.67236H66.4845ZM66.4845 14.7289V28.8916C66.4845 29.2752 66.4682 29.6425 66.4273 29.9854C66.0839 33.4791 64.0401 34.9647 61.2685 34.9647C58.2273 34.9647 56.0607 33.0465 56.0607 28.7038V14.7289H42.4648V28.5814C42.4648 39.4543 47.7544 45.0051 56.0607 46.5071C57.6468 46.7928 59.3473 46.9315 61.1459 46.9315C62.9445 46.9315 64.784 46.7846 66.4273 46.4744C74.7091 44.9398 80.015 39.3972 80.015 28.3365V14.7289H66.4845ZM56.0607 2.67236H42.4648V11.5373H56.0607V2.67236Z" fill="#4056A0"/>
<path d="M152.336 2.67236V11.5373H165.867V2.67236H152.336ZM152.336 14.7289V28.8916C152.336 29.2752 152.32 29.6425 152.279 29.9854C151.935 33.4791 149.892 34.9647 147.12 34.9647C144.079 34.9647 141.912 33.0465 141.912 28.7038V14.7289H128.316V28.5814C128.316 39.4543 133.606 45.0051 141.912 46.5071C143.498 46.7928 145.199 46.9315 146.997 46.9315C148.796 46.9315 150.636 46.7846 152.279 46.4744C160.561 44.9398 165.867 39.3972 165.867 28.3365V14.7289H152.336ZM141.912 2.67236H128.316V11.5373H141.912V2.67236Z" fill="#4056A0"/>
<path d="M97.4617 30.7527L83.6777 2.67236H98.3283L104.288 16.9248L110.314 2.67236H124.719L110.878 30.6221V46.0581H97.4698V30.7527H97.4617Z" fill="#4056A0"/>
<path d="M172.881 2.67236H186.289V18.3533L195.969 2.67236H210.987L198.756 21.2674L211.298 46.0581H195.781L189.142 32.2955L186.289 36.3279V46.0581H172.881V2.67236Z" fill="#4056A0"/>
<path d="M0.688477 53.6006H14.0963V62.4655H0.688477V53.6006ZM0.876514 64.694H13.8511V98.5373H0.876514V64.694Z" fill="#4056A0"/>
<path d="M17.8799 92.8962L24.3385 83.2885C28.4999 86.4475 33.1518 88.1209 37.2477 88.1209C39.6677 88.1209 40.5997 87.2557 40.5997 86.072V85.9496C40.5997 84.6517 39.2998 83.9007 35.3264 82.7253C26.6359 80.1213 19.9319 77.0847 19.9319 68.783V68.5382C19.9319 60.3589 26.1372 54.4082 36.6264 54.4082C43.2077 54.4082 48.6689 55.8939 53.6314 59.7386L47.3608 69.4687C44.1969 67.175 40.101 65.5669 36.4383 65.5669C34.4517 65.5669 33.4624 66.4321 33.4624 67.4852V67.6076C33.4624 68.9055 34.7623 69.6565 39.0463 71.0197C47.9249 73.4359 54.1956 76.848 54.1956 84.8395V85.0272C54.1956 93.7696 47.369 99.2796 37.1251 99.2796C29.7998 99.2796 23.1613 97.2307 17.8799 92.8962Z" fill="#4056A0"/>
<path d="M67.9165 66.8651H57.3047V55.1514H91.9444V66.8651H81.3326V98.5371H67.9247V66.8651H67.9165Z" fill="#4056A0"/>
<path d="M105.343 54.8989H119.438L134.464 98.5296H120.247L118.383 92.3339H106.095L104.297 98.5296H90.333L105.351 54.8989H105.343ZM115.522 82.416L112.235 71.1349L109.006 82.416H115.522Z" fill="#4056A0"/>
<path d="M138.985 55.1514H151.706L164.059 73.4934V55.1514H177.156V98.5371H165.114L152.139 79.2645V98.5371H138.977V55.1514H138.985Z" fill="#4056A0"/>
<path d="M184.425 55.1514H204.349C209.998 55.1514 213.972 56.3921 216.637 58.9961C218.247 60.6042 219.302 62.898 219.302 66.0652V66.3753C219.302 71.2078 216.449 74.3668 212.41 76.0402C217.062 77.5911 220.479 80.5053 220.479 86.203V86.4479C220.479 93.3863 215.075 98.5371 204.03 98.5371H184.417V55.1514H184.425ZM206.213 69.0364C206.213 66.9304 204.66 65.8121 201.872 65.8121H197.465V72.2608H201.872C204.725 72.2608 206.213 71.1425 206.213 69.1017V69.0364ZM202.55 81.1257H197.457V87.8845H202.55C205.526 87.8845 207.08 86.5213 207.08 84.5378V84.4725C207.08 82.4889 205.526 81.1257 202.55 81.1257Z" fill="#4056A0"/>
<path d="M225.892 81.0526V55.1436H239.488V81.175C239.488 85.5177 241.662 87.4359 244.703 87.4359C247.745 87.4359 249.919 85.6401 249.919 81.3628V55.1436H263.45V80.7995C263.45 94.0642 255.814 99.3946 244.581 99.3946C233.348 99.3946 225.9 93.9989 225.9 81.0526H225.892Z" fill="#4056A0"/>
<path d="M270.4 55.1514H283.808V86.7581H300.38V98.5371H270.4V55.1514Z" fill="#4056A0"/>
<path d="M0.999023 107.623H14.6521L22.5334 122.006L30.48 107.623H44.0759V151.009H30.856V129.932L22.5415 144.185H22.3535L14.0962 129.932V151.009H0.999023V107.623Z" fill="#4056A0"/>
<path d="M50.9688 106.071H64.3766V114.936H50.9688V106.071ZM51.1568 117.165H64.1313V151.008H51.1568V117.165Z" fill="#4056A0"/>
<path d="M80.4585 119.337H69.8467V107.623H104.486V119.337H93.8745V151.009H80.4667V119.337H80.4585Z" fill="#4056A0"/>
<path d="M110.004 106.071H123.412V114.936H110.004V106.071ZM110.192 117.165H123.166V151.008H110.192V117.165Z" fill="#4056A0"/>
<path d="M130.237 107.623H142.967L155.32 125.965V107.623H168.417V151.009H156.374L143.4 131.736V151.009H130.237V107.623Z" fill="#4056A0"/>
<path d="M174.867 129.931V128.755C174.867 115.613 184.178 106.756 196.409 106.756C202.68 106.756 207.585 108.675 212.049 112.274L204.969 122.127C202.737 120.143 200.186 118.715 196.965 118.715C192.06 118.715 188.397 122.682 188.397 129.131V129.874C188.397 136.812 192.06 140.534 196.842 140.534C198.641 140.534 199.638 140.224 200.44 139.792V134.584H194.48V125.164H212.85V146.42C208.689 149.579 203.039 151.873 196.401 151.873C184.358 151.873 174.858 143.571 174.858 129.931H174.867Z" fill="#4056A0"/>
<path d="M219.244 106.071H232.652V114.936H219.244V106.071ZM219.432 117.165H232.407V151.008H219.432V117.165Z" fill="#4056A0"/>
<path d="M375.422 3.16455H379.894L385.963 20.4328H381.318L380.313 17.3432H374.91L373.925 20.4328H369.38L375.422 3.16455ZM379.202 13.8085L377.605 8.77889L376.008 13.8085H379.202Z" fill="#BD1421"/>
<path d="M388.711 7.23005H384.458V3.25684H397.381V7.23005H393.129V20.4254H388.711V7.23005Z" fill="#BD1421"/>
<path d="M401.947 3.16455H406.419L412.488 20.4328H407.843L406.838 17.3432H401.435L400.45 20.4328H395.905L401.947 3.16455ZM405.727 13.8085L404.13 8.77889L402.533 13.8085H405.727Z" fill="#BD1421"/>
<path d="M415.236 7.23005H410.983V3.25684H423.906V7.23005H419.654V20.4254H415.236V7.23005Z" fill="#BD1421"/>
<path d="M434.76 13.761C434.76 15.7941 433.775 16.7243 432.231 16.7243C430.687 16.7243 429.696 15.7409 429.696 13.6879V9.08348H425.257V13.6347C425.257 18.5182 428.006 20.7241 432.205 20.7241C436.404 20.7241 439.225 18.5381 439.225 13.5617V9.08348H434.76V13.7676V13.761ZM434.76 3.26318V7.46895H439.225V3.26318H434.76ZM429.696 3.26318H425.257V7.46895H429.696V3.26318Z" fill="#BD1421"/>
<path d="M441.368 3.25665H448.122C450.431 3.25665 452.175 3.86791 453.279 4.99742C454.237 5.95418 454.776 7.27637 454.776 9.01715V9.13674C454.776 11.6881 453.525 13.2827 451.709 14.1863L455.249 20.4185H450.265L447.343 15.0966H445.773V20.4185H441.374V3.25L441.368 3.25665ZM447.949 11.5951C449.446 11.5951 450.331 10.738 450.331 9.36264V9.31613C450.331 7.84113 449.4 7.11026 447.922 7.11026H445.76V11.6017H447.949V11.5951Z" fill="#BD1421"/>
<path d="M456.52 3.25684H460.938V10.0538L465.676 3.25684H470.76L465.43 10.5654L470.933 20.4254H465.776L462.316 14.1732L460.938 15.9605V20.4254H456.52V3.25684Z" fill="#BD1421"/>
<path d="M477.494 3.25684H481.913V9.78141H486.804V3.25684H491.249V20.4254H486.804V13.8011H481.913V20.4254H477.494V3.25684Z" fill="#BD1421"/>
<path d="M498.397 3.16455H502.869L508.937 20.4328H504.293L503.288 17.3432H497.884L496.899 20.4328H492.354L498.397 3.16455ZM502.176 13.8085L500.579 8.77889L498.982 13.8085H502.176Z" fill="#BD1421"/>
<path d="M506.914 3.25684H511.732L514.899 13.9473L518.04 3.25684H522.758L516.962 20.525H512.71L506.914 3.25684Z" fill="#BD1421"/>
<path d="M526.764 3.16455H531.236L537.305 20.4328H532.66L531.655 17.3432H526.252L525.267 20.4328H520.722L526.764 3.16455ZM530.544 13.8085L528.947 8.77889L527.35 13.8085H530.544Z" fill="#BD1421"/>
<path d="M538.403 3.25684H542.822V16.4522H549.576V20.4254H538.396V3.25684H538.403Z" fill="#BD1421"/>
<path d="M550.88 2.67236H555.326V6.03431H550.88V2.67236ZM550.954 7.15718H555.252V20.4256H550.954V7.15718Z" fill="#BD1421"/>
<path d="M557.435 3.25684H561.98L565.467 9.58208L568.927 3.25684H573.499V20.4254H569.127V10.7647L565.467 17.1432H565.394L561.734 10.8179V20.432H557.435V3.26348V3.25684Z" fill="#BD1421"/>
<path d="M580.673 3.16455H585.144L591.213 20.4328H586.568L585.564 17.3432H580.16L579.175 20.4328H574.63L580.673 3.16455ZM584.452 13.8085L582.855 8.77889L581.258 13.8085H584.452Z" fill="#BD1421"/>
<path d="M592.311 3.25684H596.463L602.186 11.8876V3.25684H606.531V20.4254H602.598L596.656 11.4225V20.4254H592.311V3.25684Z" fill="#BD1421"/>
<path d="M608.893 3.25684H613.312V20.4254H608.893V3.25684Z" fill="#BD1421"/>
<path d="M371.011 29.3486H377.166L381.891 37.9196L386.582 29.3486H392.771V52.6099H386.848V39.5209L381.891 48.1583H381.791L376.833 39.5873V52.6099H371.011V29.3486Z" fill="#BD1421"/>
<path d="M395.631 28.5508H401.654V33.102H395.631V28.5508ZM395.731 34.6302H401.554V52.6027H395.731V34.6302Z" fill="#BD1421"/>
<path d="M404.516 29.3489H410.505V47.2217H419.655V52.6035H404.516V29.3423V29.3489Z" fill="#BD1421"/>
<path d="M421.69 29.3489H427.679V47.2217H436.829V52.6035H421.69V29.3423V29.3489Z" fill="#BD1421"/>
<path d="M438.859 29.3489H454.897V34.5978H444.782V38.4182H453.898V43.3681H444.782V47.3546H455.03V52.6035H438.859V29.3423V29.3489Z" fill="#BD1421"/>
<path d="M462.183 34.7304H456.427V29.3486H473.928V34.7304H468.172V52.6032H462.183V34.7304Z" fill="#BD1421"/>
<path d="M483.577 29.3489H493.226C496.021 29.3489 498.184 30.0133 499.548 31.4086C500.513 32.3388 501.078 33.6012 501.078 35.2622V35.3951C501.078 38.0528 499.548 39.6474 497.618 40.5111C500.113 41.4413 501.877 42.9695 501.877 46.0258V46.1587C501.877 50.1452 498.749 52.6035 493.259 52.6035H483.577V29.3423V29.3489ZM495.156 36.4914C495.156 35.0961 494.158 34.3321 492.361 34.3321H489.4V38.684H492.261C494.091 38.684 495.156 37.9531 495.156 36.5246V36.4914ZM492.893 43.0691H489.4V47.6204H492.927C494.79 47.6204 495.888 46.7899 495.888 45.3614V45.3282C495.888 43.9661 494.856 43.0691 492.893 43.0691Z" fill="#BD1421"/>
<path d="M510.561 29.2158H516.617L524.835 52.61H518.546L517.182 48.4241H509.862L508.531 52.61H502.376L510.561 29.2158ZM515.685 43.6337L513.522 36.8234L511.359 43.6337H515.685Z" fill="#BD1421"/>
<path d="M526.332 29.3486H532.321V38.1854H538.942V29.3486H544.965V52.6099H538.942V43.6403H532.321V52.6099H526.332V29.3486Z" fill="#BD1421"/>
<path d="M552.59 56.0916L555.119 52.6034C550.594 51.4075 547.399 47.2549 547.399 41.2087V40.81C547.399 33.6343 552.091 28.9502 558.213 28.9502C561.873 28.9502 564.368 30.3787 566.265 32.6045L562.405 36.6907C561.407 35.4947 560.143 34.4981 558.313 34.4981C555.584 34.4981 553.555 36.9232 553.555 40.8765V41.0094C553.555 45.162 555.618 47.4542 558.313 47.4542C560.309 47.4542 561.507 46.3912 562.572 45.162L566.365 49.0156C564.634 51.1417 562.339 52.6699 559.011 52.9357L557.381 57.8856L552.59 56.0916Z" fill="#BD1421"/>
<path d="M568.262 29.3489H584.299V34.5978H574.185V38.4182H583.301V43.3681H574.185V47.3546H584.433V52.6035H568.262V29.3423V29.3489Z" fill="#BD1421"/>
<path d="M585.197 49.5134L588.391 45.1615C590.287 46.7228 592.45 47.7859 594.713 47.7859C596.31 47.7859 597.142 47.0883 597.142 46.0916V46.0584C597.142 45.1282 596.443 44.5635 593.714 43.6001C589.323 42.1051 586.228 40.5105 586.228 36.2915V36.1918C586.228 31.9728 589.456 29.0161 594.546 29.0161C597.674 29.0161 600.435 29.8799 602.864 31.8399L599.837 36.2915C598.24 35.0623 596.31 34.1653 594.413 34.1653C593.049 34.1653 592.284 34.8298 592.284 35.6935V35.7267C592.284 36.7566 593.016 37.2881 595.977 38.3844C600.402 39.8129 603.164 41.6068 603.164 45.5601V45.6265C603.164 50.1446 599.67 52.9351 594.679 52.9351C591.219 52.9351 587.925 51.8721 585.197 49.5134Z" fill="#BD1421"/>
<path d="M605.127 28.5508H611.149V33.102H605.127V28.5508ZM605.227 34.6302H611.049V52.6027H605.227V34.6302Z" fill="#BD1421"/>
<path d="M613.312 67.2666H369.38V106.474H613.312V67.2666Z" fill="#4056A0"/>
<path d="M387.101 80.9801H377.671V75.6382H393.662V80.0433L384.905 99.1718H378.403L387.087 80.9867L387.101 80.9801Z" fill="white"/>
<path d="M403.597 75.6382H409.825L414.61 84.3088L419.354 75.6382H425.616V99.1718H419.621V85.9234L414.603 94.6671H414.503L409.486 85.9964V99.1718H403.597V75.6382Z" fill="white"/>
<path d="M435.452 75.499H441.581L449.899 99.1656H443.537L442.16 94.9266H434.753L433.409 99.1656H427.181L435.465 75.499H435.452ZM440.636 90.0896L438.447 83.1996L436.257 90.0896H440.636Z" fill="white"/>
<path d="M454.037 90.3617L446.464 75.6382H453.165L457.105 84.1427L461.078 75.6382H467.679L460.106 90.2952V99.1718H454.044V90.3617H454.037Z" fill="white"/>
<path d="M469.124 75.6382H475.186V99.1718H469.124V75.6382Z" fill="white"/>
<path d="M476.762 96.0426L479.996 91.6375C481.913 93.2188 484.102 94.2952 486.391 94.2952C488.008 94.2952 488.847 93.5909 488.847 92.581V92.5478C488.847 91.6043 488.141 91.0329 485.38 90.0629C480.935 88.548 477.8 86.9334 477.8 82.6679V82.5682C477.8 78.296 481.068 75.3062 486.218 75.3062C489.386 75.3062 492.181 76.1832 494.636 78.1631L491.575 82.6679C489.958 81.4254 488.008 80.5152 486.085 80.5152C484.708 80.5152 483.929 81.1862 483.929 82.0633V82.0965C483.929 83.1396 484.668 83.6778 487.669 84.7874C492.147 86.2358 494.942 88.0497 494.942 92.0495V92.1159C494.942 96.6871 491.409 99.5109 486.358 99.5109C482.858 99.5109 479.524 98.4345 476.762 96.0493V96.0426Z" fill="white"/>
<path d="M504.878 75.6382H513.296C518.852 75.6382 522.486 78.5284 522.486 83.8105V83.9434C522.486 89.5909 518.38 92.2818 513.229 92.3483H510.907V99.1718H504.878V75.6382ZM513.03 87.405C515.152 87.405 516.43 86.1625 516.43 84.1759V84.0763C516.43 81.9236 515.186 80.814 512.996 80.814H510.907V87.405H513.03Z" fill="white"/>
<path d="M529.054 75.499H535.182L543.501 99.1656H537.139L535.761 94.9266H528.355L527.011 99.1656H520.782L529.067 75.499H529.054ZM534.238 90.0896L532.048 83.1996L529.859 90.0896H534.238Z" fill="white"/>
<path d="M544.412 94.6272L554.207 80.9137H544.711V75.6382H562.153V80.1761L552.324 93.8897H562.153V99.1652H544.405V94.6272H544.412Z" fill="white"/>
<path d="M571.315 75.499H577.444L585.762 99.1656H579.401L578.023 94.9266H570.617L569.273 99.1656H563.044L571.329 75.499H571.315ZM576.499 90.0896L574.31 83.1996L572.121 90.0896H576.499Z" fill="white"/>
<path d="M587.273 75.638H596.536C599.703 75.638 602.092 76.4818 603.603 78.0233C604.914 79.3322 605.659 81.1527 605.659 83.5379V83.704C605.659 87.1989 603.942 89.3848 601.447 90.6273L606.298 99.165H599.464L595.458 91.8697H593.302V99.165H587.273V75.6313V75.638ZM596.296 87.066C598.353 87.066 599.564 85.8899 599.564 84.0096V83.9432C599.564 81.9234 598.286 80.9201 596.263 80.9201H593.302V87.0726H596.296V87.066Z" fill="white"/>
<path d="M465.577 112.666H369.38V151.873H465.577V112.666Z" fill="#4056A0"/>
<path d="M381.138 126.745L377.638 127.622L376.793 122.613L382.755 120.898H387.134V144.565H381.138V126.745Z" fill="white"/>
<path d="M392.724 142.684C390.974 140.937 389.896 138.213 389.896 133.542V133.409C389.896 125.343 393.496 120.599 399.898 120.599C402.526 120.599 404.509 121.303 406.532 122.685L404.01 127.223C402.932 126.419 401.688 125.742 400.037 125.742C397.076 125.742 396.065 128.399 395.898 130.718C397.209 129.742 398.627 129.203 400.343 129.203C403.977 129.203 407.344 131.589 407.344 136.499V136.598C407.344 141.807 403.538 145.003 398.893 145.003C396.131 145.003 394.215 144.159 392.731 142.684H392.724ZM401.515 136.97V136.904C401.515 134.99 400.437 133.675 398.653 133.675C396.87 133.675 395.892 134.984 395.892 136.871V136.937C395.892 138.851 396.936 140.199 398.72 140.199C400.503 140.199 401.515 138.891 401.515 136.97Z" fill="white"/>
<path d="M409.46 138.379H415.689V144.565H409.46V138.379Z" fill="white"/>
<path d="M417.272 133.064V132.559C417.272 125.569 420.979 120.593 426.934 120.593C432.89 120.593 436.53 125.503 436.53 132.526V133.031C436.53 140.02 432.823 144.997 426.868 144.997C420.912 144.997 417.272 140.087 417.272 133.064ZM430.434 133.064V132.592C430.434 128.287 428.984 126.001 426.868 126.001C424.752 126.001 423.367 128.22 423.367 132.526V132.997C423.367 137.303 424.785 139.588 426.934 139.588C429.084 139.588 430.434 137.336 430.434 133.064Z" fill="white"/>
<path d="M438.48 133.064V132.559C438.48 125.569 442.187 120.593 448.142 120.593C454.098 120.593 457.738 125.503 457.738 132.526V133.031C457.738 140.02 454.031 144.997 448.076 144.997C442.12 144.997 438.48 140.087 438.48 133.064ZM451.643 133.064V132.592C451.643 128.287 450.192 126.001 448.076 126.001C445.96 126.001 444.575 128.22 444.575 132.526V132.997C444.575 137.303 445.993 139.588 448.142 139.588C450.292 139.588 451.643 137.336 451.643 133.064Z" fill="white"/>
<rect x="334.417" y="0.818359" width="0.925162" height="152.908" fill="#BD1421"/>
</svg>
